<?xml version="1.0" encoding="utf-8"?>
<!-- Generator: Adobe Illustrator 18.1.1, SVG Export Plug-In . SVG Version: 6.00 Build 0)  -->
<svg version="1.1" id="Layer_1" xmlns="http://www.w3.org/2000/svg" xmlns:xlink="http://www.w3.org/1999/xlink" x="0px" y="0px"
	 viewBox="0 56.9 252 29.1" enable-background="new 0 56.9 252 29.1" xml:space="preserve">
<metadata><?xpacket begin="﻿" id="W5M0MpCehiHzreSzNTczkc9d"?>
<x:xmpmeta xmlns:x="adobe:ns:meta/" x:xmptk="Adobe XMP Core 5.6-c014 79.156821, 2014/08/29-03:07:50        ">
   <rdf:RDF xmlns:rdf="http://www.w3.org/1999/02/22-rdf-syntax-ns#">
      <rdf:Description rdf:about=""
            xmlns:dc="http://purl.org/dc/elements/1.1/"
            xmlns:xmp="http://ns.adobe.com/xap/1.0/"
            xmlns:xmpGImg="http://ns.adobe.com/xap/1.0/g/img/"
            xmlns:xmpMM="http://ns.adobe.com/xap/1.0/mm/"
            xmlns:stRef="http://ns.adobe.com/xap/1.0/sType/ResourceRef#"
            xmlns:stEvt="http://ns.adobe.com/xap/1.0/sType/ResourceEvent#"
            xmlns:illustrator="http://ns.adobe.com/illustrator/1.0/"
            xmlns:xmpTPg="http://ns.adobe.com/xap/1.0/t/pg/"
            xmlns:stDim="http://ns.adobe.com/xap/1.0/sType/Dimensions#"
            xmlns:xmpG="http://ns.adobe.com/xap/1.0/g/"
            xmlns:pdf="http://ns.adobe.com/pdf/1.3/">
         <dc:format>image/svg+xml</dc:format>
         <dc:title>
            <rdf:Alt>
               <rdf:li xml:lang="x-default">Print</rdf:li>
            </rdf:Alt>
         </dc:title>
         <xmp:MetadataDate>2015-03-23T01:24:20-05:00</xmp:MetadataDate>
         <xmp:ModifyDate>2015-03-23T01:24:20-05:00</xmp:ModifyDate>
         <xmp:CreateDate>2015-03-23T01:24:20-05:00</xmp:CreateDate>
         <xmp:CreatorTool>Adobe Illustrator CC 2014 (Windows)</xmp:CreatorTool>
         <xmp:Thumbnails>
            <rdf:Alt>
               <rdf:li rdf:parseType="Resource">
                  <xmpGImg:width>256</xmpGImg:width>
                  <xmpGImg:height>32</xmpGImg:height>
                  <xmpGImg:format>JPEG</xmpGImg:format>
                  <xmpGImg:image>/9j/4AAQSkZJRgABAgEASABIAAD/7QAsUGhvdG9zaG9wIDMuMAA4QklNA+0AAAAAABAASAAAAAEA&#xA;AQBIAAAAAQAB/+4ADkFkb2JlAGTAAAAAAf/bAIQABgQEBAUEBgUFBgkGBQYJCwgGBggLDAoKCwoK&#xA;DBAMDAwMDAwQDA4PEA8ODBMTFBQTExwbGxscHx8fHx8fHx8fHwEHBwcNDA0YEBAYGhURFRofHx8f&#xA;Hx8fHx8fHx8fHx8fHx8fHx8fHx8fHx8fHx8fHx8fHx8fHx8fHx8fHx8fHx8f/8AAEQgAIAEAAwER&#xA;AAIRAQMRAf/EAaIAAAAHAQEBAQEAAAAAAAAAAAQFAwIGAQAHCAkKCwEAAgIDAQEBAQEAAAAAAAAA&#xA;AQACAwQFBgcICQoLEAACAQMDAgQCBgcDBAIGAnMBAgMRBAAFIRIxQVEGE2EicYEUMpGhBxWxQiPB&#xA;UtHhMxZi8CRygvElQzRTkqKyY3PCNUQnk6OzNhdUZHTD0uIIJoMJChgZhJRFRqS0VtNVKBry4/PE&#xA;1OT0ZXWFlaW1xdXl9WZ2hpamtsbW5vY3R1dnd4eXp7fH1+f3OEhYaHiImKi4yNjo+Ck5SVlpeYmZ&#xA;qbnJ2en5KjpKWmp6ipqqusra6voRAAICAQIDBQUEBQYECAMDbQEAAhEDBCESMUEFURNhIgZxgZEy&#xA;obHwFMHR4SNCFVJicvEzJDRDghaSUyWiY7LCB3PSNeJEgxdUkwgJChgZJjZFGidkdFU38qOzwygp&#xA;0+PzhJSktMTU5PRldYWVpbXF1eX1RlZmdoaWprbG1ub2R1dnd4eXp7fH1+f3OEhYaHiImKi4yNjo&#xA;+DlJWWl5iZmpucnZ6fkqOkpaanqKmqq6ytrq+v/aAAwDAQACEQMRAD8A9U4q7FXYq7FXYq7FXYq7&#xA;FXYq7FVO5ura2iM1zKkES/akkYIo+ZagwSkALJplCEpGoiyh4Na0e4QvBfW8yKpdmjlRgFXZmJB6&#xA;Cm+QjlgeRHzbJafJHnGQ+BSPX/zE8u6TFBSdLie5HKGMEhQlf7yRgrFU22IUk9gcxs2uxwA3slzt&#xA;L2Tmyk7UBz/UPP4iurBbz82/NF8zW2jW0crSxBiYYJWmhY/apVnV+P8AMUHyzWz7TyS2gOnduPx7&#xA;neY+wsEPVlJFHqRR+zb5sm84+XPPF+0VzpGptDG0EMc1mJmjXnUiRyaAFeJ37n8MzNVgzS3hKtht&#xA;brOz9XpcdxyQs2d6v3MJM/nLT7mWaN9OmCKkL3Vu9tEsShm4/HC0HAkyb+NN+ma7izRN+n3iv0U7&#xA;vh02SIB4x1o8Rv58V8vg9B/LbzNqWt2E7anKrXKEGJaorGPpy9JQCvbqx+jNpoNRLJE8XP8AHR5/&#xA;tjRwwzHAPT8efv8A7GY5sHTuxV2KuxV2KuxV2KuxV2KuxV2KuxV2KuxV2KuxV2KuxV2KuxV2KuxV&#xA;C6rqUGmadcX9wrtBbIZJBGOTcR1oNshkyCETI8g24MJyTEBzLCz+cWgtJIsUZjEdBxui8UjE/wAo&#xA;SOZKD/Kdflmu/lWHT7f7C7n/AEP5QBZv3UR9pB+QKbR/mJ5fm4JBKs09azRxtz4xCnKWqBgQK9DR&#xA;vbLxrsZ5HdxT2TmG5FD9Pd+Nnm3mwPqetpqVt5jH1Sa4f6s9xIYfqy0YgogYy8dqBljANRvmo1Pr&#xA;nxCe19en6fsej0NYsXBLF6hHehfF7zVX5WlVzpPl/wDRRuH80evdRFvTsZLeZkMo3bi4ZxRuzEb9&#xA;6ZRLFj4b8Sz3UXKhnzeJQw1E/wAXEOXuofjkpXeteVONpBHpc139SCKb2a4Mbz8dyrRUmRI+wUHp&#xA;3wSzYtgIk11vn8N9mePT6j1EzEeLoI3Xx2JPmyGT812+qiLTdNGnsfhW3tWjRC2+7UTmw6UC8f8A&#xA;WOZR7S2qMeH3fj9Trx2H6rnPj8zf66+d+5Jb3zdq2radLBqt8YVhnadowW9aWRk9MRINxGqKKb7b&#xA;nqeuPPVSnGpHr8f2Obj0GPFMHHG7FeQ62e8n8UEJp+nwXlpfajqz6hJbWiKFeOJmUy/Z9N5m5qlK&#xA;qKkd+mVwgJAynxUPxzbcuUwlGGPguXn07wOrJNL8z+TfL+k3N5oMEkusSSfu3uxEskKOoqikVDKp&#xA;Xsu9czMeow4oEwHr862dbm0Wp1GQRykDGB/DdH8e9OLD85/VeNLuKOBmYh6xyenxANKOrSPUsAP7&#xA;r+mZEO1r57fj8dHEy+z1A8JJ+Iv5UB/smfeXvM+ka/ZrcWE6O4AM1vyHqRnwZevXoehzZ4NRDKLi&#xA;XQ6vRZMEqmPcehTXL3EdirsVdirsVdirsVdirsVdirsVdirsVdirsVdirsVdirsVdirHPPHmGXSN&#xA;DuJ7ErLfxFCIA68wCwqxQhiwp1FOmYmsznHAmP1Ox7N0gy5QJbQPV5TearJIA+reWGie4lWaWaKF&#xA;IUKvQuEEkDMOS039Trvmknkv68fPyr9H6XqseAD+7zXQqib+dS/QhZLnyXPZ3Lw6XcpOFWO0UXCR&#xA;rwdmJkcuJPiVqg0HGlNl3ysywkGom+m7aIamMgDONdfST8On6/ep2Hl2/wDqsU8nlq8ulPxmcOyo&#xA;yUNKUjPcjck9MEMEqvgkfx7mWXVw4iBljHy/BZF5NsIdS0S+stT0KKS3slrZvElLqWcNy9NpFYO1&#xA;K0agFOh3zL0kBOBEoChy77dd2hlOPLGUMhuXO/pA765e5Kwms2iw6deeWrL1IkUSP6Kx3DrxXcyS&#xA;80J+Iciq/PKKnGomEflv9rlXjnc45Z7+dx+Q3+1GeWvNdpoc8DJ5cKxNyRboUe4EbfGxSYIvqcRU&#xA;nbp3plmn1Ixkej49fn1adZoZZwf3u/d0vzF7MfjudBtL+4fTxeyyFx9TZ0h9YSI4flU8yhqB0Wvv&#xA;2zFEoRkeHi8uVuwMMs4AT4B37mqr7WYQeetYsNEvIE8ur+io5DbKt2y/C7KXdJVCRiTkN+lfEsTm&#xA;fHWTjAjg9PLf9Pe6iXZmPJlifF/eEX6fltuar8Uw278x2t7I017pVswZaOII1gId67o8XGhA3HNX&#xA;3G4Oa+WcS3lEfDb7v027jHpJQFRnL4m/sP6K8k00OTWYrS7XRvL8l9o98QRHcx/W3ThVWaORERQz&#xA;VI+wenemX4TMA8ELhLv3cXUjGZR8TKI5I9x4fmLP3ozQvON95UvSk3l02y3PwmORXjuGiQUQKzqK&#xA;8f2tt/bLMOqlgO8Kv5tOq7Pjqo2Mt17iL6/s7ntVpcC5tYbgKUEyK4Ruo5CtDTuM6GMrALxk4cMi&#xA;O5VyTB2KuxV2KuxV2KuxVAa7rEOj6XNfyqZBHxVIgQpd5GCItT0qzDftlWbKMcTIuRpdOc0xAfit&#xA;2Mah551azv7a2+q210XBeSOyke4Zh6UriNGpH8fKH+U9cw56ycZAUD7t+h/U7LF2bjnAyuUf6w4e&#xA;sRZ57bpBP+dV5FMvq6O1rGXCskhZm4AkOQSI/iBFONPpzFl2sQd407CPs7EjafF+PiyPy7+Z2ka5&#xA;qFvYQQSw3EwckykBPg7IRUsT7gZl4O0YZJCIFF1ur7GyYIGZIIHd+n8FmWbB06l60n/LPJ98f/NW&#xA;Rs9zPhHePt/U71pP+WeT74/+asbPcvCO8fb+p3rSf8s8n3x/81Y2e5eEd4+39TvWk/5Z5Pvj/wCa&#xA;sbPcvCO8fb+p3rSf8s8n3x/81Y2e5eEd4+39TvWk/wCWeT74/wDmrGz3LwjvH2/qSDzja+aL7To4&#xA;9Blks7pZQ0vxRpzjoQRzq5BzG1Ucso/u9i53Z88EJk5QJRrz5sAg8mfmqiQlZIUeKRpgXaBn9VlZ&#xA;C7NxYuSrn7ROasaTVbcvsd/LtHQG9juK68tj8OSaeX9C/MnSdTF1NAl3CiN/o6ywJGzOprwXj+7+&#xA;Iry40rTeuXYMOohKyL+I/AcbVanRZYcIJie+jfx7/jaFn/LvzQLyMaW81tbyWgiunu5YJ/3m5ZFA&#xA;OyVO1BkJaHLfpsCt7otse1sHCeOpESscII27/eqW/k/zymlalbSWtsJrk2qoIVt44pBbSmQtIiFF&#xA;Jao6rv0OGOlzcMhQ3ru6FjPX6U5ISBlUeLnxEjiFbH8eSFl8i/mM9vI6x6dFLK6zkQpFFMrqFFEd&#xA;EXhsm/FqdfHIHR6iv4fsv7myPaejBAuZA23sj5E7/JdqPkr8ytSvhqcsq2t+Io4g9vKIzRV3FUYc&#xA;d99tuuOTSaicuI7S8ijF2josceADijZO4tU0/wAq/mxbQXrjUHS6IT0y0kc7zdQf3srFo6CnTrt4&#xA;ZKGm1QB33+d/E8mOXXaCRiOH0+4ivgOaDj/K/wA++rVrq24vL6zyOQ8pY1HJqoeRox25UysdnZ75&#xA;huPbWkrlLlXl9/6FYfln54vrb6lf6k0eno3NLclXUMB1WJXCBak03+gZL+T80hUpen8dGH8saWEu&#xA;KEPX3/tq1ST8p/MlrZyRWOrSyRoHeG0ZVSNnZCpFPWZV5AlSadMJ7MyRFRl8PwWI7dwykDOAvv8A&#xA;j/VXWnk38ybLy/BDb3TLdRTho4FlVWiiAIKxzFyvFjQlePb6MMdJqI4wAd77+XxXJ2hop5iSPSRz&#xA;rmfMV071GH8t/wAwrhg93qnosxLM6SFpSXBDcmBTkSDT7R22yI0GoPOTKXa+jjtGF/Db9P3Mi8ge&#xA;RNT8uTvdXdzLO7o8YtIyvojkwPL4n3Pw/wAuZei0csRsm/Lo6/tTtOGoHDEAefX7mcetJ/yzyffH&#xA;/wA1ZsbPc6ThHePt/U71pP8Alnk++P8A5qxs9y8I7x9v6netJ/yzyffH/wA1Y2e5eEd4+39TvWk/&#xA;5Z5Pvj/5qxs9y8I7x9v6netJ/wAs8n3x/wDNWNnuXhHePt/U71pP+WeT74/+asbPcvCO8fb+p3rS&#xA;f8s8n3x/81Y2e5eEd4+39TAfPnkfXfMN+LtLiQ2kXprHpw4L8IYeowYyceVCSKj2zWa3Rzyyu9u7&#xA;8F33ZnaWLTw4SBxG/Vv8OnJKNP8Aym1uLTgi3r2d0ZhMrIqlkorJTmsq7kN2zHh2ZMR50b/HVy8v&#xA;buIz+nijVe/7Ft1+WvnOIMItVu7sTKxakoipKOIQvymbkvjTfbGXZ+YcpE/j3ph2xpjzhGNeV7da&#xA;9Ka+XPy88x6Nq8N+NWklRWH1iMopMkYI5JyaVqVoMuwaHJjmJcX4+bi6vtbDmxmHAB3b8j38noXr&#xA;Sf8ALPJ98f8AzVm1s9zz/CO8fb+p/9k=</xmpGImg:image>
               </rdf:li>
            </rdf:Alt>
         </xmp:Thumbnails>
         <xmpMM:InstanceID>xmp.iid:ba9e0759-f720-3347-9dad-f92958752a77</xmpMM:InstanceID>
         <xmpMM:DocumentID>xmp.did:ba9e0759-f720-3347-9dad-f92958752a77</xmpMM:DocumentID>
         <xmpMM:OriginalDocumentID>uuid:5D20892493BFDB11914A8590D31508C8</xmpMM:OriginalDocumentID>
         <xmpMM:RenditionClass>proof:pdf</xmpMM:RenditionClass>
         <xmpMM:DerivedFrom rdf:parseType="Resource">
            <stRef:instanceID>xmp.iid:11d0956d-db23-e24c-9d14-4af79c51a464</stRef:instanceID>
            <stRef:documentID>xmp.did:11d0956d-db23-e24c-9d14-4af79c51a464</stRef:documentID>
            <stRef:originalDocumentID>uuid:5D20892493BFDB11914A8590D31508C8</stRef:originalDocumentID>
            <stRef:renditionClass>proof:pdf</stRef:renditionClass>
         </xmpMM:DerivedFrom>
         <xmpMM:History>
            <rdf:Seq>
               <rdf:li rdf:parseType="Resource">
                  <stEvt:action>saved</stEvt:action>
                  <stEvt:instanceID>xmp.iid:819f12b9-29f1-3c43-861d-4d4d3da6bdab</stEvt:instanceID>
                  <stEvt:when>2015-03-10T00:30:21-05:00</stEvt:when>
                  <stEvt:softwareAgent>Adobe Illustrator CC 2014 (Windows)</stEvt:softwareAgent>
                  <stEvt:changed>/</stEvt:changed>
               </rdf:li>
               <rdf:li rdf:parseType="Resource">
                  <stEvt:action>saved</stEvt:action>
                  <stEvt:instanceID>xmp.iid:ba9e0759-f720-3347-9dad-f92958752a77</stEvt:instanceID>
                  <stEvt:when>2015-03-23T01:24:20-05:00</stEvt:when>
                  <stEvt:softwareAgent>Adobe Illustrator CC 2014 (Windows)</stEvt:softwareAgent>
                  <stEvt:changed>/</stEvt:changed>
               </rdf:li>
            </rdf:Seq>
         </xmpMM:History>
         <illustrator:StartupProfile>Print</illustrator:StartupProfile>
         <xmpTPg:HasVisibleOverprint>False</xmpTPg:HasVisibleOverprint>
         <xmpTPg:HasVisibleTransparency>False</xmpTPg:HasVisibleTransparency>
         <xmpTPg:NPages>1</xmpTPg:NPages>
         <xmpTPg:MaxPageSize rdf:parseType="Resource">
            <stDim:w>3.500000</stDim:w>
            <stDim:h>0.404069</stDim:h>
            <stDim:unit>Inches</stDim:unit>
         </xmpTPg:MaxPageSize>
         <xmpTPg:PlateNames>
            <rdf:Seq>
               <rdf:li>Cyan</rdf:li>
               <rdf:li>Magenta</rdf:li>
               <rdf:li>Yellow</rdf:li>
               <rdf:li>Black</rdf:li>
            </rdf:Seq>
         </xmpTPg:PlateNames>
         <xmpTPg:SwatchGroups>
            <rdf:Seq>
               <rdf:li rdf:parseType="Resource">
                  <xmpG:groupName>Default Swatch Group</xmpG:groupName>
                  <xmpG:groupType>0</xmpG:groupType>
               </rdf:li>
            </rdf:Seq>
         </xmpTPg:SwatchGroups>
         <pdf:Producer>Adobe PDF library 10.01</pdf:Producer>
      </rdf:Description>
   </rdf:RDF>
</x:xmpmeta>
                                                                                                    
                                                                                                    
                                                                                                    
                                                                                                    
                                                                                                    
                                                                                                    
                                                                                                    
                                                                                                    
                                                                                                    
                                                                                                    
                                                                                                    
                                                                                                    
                                                                                                    
                                                                                                    
                                                                                                    
                                                                                                    
                                                                                                    
                                                                                                    
                                                                                                    
                                                                                                    
                           
<?xpacket end="w"?>
	</metadata>
<path fill="#E45226" d="M235.6,86c0.4-0.4,0.6-0.8,0.6-1.4v0c0-1-0.9-1.9-1.9-1.9c-1,0-1.9,0.8-1.9,1.9v0c0,0.6,0.2,1.1,0.6,1.4
	h-11.4c0.4-0.4,0.6-0.8,0.6-1.4v0c0-1-0.9-1.9-1.9-1.9c-1,0-1.9,0.8-1.9,1.9v0c0,0.6,0.2,1.1,0.6,1.4H142c0.2-0.3,0.2-0.7,0.1-1.1
	c-0.2-0.6-0.8-1-1.4-0.9c-0.2,0-0.5,0.1-0.7,0.2c-0.2-0.6,0-0.9,0.6-0.8c1.1,0.3,1.7,0.6,1.9,2c2.3-0.3,4.6-0.6,6.7-0.8
	c0.2-0.4,0.3-0.8,0.5-1.1c0,0.2-0.1,0.4-0.1,0.6c0,0.6,0.4,1.2,1,1.3c0.6,0.1,1.3-0.3,1.5-0.9c0-0.3,0-0.6,0-0.9
	c0.1,0.2,0.2,0.4,0.3,0.6c0.7-0.2,1.4-0.3,2-0.6c0.7-0.2,0.8-0.8,0.3-1.4c-0.2-0.3-0.3-0.6-0.5-1c-0.1-0.1-0.3-0.4-0.4-0.4
	c-1.1,0.2-2-0.1-3-0.5c-1.1-0.4-2.3-0.6-3.3-0.5c0.1-0.1,0.2-0.3,0.2-0.5c0-0.6-0.4-1.2-1.1-1.2c-0.6,0-1.2,0.4-1.2,1
	c0,0.4,0.1,0.7,0.4,1c-1.3,0.3-2.5,0.9-3.7,1.7c-0.4,0.2-0.6,0.2-0.9,0.1c-0.8-0.3-1.7-0.6-2.5-0.9c-0.2-0.1-0.5,0-0.7,0
	c0,0.1,0,0.1,0,0.2c0.8,0.4,1.7,0.7,2.5,1.1c0,0,0,0.1,0,0.1c-0.5,0-1-0.1-1.6-0.1c-0.1,0.5-0.2,0.9-0.4,1.4c-0.3-0.1-0.6-0.1-1-0.2
	c0-1.8-0.3-1.6-1.3-1.9c-0.4-0.1-0.8-0.4-1.2-0.7c-0.1-0.1-0.3-0.2-0.4-0.3c0.3,0,0.6-0.2,0.8-0.5c0.2-0.4,0.5-0.6,0.8-0.8
	c0-0.4,0-0.7,0.1-1c0,0,0-0.1,0-0.1c0.2,0.1,0.1,0.3,0.2,0.4c0,0.4,0.6,0.8,1,0.9c0.5,0,1-0.3,1.2-0.7c0.1-0.5,0.1-0.9-0.2-1.3
	c-0.3-0.3-0.7-0.4-1.2-0.3c-0.1,0-0.3-0.1-0.3-0.1c0-0.2,0.3-0.5,0.6-0.4c0.9,0.4,1.8,1,1.4,2.1c2,0.2,4.1,0.4,6.1,0.6
	c0.6-1.2,1-1.6,1.6-1.4c0.3,0.1,0.7,0.3,0.9,0.6c0.2,0.3,0.2,0.7,0.3,1c0.1,0,0.2-0.1,0.3-0.1c0.5,0,1,0,1.5-0.1
	c0.7-0.1,1-0.6,0.5-1.2c-0.2-0.2-0.3-0.4-0.2-0.7c0.1-0.3,0-0.5-0.4-0.5c-0.4,0-0.9-0.1-1.3-0.1c-0.1,0-0.3-0.1-0.4-0.2
	c-0.3-0.2-0.6-0.5-1-0.7c-1.3-0.8-2.8-1-4.3-1c-1.4,0-2.7,0.3-3.9,1c-0.4-0.3-0.8-0.6-1.2-0.8c0.1-0.2,0.1-0.5,0-0.9
	c-0.1-0.2-0.1-0.5,0-0.7c0.1-0.4,0-0.5-0.4-0.6c-0.8-0.1-1.5-0.4-1.9-1.1c0-0.1-0.1-0.1-0.2-0.2c1.8,0.5,3.6,1,5.4,1.6
	c0-0.2,0-0.5,0.1-0.8c-1.8-0.5-3.7-1.1-5.5-1.6c-0.1,0.2-0.2,0.4-0.3,0.6c-0.1,0-0.1-0.1-0.2-0.1c0.1-0.2,0.2-0.4,0.3-0.6
	c0.1-0.7-0.3-1.4-1.1-1.6c-0.1,0-0.1,0-0.2-0.1c0.7-0.3,1.4,0.4,1.6,1.6c0.9,0.3,1.8,0.5,2.8,0.8c0.9,0.3,1.8,0.5,2.6,0.8
	c0.2,0,0.3,0,0.4-0.1c0.4-0.6,1.1-0.8,1.8-0.6c0.7,0.2,1.1,0.7,1.2,1.5c0,0.2,0.1,0.3,0.3,0.3c0.4,0.1,0.7,0.2,1.1,0.3
	c0.2,0,0.3,0,0.4-0.1c0.2-0.3,0.4-0.5,0.6-0.8c0.2-0.4,0.1-0.6-0.2-0.7c-0.6-0.3-1.2-0.5-1.8-0.7c-0.3-0.1-0.5-0.2-0.7-0.5
	c-0.5-0.6-1-1.2-1.5-1.8c-0.1-0.1-0.3-0.3-0.5-0.3c-0.8-0.3-1.7-0.5-2.5-0.7c-0.7-0.2-1.4-0.3-2.1-0.2c-0.9,0.1-1.8,0.3-2.8,0.4
	c-0.1-0.2-0.4-0.5-0.4-0.8c0,0-0.2-0.1-0.4-0.1c0-0.2,0-0.4-0.3-0.3c-0.1,0-0.1,0-0.2-0.1c-0.2-0.1-0.4,0-0.3,0.2c0.2,0,0.4,0,0.6,0
	c0,0.2-0.1,0.4,0.2,0.4c0.1,0,0.3,0.2,0.4,0.3c0.1,0.1,0.1,0.2,0.2,0.3c-0.3-0.1-0.6-0.1-0.8,0.3c-0.3-0.4-0.3-0.4-0.8,0
	c0-0.1,0-0.2-0.1-0.3c-0.1,0.2-0.2,0.3-0.3,0.5c0,0-0.1,0-0.2-0.1c0,0.3,0,0.6,0,1c0.4,0,0.9,0.1,1.2-0.3c-0.2,0.3-0.4,0.6-0.5,1
	c0,0-0.1,0-0.1,0c0,0,0-0.1,0-0.1c-0.1-0.2-0.4-0.3-0.6-0.4c-0.1,0.1-0.2,0.2-0.3,0.3c-1.2-0.2-2.5-0.2-3.8,0.1
	c-0.2,0-0.5,0-0.6-0.1c-0.5-0.4-0.9-0.8-1.3-1.2c-0.4-0.4-0.8-0.5-1.1-0.3c0.6,0.6,1.2,1.2,1.7,1.7c0,0,0,0,0,0.1
	c-0.4-0.2-0.7-0.4-1.2-0.6c-0.3,0.3-0.5,0.6-0.8,0.9c-0.2-0.1-0.5-0.3-1-0.5c0,0.3,0.1,0.5,0.1,0.7L122,71c0.5-0.2,0.8-0.6,0.7-1.1
	c-0.2,0.1-0.4,0.1-0.6,0.2l-0.2,0c0.6-0.6,0.7-1.1,0.5-1.7c1.4-0.3,2.7-0.5,4.1-0.7c-0.1-0.6-0.3-1.4,0.7-1.7
	c-0.6,0.8-0.7,1.5-0.2,2c0.4,0.4,1.1,0.5,1.6,0.2c0.6-0.4,0.7-1.1,0.2-2.1c0.3,0.1,0.5,0.2,0.6,0.3c0.6,0.3,1.7-0.1,1.8-0.8
	c0.1-0.7-0.5-1.3-1.3-1.3c-0.5,0-1,0-1.4,0.1c-1.2,0-2.4,0-3.6-0.3c-2.6-0.7-5.1-0.4-7.5,0.9c-0.4,0.2-0.7,0.6-1.1,0.9
	c-0.5-0.5-0.9-0.8-1.2-0.7c-0.3,0.1-0.2,0.6,0.1,1.3c-0.1,0-0.2,0-0.3,0c-0.1,0-0.2,0-0.3,0c0,0.2,0,0.5-0.1,0.7
	c-0.1,0.4-0.3,0.6-0.6,0.8c0.2,0.2,0.3,0.5,0.3,0.9c0,0.2-0.1,0.4-0.2,0.6c0.7,0,1.5-0.1,2.3-0.1c0-0.1,0-0.2,0.1-0.4
	c0.1,0.2,0.2,0.2,0.2,0c0-0.1,0-0.3-0.1-0.5c0.1-0.1,0.1-0.3,0.2-0.4c0.1-0.1,0.2-0.2,0.2-0.3c0.2-0.2,0.4-0.3,0.6-0.3
	c0.1,0,0.3,0,0.4,0l0,0c0.1,0,0.3,0.1,0.4,0.1c-0.1-0.1-0.3-0.1-0.4-0.1c0.4,0.5,0.8,0.8,0.9,0.9c-0.1,0.1-0.2,0.2-0.3,0.3
	c0,0,0-0.1,0-0.1c-0.1-0.5-0.5-0.7-1-0.6s-0.7,0.5-0.6,1c0.1,0.3,0.3,0.5,0.6,0.6c-0.4,0.1-0.7,0.3-1.1,0.5
	c-1.1,0.6-2.1,1.3-3.1,1.9c-0.1-0.3-0.3-0.5-0.5-0.6c0,0,0.1,0,0.1-0.1c0.4-0.1,0.7-0.3,1.1-0.5c0.1,0,0.2-0.1,0.1-0.3
	c-0.3-0.8-0.6-1.6-0.9-2.4c-0.1-0.3-0.3-0.6-0.5-0.8c-0.2-0.2-0.5-0.3-0.7-0.3c-0.2,0-0.4-0.1-0.5-0.2c-0.3-0.2-1,0-1.3-0.2
	c-0.2-0.2-0.4-0.3-0.7-0.2c-0.8,0.2-1.1-0.1-1.8,0.2c-0.8,0.3-1.6,0.7-2.3,1.1c-0.1,0-0.2,0.1-0.2,0.2c-0.3,0.2-0.4,0.4-0.4,0.8
	c0,0.4-0.1,0.8-0.1,1.2c0,0.1-0.1,0.1-0.1,0.2c-0.2-0.3-0.3-0.6-0.5-0.9c-0.1-0.2-0.2-0.3,0.1-0.5c-0.2-0.1-0.4-0.2-0.5-0.2
	c-0.3,0-0.6-0.1-1-0.1c-1.5,0-3,0-4.6,0c-0.6,0-1.1,0.2-1.5,0.5c-0.3,0.2-0.5,0.5-0.8,0.7c-0.3,0.2-0.6,0.4-0.8,0.5
	c-0.1,0.1-0.2,0-0.3-0.1c-0.4-0.4-0.8-0.8-1.2-1.2c0,0,0,0-0.1,0c0.1,0.1,0.3,0.1,0.4,0.2c0.6,0.1,1.2-0.2,1.4-0.8
	c0.2-0.5,0.5-0.9,0.8-1.4c0,0-0.1-0.1-0.1-0.2c0.4-0.1,0.8-0.3,1.2-0.4s0.8,0,1.2,0c0.3,0.4,0.1,1.2,1,1v0c0,0,0,0,0,0
	c0.1,0,0.2,0.1,0.3,0.1c0.5,0.4,1.1,0.5,1.7,0.2c0.6-0.3,0.8-0.8,0.7-1.5c0-0.1,0-0.2,0-0.3c1.9-0.7,4.1-0.5,5.9-1.8
	c0.8,0.7,1.2,0.7,2.2-0.1c0.3-0.2,0.4-0.2,0.5,0c0.1-0.4,0-0.6-0.4-0.7s-0.2-0.7,0.1-0.8c0.5-0.1,0.6-0.4,0.6-0.8c0-0.1,0-0.1,0-0.2
	c-0.3,0-0.6,0-1-0.1V61c0.2-0.1,0.4-0.2,0.8-0.3c-0.5-0.2-0.8-0.4-1.3-0.6c0.3-0.2,0.6-0.6,0.9-0.7c0.5-0.2,0.5-0.5,0.3-0.8
	c-0.3,0.2-0.6,0.4-1,0.5c-0.8,0.2-1.3,0.6-1.7,1.4c-1.8-1.2-3.5-0.1-5.2,0.3c-0.4,0.1-0.8,0.3-1.2,0.4c-1,0.3-1.8,0.8-2.4,1.6
	c-0.3,0.3-0.6,0.6-1,0.9c-1,0.6-1.3,0.4-1,2.2c-0.3,0.1-0.7,0.3-1,0.4c-0.2-0.5-0.4-0.9-0.6-1.3c-0.6,0.1-1,0.3-1.5,0.4
	c0,0,0,0,0-0.1c0.8-0.5,1.5-1.1,2.3-1.6c0-0.1,0-0.1-0.1-0.2c-0.2,0-0.5,0-0.7,0.1c-0.8,0.4-1.5,0.9-2.3,1.3
	c-0.3,0.2-0.5,0.2-0.9,0.1c-3-1.3-6-1.5-8.9,0.2c-0.9,0.5-1.8,1.1-2.9,1c-0.1,0-0.3,0.3-0.4,0.4c-0.1,0.3-0.1,0.7-0.3,1
	c-0.4,0.7-0.2,1.2,0.6,1.3c0.7,0.1,1.4,0.1,2.1,0.2c0-0.2,0.1-0.4,0.2-0.6c0,0.3,0.1,0.6,0.2,0.9c0.1,0.2,0.2,0.3,0.4,0.5
	c-1.1,0.2-2.1,0.7-3,1.4c-1,0.7-2,1.4-3,2.2v-0.2h-0.2c0-0.2,0-0.3,0-0.5c0,0,0,0-0.1,0c0,0.1-0.1,0.2-0.1,0.3
	c-0.4-0.7-0.4-0.7-0.8-0.5c0-0.1,0-0.2-0.1-0.3c0-0.1-0.1-0.2-0.2-0.2c-0.5-0.1-0.8-0.4-1.1-0.6l0,0l0,0l0,0l0,0
	c-0.5-0.4-1-0.7-1.5-1c-0.7-0.4-1.3-0.8-2.2-0.9c-1-0.1-2-0.3-2.9-0.5c-0.4-0.1-0.8,0-1.1,0.2c-0.6,0.3-1.2,0.5-1.7,0.8
	c-0.5,0.3-0.9,0.3-1.4,0.2c-0.6-0.1-1.3,0-1.9,0c-0.3,0-0.5,0.2-0.4,0.5c0,0.4,0.1,0.8,0.2,1.2c0,0.1,0.1,0.1,0.2,0.2
	c0.4,0.1,0.8,0.1,1.2,0.2c0.2,0,0.4,0,0.5-0.2c0.4-0.6,0.9-0.9,1.7-0.8c0.8,0.1,1.3,0.5,1.5,1.2c0,0.1,0.1,0.2,0.1,0.4
	c1.9,0.3,3.7,0.6,5.6,0.8c0.4,0,0.6,0,0.8-0.3c0.4-0.6,1.5-1,2-0.4c-0.1,0-0.1,0-0.2,0c-0.8-0.2-1.6,0.3-1.8,1
	c-0.2,0.8,0.2,1.6,0.9,1.9c0.7,0.2,1.2,0,1.5-0.7c0.2-0.6,0.3-1.3,0-1.9c0.1,0.1,0.2,0.2,0.2,0.3c0,0.3,0.3,0.4,0.6,0.6
	c0.1,0,0.2,0.1,0.3,0.1c0.1,0.1,0.1,0.2,0.2,0.2c-0.2-0.3-0.5-0.1-0.7-0.1c-0.5,0-0.2,0.6-0.4,0.8c0.4-0.1,0.4-0.1,0.6,0.1H77
	c-0.1-0.1-0.1-0.4-0.2-0.6l0.1,0c0,0.1,0.1,0.2,0.1,0.2c0.3-0.1,0.7-0.1,1-0.2c0.1-0.6,0.1-1.3,0.9-1.4c0.9-0.2,1.6,0.2,2.1,1.1
	c1.6-0.3,3.2-0.5,4.8-0.8c0.2-0.9,0.6-1.5,1.4-1.6c0.9-0.2,1.6,0.3,2,1.1c0.4-0.1,0.7-0.1,1.1-0.2c-0.1-0.2-0.2-0.4-0.3-0.5
	c0.2-0.3,0.4-0.5,0.6-0.8c0,0,0-0.1-0.1-0.1c-0.2,0-0.5,0-0.7,0.1c-0.2,0.1-0.4,0-0.5-0.2c-0.3-0.8-1-1.2-1.8-1.5
	c-0.2-0.1-0.5-0.2-0.7-0.2c-0.3,0-0.6-0.1-0.9,0c-0.3,0-0.6,0.1-0.9,0.1c0.2-0.3,0.3-0.7,0.2-1.1c0-0.2-0.1-0.4-0.2-0.6
	c0.2,0.3,0.4,0.6,0.6,1c2.1-0.1,4.2-0.2,6.4-0.4c0.1,0,0.3,0.1,0.4,0.2c0.4,0.5,0.9,0.9,1.3,1.4c0.1,0.1,0.3,0.3,0.4,0.5
	c-0.1,0-0.1,0-0.2,0c-0.5,0.1-1,0.1-1.4,0.2c-0.5,0.1-0.9,0.1-1.3,0c-0.1,0.1-0.2,0.1-0.3,0.2c0,0-0.1,0.1-0.1,0.2
	c0.1,0,0.2,0,0.3,0c-0.1,0.1-0.3,0.2-0.3,0.4c-0.1,0.4-0.3,0.8-0.3,1.3c-0.1,0.5,0.2,0.7,0.6,0.8c0.3,0,0.5,0.1,0.8,0.1
	c0,0,0,0.1,0,0.1c0.1,0.6,0.7,1.1,1.3,1.1c0.7,0,1.2-0.4,1.4-1c0-0.2,0.1-0.2,0.3-0.2c2.2,0,4.3,0,6.4,0c0.1,0,0.2,0,0.3,0
	c0,0.1,0,0.1,0,0.1c0.2,0.7,0.7,1.1,1.4,1.1s1.2-0.4,1.3-1.1c0-0.1,0.1-0.2,0.2-0.2c0.4,0,0.5-0.2,0.4-0.6c0-0.1,0-0.3-0.1-0.4
	c-0.1-0.3-0.1-0.6,0-1c0,0,0-0.1,0-0.2c0,0.1,0.1,0.3,0.1,0.4c0,0.1,0.1,0.3,0.1,0.4c0,0.2,0,0.4,0.1,0.6c0.1,0.2,0.2,0.5,0.3,0.7
	c0.1,0.2,0.2,0.3,0.5,0.2c0.4-0.1,0.7-0.2,1.1-0.3c0.3-0.1,0.3-0.2,0.2-0.4c-0.1-0.2,0-0.3,0.2-0.4c0.4-0.1,0.8-0.2,1.2-0.4
	c0.8-0.3,1.7-0.7,2.5-1c-0.2,0.2-0.3,0.6-0.4,1c-0.1,0-0.3,0.1-0.3,0.1c0,0.4,0,0.8,0,1.3c-0.1,0.1-0.3,0.2-0.5,0.5
	c-0.1,0.1-0.1,0.4-0.1,0.5c0.2,0.3,0.4,0.6,0.7,0.9c0.2,0.2,0.5,0.3,0.7,0.3c1,0,1.9-0.1,2.9-0.2c0,0,0.1,0,0.1,0
	c-0.7,0.4-1.3,0.8-2,1.2c-0.5,0.3-0.9,0.6-1.4,0.8c-0.4,0.1-0.7,0.4-1.1,0.6c-0.1,0-0.1,0.1-0.2,0.2c0-0.2,0-0.4-0.1-0.5
	c-0.2-0.3-0.3-0.6-0.5-1c-0.2-0.1-0.5-0.1-0.8-0.3c-0.8-0.3-1.6-0.7-2.3-1.1c-2.4-1-4.8-1-7.3-0.1c-0.1,0-0.2,0.1-0.3,0
	c-0.8-0.1-1.6-0.1-2.4,0c-0.3,0.1-0.7-0.2-0.6-0.4c0.2-0.5,0.1-0.8-0.3-1.1c-0.1,0-0.1-0.2-0.2-0.3c0,0.2-0.1,0.3-0.1,0.4
	c0,0.4-0.4,0.7-0.3,1.2l0,0c-0.1,0.2-0.3,0.4-0.3,0.6c0,0.1-0.1,0.2-0.2,0.3c-0.1,0.1-0.2,0.3-0.2,0.4c0.1,0.4,0.2,0.8,0.7,0.9
	c0.5,0.1,0.9,0.3,1.4,0.4c0.3-0.9,0.9-1.4,1.6-1.2h0c0.8,0,1.2,0.5,1.4,1.6c2.1,0.3,4.2,0.6,6.3,0.9c0.4-1,0.9-1.3,1.7-1.2
	c0.8,0.1,1.2,0.6,1.3,1.6c0.4-0.1,0.8-0.1,1.2-0.2c0,0.1,0,0.2,0,0.3c0.4,0,0.8-0.1,1.2-0.2c0,0,0,0,0-0.1c0.2-0.8,0.6-1.3,1.4-1.4
	c0.8-0.1,1.3,0.2,1.7,0.9c0,0.1,0.2,0.1,0.2,0.1c1.5-0.2,2.9-0.4,4.4-0.6c0.1-0.8,0.6-1.4,1.4-1.5c0.9-0.1,1.5,0.3,1.8,1l0.8-0.1
	c0,0.2,0.1,0.3,0.3,0.4c0,0.1,0,0.3,0,0.4c0.3,0.1,0.6,0,0.8-0.2c0.4,0.1,0.8,0.2,1.2,0.3c0.2-0.7,0.6-1.2,1.3-1.2
	c0.5,0,0.8,0.2,1,0.7c0,0.1,0,0.2,0.1,0.3c0.1,0.5,0.4,0.7,0.8,0.7c0.3,0,0.6,0,0.8,0.1c1.4,0.1,2.8,0.3,4.2,0.5
	c-0.1-0.9,0.7-1.8,1.6-1.7c0.1,0,0.3,0.1,0.3,0.3c0,0.1,0,0.2,0,0.3c-0.2-0.1-0.4-0.1-0.6-0.1c-0.5-0.1-1,0.2-1.1,0.7
	c-0.1,0.3,0,0.6,0.1,0.8c-0.4-0.1-0.8-0.2-1.2-0.3c-0.4,0-0.8-0.1-1.3-0.2c-1.3-0.1-2.7-0.6-4-0.1c0.2-0.2,0.3-0.6,0.3-1
	c0-0.1,0-0.2-0.1-0.3c-0.1-0.1-0.2-0.2-0.3-0.2c-0.3-0.3-0.8-0.4-1.2-0.1c-0.4,0.2-0.6,0.7-0.5,1.2c0.1,0.4,0.5,0.8,0.9,0.8
	c0.1,0,0.2,0,0.2,0c-0.2,0.1-0.3,0.2-0.5,0.4c-0.5-0.7-1.1-1.1-1.9-1.1c-0.4,0-0.7-0.2-1.1-0.3c-0.1,0.4,0,0.6,0.5,0.7
	c0.3,0.1,0.6,0.3,1,0.5c-0.4,0.3-0.7,0.5-1.2,0.8c0.4,0.1,0.6,0.1,0.8,0.2c0,0.1,0,0.2,0,0.3c-0.7,0.2-1.3,0.4-2,0.5
	c-0.3,0-0.7,0-1.1-0.2c-0.6-0.2-1-0.6-1.6-0.9c-2-0.7-4-0.8-5.9-0.2c0,0,0.1-0.1,0.1-0.1c0.1-0.1,0.2-0.2,0.2-0.2c0-0.1,0-0.2,0-0.3
	c0.1-0.8-0.3-1.5-1-1.7s-1.5,0.1-1.7,0.8c-0.3,0.7,0,1.4,0.6,1.8c0.2,0.1,0.3,0.1,0.5,0.2c-0.1,0-0.2,0.1-0.4,0.2
	c-1.1,0.6-2.3,0.8-3.5,1c-0.5,0.1-0.9,0.1-1.4,0.2c-0.4,0.1-0.8,0.3-1,0.7c0-0.1,0-0.2,0.1-0.3c0.1,0,0.1-0.2,0.1-0.2
	c0-0.2-0.2-0.3-0.1-0.6c0,0-0.1,0-0.1-0.1c-0.1,0-0.1-0.1-0.2-0.2c-0.2-0.4-0.4-0.8-0.5-1.2c-0.1-0.4-0.3-0.6-0.6-0.7
	c-0.1,0-0.2-0.1-0.3-0.1c-0.9-0.1-1.7-0.3-2.6-0.4c-0.8-0.1-1.6,0-2.4-0.1c-0.3,0-0.5,0.1-0.6,0.4c-0.2,0.3-0.4,0.6-0.6,1
	c-0.1,0.1-0.3,0.3-0.4,0.3c-0.3,0.1-0.5,0.2-0.6,0.5c-0.1,0.3-0.3,0.6-0.3,0.9c-0.1,0.8-0.1,1.7-0.2,2.5c0,0.2,0.1,0.2,0.2,0.2
	c0.4,0,0.8,0.1,1.2,0.1c0.6,0,0.6,0,0.7-0.5c0,0,0,0,0,0c0.3,0,0.6,0.1,0.9,0.1c1,0.1,1.9,0.2,2.9,0.3c0.4,0,0.8,0,1.2,0
	c0.2,0,0.3,0.1,0.3,0.3c0,0.1,0,0.2,0,0.2h-9c0.1-0.2,0.3-0.5,0.4-0.6c0.2-0.1,0.6-0.1,0.7-0.2c0.1-0.1,0-0.5,0-0.7
	c0-0.3-0.2-0.5-0.2-0.8c-0.1-0.5-0.4-0.6-0.8-0.6c-0.5,0-1,0-1.6,0c0.3-0.6,0.6-1.1,0.9-1.6c0-0.1,0-0.3,0-0.4
	c-0.1,0-0.3,0.1-0.3,0.2c-0.3,0.4-0.5,0.8-0.8,1.4c-0.2-0.6-0.3-1.1-0.5-1.6c-0.1-0.2-0.4-0.5-0.6-0.5c-2.3,0-4.6,0-6.8,0
	c-0.2,0-0.5,0.2-0.5,0.3c-0.3,1.3-0.6,2.6-0.8,3.9c0,0.1,0.3,0.4,0.5,0.5c0.1,0.1,0.3,0,0.4,0c0.2,0.3,0.3,0.5,0.5,0.7h-4
	c0.1-0.2,0.2-0.4,0.3-0.6c0.2,0,0.5,0.2,0.6,0.1c0.2-0.1,0.4-0.4,0.4-0.6c0-1.2-0.1-2.4-0.2-3.6c0-0.2-0.3-0.4-0.5-0.5
	c-1.1-0.2-2.2-0.4-3.4-0.6c0.5-0.2,0.9-0.7,0.9-1.3c0-0.7-0.6-1.4-1.4-1.4c-0.7,0-1.3,0.6-1.3,1.3c0,0.5,0.2,0.8,0.5,1.1
	c-0.7-0.1-1.4-0.2-2.1-0.3c-0.3,0-0.6,0-0.7,0.4c-0.2,0.5-0.4,1.2-0.8,1.4c-0.4,0.2-1.1,0-1.6-0.1c-0.5-0.1-0.9,0-1.1,0.6
	c-0.1,0.3-0.2,0.6-0.3,0.8c-0.3,0.7-0.2,0.9,0.6,0.9c0.1-0.1,0.1-0.3,0.3-0.5c0.5-0.6,1.4-0.7,1.9-0.1c0.3,0.5,0.6,1,0.8,1.5
	c-0.3,0.2-0.6,0.4-1,0.7c0.3,0.2,0.5,0.4,0.8,0.5h-2.8c0.2-0.6,0.2-1.2-0.2-1.5c-0.4-0.4-1.3-0.5-1.6-0.1c-0.2,0.3-0.4,0.6-0.4,1
	c0,0.2,0.1,0.4,0.1,0.6h-2.3c0.1-0.1,0.2-0.3,0.3-0.5c0.2-0.6,0.1-1.3-0.1-1.9c0.3,0.6,0.8,0.6,1.3,0.7c0.1-0.4,0.2-0.7,0.3-1.1
	c-0.1,0-0.1,0-0.2,0c0-0.2-0.1-0.4-0.1-0.6c-0.1,0.2-0.1,0.3-0.2,0.4c-0.5-0.6-0.5-0.6-0.9-0.3c0-0.5-0.4-0.6-0.7-0.6
	c0.1-0.1,0.2-0.2,0.3-0.3c0.2-0.1,0.4-0.3,0.5-0.3c0.3,0.1,0.3-0.1,0.4-0.3c0.2,0,0.4,0.1,0.7,0.1c0.1-0.3,0-0.4-0.3-0.4
	c-0.1,0-0.2,0.1-0.3,0c-0.3-0.2-0.4,0-0.4,0.2c-0.2,0-0.4,0-0.4,0c-0.2,0.3-0.5,0.5-0.7,0.7c-1-0.5-1.9-0.9-2.9-1.3
	c-0.7-0.3-1.5-0.5-2.3-0.5c-1,0-2,0-2.9,0c-0.2,0-0.5,0.1-0.7,0.2c-0.7,0.5-1.5,1-2.2,1.5c-0.3,0.2-0.6,0.3-0.9,0.3
	c-0.7,0-1.4,0.1-2.2,0.2c-0.4,0.1-0.6,0.3-0.5,0.7c0.1,0.4,0.2,0.7,0.3,1c0.1,0.2,0.2,0.3,0.4,0.2c0.4,0,0.8,0,1.3,0
	c0.2,0,0.3,0,0.4-0.2c0.3-0.8,0.9-1.2,1.8-1.2c0.8,0,1.4,0.4,1.7,1.2c0.1,0.2,0.2,0.2,0.4,0.2c1,0,2,0,3.1,0c1.1,0,2.2,0,3.2,0
	c0.6-1.3,1.5-1.8,2.2-1.2c-0.1,0-0.2,0-0.3,0c-0.9,0-1.6,0.6-1.7,1.4c-0.1,0.6,0.2,1.2,0.7,1.5h-8.3c0.4-0.3,0.6-0.7,0.6-1.2
	c0-0.9-0.7-1.6-1.6-1.6c-0.9,0-1.6,0.7-1.6,1.6c0,0.5,0.2,1,0.6,1.2H0V86h252V86L235.6,86L235.6,86z M148.2,80.5
	c1,0,1.9,0.3,2.9,0.9c-1.4,0.1-2.6,0.3-3.8,0.4C146.9,80.7,147.1,80.5,148.2,80.5 M145.8,80.7c0.7-0.1,0.9,0.1,0.8,1.2
	c-1.2,0.1-2.5,0.3-3.9,0.4C143.6,81.4,144.6,80.9,145.8,80.7 M145,75.7c0.9,0.2,1.6,0.7,2.4,1.3c-1.2-0.1-2.4-0.2-3.5-0.3
	c0,0,0-0.1,0-0.1C143.8,75.6,144,75.5,145,75.7 M142.6,75.4c0.7,0,0.8,0.2,0.7,0.9c0,0.1,0,0.2-0.1,0.3c-1.2-0.1-2.3-0.2-3.5-0.3
	C140.7,75.8,141.6,75.4,142.6,75.4 M139.6,68.7c0.5,0.1,0.9,0.3,1.4,0.4c0.7,0.2,1.1,0.8,1.5,1.4c0.1,0.1,0,0.4-0.1,0.6
	c0,0-0.3,0-0.4,0c-0.8-0.2-1.6-0.5-2.4-0.7c-0.1,0-0.3-0.1-0.5-0.1C139.3,69.7,139.5,69.2,139.6,68.7 M134.3,68.7
	c1-0.1,1.9-0.3,2.9-0.5c0.7-0.1,1.2,0.1,1.8,0.3c-0.1,0.5-0.3,1-0.4,1.5c-1.5-0.4-3-0.9-4.4-1.3C134.2,68.7,134.3,68.7,134.3,68.7
	 M128.2,67.8c-0.1,0-0.2,0-0.3,0C127.9,67.9,128.1,67.9,128.2,67.8c0,0,0.1,0,0.2,0C128.3,67.8,128.3,67.8,128.2,67.8 M127.1,67
	c0-0.1,0-0.2,0.1-0.3C127.2,66.7,127.2,66.8,127.1,67 M106.2,61.8c-0.9,0.3-1.8,0.5-2.6,0.8c-0.3-0.5-0.5-1-0.7-1.4
	C103.8,60.7,105.1,60.9,106.2,61.8 M100.4,62.8c0.2-0.8,0.8-1.3,1.7-1.3c0.7,0,0.6,0.7,0.9,1.2c-0.9,0.3-1.7,0.6-2.7,0.8
	C100.4,63.2,100.4,63,100.4,62.8 M100.4,65L100.4,65c-0.2,0.1-0.4,0.1-0.5,0.2C100.1,65.2,100.2,65.1,100.4,65 M99.4,67.3L99.4,67.3
	c0-0.1,0-0.3,0-0.4C99.4,67,99.4,67.1,99.4,67.3 M69.5,71.1c-1.2-0.2-2.3-0.3-3.5-0.5c-0.1-0.5,0-0.7,0.4-1c0.9-0.6,1.8-0.5,2.7-0.3
	c0.2,0,0.4,0.1,0.6,0.1C69.7,70,69.6,70.5,69.5,71.1 M75,71.9c-1.6-0.2-3.2-0.5-4.9-0.7c0.1-0.6,0.2-1.1,0.2-1.7
	c0.8,0.1,1.6,0.2,2.3,0.7C73.4,70.8,74.2,71.3,75,71.9C75,71.8,75,71.9,75,71.9 M79.2,72.4C79.2,72.4,79.2,72.4,79.2,72.4
	c0.4-0.3,0.7-0.6,1.1-0.9c0.6-0.4,1.2-0.8,1.7-1.1s1.2-0.3,1.8-0.4c0.1,0.6,0.2,1.1,0.3,1.7C82.5,71.9,80.9,72.2,79.2,72.4
	 M86.4,69.6c0.6,0,1.1,0.4,1.7,0.6c0.2,0.1,0.2,0.4,0.1,0.8c-1.1,0.2-2.3,0.4-3.5,0.6c-0.1-0.5-0.2-1.1-0.3-1.6c0.1,0,0.2,0,0.2-0.1
	c0.1,0,0.1-0.1,0.2-0.1C85.4,69.7,85.9,69.6,86.4,69.6 M87.3,65.6c-1.2,0.1-2.4,0.2-3.8,0.3c0.9-0.7,1.7-1.2,2.7-1.4
	C87.2,64.2,87.4,64.4,87.3,65.6 M88,65.5c-0.3-1-0.2-1.3,0.6-1.3c1.2,0,2.2,0.3,3.4,1C90.5,65.3,89.2,65.4,88,65.5 M95.1,68
	c0,0.1,0,0.1,0,0.2C95.1,68.2,95.1,68.1,95.1,68 M93.2,68.7c-0.1-0.1-0.2-0.2-0.3-0.3c0,0-0.1-0.1-0.1-0.1c0-1.4,0.5-1.7,1.5-2.2
	c0.5-0.2,0.8,0,0.7,0.6c-0.2,0-0.5-0.1-0.7-0.1c-0.6,0-1.2,0.5-1.2,1.1C92.9,68.1,93,68.4,93.2,68.7 M106.8,71.2
	c-0.3,0-0.5,0-0.6,0.2c0,0,0,0-0.1,0c0,0,0,0,0,0c-0.3-0.1-0.6-0.3-0.8-0.4c0,0,0-0.1,0-0.1c0.6-0.1,1.3-0.1,1.9-0.2
	C107.2,71.3,107.2,71.3,106.8,71.2 M110,68c-0.7,0.3-1.4,0.6-2.1,0.9c-0.1,0-0.2,0-0.3,0c0,0,0,0,0-0.1c-0.3,0.2-0.7,0.3-1.1,0.4
	c0,0,0,0,0,0c-0.1,0.1-0.2,0.2-0.3,0.2c-0.2,0.1-0.4,0.2-0.6,0.2c0,0-0.1-0.1-0.1-0.2c0-0.2,0-0.5,0-0.7c0-0.3,0-0.5,0.3-0.6
	c1.5-0.8,2.6-0.9,4.2-1.4c0.2-0.1,0.5,0,0.6,0.2c0.1,0.2,0.7-0.2,0.9-0.1c0.2,0.2,0.2,0.3-0.1,0.4C110.9,67.6,110.4,67.8,110,68
	 M112.3,71.1c0.1,0,0.1-0.1,0.2-0.1c0,0,0,0,0,0c0,0,0,0,0,0.1C112.5,71.1,112.4,71.1,112.3,71.1 M112.4,69c-0.4,0.2-0.6,0-1.1-0.3
	c0.5-0.4,1.2-0.6,1.7-1.1c0.2,0.2,0.2,0.4,0.1,0.6C113,68.7,112.7,68.8,112.4,69 M103.8,76.8c-1.5-0.2-3-0.4-4.5-0.6
	c0,0,0-0.1,0-0.1c1.6-0.7,3.3-0.9,5-0.5c-0.1,0.4-0.2,0.8-0.4,1.1C104,76.7,103.9,76.8,103.8,76.8 M107.3,77c0,0-0.2,0.1-0.3,0.1
	c-0.9-0.1-1.8-0.2-2.7-0.3c0.1-0.4,0.2-0.8,0.4-1.3c0.8,0.3,1.5,0.6,2.3,1c0.1,0,0.2,0.1,0.2,0.2C107.3,76.8,107.4,76.9,107.3,77
	 M108.7,77.6c0.5-0.2,0.8-0.2,0.8,0.3C109.3,77.7,109,77.7,108.7,77.6 M137.7,78c0.4,0,0.6,0.4,0.6,0.8c-0.1,0.4-0.4,0.6-0.8,0.6
	c-0.4,0-0.7-0.5-0.6-0.9C136.9,78.2,137.3,77.9,137.7,78 M134.3,71.9c0.2,0.2,0.5,0.4,0.7,0.5l-0.1,0.2c-0.5-0.1-1-0.3-1.6-0.4
	C133.7,72.2,134,72.1,134.3,71.9 M132.1,70.9C132.1,71,132.2,71,132.1,70.9c0.1,0,0.1,0,0.1-0.1c0,0,0.1,0,0.1,0c0,0.1,0,0.2,0,0.3
	c0,0.4,0.1,0.7,0.4,0.8c-0.3-0.1-0.6-0.1-0.8-0.2C131.9,71.3,132,71.1,132.1,70.9 M128.2,70.5c0.8,0,1.7-0.1,2.5-0.1
	c0.2,0,0.4,0,0.6,0.1c0,0-0.1,0.1-0.1,0.1c0.1,0,0.3,0.2,0.4,0.3c0,0.2-0.1,0.4-0.2,0.7c-1-0.3-2.1-0.6-3.1-0.9
	C128.2,70.6,128.2,70.5,128.2,70.5 M126.3,72.8c-0.1,0.3-0.3,0.4-0.6,0.5c-0.1,0-0.3,0-0.4-0.1c0.1,0.1,0.3,0.1,0.4,0.1
	C126,73.2,126.2,73,126.3,72.8 M121.7,64c1.2-0.3,2.4,0,3.6,0.6c-1.4,0.3-2.6,0.5-3.9,0.7C121.3,64.8,120.8,64.2,121.7,64
	 M121.8,68.5c0,0.5,0,1-0.4,1.4c0.1-0.6,0-1-0.3-1.3C121.3,68.5,121.5,68.5,121.8,68.5 M120.1,70.2c-0.4,0.1-0.8-0.3-0.8-0.7
	c0-0.4,0.3-0.8,0.7-0.8c0.4,0,0.7,0.2,0.7,0.7C120.8,69.8,120.6,70.1,120.1,70.2 M117.1,66l-0.1-0.2c0.9-0.5,1.7-1,2.6-1.4
	c0.9-0.4,1.2-0.1,1.2,0.9C119.5,65.6,118.3,65.8,117.1,66 M119.1,68c0.1,0.1,0.1,0.2,0.2,0.3c0,0-0.1,0-0.1,0.1l0,0
	C119.2,68.3,119.2,68.2,119.1,68 M118.7,69.4c0,0.1,0,0.1,0,0.2c-0.1,0-0.1,0-0.2,0C118.6,69.5,118.7,69.4,118.7,69.4 M117.1,72.9
	c0.6-0.4,1.3-0.7,2.1-1.1c-0.4,1.2-0.7,2.2-1.9,2.7c-0.1-0.4-0.3-0.8-0.4-1.2C116.8,73.2,116.9,73,117.1,72.9 M114.6,75
	c-0.2-0.1-0.3-0.2-0.5-0.4c0.8-0.4,1.6-0.8,2.4-1.2c0,0.1,0.1,0.1,0.1,0.2c0,0.4,0.6,0.8,0,1.2C115.9,75.4,115.2,75.4,114.6,75
	 M112.4,77.8C112.4,77.7,112.4,77.7,112.4,77.8c1-0.7,1.9-1.4,2.9-1.9c0.4-0.2,1-0.2,1.5-0.3l0.2,1.6L112.4,77.8z M120.6,76.6
	c-0.9,0.1-1.9,0.3-2.9,0.4c0,0,0,0-0.1,0c-0.1-0.5-0.1-1-0.2-1.6c0.6-0.1,1.2-0.3,1.8-0.2c0.6,0.1,1.1,0.4,1.6,0.6
	c0.1,0.1,0.2,0.4,0.2,0.6C120.9,76.5,120.7,76.6,120.6,76.6 M129.3,76.5c0,0.1,0,0.3-0.1,0.5l-2.9-0.3c0.1-0.1,0.2-0.2,0.3-0.3
	c0.7-0.4,1.5-0.6,2.3-0.5C129.2,76,129.3,76.2,129.3,76.5 M129.7,77c-0.1-0.9,0.1-1.1,0.9-0.9s1.5,0.6,2.3,1.2L129.7,77z
	 M134.7,76.7c0,0.2,0.1,0.3,0.1,0.5c-0.8,0.1-1.5,0.1-2-0.7c-0.1-0.1-0.2-0.2-0.3-0.3c-0.4-0.5-0.9-0.8-1.5-0.9
	c-0.7-0.1-1.4-0.2-2.1-0.3c-1.1-0.1-2,0.1-2.8,0.8c-0.7,0.6-1.5,0.9-2.4,0.6c0,0,0,0,0,0c-0.2,0-0.4,0.1-0.3,0.3
	c0.1,0.3-0.1,0.6-0.3,0.8c-0.1,0.1-0.1,0.1-0.2,0.2c-0.1-0.2-0.1-0.3,0.1-0.5c0.1-0.1,0.2-0.3,0.3-0.4c0,0,0-0.1-0.1-0.1
	c-0.2,0-0.5,0.1-0.7,0.1c-0.2,0-0.3,0-0.3-0.2c0,0,0,0,0-0.1c-0.1-0.1-0.2-0.1-0.2-0.2c-0.2-0.5-0.6-0.8-1.1-0.9
	c-0.1,0-0.2-0.1-0.4-0.2c-0.6-0.2-1.1-0.4-1.7-0.3c-0.5,0.1-1.1,0.1-1.6,0.2c-0.3,0-0.6,0.1-0.9,0.2c1.1-0.5,2.2-1,3.2-1.5
	c0.6-0.3,1.1-0.8,1.4-1.4c0.1-0.2,0.2-0.4,0.3-0.6c0.8,0.4,1.5,0.1,2.1-0.2c0.3-0.1,0.6-0.2,0.9-0.3c0,0,0.1,0,0.2,0.1
	c-0.1,0.1-0.2,0.2-0.3,0.3c0.2,0.4,0.5,0.7,0.6,1.2c0,0.6,0.6,0.9,1.1,0.9c0.6,0,1-0.5,1.1-1c0-0.6-0.3-1-0.9-1.1
	c-0.2,0-0.4,0-0.6,0c0-0.5,0.2-0.7,0.6-0.5c0.8,0.4,1.2,1.2,0.9,2.2c1.9,0.5,3.8,1,5.6,1.5c0.3-0.3,0.6-0.6,0.8-0.9
	c-0.6,0.7-0.6,1.5,0,1.9c0.6,0.5,1.2,0.3,1.8-0.5c0,0.1,0.1,0.2,0.1,0.3c0.6,0.1,1.1,0.1,1.7,0.2c0,0,0,0,0.1,0
	c0.4,0.2,0.7,0.4,1.1,0.7c-0.4,0-0.8-0.1-1.2-0.2c-0.1,0-0.3-0.1-0.3,0c-0.2,0.1-0.4,0.3-0.5,0.5c-0.1,0.2,0,0.4,0,0.6
	c-0.1,0-0.2-0.1-0.4-0.1c0.1,0,0.1,0,0.2-0.1c-0.1-0.1-0.2-0.1-0.4-0.2c-0.1,0.1-0.1,0.1-0.2,0.2C135.1,76.9,134.9,76.8,134.7,76.7
	 M60.3,82.4c-0.2,0-0.4,0-0.5,0c-0.9,0-1.9,0-2.8,0c-0.1,0-0.4,0-0.4-0.1c0-0.2-0.1-0.6,0.1-0.7c0.6-0.5,1.2-1.1,2.1-1
	c0.6,0,1.1,0,1.7,0L60.3,82.4L60.3,82.4z M60.9,82.3v-1.8c0.7,0,1.4-0.1,2.1,0.2c1,0.5,2,0.9,2.9,1.4c0,0,0.1,0,0.1,0.1L60.9,82.3
	L60.9,82.3z M70.7,85.8c-0.2,0-0.4-0.3-0.6-0.5c0.2-0.2,0.3-0.5,0.5-0.5c0.1,0,0.4,0.2,0.7,0.5C71,85.6,70.9,85.9,70.7,85.8
	 M79,81.1c0.9,0.1,1.8,0.3,2.6,0.4c0.1,0,0.3,0.2,0.3,0.3c0.1,0.4,0.1,0.8,0.1,1.3c-1.2-0.2-2.2-0.4-3.3-0.5
	C78.8,82.1,78.9,81.6,79,81.1 M78.5,78.4c0.4,0,0.7,0.3,0.7,0.7c0,0.4-0.3,0.7-0.7,0.7c-0.4,0-0.7-0.3-0.7-0.7S78.1,78.4,78.5,78.4
	 M76.9,80.7c0.5,0.1,1,0.2,1.6,0.3c-0.1,0.5-0.1,1-0.2,1.5c-1.1-0.2-2.2-0.3-3.3-0.5C75.5,80.5,75.5,80.5,76.9,80.7 M74.9,86
	c-0.2,0-0.5-0.2-0.8-0.5c0.8-0.8,1.1-0.8,1.9,0c-0.4,0.3-0.6,0.5-0.8,0.6C75.2,86,74.9,86,74.9,86z M75.6,86
	c0.3-0.2,0.6-0.4,0.8-0.6c-0.4-0.3-0.7-0.5-1-0.7c0,0,0-0.1,0-0.2c1.3,0,2.6,0.4,3.9,0.5c0.2,0.3,0.3,0.6,0.5,0.9
	C79.9,86,75.6,86,75.6,86z M80.8,85.8c-0.2,0-0.4-0.3-0.6-0.5c0.2-0.2,0.3-0.5,0.5-0.5c0.2,0,0.4,0.2,0.6,0.3c0,0.1,0,0.1,0,0.2
	C81.2,85.6,80.9,85.8,80.8,85.8 M89.4,81.2c0.9,0,1.7,0,2.6,0c0.1,0,0.4,0.2,0.4,0.4c0.1,0.4,0.2,0.7,0.3,1.1h-3.3V81.2z M85.6,82.8
	c0.1-0.5,0.2-0.9,0.3-1.3c0-0.1,0.3-0.2,0.5-0.3c0.7,0,1.4,0,2.1,0c0.3,0,0.4,0.1,0.4,0.4c0,0.4,0,0.8,0,1.2H85.6z M86.5,86L86.5,86
	c-0.3-0.3-0.6-0.6-0.5-0.7c0-0.2,0.3-0.4,0.5-0.6c0.2,0.2,0.4,0.4,0.4,0.6C87,85.5,86.7,85.7,86.5,86 M87.3,86
	c0.1-0.2,0.3-0.5,0.4-0.7h5.3c0.2,0.3,0.3,0.5,0.5,0.7H87.3z M98.5,83c-0.4-0.1-0.7-0.2-0.9-0.5c-0.2-0.2-0.2-0.4,0-0.6
	c0.6,0.2,1.2,0.5,1.8,0.8C98.9,83.1,98.9,83.1,98.5,83 M103,81.6C103,81.6,103,81.6,103,81.6c-0.1,0.1-0.2,0.1-0.2,0.1
	c-0.7-0.1-1.5-0.2-2.3-0.3c-0.5-0.1-0.9-0.2-1.4-0.3c-0.3,0-0.3-0.1-0.2-0.4c0.1-0.2,0.2-0.4,0.3-0.6c0.1-0.3,0.3-0.3,0.6-0.3
	c1.7,0,3.3,0.2,5,0.6c0.3,0.1,0.4,0.2,0.4,0.5c0,0.2,0.1,0.4,0.2,0.6c0,0.1,0,0.3-0.1,0.3c-0.2,0-0.5,0-0.7,0
	c-0.1,0-0.3-0.1-0.4-0.1c0,0,0,0,0,0C103.7,81.7,103.4,81.7,103,81.6 M105.2,83.7C105.2,83.7,105.1,83.7,105.2,83.7
	c-0.3-0.2-0.5-0.2-0.7-0.1c-0.4,0.2-0.4,0.2-0.6-0.4c0.6-0.1,1.2-0.2,1.9-0.4c0,0,0,0.1,0,0.1C105.6,83.2,105.4,83.4,105.2,83.7
	C105.2,83.7,105.2,83.7,105.2,83.7 M134,80.3c-0.1-0.1-0.1-0.2-0.2-0.4C133.8,80,133.9,80.2,134,80.3 M131.1,80.3
	c-0.1,0.5-0.3,1-0.4,1.5c-0.9-0.1-1.8-0.2-2.7-0.3C128.9,80.5,130.1,80,131.1,80.3 M117.4,81c1,0.2,1.9,0.6,2.8,0.9l0,0.2h-3.7
	C116.2,81.1,116.4,80.8,117.4,81 M115.3,80.9c0.8,0,0.5,0.7,0.5,1.2h-4C112.9,81.4,114,80.9,115.3,80.9 M106,86
	c0-0.1,0.1-0.1,0.1-0.3c0-0.3,0-0.5,0.1-0.8c0-0.1,0-0.3,0-0.4c0.5,0.4,1.3,0.5,1.7,0.1c0.2-0.1,0.3-0.2,0.6-0.4
	c-0.2,0.8-0.1,1.4,0.3,1.8L106,86L106,86z M110.5,86c0.1-0.1,0.1-0.1,0.2-0.2c0.4-0.6,0.2-1.3-0.5-2c1.1,0.1,0.9,0.9,1,1.5
	c1.9,0,3.7,0,5.5,0c0.8,0,1.6,0,1.8-0.9c0,0.1,0,0.3,0,0.4c-0.1,0.5,0.1,0.9,0.4,1.2L110.5,86L110.5,86z M119.6,85.8
	c-0.5,0-0.8-0.3-0.7-0.8c0-0.5,0.4-0.8,0.8-0.8c0.5,0,0.8,0.4,0.8,0.8C120.4,85.5,120.1,85.8,119.6,85.8 M120.5,86
	c0.3-0.2,0.4-0.6,0.4-1.1c0-0.2,0-0.3,0-0.5c0.1,0.3,0.2,0.6,0.3,0.8c0.9-0.1,1.9-0.3,2.8-0.4c0-0.6,0.1-0.8,0.6-0.5
	c1.1,0.6,1.5,0.5,2.1-0.3c2,1,4.1,0.4,6.1,0.7c0,0.1,0,0.2,0,0.3c0,0.4,0.1,0.8,0.4,1H120.5z M131.2,81.7c0.1-0.5,0-1.2,0.6-1.4
	c0.9-0.2,1.6,0.3,1.9,1c0.1,0.2,0.1,0.4,0.2,0.7C133,82,132.1,81.9,131.2,81.7 M135.2,86c0,0,0.1-0.1,0.1-0.1
	c0.1-0.1,0.2-0.1,0.3-0.2c0,0,0,0,0,0.1s0,0,0,0c0.9,0,0.6-0.7,0.8-1.1c0.4-0.1,0.8-0.2,1.2-0.2c0.4,0,0.8,0.1,1.2,0.2
	c0,0.1-0.1,0.2-0.1,0.2c0.4,0.4,0.8,0.8,1,1.2L135.2,86L135.2,86z M220.3,85.8c-0.6,0-1.2-0.5-1.2-1.2v0c0-0.6,0.5-1.1,1.2-1.1
	s1.1,0.5,1.2,1.1v0C221.5,85.2,220.9,85.8,220.3,85.8 M234.3,85.8c-0.6,0-1.2-0.5-1.2-1.2v0c0-0.6,0.5-1.1,1.2-1.1s1.1,0.5,1.2,1.1
	v0C235.4,85.2,234.9,85.8,234.3,85.8 M76.7,77.5c-0.3,0.1-0.7,0.1-1,0.2c0,0-0.1-0.1-0.1-0.2c0,0-0.1,0.1-0.1,0.1
	c0,0.5,0.1,0.9,0.2,1.4c0,0,0.1,0.1,0.2,0.1c0.4,0,0.7,0,1,0c0.3-1,0.7-1.4,1.4-1.5c0.8,0,1.2,0.3,1.6,1.4c2.2,0,4.5,0,6.7,0
	c0.3-1,0.7-1.5,1.4-1.4c0.3,0,0.6,0.1,0.9,0.2c0.5,0.2,0.6,0.7,0.7,1.3c0.6-0.3,1-0.5,1.5-0.8c0,0,0-0.1,0-0.2
	c-0.2-0.2-0.4-0.4-0.6-0.6c0,0,0.1,0,0.1,0c0-0.2,0.2-0.5,0.1-0.7c-0.1-0.2-0.1-0.4,0-0.6c0-0.1,0-0.2,0-0.3c-0.1,0-0.2,0-0.4,0.1
	c0.1-0.2,0.2-0.4,0.4-0.6c0,0,0,0-0.1-0.1c-0.1,0.1-0.3,0.2-0.4,0.3c-0.1,0.3-0.3,0.3-0.6,0.1c-0.7-0.4-1.5-0.8-2.3-1.1
	c0,0,0.1,0,0.1,0c0.9,0,1.5-0.7,1.5-1.5s-0.7-1.5-1.5-1.5c-0.8,0-1.5,0.7-1.5,1.5c0,0.6,0.4,1.2,0.9,1.4c-0.4-0.1-0.8-0.1-1.2-0.1
	c-0.5,0-1,0-1.6,0c0.6-0.1,1.2-0.2,1.9-0.3c-0.1-0.3-0.2-0.6-0.3-0.8c-1.6,0.2-3.1,0.5-4.7,0.7v0.9c0.5-0.1,0.9-0.1,1.4-0.2
	c-0.2,0-0.3,0.1-0.5,0.2c-0.6,0.3-1.2,0.7-1.8,1c-0.2,0.1-0.5,0.2-0.7,0.3c-0.8,0.1-1.7,0.3-2.5,0.4c-0.3,0-0.5,0.1-0.8,0.2
	c0.2,0,0.5,0,0.7-0.1c0,0,0,0.1,0.1,0.1C77,77.2,76.9,77.4,76.7,77.5 M87.1,75.1c0.4,0.2,0.7,0.4,0.9,0.7c0.2,0.2,0.1,0.4-0.1,0.5
	c-0.3,0.1-0.6,0.2-1,0.3C87,76.1,87.1,75.7,87.1,75.1 M84.8,75.1c0-0.1,0.2-0.2,0.3-0.2c0.5,0,0.9,0,1.3,0c0.4,0,0.5,0.2,0.4,0.6
	c0,0.3,0,0.7-0.2,0.9c-0.1,0.2-0.6,0.1-0.8,0.1c-0.4,0-0.9,0-1.3,0.1C84.6,76,84.7,75.6,84.8,75.1 M84.5,75
	c-0.1,0.5-0.2,0.9-0.3,1.4c0,0.1-0.2,0.1-0.3,0.1c-0.8,0-1.7,0.1-2.5,0.1c-0.4,0-0.7,0-1.2,0C81.4,75.6,82.7,74.8,84.5,75
	 M88.2,77.7c-0.7,0-1.4,0.6-1.4,1.4s0.6,1.4,1.4,1.4s1.3-0.6,1.3-1.3C89.5,78.4,88.9,77.8,88.2,77.7 M88.2,79.8
	c-0.4,0-0.7-0.3-0.7-0.7c0-0.4,0.3-0.7,0.7-0.7s0.7,0.3,0.7,0.7C88.9,79.5,88.6,79.8,88.2,79.8 M97.4,77c-0.6,0.1-1,0.6-1.1,1.2
	c-0.1,0.6,0.2,1.1,0.8,1.4c0.6,0.3,1.2,0.1,1.6-0.3c0.4-0.4,0.5-1,0.2-1.6c-0.2-0.4-0.6-0.6-1.1-0.8h0C97.7,77,97.5,77,97.4,77
	 M97.9,77.7c0.4,0.1,0.5,0.6,0.4,0.9c-0.1,0.4-0.6,0.5-0.9,0.4c-0.4-0.1-0.6-0.6-0.4-0.9C97.2,77.7,97.6,77.6,97.9,77.7 M106.4,80.9
	c0.7,0.3,1.5,0,1.8-0.7c0.3-0.7,0-1.5-0.6-1.8c-0.7-0.3-1.5,0-1.8,0.7C105.5,79.8,105.8,80.6,106.4,80.9 M106.3,79.4
	c0.1-0.4,0.6-0.6,0.9-0.4c0.4,0.1,0.5,0.6,0.4,0.9s-0.5,0.5-0.9,0.4C106.4,80.2,106.2,79.8,106.3,79.4 M93.8,79.3
	c0.1-0.3,0.2-0.6,0.4-0.9c0.2,0.3,0.3,0.5,0.5,0.8c0.1-0.2,0.2-0.3,0.2-0.5c0.3,0.2,0.6,0.3,1,0.5c-0.2-0.4-0.5-0.8-0.7-1.1
	c0,0-0.1-0.1-0.2-0.1c-0.4,0.1-0.8,0-1.2-0.1c-0.1,0-0.2,0-0.3,0c-0.3,0.3-0.6,0.6-1,1c0,0,0,0,0,0c0.3-0.1,0.6-0.2,1.1-0.4
	C93.7,78.8,93.7,79,93.8,79.3 M103,80.3c-0.1,0-0.2,0.1-0.3,0.2c0,0,0,0,0.1,0c0.3,0,0.6,0,0.8,0c0,0,0,0,0-0.1
	C103.4,80.2,103.2,80.2,103,80.3 M97.6,80.9c0.5,0.2,0.5,0.3,0.6-0.3c0,0,0,0,0,0c0,0,0-0.1-0.1-0.2c-0.3-0.1-0.6-0.1-0.9-0.2
	c-0.1,0.1-0.2,0.2-0.2,0.3c0,0,0.1,0.2,0.2,0.2C97.3,80.8,97.5,80.9,97.6,80.9 M112.6,66.8c0.1-0.1,0.4-0.5,0.5-0.6
	c0-0.1,0.1-0.2,0.1-0.3c-0.1-0.1-0.2-0.2-0.3-0.2c-0.3,0.2-0.7,0.6-1,0.7c0,0,0,0.1,0,0.2c0,0,0,0,0,0
	C112.2,67.2,112.2,67.1,112.6,66.8 M114.2,79.6c0,0.3,0,0.5,0,0.8l4.7-0.7c-0.1-0.3-0.1-0.5-0.2-0.7L114.2,79.6z M121.7,78.4
	c-0.2-0.6-0.8-1.1-1.4-1c-0.7,0-1.2,0.5-1.4,1.2c-0.1,0.7,0.2,1.3,0.9,1.6c0.4,0.2,0.7,0.1,1.1,0.1c0,0,0,0,0,0c0,0-0.1,0-0.2,0
	c0.1,0,0.2-0.1,0.2-0.1C121.6,79.8,121.9,79.1,121.7,78.4 M111,80.8c-0.1-0.2-0.1-0.5-0.2-0.7l-1.1,0.1
	C109.9,81,110.4,81.1,111,80.8 M58,84.6c0,0.3-0.1,0.6-0.1,0.9h6.7c0-0.3-0.1-0.6-0.1-0.9H58z M54.3,85.5c0-0.3-0.1-0.6-0.1-0.8
	h-1.6C52.8,85.5,53.2,85.7,54.3,85.5 M67.7,84.6c-0.1,0.2-0.1,0.5-0.1,0.8c0.2-0.1,0.3-0.2,0.5-0.3c0.2,0.6,0.6,0,0.8,0.1
	c-0.1-0.3-0.3-0.6-0.4-1C68.2,84.4,67.9,84.4,67.7,84.6 M113.4,60.3c0.4,0,0.8,0.1,1.3,0.2c0.2,0,0.3,0,0.4-0.2
	c0.4-0.7,1.1-1.1,1.9-1c0.7,0.1,1.4,0.6,1.6,1.4c0,0.2,0.2,0.3,0.4,0.3c1,0.1,2,0.3,3,0.4c1.1,0.1,2.1,0.3,3.2,0.4
	c0.8-1.2,1.7-1.5,2.3-0.9c-0.1,0-0.2,0-0.3,0c-0.9-0.1-1.6,0.4-1.8,1.2s0.2,1.7,1.1,1.9c0.6,0.2,1.2,0,1.5-0.6
	c0.3-0.6,0.3-1.3,0.1-1.9c0.2,0.6,0.7,0.7,1.2,0.9c0.2-0.4,0.3-0.7,0.5-1c-0.1,0-0.1,0-0.2,0c0-0.2,0-0.4,0-0.6
	c-0.1,0.1-0.2,0.2-0.2,0.3c-0.4-0.7-0.4-0.7-0.9-0.4c0-0.5-0.3-0.6-0.6-0.6c0.1-0.1,0.2-0.2,0.3-0.3c0.2-0.1,0.4-0.2,0.6-0.2
	c0.3,0.1,0.4,0,0.4-0.3c0.2,0.1,0.4,0.1,0.6,0.2c0.1-0.2,0-0.4-0.2-0.4c-0.1,0-0.2,0-0.3,0c-0.3-0.2-0.4-0.1-0.5,0.2
	c-0.2,0-0.4-0.1-0.4,0c-0.2,0.3-0.6,0.4-0.8,0.6c-0.9-0.6-1.8-1.2-2.6-1.7c-0.7-0.4-1.4-0.7-2.2-0.8c-1-0.1-1.9-0.3-2.9-0.4
	c-0.2,0-0.5,0-0.7,0.1c-0.8,0.4-1.6,0.7-2.3,1.2c-0.3,0.2-0.6,0.2-1,0.2c-0.7-0.1-1.5-0.1-2.2-0.1c-0.5,0-0.6,0.2-0.6,0.7
	c0,0.4,0.1,0.7,0.2,1.1C113.1,60.2,113.2,60.3,113.4,60.3 M122.1,57.6c0.7,0.1,1.4,0.1,2.1,0.5c0.9,0.6,1.8,1.2,2.7,1.8
	c0,0,0.1,0.1,0.1,0.2c-1.7-0.2-3.4-0.5-5.2-0.7C121.9,58.8,122,58.2,122.1,57.6 M117.6,58c0.6-0.4,1.3-0.9,2.2-0.7
	c0.5,0.1,1.1,0.1,1.6,0.2c-0.1,0.6-0.2,1.2-0.2,1.8c-0.2,0-0.4,0-0.5-0.1c-0.9-0.1-1.8-0.2-2.8-0.4c-0.2,0-0.4-0.1-0.4-0.2
	C117.5,58.4,117.5,58.1,117.6,58 M125,62.1c-2.1-0.3-4.3-0.6-6.4-0.9c-0.1,0.3-0.2,0.6-0.3,0.8c2.2,0.3,4.5,0.6,6.7,0.9
	C125,62.6,125,62.3,125,62.1 M117,59.5c-0.9-0.1-1.7,0.5-1.8,1.4c-0.1,0.9,0.5,1.7,1.3,1.8c0.9,0.1,1.7-0.5,1.8-1.4
	C118.5,60.5,117.8,59.6,117,59.5 M114.9,61.6c0-0.3,0-0.6,0-0.8c-0.6-0.1-1.1-0.1-1.6-0.2C113.3,61.4,113.7,61.6,114.9,61.6
	 M128.3,62.5c-0.2,0.2-0.2,0.5-0.3,0.8c0.2-0.1,0.3-0.1,0.5-0.2c0.2,0.6,0.6,0,0.8,0.2c-0.1-0.3-0.2-0.6-0.3-1
	C128.8,62.4,128.4,62.3,128.3,62.5 M142.5,71.9c-0.7-0.2-1.5,0.2-1.8,1c-0.2,0.8,0.2,1.6,1,1.8c0.8,0.2,1.5-0.2,1.7-1
	C143.7,72.9,143.3,72.1,142.5,71.9 M145.2,74.1c-0.5-0.1-0.9-0.3-1.4-0.4c-0.1,0.2-0.2,0.5-0.3,0.7
	C144.4,74.8,144.8,74.7,145.2,74.1 M60.9,77.8c0,0.3-0.1,0.6-0.1,0.9c0,0.2,0.2,0.5,0.5,0.4c0.3,0,0.4,0.1,0.6,0.4
	c0.1,0.2,0.3,0.4,0.6,0.5c0.7,0.3,1.5,0,1.9-0.6c0.4-0.6,0.3-1.5-0.2-2c-0.6-0.6-1.2-0.6-2-0.1c0.2-0.4,0.6-0.6,0.9-0.5
	c0.8,0,1.5,0.6,1.7,1.4c0,0.2,0.1,0.3,0.3,0.3c1.6,0.2,3.1,0.4,4.7,0.6c0.1,0,0.3-0.1,0.3-0.1c0.4-0.7,1.1-1.1,1.9-1
	c0.9,0.1,1.4,0.6,1.6,1.5c0,0.1,0.1,0.2,0.2,0.2c0.3,0.1,0.7,0.1,1.1,0.1c0-0.1,0-0.2-0.1-0.3c-0.2-0.3-0.1-0.5,0.2-0.6
	c0.2-0.1,0.3-0.3,0.5-0.4c-0.1-0.1-0.2-0.1-0.2-0.1c-0.9,0.1-1.1-0.5-1.2-1.2c0-0.2-0.1-0.4-0.3-0.6c-0.5-0.4-1-0.8-1.6-1.2
	c-0.2-0.1-0.5-0.2-0.7-0.3c-1-0.1-2-0.2-3-0.4c-0.7-0.1-1.5-0.1-2.2,0.1c-1,0.3-2,0.6-3,1c-0.2,0.1-0.4,0.1-0.5-0.1
	c-0.1-0.2-0.2-0.3-0.3-0.5c0,0-0.1,0-0.1,0c0-0.2-0.6-0.7-0.8-0.7c-0.1,0-0.2,0.1-0.3,0.1c-0.1,0.1-0.2,0.2-0.3,0.3
	c0,0-0.1,0.1-0.1,0.2c0.1,0,0.2,0,0.2,0c0.1-0.1,0.3-0.3,0.4-0.4c0.2,0.2,0.5,0.4,0.5,0.5c0,0.4,0.3,0.3,0.5,0.4
	c0,0.1,0.1,0.3,0.1,0.5c-0.6,0-0.9,0.5-1.5,0.4c0,0.1,0,0.2,0,0.2c-0.5,0.1-0.3,0.7-0.6,0.8c0,0.2,0.1,0.3,0.1,0.5
	C60.8,77.9,60.9,77.8,60.9,77.8 M69.5,75.4c0,0,0-0.1,0-0.2c1.3,0.1,2.5,0.2,3.4,1.3c0.1,0.1,0.2,0.4,0.2,0.6c0,0.3-0.1,0.5-0.5,0.4
	c-1.1-0.1-2.3-0.3-3.4-0.5C69.4,76.4,69.4,75.9,69.5,75.4 M63.6,76.1c1.1-0.3,2.1-0.7,3.2-1c0.7-0.2,1.4,0,2.1,0
	c-0.1,0.6-0.2,1.2-0.2,1.8c-1.7-0.2-3.4-0.5-5.2-0.7C63.5,76.1,63.6,76.1,63.6,76.1 M64.6,79.5c1.8,0.2,3.5,0.5,5.3,0.7
	c0-0.3,0-0.6,0-0.8c-1.7-0.2-3.4-0.5-5-0.7C64.8,79,64.7,79.2,64.6,79.5 M71.9,78.1c-0.9-0.1-1.7,0.5-1.8,1.4
	c-0.1,0.9,0.5,1.7,1.4,1.8c0.9,0.1,1.7-0.5,1.8-1.4C73.4,79,72.8,78.2,71.9,78.1 M73.4,80.7c0.6,0.2,1.1,0,1.3-0.7
	c-0.4,0-0.7-0.1-1.1-0.1C73.6,80.2,73.5,80.4,73.4,80.7 M73.1,73.7c-2-0.3-4.1-0.6-6-0.9c-0.1,0.3-0.1,0.5-0.2,0.8
	c2.1,0.3,4.2,0.6,6.3,0.9L73.1,73.7L73.1,73.7z M65.3,71.2c-0.8,0-1.5,0.7-1.5,1.5c0,0.8,0.7,1.5,1.5,1.5c0.8,0,1.5-0.7,1.5-1.5
	C66.8,71.9,66.1,71.2,65.3,71.2 M79.2,76.1c0.7,0.2,1.6-0.4,1.7-1.2c0.2-0.9-0.4-1.7-1.2-1.8c-0.9-0.1-1.4,0.4-1.4,1.3
	c0,0.4,0.1,0.7,0.2,1.1C78.7,75.7,78.9,76,79.2,76.1 M78.9,73.7C78.9,73.7,78.9,73.7,78.9,73.7C78.9,73.7,78.9,73.7,78.9,73.7
	L78.9,73.7z M76.5,70.6c0,0,0,0.2,0.1,0.2c0.3,0.2,0.3,0.5,0.3,0.9c0,0.1,0,0.3,0,0.4c0,0,0,0,0.1,0c0.1-0.4,0.3-0.8,0.4-1.2
	c0-0.1-0.2-0.3-0.3-0.5c0,0,0,0,0.1,0c0.1-0.5,0.1-0.9,0.2-1.4c-0.4,0.1-0.7,0.2-1,0.2C76.5,69.8,76.7,70.2,76.5,70.6 M63.5,73.1
	v-0.8c-0.5-0.1-1-0.1-1.5-0.2C62.1,73.1,62.5,73.1,63.5,73.1 M79.6,71.5C79.6,71.5,79.7,71.5,79.6,71.5c0.2-0.4,0.6-0.5,0.8-0.6
	c-0.1-0.2-0.3-0.4-0.4-0.6c-0.2,0.3-0.4,0.6-0.6,0.8c0,0-0.1,0.1-0.1,0.1c-0.6,0-0.5,0.5-0.6,0.8C79,71.8,79.1,71.4,79.6,71.5
	 M90.5,72.8c-0.4,0-0.7,0.1-1,0.2v0.8C90.1,73.8,90.4,73.5,90.5,72.8 M78.1,74.8c-0.1,0-0.4,0-0.7-0.1c0.1,0.3,0.1,0.5,0.2,0.6
	c0,0-0.1,0-0.1,0.1c0.1,0.1,0.3,0.2,0.5,0.3c0.2,0,0.4-0.1,0.5-0.1l0,0l0,0l0,0l0,0l0,0C78.3,75.3,78.2,75.1,78.1,74.8 M77.6,72.3
	c0.1-0.2,0.3-0.4,0.5-0.6c0,0,0-0.1,0.1-0.1c0.1-0.2,0.2-0.5,0.3-0.8c-0.1-0.1-0.3-0.2-0.5-0.3c0,0.3-0.1,0.6-0.1,0.8
	c0,0.1,0,0.2,0,0.2C77.4,71.7,77.7,72.1,77.6,72.3 M76.1,71.5L76.1,71.5c-0.3-0.3-0.7-0.6-1.2-0.8c0,0.2,0,0.4-0.1,0.5
	c0.1,0,0.2,0,0.4,0C75.5,71.3,75.8,71.4,76.1,71.5 M123,79.2L123,79.2C123,79.2,123,79.1,123,79.2L123,79.2z M234.3,82.4
	c1.2,0,2.2,1,2.2,2.1h6.2l0.1-2.3l-3-0.4c0.3-0.1,0.5-0.3,0.7-0.6c0.2-0.4,0.6-0.7,0.9-1.1c0,0,0-0.1-0.1-0.2c0.4-0.1,0.7-0.2,1-0.2
	v-0.5c-0.3,0.1-0.6,0.1-0.8,0.2c-0.1-0.4-0.2-0.8-0.3-1.2c-0.5,0-0.9,0-1.4,0.1c0,0,0,0,0-0.1c0.7-0.3,1.5-0.7,2.3-1
	c0-0.1,0-0.1,0-0.2c-0.2,0-0.4-0.1-0.6,0c-0.7,0.2-1.5,0.5-2.2,0.8c-0.3,0.1-0.5,0.1-0.8-0.1c-2.4-1.6-5-2.2-7.8-1.3
	c-0.9,0.3-1.7,0.6-2.7,0.4c-0.1,0-0.3,0.2-0.4,0.3c-0.2,0.3-0.2,0.6-0.4,0.8c-0.5,0.6-0.4,1,0.3,1.2c0.6,0.2,1.2,0.3,1.8,0.5
	c0.1-0.1,0.2-0.3,0.3-0.5c0,0.3,0,0.5,0,0.8c0.1,0.6,0.7,0.9,1.3,0.8c0.5-0.1,0.9-0.6,0.9-1.2c0-0.2,0-0.4-0.1-0.5
	c0.1,0.3,0.2,0.6,0.4,1c1.9,0.2,3.9,0.5,6,0.7c0.2-1.3,0.7-1.5,1.7-1.8c0.5-0.1,0.6,0.1,0.5,0.7c-0.2-0.1-0.4-0.1-0.6-0.2
	c-0.5-0.1-1.1,0.2-1.3,0.8c-0.2,0.6,0,1.1,0.6,1.4l-2.8-0.4c-0.8-0.1-1.6-0.1-2.4-0.1h-7.3v-5.5H225v8.7h7.2
	C232.1,83.4,233.1,82.4,234.3,82.4 M230.8,80.6c-0.5,0-0.7-0.3-0.7-0.7c0-0.4,0.3-0.7,0.7-0.7c0.4,0,0.7,0.3,0.7,0.7
	C231.5,80.3,231.3,80.6,230.8,80.6 M233.9,77.6c-1.1-0.1-2.1-0.2-3.4-0.4c0.9-0.5,1.7-0.7,2.6-0.8C234,76.5,234.3,76.7,233.9,77.6
	 M234.5,77.7c-0.1-0.9,0-1.1,0.7-1c1,0.2,1.9,0.6,2.8,1.4C236.8,77.9,235.6,77.8,234.5,77.7 M238.9,80.8c0-0.5,0.3-0.7,0.7-0.7
	c0.4,0,0.7,0.2,0.7,0.7c0,0.4-0.2,0.7-0.7,0.7C239.2,81.4,238.9,81.3,238.9,80.8 M220.3,82.4c1.2,0,2.2,1,2.2,2.1h1.7v-8.1H222
	c-1.9,0-3.5,1.6-3.5,3.5v0c-0.2,1.2-2.1,1.2-2.1,1.2c-0.6,0.2-0.9,0.7-0.9,1.2l0,0.6h-0.4c-0.1,0-0.1,0-0.1,0.1v1.3h3
	C218.1,83.4,219.1,82.4,220.3,82.4 M220.3,77.8c0.8-0.6,2.1-0.6,3.2-0.6v3h-4.1C219.4,80.3,219.5,78.5,220.3,77.8"/>
</svg>
