<?xml version="1.0" encoding="utf-8"?>
<!-- Generator: Adobe Illustrator 18.1.1, SVG Export Plug-In . SVG Version: 6.00 Build 0)  -->
<svg version="1.1" id="Layer_1" xmlns="http://www.w3.org/2000/svg" xmlns:xlink="http://www.w3.org/1999/xlink" x="0px" y="0px"
	 viewBox="0 0 219.3 158.4" enable-background="new 0 0 219.3 158.4" xml:space="preserve">
<metadata><?xpacket begin="﻿" id="W5M0MpCehiHzreSzNTczkc9d"?>
<x:xmpmeta xmlns:x="adobe:ns:meta/" x:xmptk="Adobe XMP Core 5.6-c014 79.156821, 2014/08/29-03:07:50        ">
   <rdf:RDF xmlns:rdf="http://www.w3.org/1999/02/22-rdf-syntax-ns#">
      <rdf:Description rdf:about=""
            xmlns:xmpMM="http://ns.adobe.com/xap/1.0/mm/"
            xmlns:stRef="http://ns.adobe.com/xap/1.0/sType/ResourceRef#"
            xmlns:stEvt="http://ns.adobe.com/xap/1.0/sType/ResourceEvent#"
            xmlns:xmp="http://ns.adobe.com/xap/1.0/"
            xmlns:xmpGImg="http://ns.adobe.com/xap/1.0/g/img/"
            xmlns:pdf="http://ns.adobe.com/pdf/1.3/"
            xmlns:dc="http://purl.org/dc/elements/1.1/"
            xmlns:xmpTPg="http://ns.adobe.com/xap/1.0/t/pg/"
            xmlns:stDim="http://ns.adobe.com/xap/1.0/sType/Dimensions#"
            xmlns:xmpG="http://ns.adobe.com/xap/1.0/g/">
         <xmpMM:RenditionClass>proof:pdf</xmpMM:RenditionClass>
         <xmpMM:DocumentID>xmp.did:6df846b9-1d1e-d045-a92b-a5dbb9ec8126</xmpMM:DocumentID>
         <xmpMM:InstanceID>xmp.iid:6df846b9-1d1e-d045-a92b-a5dbb9ec8126</xmpMM:InstanceID>
         <xmpMM:OriginalDocumentID>uuid:896849e6-c1d2-49bf-8d13-d70b13b1ca63</xmpMM:OriginalDocumentID>
         <xmpMM:DerivedFrom rdf:parseType="Resource">
            <stRef:instanceID>uuid:64aa5fd6-fc1f-402b-a929-88186e9f2967</stRef:instanceID>
            <stRef:documentID>uuid:896849e6-c1d2-49bf-8d13-d70b13b1ca63</stRef:documentID>
            <stRef:originalDocumentID>uuid:896849e6-c1d2-49bf-8d13-d70b13b1ca63</stRef:originalDocumentID>
            <stRef:renditionClass>proof:pdf</stRef:renditionClass>
         </xmpMM:DerivedFrom>
         <xmpMM:History>
            <rdf:Seq>
               <rdf:li rdf:parseType="Resource">
                  <stEvt:action>saved</stEvt:action>
                  <stEvt:instanceID>xmp.iid:6df846b9-1d1e-d045-a92b-a5dbb9ec8126</stEvt:instanceID>
                  <stEvt:when>2015-03-23T00:06:02-05:00</stEvt:when>
                  <stEvt:softwareAgent>Adobe Illustrator CC 2014 (Windows)</stEvt:softwareAgent>
                  <stEvt:changed>/</stEvt:changed>
               </rdf:li>
            </rdf:Seq>
         </xmpMM:History>
         <xmp:CreateDate>2015-03-23T00:06:02-05:00</xmp:CreateDate>
         <xmp:CreatorTool>Adobe Illustrator CC 2014 (Windows)</xmp:CreatorTool>
         <xmp:ModifyDate>2015-03-23T00:06:02-05:00</xmp:ModifyDate>
         <xmp:MetadataDate>2015-03-23T00:06:02-05:00</xmp:MetadataDate>
         <xmp:Thumbnails>
            <rdf:Alt>
               <rdf:li rdf:parseType="Resource">
                  <xmpGImg:width>256</xmpGImg:width>
                  <xmpGImg:height>188</xmpGImg:height>
                  <xmpGImg:format>JPEG</xmpGImg:format>
                  <xmpGImg:image>/9j/4AAQSkZJRgABAgEASABIAAD/7QAsUGhvdG9zaG9wIDMuMAA4QklNA+0AAAAAABAASAAAAAEA&#xA;AQBIAAAAAQAB/+4ADkFkb2JlAGTAAAAAAf/bAIQABgQEBAUEBgUFBgkGBQYJCwgGBggLDAoKCwoK&#xA;DBAMDAwMDAwQDA4PEA8ODBMTFBQTExwbGxscHx8fHx8fHx8fHwEHBwcNDA0YEBAYGhURFRofHx8f&#xA;Hx8fHx8fHx8fHx8fHx8fHx8fHx8fHx8fHx8fHx8fHx8fHx8fHx8fHx8fHx8f/8AAEQgAvAEAAwER&#xA;AAIRAQMRAf/EAaIAAAAHAQEBAQEAAAAAAAAAAAQFAwIGAQAHCAkKCwEAAgIDAQEBAQEAAAAAAAAA&#xA;AQACAwQFBgcICQoLEAACAQMDAgQCBgcDBAIGAnMBAgMRBAAFIRIxQVEGE2EicYEUMpGhBxWxQiPB&#xA;UtHhMxZi8CRygvElQzRTkqKyY3PCNUQnk6OzNhdUZHTD0uIIJoMJChgZhJRFRqS0VtNVKBry4/PE&#xA;1OT0ZXWFlaW1xdXl9WZ2hpamtsbW5vY3R1dnd4eXp7fH1+f3OEhYaHiImKi4yNjo+Ck5SVlpeYmZ&#xA;qbnJ2en5KjpKWmp6ipqqusra6voRAAICAQIDBQUEBQYECAMDbQEAAhEDBCESMUEFURNhIgZxgZEy&#xA;obHwFMHR4SNCFVJicvEzJDRDghaSUyWiY7LCB3PSNeJEgxdUkwgJChgZJjZFGidkdFU38qOzwygp&#xA;0+PzhJSktMTU5PRldYWVpbXF1eX1RlZmdoaWprbG1ub2R1dnd4eXp7fH1+f3OEhYaHiImKi4yNjo&#xA;+DlJWWl5iZmpucnZ6fkqOkpaanqKmqq6ytrq+v/aAAwDAQACEQMRAD8A9U4q7FXYq7FXYqo315DZ&#xA;WU95MaQ28bSyH/JQFj+rIZJiMTI8gyhAykAOZfO2t+YNW1q6e4v7h5aklIq/u0HYKvQZxmfUTym5&#xA;F7DDghjFRC3TPMGtaXX9H3stsrfaRGPE/wCxPw4MWoyY/pJC5MEJ/UAU0/5WJ50/6ub/APAR/wDN&#xA;OX/yjn/nfc0/yfh/m/e7/lYnnT/q5v8A8BH/AM04/wAo5/533L/J+H+b97afmP51Q1GpsT7xxMPu&#xA;KHCO0s/877kHs/B/N+9U/wCVm+eP+rl/yQt/+qeH+VNR/O+wfqR/JuD+b9p/W7/lZvnj/q5f8kLf&#xA;/qnj/Kmo/nfYP1L/ACbg/m/af1rk/NDzsta3yvX+aGHb7kGEdqZ/532BB7Mwd32lf/ytPzp/y1p/&#xA;yJj/AOacP8q5+/7Aj+TMPd9pd/ytPzp/y1p/yJj/AOacf5Vz9/2Bf5Mw932lUX82POAUAzQsfExL&#xA;X8KZIdrZ+8fJH8l4e4/Nv/lbPnD/AH5B/wAih/XH+V83l8kfyVh8/m7/AJWz5w/35B/yKH9cf5Xz&#xA;eXyX+SsPn81X/lb/AJr/AJLX/kW3/NeS/ljN/R+SP5Jxebv+Vv8Amv8Aktf+Rbf814/yxm/o/Jf5&#xA;Jxeba/nB5qVgTFaMP5TG9PwcYjtjN/R/HxQeycX9L8fBU/5XL5n/AOWWy/5Fy/8AVXJfy1l7o/b+&#xA;tH8kYu+X2fqd/wArl8z/APLLZf8AIuX/AKq4/wAtZe6P2/rX+SMXfL7P1Lk/ObzGK87Ozbw4rKv6&#xA;5GwjtrL3R+39aD2Pj75fZ+pUX859cqOVjakdwPUB/wCJHD/LWT+aPtR/I+PvLN/J/n3TfMfKAIbX&#xA;UEHJrZjyDKOrI1BX7q5tdHr45tuUu51mr0MsO/OPeyfM9wXYq7FXYq7FXYq7FXYq7FXYqwv80r+Y&#xA;aRbaNa/FeaxOsKJ0JRWBP3uVGavtXIeAQH1TNOy7MxjjMzygGK+Z/IGj6BoVu7yyXGpTSBWkrxQA&#xA;KS3FQOnTqcji7GxAeqyU5e18l+mgGIfo+38D9+XfyPg7j82r+Vs3l8la20RrqX0rWCWeWlfTiDO1&#xA;B3ooJwfyPg8/mv8AK2fy+SL/AMG6v/1a7z/kTL/zTj/JGDz+af5Wz+Xyd/g3V/8Aq13n/ImX/mnH&#xA;+SMHn81/lbP5fJ3+DdX/AOrXef8AImX/AJpx/kjB5/Nf5Wz+Xyd/g3V/+rXef8iZf+acf5IwefzX&#xA;+Vs/l8nf4N1f/q13n/ImX/mnH+SMHn81/lbP5fJ3+DdX/wCrXef8iZf+acf5IwefzX+Vs/l8lkvl&#xA;LUoYmll066jiQFnd4pFUAdySu2U6jsvDHGSLsDvbcHaeaUwDVE9zUHlXUbiJZoNPupYn3SSOKRlP&#xA;bYgUyOl7MwzxiRuz5stV2lmhkMRVDyVP8G6x/wBWu8/5Ey/805kfyRg8/m0fytn8vkt/wfrFaDSr&#xA;35mGUf8AGuP8kYPP5r/K2fy+S7/Busf9Wu8/5Ey/804/yRg8/mv8rZ/L5O/wbq//AFa7z/kTL/zT&#xA;j/JGDz+a/wArZ/L5O/wbq/8A1a7z/kTL/wA04/yRg8/mv8rZ/L5O/wAG6v8A9Wu8/wCRMv8AzTj/&#xA;ACRg8/mv8rZ/L5KN15avLSMSXVlcW8ZPEPLG6LXwqwGP8kYPP5o/lbP5fJCfo+38D9+H+R8Hcfmv&#xA;8rZvL5LZNOiKngSG7V3GU5uxcZj6LEm3D2xkEvXRCK8km4XzdpXoMVk+soGI/kr+8H0pXNHohIZ4&#xA;gc+L+13esIOGR6V/Y+hc7J5F2KuxV2KuxV2KuxV2KuxV2KvOkm/T/wCa23x2ehxsB/LzTYn5+q//&#xA;AAuaUS8bWf0cf4+/7ncEeFpPOf4+5B/m1q0EeoWlvLIEjgiLmv8ANIaUp40QZvIB0kzTzxNe0xn4&#xA;+oV8GKkDLOEtfGEVHrlpaTJPFdrHLGeSPG1SCPDjXBwlPEGd6f8AnjoKWIGoxTyXibE28a8X/wAr&#xA;42TifEZHwinxgg7z8/rRaiz0eSTwaaYJ+Cq/68IxIObyTPyp+dOj6vepY6jbHTZ5WCRS8/UhLHor&#xA;NRShNe4p74JYiExygvR8qbXYq8m8+aprI8w3EDzyxQRcfq8SsypwKj4hTrXff6M5/X5Z+IRZAd/o&#xA;cUPDBrdi8mpX0wMQuZWU7OS7EU8NzQ5gHJI7WXNGOI3pyXWpRoI47uRYhsAGYED2oQPwxEpDYFJj&#xA;E7kMi8jajrK+YrSGK4mmilYieF3Z04U+JiCT9nqDmbock/FABJcPW44eGSQA9fzonnkLqepWOmWM&#xA;1/fSiC1gXlLI3YdOg3JJ2AGEC1Jp5bqH5+QrcMun6SZYATSWeXgzeB4KrU/4LLRiaDm8kN/yv68/&#xA;6s0f/I9v+aMPgr43k7/lf15/1Zo/+R7f80Y+CvjeTH/M/wCad7r0kHqWSwQQA8YlkLVZurElR2wj&#xA;HTE5bQ9hqVveoTHUOv2oz1GAimUZWiWNFJ8BXITlwgnubIRsgd6P/LCH1fOtix3EYlc7V/3UwH4n&#xA;OQ7MF5x8fues7SNYD8Pve7Z1ryzsVdirsVdirsVdirsVdiqA17VI9K0a81F+lvEzKD3foi/SxAyn&#xA;UZfDgZdwbcGLxJiPewr8nrGT6jqOrTVaW8mEYdupCDkx+ln/AAzV9jwPDKZ5yLs+15+qMB0Dzf8A&#xA;NaaS781XV3yLQ8zAg7AxfBt/rUrnQ4+Tz2XmwzLGp2KqF3M0EYlAqqkcx/knbEIK176FY5HBBCAF&#xA;ad+Q2w0tqMl59XiSID1Lp9yo7M2++NLb2vQ/za1qDQ7GO7jt5riOBEklPMs7KOPJqN1NN8x5Q3cq&#xA;MzSNX82tdk/u7C3C/wA78x+AbI8AZcbrj8xry6VRdaZZT8enqIzgfLkxyEsMZcxbKOWUeRpS/wAc&#xA;j/qy6d/yJ/tyP5bH3D5MvzE+8/N3+Of+1Lp//In+3H8tj7h8l/MT7z81a3/Ma7tqm30yzh5fa9NG&#xA;SvzoRko4Yx5CmMssjzNq3/K09Y/5ZLf/AIf/AJqyfCx4mH/mR541TWrC0sZo44YPUaV1i5fEyABe&#xA;VSenI5Zji1ZZPP8ALWl2KuxV2Ko7RZWj1KHiftEqw8QRkZcmUObKrg0gkP8Akn9WYWrNYZn+ifuc&#xA;/SC8sf6w+9OPynIHnCKp6wy0+7OZ7J/vx7i9J2p/cn3h7fnVPMOxV2KuxV2KuxV2KuxV2KvOPzk1&#xA;n0rC00iNvjuG9eYD+SPZQfmx/DNJ2zmqIgOu7ueyMNyM+7Zkvl23XQvJdtzHFra1NxMD/OwMrA/S&#xA;aZsNFi4MUY+X3uv1mXjyyPm8U1eH61Zz86tIQZAe/Mb/AI5sInd18hYYblzQ7FUJezBI2SVT6MgK&#xA;+ou9CfEYQgpACR0PTJsFaKKWR1ctwV24+qa0r7nAl6ZoOnxwaZbBvicINz779Mx5HdyoDZM8iydi&#xA;rsVdirsVdiqReaFPG2amwLgn58f6ZODXkSHLGp2KuxV2KozSATqVuBv8VfuFcjLkyjzZZOOUMg7l&#xA;TT7swtVHixSH9EudpZcOWJ/pBEfl9fJZecNNlc0R5DC3/PZTGP8AhmGcn2fk4c8T8Pm9Vr4cWGQ/&#xA;Gz3/ADsHk3Yq7FXYq7FXYq7FXYq7FXiOqzf4p/MdYV+O2a4W3QdR6EJ+Mj5hWb6c5XLL8xqq6XXw&#xA;D02IeBpr61fxL0n8wb36r5YnUGjXLJCv0nk3/Cqc6qPN5iXJ4+WUfaIFfHLGtj1/oTCQvaMrIxr6&#xA;ZYAj5V2plgk1Sh3Ja+n36g8YS5HYMlPpJNMlYYcJQZ0nXbwlPSEVsdiwZSWHtU4eIBHCVh8qXjC4&#xA;VIaEFRESy9QoJ7964eNeAph5d8uTGArfcY4w55x8lYnpttUZGU+5lGHezKNUVAqfYAooHSgylvbx&#xA;V2KuxV2AlQGi6Dqw+/IHLEdQzGOR6FsEHockJA8mJiQhr62t7uBoZGAPVWqKhh3yYNMZC2M3ml3N&#xA;qryOUMKbmQMoFPkSDlgkGkwLHk1j1PUES/3cjJyb2Ph9OJKiKnFqtzIzkEFFPEbdSOv47Y2nhCNt&#xA;9RV3CSAISaBq/D9NemNoMWZaPpkVp++kkV5mFF4moAPhkJStsjGk1BBFRuMizQ2t6TcaRd25qQtx&#xA;BDd20g22kUNt/qtUZxeuweDlIHLmHsdFn8XECefIvc/J/mOHX9DhvFI+sKBHdxj9mVR8W3g3UZ02&#xA;j1IzYxLr197zmr05xTMenT3J1mU4zsVdirsVeCea/POr65eS8Z3g04MRBaoSo4joXp9pj7/RnIav&#xA;XTyyO9R7nq9LooYo8rl3scillicPE7RuOjKSCPpGYQJHJzCAebM/K35n61pkyQ6lI9/p5ID+oeUy&#xA;DxVzu3yb8M2el7UnA1P1R+11up7NhMXH0y+x6X5p8xwWXlG41W1lDCeECykXu0wojD5V5fRm91Wp&#xA;EcJmDzG3xdLpdOZZhA9Dv8Hnf5R2MR1e81SchINPgP7xjQK0u1ST/kK2absfFeQy7h97t+18tYxH&#xA;vP3IP80fPzX7R2tl8FqjMYnP2mIFDIQen+TnU44PL5JvLZ553JdB6shO7OTT6T1OWyBrY00xIvcW&#xA;0Lm/QV9K2A7VEjmv0nMSWjMueSfwofcHKjrBHljh8bP3lel1qXo+nS3jUmpURf25WezYHnKZ/wA5&#xA;sHaUxyjAf5rvrGpf7+iHsIh/XH+S8XfP/TFP8p5e6P8ApQtae935TQ79awr/AFyQ7PgOUp/6YsT2&#xA;hM84w/0oWG4lUH95bVJqT6fHf6HGWDS1ynP/AE1/eGs6q+cIfKvuLcOqX9s/K3uYIz3oGIPzBZhl&#xA;0cdc5E/L9AaZZO6IHz/SU0j8yaqEVjdac9RUofVRwfDuMlQW5NjzvJG3Ge0Rx3eGYEfcQP14OEd6&#xA;8Z7kWnnDQ7qF45J5bN3BHIqQwr3VlDjAcZSMgQhk0Amp1y6PuSD/AMysxpaLFLnAFyY6zKOUyHK2&#xA;jFjx1yYDwYJ/GMZA9n4D/AGY1+cfxlLrnUHSd1t9TZolNFZ0jqad/sjH+S9MecPtP60fynqRyl9g&#xA;/Uo/X7htjeQvT+eND+ojCOzcQ+nij7pFB7Ryn6uGXviEt1HXWik9O5topYK7TIHAB9+LZMaQjlkn&#xA;8aP3hgdUDzhD7R9xQ0M1lEJ2hho8rFv7zkAzd1FP45kQxTHOQPw/b+hx55YHlEj4/s/Sqrq9vb26&#xA;RvEioop8RG5+7LyGkFLbm/uWDNbIrs38rAqv+qK75HhZiSbaDMyQ8LqUNMw5FmI2/wAkfLAgp/Za&#xA;hNbuJLeSoruAaqfniQoNPVptQsvN/lO2t1jWHWtOiDWSjpNGi0eNf8qi9O5G2aXtTR+JCx9UXddm&#xA;avw50fpkx7yl5qvPLmpC5hHqW8lFuretA6/wZexzndHq5YZWOXUPQ6vSxzRo8+j3rS9StdT0+C/t&#xA;CWt7heaFhQ+BBHiDtnXYsoyREhyLyuXGYSMTzCA1bzj5Z0mb0L+/SKcdYlDyMK/zLGGI+nKc2sxY&#xA;zUpbtuLSZcguMdnaX5y8r6pKIrLUYnlY0WN+UTsf8lZAhP0Y4tbiyGoyF/jvXLo8sBcopzmU4z59&#xA;85eVrvy/q0kLITZSsWs5+qshNQpP8y9DnHa3SHDOv4ej1uj1Qywv+LqkOYbluxVkes6vMfKWh6OX&#xA;JVBNdSCtftSusQ+gcj9OZubMfBhD3n7TTh4cQ8ac/cPs3S+212a10htOhX4JZfWnNePMgAIpIr8K&#xA;0rSnU5mdn6/FggQQTIlxNfocmeYIIEQEj1f1rxllbhCsSkbkv3+S5nw7biTUYEkuvn2KQOKUwAEv&#xA;ttOuJ1LmUIlfgITcj6Scnqu2fDPCBcuu/Jr0nZHijiJqPTzVv0ID9q5k/wBiFH8MwT29l6Rj9rnj&#xA;sLF1lJv9BW37U0zfN/6AZUe3M5/m/L9rYOxMA/nfj4N/oDTv2ldvm5ys9s6jvHybB2PgHQ/NsaDp&#xA;Q/3TX5s/9cge1tR/O+wfqZjsrT/zftP6140bTAa/V1+8n+OQPaeo/nH7GY7NwfzQuGk6aDX6un3Z&#xA;E9oZ/wCeWQ7PwfzQ3+jNO/5Zo/8AgRg/PZ/58vmy/I4f5kfk2NO08dLaL6UU/rGROtzH+OXzKRo8&#xA;I/gj8g46dp5FDbRU/wBRf6YjWZv58v8ATFTo8P8AMj8g0mmacihVtoqDpVQT95wy12cmzOXzKI6L&#xA;CBQhH5NnTdPJr9Wj+hQMRrsw/jl81Oiw/wAyPya/Renf8s8f/AjD+fz/AM+XzR+Rw/zI/JYdH0si&#xA;htkI+WS/lHP/ADyx/k/B/NCm/l3RXUq1ohU7Eb/1yY7U1H877v1MT2Zp/wCb96Gfyd5cb/jzC/6r&#xA;OP45MdsakfxfYP1MD2Tp/wCb9p/WoyeRvLz/AO6pF8KSMafeTkx23qO8fJgexsHcfmpr5D0ZGLRS&#xA;TxkilA60/Fa5bHt7OOkft/W1y7DwnrL7P1Kn+DbJV4xzSCnQt8Zr9OWx9oMg5xDTLsDGeUivj8vy&#xA;wxMVlRpBXiypxJH0GlfozIh2/EyAMaHv/Y48+wZCJIlZ937U78v389vaQozlzET8YIVgeRboF7V8&#xA;cu1Ha0Mc6lEtWm7LlkhcZBEXcyz3DzKCPUPJq7fEep28c5rVzxymZQui9JpYzjARnzDPvLHn6HRf&#xA;I0lvUPqUU0kdjD1AVwH5t/kqzNmx0vaAxaev4r2dfqdCcme/4a3eezTSzSvNKxeWRi7u25LMaknN&#xA;MSSbLtwABQW4EvS/y3/MC6+tRaJq0pljlPCzuXNWVu0bE9Q3RfA7dOm97N7QNjHM33H9Dpe0dAKM&#xA;4D3h6de2FlfWzW15ClxA/wBqOQBh89++b2eOMxUhYdJCcom4miw69/KDyvPIXgkuLQE/3aOrIPlz&#xA;Vm/HNbPsfETtYdjDtbKBvRY35l/Ki30vTp9Qg1VVhgXkyXKca+ADpX4j0A49cwdT2SMcTIS2He5m&#xA;m7UM5CJjz7nneaV3DsVQUlbq49If3ERrIfE+GbTF/g+PjP1y5eQ73VZf8Iy8A/u4fV5nuRgAAAGw&#xA;HQZrCb3LtAKFBvAl2KuxV2KuxV2KuxV2KuxV2KuxV2KuxV2KuxV2KuxV2KuxVByD6tciUbQymkg8&#xA;D45ssZ8fFwH64cvMdzq8o/L5eMfRP6vI96MzWu0VLYW7Txi5ZkgLASugDMF7kKSoP35KNXvyYyut&#xA;uac+YvKs+kxwXlvML7SLtQ1tfxqVU1/Ycb8W26f25k6nSHGBIHigeRcfT6oZCYkcMxzCRZiOUqW3&#xA;r/WIvq9fX5r6XH7XOvw0965KN2K5sZVRvk+nM7t4l2Kse8/rpp8pag1+iuiRkwcuonI4xFffkfuz&#xA;C7Q4fBlxd329HM0HF40eH8Dq8Azj3rFC7mMUJK/bb4UHucytHhGSe/0jc+5xNbmOPHt9R2HvXW0A&#xA;hhCd+rHxJyOpznLMy6dPcz0uAYoCPXr71XMdyHYq7FXYq7FXYq7FXYq7FXYq7FXYq7FXYq7FXYq7&#xA;FXYq7FXYqsljWSNkbowplmLIYSEhzDXlxDJExPIqNlIxRoX/ALyI8T7jscydbjHEJx+me/63F0OQ&#xA;8JhL6obfqROYTnM2/LbzNHbXh0LUQs2lai3ARygMiStsNj2fofehza9m6oRl4ct4S+91naOm4o+J&#xA;HacfuZnqX5ReWLqRpLZp7In9iNg0f3OGP/DZs8nZGKRsXF1uPtXLHY1JF+Xvy18vaLdJeD1Lu7jN&#xA;YnnI4o38yqoAr865Zp+zMeI8XM+bXqO0cmQcPIeTLM2LgOxV41+anmv9JakNJtXrZWLH1SOjz9D9&#xA;CfZ+dc5ntXV8cuAfTH73o+zNLwR4z9UvuYJmodqg5Xja+UOwVIV5fEafEc2WLHIacmIJMzW3cHV5&#xA;skTqAJEAQF795VWvrRRUyrTxzHGizH+EuTLXYR/EENJrukx/auUHzIH66ZdHsvOejTLtXAOv2IaT&#xA;zboaf8fKn5Mp/UTl8excx7vt/U0y7awjofs/WhpPPOiL/uwH5cj+pTl0ewp9T9n7WiXbkekft/Yh&#xA;n/MDTB9kE/7Fv40y+PYPeS0y7cl0iEPJ+Ydt+zG/0Iv8Wy6PYeMd/wA/2NMu2sp7vl+1Dv8AmFX7&#xA;MclP9gP65cOxsQ6fe1HtbMev2BQfz/OekLn/AJ6U/UuWjsrEOgaj2lmP8RUm8+XhJpC1PAyt/TJj&#xA;s7EOkfkGB12U/wAUvmVM+eNQp/dD/g2yf5HH3D5Bh+byfzj8ys/xrqX++0+9v65L8nDuY/mZ95d/&#xA;jXUv99p97f1x/Jw7l/Mz7y3/AI31QdET73/rg/I4+4fIMhq8n84/Mrl89aoOqD2ozj+JyJ7OxH+E&#xA;fIMhrco/il8yqL5+1AdYq/7M/wAQcrPZeE9AzHaOYfxFXT8xLofat9u/xg/8aZUexsJ6ff8ArbR2&#xA;tnHX7v1K8f5jdOduffof+acql2HiPIltj21lHOiiY/zFsj9uCQeOwp/xI5RLsAdJN0e3ZdYhEx+f&#xA;9Gb7fJPmCf1DKZdgz6S/Hzbo9ux6x+39iKj866A/+76fMEfrplEuxMw5U3x7bwnmJIqLzLokn2bu&#xA;P5chX8Mpl2TnH8LdHtbAetfBFR6jYyCqTKw8Qcolocw5xLdHX4TykFNpYhexyRuGEg4PQ1+WZEcU&#xA;zglGQI4dxf2uNPLAaiMokHi2NfYjc1jtXAkEEGhG4IxV9EeT9ZOseXLK+c1mdOE//GSM8WP0kVzt&#xA;NHm8TEJdXkNXh8PIY9E4zJcZ2KsZ/MHzIdD8vyPC3G9uj6Fse6kj4n/2K/jTMDtHU+Fj2+o7BzdB&#xA;p/Fyb/SNy8FJJNTuTnIvVuxVDyaXaXUvxwerI5AA3JJ7CmZOPVZYgRiS42TS4pEylEItPy0mnUP+&#xA;gSQeheKh+5qHM6MtaRtxuFKOiB/gQ8v5fRRNxk0FlPvA1PvpkTl1o/n/ACLIYtGf5nzCz/Atr/1Z&#xA;D/yIb+mDxtb/AE/kU+Do/wCh8w7/AALa/wDVkP8AyIb+mPja3+n8ivg6P+h8w7/Atr/1ZD/yIb+m&#xA;Pja3+n8ivg6P+h8w7/Atr/1ZD/yIb+mPja3+n8ivg6P+h8w7/Atr/wBWQ/8AIhv6Y+Nrf6fyK+Do&#xA;/wCh8w7/AALa/wDVkP8AyIb+mPja3+n8ivg6P+h8w7/Atr/1ZD/yIb+mPja3+n8ivg6P+h8w7/At&#xA;r/1ZD/yIb+mPja3+n8ivg6P+h8w7/Atr/wBWQ/8AIhv6Y+Nrf6fyK+Do/wCh8w7/AALa/wDVkP8A&#xA;yIb+mPja3+n8ivg6P+h8w7/Atr/1ZD/yIb+mPja3+n8ivg6P+h8w7/Atr/1ZD/yIb+mPja3+n8iv&#xA;g6P+h8w7/Atr/wBWQ/8AIhv6Y+Nrf6fyK+Do/wCh8w7/AALa/wDVkP8AyIb+mPja3+n8ivg6P+h8&#xA;w7/Atr/1ZD/yIb+mPja3+n8ivg6P+h8w7/Atr/1ZD/yIb+mPja3+n8ivg6P+h8w7/Atr/wBWQ/8A&#xA;Ihv6Y+Nrf6fyK+Do/wCh8w7/AALa/wDVkP8AyIb+mPja3+n8ivg6P+h8wiIfy0aYck0A08Wh4/8A&#xA;EqZOM9cf57GUNEP5ijeeQrexHO60UQKP92NEQv8AwXTK8uo1cPqMgzx4NJP6REqcOl2EDBoYVQru&#xA;ONRmLPWZZCjIkORHR4omxEWisxnKdir1/wDJm6L6He2xNfRuOY9hIg/imdJ2LO8ZHcXnu2I1MHvD&#xA;0HNy6h2KvG/zhvpJvMcFpX91a26lV/ypCSx+4LnM9s5CcoHcHo+yIAYye8sDzUO1ZB5d8nX+sATM&#xA;31ezJoJWFS1OvBf45SMpnlGHGOLJL5DzLianWRxDvL0nQPK2naWnCyh5zkfHcPQyH6ew9hncaXRw&#xA;wR/pdS8zqNXkzHfl3J39QuKdvlXMrxA4/CVGe2ZQVlSqnx3ByQILEimN6tpk8D+tDNxgY/ZIB4n5&#xA;+GAhkClvG5/5al/4FcCXcbn/AJal/wCBXFXcbn/lqX/gVxV3G5/5al/4FcVdxuf+Wpf+BXFXcbn/&#xA;AJal/wCBXFXcbn/lqX/gVxV3G5/5al/4FcVdxuf+Wpf+BXFXcbn/AJal/wCBXFXcbn/lqX/gVxV3&#xA;G5/5al/4FcVdxuf+Wpf+BXFXcbn/AJal/wCBXFXcbn/lqX/gVxVtY7pmCrcqWJoAFWpJwqy3Q9BM&#xA;cYkuX9SQ/tUAp7L/AFyMpUoFp4tvAooEH0iv68rMiyoLZrK2lQqyCjChoP4Y8RWmB+Yvy10uWRpr&#xA;Qm0kbcBADEf9h2+g5zvbOjOOBzYhYj9UfLvH6Q7TS9pTieGe4ec6vot/pNz6F2lOW8ci7o4HdTmj&#xA;0+phljcXfYssZiwgcvbHrH5KxMLDU5f2WljUfNVJP/Es6HsQemR8w6Dtk+qI8npGbx0yXeY9SuNL&#xA;8vapqdtEJ7ixtJ7mGA1o7wxM6oab/EVphCC+WtC86a35se8v9auBcX6yAcgixhYyvwKFQAUFDnO9&#xA;u4uHIJDqPud/2Jl4sZieh+9lPlvShqerwWr/ANzUvNT+RdyPp6ZzOsz+FjMhz6O0z5OCJL2PT7df&#xA;hiiUKooiKBQADwGZ3sbgFZMx+r6f0n57PL6yRJAT6ONI0CqKAZ2RNuOBS7FLTKrKVYVB6jEFUl1G&#xA;yR0ltnHJHG1fw+45kRNhqIosIrY/75f7j/XAydWx/wB8t9x/rirq2P8AvlvuP9cVdWx/3y33H+uK&#xA;urY/75b7j/XFXVsf98t9x/rirq2P++W+4/1xV1bH/fLfcf64q6tj/vlvuP8AXFXVsf8AfLfcf64q&#xA;6tj/AL5b7j/XFXVsf98t9x/rirq2P++W+4/1xV1bH/fLfcf64q6tj/vlvuP9cVTTy7bWk+oqUiKt&#xA;GKgsDSpPH+OKCz5VCqFGwGwyhscSB1+WRlIDmrsKqV3GHgcHqBUfRko+aDyYf5g0eLU9PmtHA57t&#xA;A/8AK4+yf4HPI84/KaucR9MZEf5v9jt9LmIqTx4ggkEUI2IzpXfq/wCXf5jeZdP/ADPsvLFm4m0a&#xA;9mWK6syiEh2jq0yvTmCgArvSg6Z1/ZOER04PeSf0foeU7UzE6gjuAH6X0zmc4TTokiMjqHRwVZWF&#xA;QQdiCDiryPz5+WnlLy5ojah5f01LGWS5X62UaRgyuGpQOzBQGpQLQZqe2omWMS7j97tOx5COQjvH&#xA;3JH+XkiLrzq3V4HVPnyVv1A5wna4Jxf5363ca0ej4vWNII9YjwBIzeex2YHBkh1Er+Yr9DzupHqB&#xA;TfOuaHYq7FUv1RlTi5/ZUk/IZbja5sEP6QJJrHv88KWqah4x/jirqah4x/jirqah4x/jirqah4x/&#xA;jirqah4x/jirqah4x/jirqah4x/jirqah4x/jirqah4x/jirqah4x/jirqah4x/jirqah4x/jirq&#xA;ah4x/jirqah4x/jiqbeW5LhL4+uU4kAjjWtQQe/thQWaO4UA+JAH0mmYWfL4YB7yB8zX7W0C1IzJ&#xA;yaVjSOP4V9270/VmulrIcUssjWPH6R/Sl1rv/mj/ADmfCeXUr4w7fHIKE/ZT+Uf1zL00Zz/eZBR6&#xA;R/mj/iu/u5DrcTXIN3DBYHJ8CPv2zNiN2B5MekILse1c8h7YyjJq8khy4j+p2OEVEPE710kvZ3j+&#xA;w8jslPAsSM6TECIgHuejgKAe1+WPyx8naNe22twaXGmvrAqS3paRm5tHxkYIzFFZqkEqtaGmd5gi&#xA;YY4x7gHjc0hLIZd5ZfljW7FUj872H17ynqcAFWEJlUd+UNJAB8+GYmux8eGQ8vu3crRT4csT5/fs&#xA;8D06+msL2G8h/vIW5AHoR0IPsRtnE5sQyRMTyL1c4CQIL2HQNctL2KO9tW5L0lj/AGlJ6qw8c0nZ&#xA;2qn2fqbkPSdj5jvHu5/Y6HU6cjYssR1dA6GqncHPUMWWOSInA3E8i6wim8tQ4kAVOwHU4qxDzNrd&#xA;pIz2iy0P2XK12A3pUDvlwFBr5ljf+gf7+f8A4b+mFLv9A/38/wDw39MVd/oH+/n/AOG/pirv9A/3&#xA;8/8Aw39MVd/oH+/n/wCG/pirv9A/38//AA39MVd/oH+/n/4b+mKu/wBA/wB/P/w39MVd/oH+/n/4&#xA;b+mKu/0D/fz/APDf0xV3+gf7+f8A4b+mKu/0D/fz/wDDf0xV3+gf7+f/AIb+mKu/0D/fz/8ADf0x&#xA;V3+gf7+f/hv6YqqW1xaW86TRzPzQ1Fa0+XTFWY2+sLe2sb27chGTy/mBpQbe2c17R49RwwnhFiJJ&#xA;NcwaoGvKyW/AY8iuS8b1E2Cqm0fKpC+LUHU5xWLtaQyR2EYw2hdkQ75EDnLz+xyzj2TeCSP0uQlE&#xA;ndnr/DtnovZ+SE8dxyeKep8/d/D7nCnseVIDUL4MPTQ7frzC7d7Xjo8RjE/vpDby8z+hOLHxnyYR&#xA;5y8yRWFm9lA9b6deO3+60bYsfenT788+7O0ZyS45fSPtd5pcBkbPIMI8rWH1/wAx6baEVWS4T1B/&#xA;kKeT/wDCg512lx8eWI83P1U+DHI+T6MztXjnYq7FWpESRGjcckcFWHiDscBFpBp80ajaNZahc2b/&#xA;AGraV4mr4oxX+GcNkhwyMe4vaY58UQe8OsdQvbCYTWkzQyeK9CPAg7H6coy4Y5BUhYWcBIUWVaf+&#xA;aOu2q0aGGXx2Za/MA0+7HRRnpT+6kRH+adw4WTs3HLvRsP53TnkkulxrIu3L1iAfoKfxzof5TkAP&#xA;Tfu/BcIdli/qr4IC+/NrV7qqhbeKI/sITWnueWQ/lbKOUR9rZ/JWPrI/Ylv+Orj/AH3b/ef64f5X&#xA;y/zR9q/yVi/nH7Gv8cz/AO+rf7z/AFx/lfL/ADR9q/yVi/nH7Hf45n/31b/ef64/yvl/mj7V/krF&#xA;/OP2O/xzP/vq3+8/1x/lfL/NH2r/ACVi/nH7Hf45n/31b/ef64/yvl/mj7V/krF/OP2O/wAcz/76&#xA;t/vP9cf5Xy/zR9q/yVi/nH7Hf45n/wB9W/3n+uP8r5f5o+1f5Kxfzj9jv8cz/wC+rf7z/XH+V8v8&#xA;0fav8lYv5x+x3+OZ/wDfVv8Aef64/wAr5f5o+1f5Kxfzj9jv8cz/AO+rf7z/AFx/lfL/ADR9q/yV&#xA;i/nH7Hf45n/31b/ef64/yvl/mj7V/krF/OP2O/xzP/vq3+8/1x/lfL/NH2r/ACVi/nH7Hf45n/31&#xA;b/ef64/yvl/mj7V/krF/OP2O/wAcz/76t/vP9cf5Xy/zR9q/yVi/nH7Hf45n/wB9W/3n+uP8r5f5&#xA;o+1f5Kxfzj9jv8cz/wC+rf7z/XH+V8v80fav8lYv5x+x3+OZ/wDfVv8Aef64/wAr5f5o+1f5Kxfz&#xA;j9ipD+YF7C/OJYEb2J/rj/K+X+aPtX+ScX84/Yj4vzWvFFZba3kYdGDFf4tlEtXGcuKeGEpd/Dug&#xA;9lwHKZdF+bOqT862cQRT8J5N/HI6rX5uHhxkY/cN/wBX2Lj7KgdySUHf+ftculKRFLVT1MYJen+s&#xA;xP4ZzsezoGXFMmcj3ufj0UI+bHHd3cu7FnY1ZmNSSe5JzPAAFBygGT/lncRQ+c7AyAHn6kaMf2Wa&#xA;NgD9PT6c2HZkgM8b/GzhdpRJwyr8bveM655V2KuxVjvnvzpp3lHQJdTu6PMf3dna1o0sxHwr8h1Y&#xA;9hkoRssJz4Rb55stau9aSTUrxg93cSyPcMooObOW2HYUOcn2vi4NRKuR3ep7Jy8eAXzGyIzWOydi&#xA;qlJbwyGrLv49MnHIRyYSgCt+pW/8p+85LxpI8KLvqVv/ACn7zj40l8KLvqVv/KfvOPjSXwou+pW/&#xA;8p+84+NJfCi76lb/AMp+84+NJfCil91HfT6rZ6JoloLvVr3k0aSNxjREBLO5qNtj3zadnaQ57MjU&#xA;Q6ztDVDBQiLkU2b8uPzTjV66bp8zA/D6dwVqPbm366ZtT2Vi/nS+z9Tq/wCVMv8ANj9v61KTyP8A&#xA;mijADyzFKKblL2Ab/wCycZA9kR6TPyZjtaXWA+aHby7+YcS1l8oTHehMdzGx+5eRys9j92T/AGP7&#xA;WY7X78f+y/YsfTvNkbES+UdS2FaxoZP+I5E9jz6THyZjtePWB+aGaTV4gpuPKusxA7VNrL+FQuVn&#xA;sfN0lFmO1sXWMlJtWt4+fr6TqUBT7Qkt3FPuJpkP5I1H86H4+DP+VsHdL8fFRfzR5cj4+sJ4i245&#xA;xuP8/oyB7K1I7j8WY7U0x724/NPlJ6D6yVJNAGSUfjxplZ7N1Q/h+0frZjtHSn+L7CncdvZyxrJE&#xA;Q8biqOrVUg9wRmvySyQPDLYhz4CExxR3BXfUrf8AlP3nI+NJn4UXfUrf+U/ecfGkvhRd9St/5T95&#xA;x8aS+FF31K3/AJT95x8aS+FF31K3/lP3nHxpL4UVVEVFCqKAdsrJJ5swKU7i7tbdeU8qxj/KIBPy&#xA;GW4tPkyGoRJasueGMXMgJVc+a7GOqwI07dj9hfvO/wCGbbB2Dll9ZEftP4+Lqc/buKP0Ay+wfj4P&#xA;dfy98teQriO2v7DUY9W1K3CSyGObaKQU3ES8XUV6c82OHsrHiIO5IcHL2pkyggUAXo2bBwXYq7FX&#xA;zL/zkNfX83n0Ws5ItbS1iFolfhpIOTuB4ltj8hmVhGzh5z6nmkdzcRLxildFJqQrECv0YZ4YSNyi&#xA;D7wiGacRUSR8V3169/5aJf8Ag2/rkPyuL+bH5Bl+ay/zpfMu+vXv/LRL/wAG39cfyuL+bH5BfzWX&#xA;+dL5l3169/5aJf8Ag2/rj+VxfzY/IL+ay/zpfMu+vXv/AC0S/wDBt/XH8ri/mx+QX81l/nS+Zd9e&#xA;vf8Alol/4Nv64/lcX82PyC/msv8AOl8y769e/wDLRL/wbf1x/K4v5sfkF/NZf50vmXfXr3/lol/4&#xA;Nv64/lcX82PyC/msv86XzLvr17/y0S/8G39cfyuL+bH5BfzWX+dL5lmH5Lerc/mdFJJKzm3sJnHI&#xA;lupC03/164JY4xFRAHuZwySkbkSX0flTY7FXYq7FXYq7FXYqhLvSNKvIZIbuzguIpgRLHLGjqwPX&#xA;kCDXDa0+TGnltbi8srWSWO0tru4jtQWYERCQ8RsabGv05b4MJbyiCfc0nNOO0SQPe19evf8Alol/&#xA;4Nv64/lcX82PyCPzWX+dL5l3169/5aJf+Db+uP5XF/Nj8gv5rL/Ol8y769e/8tEv/Bt/XH8ri/mx&#xA;+QX81l/nS+Zd9evf+WiX/g2/rj+VxfzY/IL+ay/zpfMu+vXv/LRL/wAG39cfyuL+bH5BfzWX+dL5&#xA;l3169/5aJf8Ag2/rj+VxfzY/IL+ay/zpfMqLMzMWYlmPUnc5cIgCg0kkmy1hQitN1K/0y9hvtPne&#xA;2u4GDRTRmjAj+HiO+JFpBp9j+TNbm1zypperTqEnvLdJJlXpzpRyPYsNswpCjTnwNi05yLJ2KsM/&#xA;Mb8r9H86wQvPK1nqVspS3vUUP8JNeEiErzWu43FPvycJmLXPGJPnH81PId3+X93p8M9yt/FqEcjx&#xA;zIhiAaJgGWhL9nU/TmRHJbjyxUwX9Mr/AL6P3/2ZLiY8Dv0yv++j9/8AZjxLwO/TK/76P3/2Y8S8&#xA;Dv0yv++j9/8AZjxLwO/TK/76P3/2Y8S8D3XSv+cdLjU9Ls9Sg8wRehewR3EX+jN9iVA6/wC7PBsq&#xA;ObybBg80V/0LHff9X+L/AKRm/wCqmPj+Sfy/m7/oWO+/6v8AF/0jN/1Ux8fyX8v5oDyH5RPk385r&#xA;vRbq6W5kk0YvbzcDGHLzRNRQS3QI3fscEpcQtMY8Jp7PlTY7FXYq7FXYq7FXYq7FXgfkD8nLvzto&#xA;cmuJq8dqHu7iP0zCZKlZCxaodRvy8Mu8Th2afC4t2Sf9Cx33/V/i/wCkZv8Aqpj4/kn8v5u/6Fjv&#xA;v+r/ABf9Izf9VMfH8l/L+bz782fy9ufy+/RXO+TUP0n9YpxjMXD6v6fiz15er+GSjkthLFTz39My&#xA;/wC+1+85PiY8Dv0zL/vtfvOPEvA79My/77X7zjxLwO/TMv8AvtfvOPEvA79My/77X7zjxLwPouw/&#xA;5xl43cTX+uiS0VqyxwwcHYeCszsFr40OVHP5No0/m9tsLG0sLG3sbSMRWtrGsMEQ6KiDio39hmOS&#xA;5AFK+KXYq7FXiX/OVek/WPJ+l6mq1axvfSY+EdxGan/golGWYzu15Rs+XcvaHYq7FXYq7FX23+TF&#xA;1Pc/lb5cknNXW19If6kLtGn/AAiDMafNyYcmaZFk7FWJeevyw8r+dDbTaos0F/Z7W2oWcgiuEWte&#xA;PIh1IruKqadslGRDGUQWMn8hoI5C1p5y8xwVFP8Ae0E/eqJth4/Jj4az/lSvmSNFFv8AmDrCsprW&#xA;U+tUdd6uK/ScPH5LwebR/KX8xoy7W35jXFCPhSawjk3A7sZdt/BceMdy8B71v/KvPzni4ej56tpg&#xA;uxWbT4V2+YVmP348Q7l4D3rW8ofn3GH9LzDo1wa/AZYHTb34RGn448UV4ZNHR/8AnISBl+Py5dCm&#xA;+90B9O0Z+7G4rwyWFv8AnIGJKtoWi3Dg/wC6p3So9ucv8cfSipKVze/n5KkltD5TsoJJV4x3v12F&#xA;kiLbcyhk5Nx+X34+lakzv8svJf8Ag3ybY6E8qz3MXOW7mQEK0srF2413oteIPcDIyNlnEUGU5Fk7&#xA;FXzx/wA5cf8ATKf9vD/sWy3E1Zej53y5pdirsVdirsVfofmI5bsVdirsVdirDfzh8vT6/wDlvren&#xA;26GS6EIuLdAKsXt3WbivuwQr9OSgaLGYsPiLMlxnYq7FXYqm3lXyvq/mfXbbRtKiMt1ctQtQ8I0B&#xA;+KSQjoqjqcBNJAt90+XtEtdC0LT9GtSTb6fBHbxsdiwjULyNO7Hc5jE25IFJhgS7FXYq7FXYq7FX&#xA;Yq7FXYq7FXYq7FXYq7FXz3/zlvBMYPK84QmGNr5HfsGcQFR9IRvuy3E1ZXzplzS7FXYq7FVS3glu&#xA;J44IVLzTMscaDqWY0AHzOKv0LzEct2KuxV2KuxV2KvBPzQ/5xtbU9Qn1nyhLFbz3DGS50qYlIy7b&#xA;s0DgHjyP7DbeBA2y2OTvapY+55dH/wA4/wD5tPcmA6GUp1la4tvTp48hKa/Rvk+MMOAsp0n/AJxU&#xA;85XBVtT1SxsYyN1i9S4kHzXjEn3PkTkCRiLNdJ/5xT8owcW1TVr2+dftLEI7eNvmCJW+5sicpZjE&#xA;HqXlTyR5W8p2bWug6fHZrJT1pRV5ZCOnORyzt7CtB2yBJLMABPMCXYq7FXYq7FXYq7FXYq7FXYq7&#xA;FXYq7FXYq7FWKfmb5DtfO/lS40aVxDchhPYXJBIjuEBCkgfssGKt7HxyUZUWMo2Hxj5m8q6/5Z1O&#xA;TTdbs5LS5QnjzHwSKP243+y6+4zIBtxyKSnCh2KuxV7p+Qn5M6rdaxa+a/MFs1rptkwm062mXjJP&#xA;MN45OB3EaH4gT1NKbVyqc+jbCHV9N5S3OxV2KuxV2KuxV2KuxV2KuxV2KuxV2KuxV2KuxV2KuxV2&#xA;KuxV2KuxV2KuxV2KuxV2Kpdr3+HfqR/T/wBT+o13+v8ApelX/nr8OEILDP8ArHr/AL9L/uW5L1eb&#xA;H0+Tv+sev+/S/wC5bj6vNfT5JloP/KnPr6foD/Dv1+o9P6h9R9avanpfFgNpFMyyLJ2KuxV2Kv8A&#xA;/9k=</xmpGImg:image>
               </rdf:li>
            </rdf:Alt>
         </xmp:Thumbnails>
         <pdf:Producer>Adobe PDF library 11.00</pdf:Producer>
         <dc:format>image/svg+xml</dc:format>
         <xmpTPg:MaxPageSize rdf:parseType="Resource">
            <stDim:w>219.311927</stDim:w>
            <stDim:h>158.353888</stDim:h>
            <stDim:unit>Pixels</stDim:unit>
         </xmpTPg:MaxPageSize>
         <xmpTPg:NPages>1</xmpTPg:NPages>
         <xmpTPg:HasVisibleTransparency>True</xmpTPg:HasVisibleTransparency>
         <xmpTPg:HasVisibleOverprint>False</xmpTPg:HasVisibleOverprint>
         <xmpTPg:PlateNames>
            <rdf:Seq>
               <rdf:li>Cyan</rdf:li>
               <rdf:li>Magenta</rdf:li>
               <rdf:li>Yellow</rdf:li>
               <rdf:li>Black</rdf:li>
            </rdf:Seq>
         </xmpTPg:PlateNames>
         <xmpTPg:SwatchGroups>
            <rdf:Seq>
               <rdf:li rdf:parseType="Resource">
                  <xmpG:groupName>Default Swatch Group</xmpG:groupName>
                  <xmpG:groupType>0</xmpG:groupType>
               </rdf:li>
            </rdf:Seq>
         </xmpTPg:SwatchGroups>
      </rdf:Description>
   </rdf:RDF>
</x:xmpmeta>
                                                                                                    
                                                                                                    
                                                                                                    
                                                                                                    
                                                                                                    
                                                                                                    
                                                                                                    
                                                                                                    
                                                                                                    
                                                                                                    
                                                                                                    
                                                                                                    
                                                                                                    
                                                                                                    
                                                                                                    
                                                                                                    
                                                                                                    
                                                                                                    
                                                                                                    
                                                                                                    
                           
<?xpacket end="w"?>
	</metadata>
<g>
	<g>
		<path fill="#253844" d="M15.8,95.6l-7.5,2c-0.7,0.2-1.4-0.2-1.6-0.9l-0.6-2.3c-0.4-1.6,0.5-3.2,2.1-3.6l5.9-1.6L15.8,95.6z"/>
	</g>
	<g>
		<path fill="#253844" d="M201.5,95.6l7.5,2c0.7,0.2,1.4-0.2,1.6-0.9l0.6-2.3c0.4-1.6-0.5-3.2-2.1-3.6l-5.9-1.6L201.5,95.6z"/>
	</g>
	<g opacity="0.59">
		<path fill="#253844" d="M178.8,43.4c0,0,0.5-33.3,0.2-34c-0.2-0.7-7.5-3.6-7.5-3.6l-0.8,0.8L55,7.4c-0.1-0.1-0.3,0-0.4,0.1l0,0
			c-0.1,0.1-0.2,0.2-0.4,0.1l-6.6-4.2c-0.1-0.1-0.3,0-0.4,0.1l-9.2,39.4L25.7,55.6l165.4-1.2L178.8,43.4z M147.6,23.5H70.3
			L58.8,12.8h103.6l-5.8,10.6H147.6z"/>
	</g>
	<g>
		<g>
			<path fill="#395767" d="M55.6,39.4h19.5c4.6,0,8.3-3.7,8.3-8.3v-5.8c0-4.6-3.7-8.3-8.3-8.3l-19.9,3c-4-2.6-9.3-1.5-11.9,2.5
				l3.9,8.6C47.2,35.7,51,39.4,55.6,39.4z"/>
		</g>
		<g>
			<path fill="#395767" d="M82.5,41H45.6c-4.6,0-8.3,3.7-8.3,8.3v5.8c0,4.6,3.7,8.3,8.3,8.3h36.9c4.6,0,8.3-3.7,8.3-8.3v-5.8
				C90.8,44.8,87.1,41,82.5,41z"/>
		</g>
		<g>
			<path fill="#395767" d="M171.5,41h-14.9v-1.6h5.1c4.6,0,8.3-3.7,8.3-8.3v-5.8c0-4.6-3.7-8.3-8.3-8.3h-19.5
				c-4.6,0-8.3,3.7-8.3,8.3v5.8c0,4.6,3.7,8.3,8.3,8.3h6.1V41h-16.1c-4.6,0-8.3,3.7-8.3,8.3v5.8c0,4.6,3.7,8.3,8.3,8.3h39.3
				c4.6,0,8.3-3.7,8.3-8.3v-5.8C179.8,44.8,176.1,41,171.5,41z"/>
		</g>
	</g>
	<g>
		<path fill="#253844" d="M168.5,46c-3.7-8.2-13.4-11.9-21.6-8.2s-11.9,13.4-8.2,21.6s13.4,11.9,21.6,8.2
			C168.5,63.9,172.2,54.2,168.5,46z M162.7,59.7c-2-2.3-4.6-5.3-6.2-7.1l7-5.7c0.2,0.4,0.4,0.7,0.6,1.1
			C165.8,52,165.2,56.4,162.7,59.7z M148.9,42.2c3.8-1.7,8.1-1.2,11.3,1.1c-3.5,2.8-13.2,10.7-17.1,13.8
			C140.6,51.4,143.2,44.8,148.9,42.2z M145.9,61.1l6.8-5.5l6.2,7.2c-0.2,0.1-0.4,0.2-0.6,0.3C154,65,149.1,64.1,145.9,61.1z"/>
	</g>
	<g>
		<path fill="#253844" d="M27.6,52.8c0,0,77.4-14.2,161.2,0.2"/>
	</g>
	<g>
		<path fill="#CB7329" d="M24.7,58.7l-0.7-2c0,0-2.7-0.9-1.8-3.8l0,0c0.1-0.2,0.1-0.3,0.2-0.5c1.2-4.2-2.8-9-8.9-10.7
			s-12,0.3-13.2,4.5S3,55.2,9.1,57c1.6,0.4,3.1,0.6,4.6,0.6c2.3,0.2,7.9,1,9.9,5C26.1,67.7,24.7,58.7,24.7,58.7z"/>
	</g>
	<g>
		<path fill="#CB7329" d="M193.2,56.7l1.3-1.8c0,0,2.9-2.8,4.4-5.4l0,0.1c0.1-0.2,0.2-0.3,0.3-0.5c2.4-3.7,8.6-3.8,13.9-0.4
			s7.7,9.2,5.3,12.9c-2.4,3.7-8.6,3.8-13.9,0.4c-1.4-0.9-2.5-1.9-3.5-3.1c-1.6-1.6-4.8-1.6-7.8,1.8C189.5,65,193.2,56.7,193.2,56.7z
			"/>
	</g>
	<g>
		<path fill="#CB7329" d="M118.8,14.3H111V8.8h-2.3v5.6h-8c-1.8,0-3.3,1.5-3.3,3.3v0.1c0,1.8,1.5,3.3,3.3,3.3h18.1
			c1.8,0,3.3-1.5,3.3-3.3v-0.1C122.1,15.8,120.6,14.3,118.8,14.3z"/>
	</g>
	<g opacity="0.19">
		<path fill="#FBF8EC" d="M189.1,45.5c-7.7-4.4-13.1-12.8-10.5-22c0.7-2.6,1.8-5.2,3.3-7.5l-2.7-9.4L48.1,3.9
			c-0.1-0.1-0.2-0.1-0.3,0L25,56.7l165.8-0.1l-1.4-11C189.3,45.6,189.2,45.5,189.1,45.5z M114.7,17.9l-5.3-1.8l-3.5,3.9L99,22.7
			l-18.5,9.4l4.8,5.3l-7.4-4.5v10.5l-5.5-8.1l-2.2,9.1v-8.4L48,51.2l8.7-7.1L45,46.2l-14.5,5.9L46,45.1l10.3-1.8L55,41l9.1-4.2
			l3.5-1.6l-5.5-5.5l6.5,2.6L65,20.9l5.5,6.7l0.2-4.8l1.9,5l6.2-10.8L75,28.5l15.8-12.9L80.5,28l21.4-7.5l3.7-1.7l3.7-4.1l5.1,1.8
			l1.9-2.1l3.4,0.6l5.9-3.2l5.3-2.2l1.9-0.5l-7.2,3.5l-5.1,3.3l-3.7-0.4L114.7,17.9z M180.6,51.3l-3-0.4l-0.7-1.6l-6.3-0.4l-8.6,1.6
			c0,0-22.8-1.6-23.3-1.8c-0.5-0.2-19.5-2.5-19.5-2.5l23.7,2.3l-10.6-9.3l12.2,7.5l0.9-13.3l2.3,13.1l7.3-12L151,45.7l6.8-2.9
			l-4.3,3.6l9.1-5.4l-5.7,5.7l11.8-6.3l-4.7,7.5l8.7-0.8l3.9,1.6l0.2,0.6l8.4,0.5L180.6,51.3z"/>
	</g>
	<g>
		<g>
			<path fill="#CB7329" d="M189.1,45.5c-1-0.6-2-1.3-2.9-2l2.3,9.5H29.1l11.1-40.2c0.6-2.3,2.7-3.9,5.1-3.9h128.2
				c2.5,0,4.6,1.7,5.2,4.1c0,0-2.5,13.6-1,19.8c1.4,6.2,10.8,20.3,10.8,20.3c1.2-2.5,2.6-4.8,4.5-6.7c0,0-7.2-5.4-9.4-14.5
				c-2.2-9.1,0.5-22.3,0.5-22.3c-1-4-4.5-6.8-8.6-6.8L52.7,1.5c-3.4-2.2-7.9-1.9-11,0.8L21.2,59H196l-3-12.6
				C191.7,46.5,190.3,46.2,189.1,45.5z"/>
		</g>
	</g>
	<g>
		<path fill="#253844" d="M47,153l-14.4,2.8c-6.2,1.2-12.2-2.8-13.4-9.1l-2.6-13.4l36.9-7.2l2.6,13.4C57.2,145.7,53.2,151.7,47,153z
			"/>
	</g>
	<g>
		<path fill="#395767" d="M16.4,116l-6.2,7.8c-3.2,4.1-0.3,10,4.9,10h186.9c5.2,0,8.8-9.6-3.8-11.9l2.7-5.6"/>
	</g>
	<g>
		<path fill="#CB7329" d="M191.5,53c0,0-36-3.8-81.2-4l0,0c-0.6,0-1.2,0-1.8,0c-0.6,0-1.2,0-1.8,0l0,0c-45.2,0.2-81.2,4-81.2,4
			l-7.6,9.3c7.6,2.5-11.2,17.1-8.8,28.3l7.1,33.2h92.9h6h69.7l19.5-6.1l-1.2-5.8l4.6-21.4c2.4-11.3-1.2-23-9.5-31L191.5,53z"/>
	</g>
	<g>
		<path fill="#253844" d="M187.2,158.4h-14.7c-6.3,0-11.5-5.1-11.5-11.5v-13.6h37.6v13.6C198.7,153.2,193.6,158.4,187.2,158.4z"/>
	</g>
	<g>
		<rect x="39.1" y="81.4" fill="#C5C5C3" width="139" height="31"/>
	</g>
	<g>
		<g>
			<rect x="41.7" y="84" fill="#AEAEAF" width="133.8" height="1.7"/>
		</g>
		<g>
			<rect x="41.7" y="88.9" fill="#AEAEAF" width="133.8" height="1.7"/>
		</g>
		<g>
			<rect x="41.7" y="93.7" fill="#AEAEAF" width="133.8" height="1.7"/>
		</g>
		<g>
			<rect x="41.7" y="98.5" fill="#AEAEAF" width="133.8" height="1.7"/>
		</g>
		<g>
			<rect x="41.7" y="103.3" fill="#AEAEAF" width="133.8" height="1.7"/>
		</g>
		<g>
			<rect x="41.7" y="108.1" fill="#AEAEAF" width="133.8" height="1.7"/>
		</g>
	</g>
	<g opacity="0.22">
		<g>
			<path fill="#253844" d="M176.5,118.4H39.8c-2.8,0-5.1-2.5-5.1-5.5v-4.1h2.4v4.1c0,1.6,1.2,2.9,2.7,2.9h136.7
				c1.5,0,2.7-1.3,2.7-2.9v-4.1h2.4v4.1C181.6,115.9,179.3,118.4,176.5,118.4z"/>
		</g>
	</g>
	<g>
		<ellipse fill="#FBED21" cx="183.4" cy="98.3" rx="15.8" ry="14.3"/>
	</g>
	<g>
		<circle fill="#DFE5E7" cx="177.4" cy="96.8" r="15.8"/>
	</g>
	<g>
		<circle fill="#FBF8EC" cx="177.4" cy="96.8" r="13.8"/>
	</g>
	<g>
		<ellipse fill="#FBED21" cx="33.9" cy="98.3" rx="15.8" ry="14.3"/>
	</g>
	<g>
		<circle fill="#DFE5E7" cx="39.1" cy="96.8" r="15.8"/>
	</g>
	<g>
		<circle fill="#FBF8EC" cx="38.1" cy="99.8" r="13"/>
	</g>
	<g>
		<path fill="#DFE5E7" d="M135.6,140.6L82.7,138c-1.9-0.1-3.3-1.7-3.2-3.5l0.6-11.8c0.1-1.9,1.7-3.3,3.5-3.2l52.8,2.6
			c1.9,0.1,3.3,1.7,3.2,3.5l-0.6,11.8C139,139.3,137.4,140.7,135.6,140.6z"/>
		<path fill="#253844" d="M135,142.1c-0.2,0-0.3,0-0.5,0l-52.8-2.6c-1.1-0.1-2.2-0.6-3-1.4c-0.8-0.8-1.2-1.9-1.1-3.1l0.6-11.8
			c0.1-2.2,1.8-3.9,4-4.1c0.2,0,0.3,0,0.5,0l52.8,2.6c1.1,0.1,2.2,0.6,3,1.4c0.8,0.8,1.2,1.9,1.1,3.1L139,138
			C138.9,140.2,137.2,142,135,142.1z M82.3,121c-1.3,0.1-2.3,1.1-2.3,2.4l-0.6,11.8c0,0.7,0.2,1.3,0.6,1.8c0.4,0.5,1.1,0.8,1.7,0.8
			l52.8,2.6c1.4,0.1,2.5-1,2.6-2.4l0.6-11.8c0-0.7-0.2-1.3-0.6-1.8c-0.4-0.5-1.1-0.8-1.7-0.8L82.6,121C82.5,121,82.4,121,82.3,121z"
			/>
	</g>
	<g opacity="0.56">
		<path fill="#1F6E8D" d="M190.7,75.7c0.2-0.5-0.1-6.5-11.7-23.8c-0.7-0.1-1.5-0.1-2.3-0.2C187.3,66.5,189,73.2,189,74.9l-43.3-4.1
			c-23.8-2.2-47.7-2.2-71.5,0l-43.3,4.1C34,63.6,42.2,54.2,45,51.3c-0.9,0.1-1.7,0.1-2.5,0.2c-1.8,1.9-10,10.8-13.2,23.9L29,76.4
			l161.7,0L190.7,75.7z"/>
	</g>
	<g>
		<g>
			<g>
				<path fill="#395767" d="M110.5,49.4c-0.1,0-0.2,0-0.3-0.1c-13.5-7.5-63.3-4-63.8-4c-0.4,0-0.7-0.3-0.8-0.7
					c0-0.4,0.3-0.7,0.7-0.8c2.1-0.1,50.6-3.5,64.6,4.2c0.3,0.2,0.5,0.6,0.3,1C111,49.2,110.8,49.4,110.5,49.4z"/>
			</g>
		</g>
		<g>
			<path fill="#CB7329" d="M45.8,44c0,0,10.4-5,41.4-0.5c0.7,0.2-9.2-0.4-19.4-0.3C57.9,43.2,47.7,43.8,45.8,44z"/>
		</g>
	</g>
	<g>
		<g>
			<g>
				<path fill="#395767" d="M173,51.7c-0.1,0-0.2,0-0.3-0.1c-13-8.3-62.9-8-63.4-8c-0.4,0-0.7-0.3-0.7-0.7c0-0.4,0.3-0.7,0.7-0.7
					c2.1,0,50.8-0.4,64.2,8.2c0.3,0.2,0.4,0.7,0.2,1C173.5,51.6,173.2,51.7,173,51.7z"/>
			</g>
		</g>
		<g>
			<path fill="#CB7329" d="M108.7,42.3c0,0,10.7-4.3,41.4,2.1c0.7,0.3-9.1-0.9-19.3-1.6C120.9,42.2,110.6,42.2,108.7,42.3z"/>
		</g>
	</g>
	<g>
		<g>
			<polygon fill="none" points="125.5,12.6 132.7,9.2 130.8,9.6 125.5,11.8 119.7,15 116.3,14.4 114.4,16.6 109.3,14.8 105.6,18.8 
				101.9,20.6 90.5,25.9 99,22.7 105.9,20 109.4,16.1 114.7,17.9 116.7,15.6 120.4,16 			"/>
		</g>
		<g>
			<polygon fill="none" points="56.6,40.9 63.3,38.7 67.6,35.2 64.1,36.8 55,41 56.2,43.3 46,45.1 30.4,52.2 45,46.2 56.7,44.1 
				57.9,43.1 			"/>
		</g>
		<g>
			<polygon fill="none" points="101.9,20.6 80.5,28 90.8,15.6 75,28.5 78.8,17.1 72.6,27.8 70.7,22.8 70.5,27.6 65,20.9 68.5,32.3 
				62.1,29.7 67.6,35.2 63.3,38.7 64.1,38.4 70.2,35.9 70.2,44.3 72.4,35.2 77.9,43.3 77.9,32.8 85.3,37.4 80.5,32.1 99,22.7 
				90.5,25.9 			"/>
		</g>
		<g>
			<polygon fill="none" points="57.9,43.1 56.7,44.1 58.4,43.8 			"/>
		</g>
		<g opacity="0.19">
			<polygon fill="#FBF8EC" points="57.9,43.1 63.3,38.7 56.6,40.9 			"/>
		</g>
	</g>
	<g>
		<path fill="#253844" d="M29,76.4c0,0,52.2-5,85.8-5s75.9,5,75.9,5L29,76.4z"/>
	</g>
	<g>
		<path fill="#FBED21" d="M177,94.5l-7.7,12.5l1.3-8.1l-2.7,7.8c1.8,1.8,4.2,3.1,6.8,3.6c0.6,0.1,1,0.1,1,0.1l5.9-0.9l-5-1.8
			l4.5-3.9l-7,2.9c0,0,8.6-10.2,9.1-10.8c0.5-0.5-12.7,12-12.7,12L177,94.5z"/>
	</g>
</g>
</svg>
