<?xml version="1.0" encoding="utf-8"?>
<!-- Generator: Adobe Illustrator 18.1.1, SVG Export Plug-In . SVG Version: 6.00 Build 0)  -->
<svg version="1.1" id="Isolation_Mode" xmlns="http://www.w3.org/2000/svg" xmlns:xlink="http://www.w3.org/1999/xlink" x="0px"
	 y="0px" viewBox="0 0 872.9 226.2" enable-background="new 0 0 872.9 226.2" xml:space="preserve">
<metadata><?xpacket begin="﻿" id="W5M0MpCehiHzreSzNTczkc9d"?>
<x:xmpmeta xmlns:x="adobe:ns:meta/" x:xmptk="Adobe XMP Core 5.6-c014 79.156821, 2014/08/29-03:07:50        ">
   <rdf:RDF xmlns:rdf="http://www.w3.org/1999/02/22-rdf-syntax-ns#">
      <rdf:Description rdf:about=""
            xmlns:xmpMM="http://ns.adobe.com/xap/1.0/mm/"
            xmlns:stRef="http://ns.adobe.com/xap/1.0/sType/ResourceRef#"
            xmlns:stEvt="http://ns.adobe.com/xap/1.0/sType/ResourceEvent#"
            xmlns:xmp="http://ns.adobe.com/xap/1.0/"
            xmlns:xmpGImg="http://ns.adobe.com/xap/1.0/g/img/"
            xmlns:pdf="http://ns.adobe.com/pdf/1.3/"
            xmlns:dc="http://purl.org/dc/elements/1.1/"
            xmlns:xmpTPg="http://ns.adobe.com/xap/1.0/t/pg/"
            xmlns:stDim="http://ns.adobe.com/xap/1.0/sType/Dimensions#"
            xmlns:xmpG="http://ns.adobe.com/xap/1.0/g/">
         <xmpMM:RenditionClass>proof:pdf</xmpMM:RenditionClass>
         <xmpMM:DocumentID>xmp.did:cd3f291b-ad49-5d4a-9b75-0a3916ab6d4e</xmpMM:DocumentID>
         <xmpMM:InstanceID>xmp.iid:cd3f291b-ad49-5d4a-9b75-0a3916ab6d4e</xmpMM:InstanceID>
         <xmpMM:OriginalDocumentID>uuid:86b4eb6a-05ca-4e65-9ee6-34efb18d986a</xmpMM:OriginalDocumentID>
         <xmpMM:DerivedFrom rdf:parseType="Resource">
            <stRef:instanceID>uuid:54723745-aaad-482a-b0f5-22e993d4cf17</stRef:instanceID>
            <stRef:documentID>uuid:86b4eb6a-05ca-4e65-9ee6-34efb18d986a</stRef:documentID>
            <stRef:originalDocumentID>uuid:86b4eb6a-05ca-4e65-9ee6-34efb18d986a</stRef:originalDocumentID>
            <stRef:renditionClass>proof:pdf</stRef:renditionClass>
         </xmpMM:DerivedFrom>
         <xmpMM:History>
            <rdf:Seq>
               <rdf:li rdf:parseType="Resource">
                  <stEvt:action>saved</stEvt:action>
                  <stEvt:instanceID>xmp.iid:cd3f291b-ad49-5d4a-9b75-0a3916ab6d4e</stEvt:instanceID>
                  <stEvt:when>2015-03-23T00:08:25-05:00</stEvt:when>
                  <stEvt:softwareAgent>Adobe Illustrator CC 2014 (Windows)</stEvt:softwareAgent>
                  <stEvt:changed>/</stEvt:changed>
               </rdf:li>
            </rdf:Seq>
         </xmpMM:History>
         <xmp:CreateDate>2015-03-23T00:08:25-05:00</xmp:CreateDate>
         <xmp:CreatorTool>Adobe Illustrator CC 2014 (Windows)</xmp:CreatorTool>
         <xmp:ModifyDate>2015-03-23T00:08:25-05:00</xmp:ModifyDate>
         <xmp:MetadataDate>2015-03-23T00:08:25-05:00</xmp:MetadataDate>
         <xmp:Thumbnails>
            <rdf:Alt>
               <rdf:li rdf:parseType="Resource">
                  <xmpGImg:width>256</xmpGImg:width>
                  <xmpGImg:height>68</xmpGImg:height>
                  <xmpGImg:format>JPEG</xmpGImg:format>
                  <xmpGImg:image>/9j/4AAQSkZJRgABAgEASABIAAD/7QAsUGhvdG9zaG9wIDMuMAA4QklNA+0AAAAAABAASAAAAAEA&#xA;AQBIAAAAAQAB/+4ADkFkb2JlAGTAAAAAAf/bAIQABgQEBAUEBgUFBgkGBQYJCwgGBggLDAoKCwoK&#xA;DBAMDAwMDAwQDA4PEA8ODBMTFBQTExwbGxscHx8fHx8fHx8fHwEHBwcNDA0YEBAYGhURFRofHx8f&#xA;Hx8fHx8fHx8fHx8fHx8fHx8fHx8fHx8fHx8fHx8fHx8fHx8fHx8fHx8fHx8f/8AAEQgARAEAAwER&#xA;AAIRAQMRAf/EAaIAAAAHAQEBAQEAAAAAAAAAAAQFAwIGAQAHCAkKCwEAAgIDAQEBAQEAAAAAAAAA&#xA;AQACAwQFBgcICQoLEAACAQMDAgQCBgcDBAIGAnMBAgMRBAAFIRIxQVEGE2EicYEUMpGhBxWxQiPB&#xA;UtHhMxZi8CRygvElQzRTkqKyY3PCNUQnk6OzNhdUZHTD0uIIJoMJChgZhJRFRqS0VtNVKBry4/PE&#xA;1OT0ZXWFlaW1xdXl9WZ2hpamtsbW5vY3R1dnd4eXp7fH1+f3OEhYaHiImKi4yNjo+Ck5SVlpeYmZ&#xA;qbnJ2en5KjpKWmp6ipqqusra6voRAAICAQIDBQUEBQYECAMDbQEAAhEDBCESMUEFURNhIgZxgZEy&#xA;obHwFMHR4SNCFVJicvEzJDRDghaSUyWiY7LCB3PSNeJEgxdUkwgJChgZJjZFGidkdFU38qOzwygp&#xA;0+PzhJSktMTU5PRldYWVpbXF1eX1RlZmdoaWprbG1ub2R1dnd4eXp7fH1+f3OEhYaHiImKi4yNjo&#xA;+DlJWWl5iZmpucnZ6fkqOkpaanqKmqq6ytrq+v/aAAwDAQACEQMRAD8A9U4q7FXYq7FXYq7FXYq7&#xA;FXYq7FXYq7FXYq7FXYq7FXYq7FXYq7FXYq7FVk08MCGSZxGg6sxpiq7kOPKvw0rX2xVJj5s06v8A&#xA;dzH/AGK/81YaRa2bzZZiOsMTvIegaigfMgnGltUsWh1GFZry4V2apFqrcUXfuoNSfniqIn0rTY4Z&#xA;JVi9MopasbMnQV/ZIxtaQmi21zcWCXD3k6yMW4/EGWgNOjBvDEqEY13d2Z/0tfVt/wDlpjFCv+um&#xA;/wB4xVGxyRyoJI2Do24ZTUHAlvmnPhyHOleNd6fLFW8VdirsVdirsVdirsVdirsVdirsVdirsVdi&#xA;rsVdirsVdirmZVBZiAB1J2GKpVeeZ9GtahrhXYdVQg/iaD8caRaSz+f4efGCNT4D4nJ/4EDCq7/H&#xA;LfVpC9nLHJT93KEbhXxII7YqgtH1LT7y/DXbPdu/2FG5r7qaGmFDOqAilNvDIsnnusC306eSIyh5&#xA;FbikNGDkE+449/HJWxppLhxVPQ9EoeJEgV2JHU1+KnyGFV4iedGaNCXSnMIOx70HviqwSTICgZlB&#xA;FGWpGx8RihWg1K/t1CQzuqDotagd+h2xpKLj8y6sv2pFk/1lH8KYKW1r6nexFpIQlqZNpEiIoSe/&#xA;pktxONK7Th9bv4PSIhuV3BqzBytWJJJJG2Ks0yLJ2KuxV2KuxV2KuxV2KuxV2KuxV2KuxV2KuxV2&#xA;KuxVLdc1y20q1MshBlP93H4+5xVhOuavZWunR635pmnktppBHbaZbEczUE8nBZKbKe4x5oJpGWmr&#xA;eQ4WW5gW3ktp4kkjVwHdSRUbPyI98aK8QSOLWtNttYvbtAPqVxy9PipNOTBhxApTpTGlJSPy1581&#xA;Ca+v01HlcQhq2ojRV4AMQV/ZqKeNTkjFgC1deZdRudUkYaSsth9hUekUnQfH6nX7XanTBQTZTa08&#xA;0a3aOv1N5LeIU/cyTeso+SslBgZbo6w80oNRkvNUtFvJXNfU3DJxHwqgrxArilG2t1Bq96Usx6c0&#xA;3J/q8jAUNd1VjQN1275IFjTI7XysfqxE83CZmDfBuAADQdvHBaabfy5qCikV8WH8rcgP1tja0hpN&#xA;C1lf2IJvkEBP0lVOG0UoHTryFZXlshGURmWRSxoR3+0w264qlOFDK7Hy9a0tLqrJIqo8kfUFqV+Y&#xA;365G2VJ3gS7FXYq7FXYq7FXYq7FXYq7FXhfn38773y9+bltptgy32jQwRWup2YNQZ5nLs8bCvxoj&#xA;IPvB9rYwsNUp0Xsvp61KKmaK28FVTIfpLED8MrbEHpcupXUUkk1/wMchj4hI6fDTuR74lVeW8u7c&#xA;V+sW1yo3Kswif6DUriqmvmnSxEzzsYSnVSKg/Jh8P340tsev/P8AoUrFbnWrTTrSpBHrIZnp2opr&#xA;hpHEsl/Mby7HafVdDn+sy1qJeSsDXctua1P+rgSxS/vrvUZ2kmZnZugqTTAqSX2hw3cQhmdlCsG+&#xA;GgOwI718clxMeFEW+n28MSRCrKihQWO9Bt2pgtPCFdUVV4gfCO2BkuxV2KpZ518xw+VtBW6eP1Lq&#xA;6oIo60J5V4qSOi8V5N4ig8ayiLLGUqDFvKvmvzGdTttO1nTo7G3v43bTmjjMa8lHPiRybanyOVY8&#xA;+LJfBISMebOWLJCuONCXJlflP8xLLTrqG91Swmj1JA/oaZCySs/JeKuXqgRTyr8dNt98v8Nq8T5o&#xA;7U/zd8+6mZV0qKz0mJRWtPrUy7d3cLH9yZIRiGBlI+TxvzB+bH5hXty8c+u3fGgDLHK0SGu/2Iii&#xA;fhlvCB0ahInmUgt/MOtSTySy3kryBGdXLnkGUVBr1whBDI/Lv5oed7NqWesXkfEV9N5DND/yLl5p&#xA;+GPCD0UyI6s78vfnhdW06HXNLi1CMEVeBjA3zKfGjfIBRkTi7mUcx6vRPyZ/MS7806nrkV6j/WHk&#xA;+txsZKxxwkiOOCOOgoEAqW/aJ3yrJCqbcU+Il6rlTc7FXYq7FXYq7FXYq7FUJqt4bOwlnWnMUCA/&#xA;zE0/txClguveabu10q7vr24P1e1ieV1BWMEKCeO1Bv0GTAYEvkabXb2TzC+vUQXjXZvQpHJBJ6nq&#xA;gUPVQe3hl9NFvQbv/nIfznMoEVvaxmg5s3rSEkdxWQAfTXI8AZeIULD+fXnNHrJb2Mq91Mcg+4iQ&#xA;Y8AXjKld/nB5s1if0pdRj0OzI+NrWFnc/Inm9fky48IC8ZKFS98oz3ccmqXV5rYqola8uHUsTWpS&#xA;hqKe7HBuuzL7O0/L91rDpEJjbdTRZtu27GuQJk2DhTu68meRRpcd3c6bDEkgDJxX02IILUHChqQM&#xA;12PWTlnMB9IbDjjVvP8ASPLOn6/pt/c3OoTWdkl0yabbiRpkRF/a4OWY1rTqDt1zZmVNAjaN0iz8&#xA;4+T7hJgH1fy4/wDepbcpOCH9tI23Rh9x6E9xGU4nYmikAx9zOtG8z6JrAIsrlWmX+8tnqkykdQUa&#xA;h2yBiQ2iQKaYEuxVFwaTqk/9zZzSDxWNiPvpiqR/mt5Ovdf0K2RF9LUbJVHFyOJaMFAvIE0DR8f9&#xA;kMnA0wmLeS3mv+aZrq1fU50ik0tisTJw/vCOJdmUspPyyjSdm4dOZSgPqZ6nX5cwAkfpb0jWhCkj&#xA;XMLNMWDIo2FPFmNWLE5mkW4oIClFrGox381zHRBKXBFSfhfftTJcDE5Enm0z1p3laSgamwG/SnXJ&#xA;EMBKlWHT7aKtAWLAqST2PXphpBkUTFDRSsSfCoqQo6Dx2wo5rmjdQCykBt1JFK/LFaeg/kZr+jaL&#xA;539fVbr6pDcWz20Urf3fqO6FRI37I+E7nauV5QSGzDIA7vqfMRzXEgAkmgG5JxVBtqauStnE10Rs&#xA;WSgQf7NqD7sKGn1GaFC9xaSRooqzqUcADxoa/hiro9Z09lVi7Rq32WkRlU1/yiOP440to1WVgGUg&#xA;qdwRuMCWmYKpY9FFT8hiqjZ31teI0luxZFbiWoRvQHv88VUNY006hbLEsnpsjcwSKg7Eb/fhBQXm&#xA;H5ufl15k1XyTeQaWRPcRMk/1WInnMsZq0YBG5/aA7kDJxkLYSiafKd5Y3tlO1veW8ltOmzwzI0bg&#xA;+6sAcuaGolhC+pNUjosamhY/Mg0AwqvVYfWDXMTwwNt+7BqP8oByeXy5D5jFbU7iH0ZmjDB1FCrj&#xA;YMrCqmh6VBxVTxVsEg1BoR0IxVG/p7XDD6B1C5MI2ERmcqK7bKTTIDHEGwBaeIqtl5k1iyt1t7eY&#xA;LAleMZRCBU1O5FfxwmIUEp/p/wCavmayspbNEtnimDBmeNuQ5CmxV17e2YuXRQnMTN3FsGUgUx7W&#xA;devdV1Q6nNSK7ahMkVVYsv7RNa8vfMsCmsm3qH5bebfMzwBjcadrYgVmbTr0Ot1t0HqgJWv8zchv&#xA;mn13aUdPICcJcJ/i2p2mk0Us0bjKN93V78nnnyxb6XFf2dtwhmQOirEEap6oUQF+S7hhx2zJyZ8c&#xA;ADKQAPLdohinI1GJJHk8w84fn5qAnmstPsyjIeLGY8VB90Qlm+lx8sycAjkiJA3EuNmnKEjEjcPM&#xA;NZ86eZdY5Le3r+g3/HvH+7jp4FVpy/2VcyRABxpTJSPJMbdih2KuxV2KovSPL1x5i8wTaTJMbW10&#xA;8N64HxHmjcGIGw5Mx6noM1Ha3aP5XHx1xEmg7Xs3Q/mJ8N0ALK/zJ5cPlHU7VRctPpd/X1FYDmAh&#xA;AfYbFlD1Vv8AM1dkdq/m4mxUo8+7f+xs7T7O/LyFG4ye3/lt+QaW0iap5uRZZlNYNKBDRih2aZhs&#xA;3+oNvHwzaTy9zgY8PUs1vrq/jvZ0aeQFZGH2mHfbvlTcslmu3jC3F05DCoiZnbbsSOgwqmFt5jub&#xA;SGOH0o5IkXijLUVA8ff6MFLa+98zJc2UsHoGN5BxB5Bh137DtjS2jrHXtJS0hgdynBFRuSkg0FD0&#xA;rgpNuE9pG3q6ZdxLXdrR2Co3+rWnE4qiLPWfrFy0LQMlCADUEgkb1Ub0r+0NsaW0JYyz2NsLZFVp&#xA;WuzEvWjL+0wp4Yqknn3zP5vt44rLyfprXmqXPNI5pOCwx0+EytzIqF/ZHc+w3MQOqJE9Hhv/ACrD&#xA;84rbzNqkCazP+l0079Lz3FtcTcJ3klZVty/wVkco9ARTbwy3iFNXCbVPItz5rtL7Srrz9aHVPKOu&#xA;lQJr7hcpAznhHJIrcjErf5QAoeWMq6LG+rHvzr8u6T5e89RppNusGhyQRyWaJyKKan1VBepJEhLd&#xA;dgR2pksZY5B3MNv7u2e1ZVYOzU4gdvfLCWmINs78vfkfq/mTytZava30VpKYHeS2ukkA4iZzG3NA&#xA;321K0HHKTOi3iFhKLn8mPOsbslslrfOnVbe4Sv3S+nh4wjgKTXn5e+d7SvraJdkDqYozKPvj54eI&#xA;I4SklzZXtq/C6t5IH6cZUZD9zAYUKOFVW3aNW+KH1nP2IyWC/Txox+gjFVWQR14TW/1cn7Lrz/EM&#xA;WqPljS2owz3FtOssEjRTxGqSISGUjwIyE4RkKkLBZRkYmwaLMdA87+YYdLltVnBLTSSeu45ODIeT&#xA;Ba/CAWJbp1Oa7L2Lp8sxKQPpAAF7bfb9rmQ7VzY4mMSNzd9d0tvb54UM7D1rmdiIy9SC/VnP8xFR&#xA;sepP0Ha0IihsA64XI2dymOoeUfOunaY2qXDRvCo5zWgbkY1PUmPiEFO/A7ZpsHbuny5fDiTfQ9D+&#xA;PN22bsfNjx8ZArqOoQdlDNdwRTRrRZAT1rQglSD92bPLq4Q2O8u4c3X49JOe4+nvPJHLpDECpPzo&#xA;APuJrmP+YzncQFe9v/LYRsZm/cvj0ZeY9V29PvxAr+JxOrzDnj/2QUaTEeWT/YlPdOs/I8dDdWl/&#xA;ct+0PVjC19gqof8Ahspx9pyn9MD8G+fZsYc5BnHljWfylsxIG0ZYbh14wyXkImRGPRuTmfv3NMkd&#xA;d/OEo+8MRov5vDL3FivnDyZ5o03zVc+avJxiv7XUGaaeK1ZJQrzEPIhRTR0ZviHDp7UyWfBi1OPh&#xA;nvFjiy5NPk4o7FDaP5E88+a9fs9S80W5stLtWB9N1CcghqY0j3b4iByLdvox0ejxaaJjjHNdTqcm&#xA;eXFPo+jtE1dnu445jNJLIePIyEp/wBG2XENYKP1HRrq4uxPBccVNOUT1K1Hh1wWmmNanDNDfzrMD&#xA;zLs1T3BNQfpyQQugs53tfUNvLLGzfAyA7UG/ZvbAqk8cCmjiWI/ylQx/WmFVvpRHcTKPZgwP4Aj8&#xA;cVXCD04/Wk4sleKKrA1PXem4GKtQmV50+rpxlBqgStajfapOKplFr91FB6LRqbpGISdxQqG+1Ufz&#xA;V74KW0Il5MGcpdOksn2npxr83B5UxVQdbqWVuQeSUfC5NWb4Sdj8q4VQmp3FrptlLd6lLHa2sYPq&#xA;NMyr9AVjVifACpxQwjWbe88+aRJ6WlW9vocZLx6xqhdHoBVpLeOMq6igryZgCPpw3TEi3n/mT8p9&#xA;O0Xyx/iCz1caoizJGyJEFjUMadSznZqdckJkmmJg9R8t/l95W1bylYapq13d3X1q2hlaK8v3EZYo&#xA;OYRVMWymoGVmRtsERSSanp/kK08wxabBpZtI0UenqllPLHOkjCoKENQ7/DvhFsTSHvPPmseVrmOO&#xA;8c6zpExKwzyhYbtAKbOUqj7d+/thAtbpkdt+Znka8tPVkv0iBHxwTowcd6FaMD/sScaTxBJdQ8yf&#xA;kxchvrMVnO/QkWT8j22cRD9eHdGzxbVp9Oj80X81mQdPknla0KqVCxOxMYCkAjivw5dEtEwhtRnj&#xA;uBHDBWWQsKBQSanYAe5yUixiHr8f5CaTa+XRr+u3d3FFFDC1zDCqLRzGA4VmV+X7zbp3zFyZxAEn&#xA;kHKx4DIgDmUqez/LX0La2htdSghtyxd42h9SbmRXmz8wCKbUH0ZgfyvEcgXNPZJPMhLPN1j5Yu7b&#xA;TY/LUN1ZS2cksk0l46TGQyCPiQUCcePp+HfIHtaMgQY82Y7LlHlJM9R81X99Y/VXjjiWWPhdcfiD&#xA;1FGA5dFPh+Ocxi0UMc+IE7Hby/a9BPUSnHhNbjdKLUBEIYjcnio2Cr0AzqtFlwxhdjiPO3ndZjyy&#xA;lVHh6UiVo37QArQmo75njPjPKQ+bhHDMc4n5Iu4S2gt24kPIwIDdfnkcsxwE30KccDxgV1ClpEAZ&#xA;mlPRTQfPNf2UPTI+bndpn1D3JrxFCKCh6jNqQ6wFSil1HTZxc6VM1vIf7xFPwt4VQ/Ccwp6OjxYz&#xA;wn7HMhq7FZBxD7WZaL+Y8bhLbW4fqkjH4bpKmEn3G5Wv0/RkBqpQNZRXn0bPy4mLxm/LqzmDWtG0&#xA;WzXW72dJYnBXT4LdlmkuZDtSEITy60r0GXZNRCMbv9rVjwSlKqZ+v2R1+nrljWpXP1L4frPp/wCT&#xA;6nH8OWKqq8eI40402p0pirUnp8T6lOPflSn44ql1z/h3f1vq9e9OPL/hd8KEDJ/hX0e/pcz9n1Pt&#xA;U3647rspx/4V5fB6nLelPUr0w7rs3H/hP4qVrxPX1K+9PfHddln/ADqX+X/yUx3XZXuv8PfD6/q0&#xA;4rxr6tKcRT8MCvONd/5Vb/iwf4g/SfrcW/Rv1zh+j+e1PQ/Y5/8AGX/ZdsluxNM/1b/DH+FLz63y&#xA;+pfVT9Y48fX48DWn7HOlem1cgObI8nmFz/yqn/Bd/wCr+m/0L6q+tThX1eUdONP3da8ftZPe2G1J&#xA;t5U/5Vj/AIes/qX6R+q8W9L6xw9WnNvtcPh+VO2A2kUlfmr/AJVj+lLbn+mvrPFeH1L6rT7Z48vX&#xA;3rXwwi0GmNaz/wAqc9Rf0z/iiv8Auv1vq/H34cfh+dMItGyX/wDWPP8A2v8A/khh3R6Xf9Y8/wDa&#xA;/wD+SGO6+lGWn/QtH6Pvvrn6SrSP0vrNfX5Vb/ef0P8Ahufw9MRxL6U3/LT/AKF1/S8f6O+ufpfl&#xA;/on6U5cuX/FXp/uuXhX4vDGXEmPC9o81/wCHf8H3f6U5foT0U9b0q8uHJePGm9eVMxc/DwHi5OVg&#xA;4uIcPN49/wAgG/7WP/D5qv8ABvN2X+EeTj/yoan/AEsf+Hx/wbzX/CPJN9N/6F/+q78uVDz+s/WP&#xA;U/D4f+By6H5av120z/MX+qksuP8AlQf1h+H1/hX4fT9Xh/sefx/flUvy19W0fmK6KZ/5UNT/AKWP&#xA;/D4P8G80/wCEeTh/yoem/wCkvp5fwx/wbzX/AAjybH/Kh67fpGvtzxH5fpxIPj9aVB/ypGnwfpWt&#xA;NuPqVy6Ph9OP7WqXideD7Fn/ACCHkeP6dp9FP+GzIj/yU+1ol/yT+xf/AMgk4nl+mePfn6NP+Gy0&#xA;3W/FXnX6WsVe3Dflf6Ey8o/8qp/Tdr+gf0p+lqn0KUrX9rr+76dfbMHF4PH6b4nMyeNw+qqf/9k=</xmpGImg:image>
               </rdf:li>
            </rdf:Alt>
         </xmp:Thumbnails>
         <pdf:Producer>Adobe PDF library 11.00</pdf:Producer>
         <dc:format>image/svg+xml</dc:format>
         <xmpTPg:MaxPageSize rdf:parseType="Resource">
            <stDim:w>872.850952</stDim:w>
            <stDim:h>226.152175</stDim:h>
            <stDim:unit>Pixels</stDim:unit>
         </xmpTPg:MaxPageSize>
         <xmpTPg:NPages>1</xmpTPg:NPages>
         <xmpTPg:HasVisibleTransparency>True</xmpTPg:HasVisibleTransparency>
         <xmpTPg:HasVisibleOverprint>False</xmpTPg:HasVisibleOverprint>
         <xmpTPg:PlateNames>
            <rdf:Seq>
               <rdf:li>Cyan</rdf:li>
               <rdf:li>Magenta</rdf:li>
               <rdf:li>Yellow</rdf:li>
               <rdf:li>Black</rdf:li>
            </rdf:Seq>
         </xmpTPg:PlateNames>
         <xmpTPg:SwatchGroups>
            <rdf:Seq>
               <rdf:li rdf:parseType="Resource">
                  <xmpG:groupName>Default Swatch Group</xmpG:groupName>
                  <xmpG:groupType>0</xmpG:groupType>
               </rdf:li>
            </rdf:Seq>
         </xmpTPg:SwatchGroups>
      </rdf:Description>
   </rdf:RDF>
</x:xmpmeta>
                                                                                                    
                                                                                                    
                                                                                                    
                                                                                                    
                                                                                                    
                                                                                                    
                                                                                                    
                                                                                                    
                                                                                                    
                                                                                                    
                                                                                                    
                                                                                                    
                                                                                                    
                                                                                                    
                                                                                                    
                                                                                                    
                                                                                                    
                                                                                                    
                                                                                                    
                                                                                                    
                           
<?xpacket end="w"?>
	</metadata>
<path opacity="0.3" fill="#FBF8EC" d="M541,113.2c0.3-2,2.7-20,2.7-20l39.7-14.3l43,5.7l-6.7,42L541,113.2z"/>
<g opacity="0.26">
	<path fill="#253844" d="M810.3,66c-27.2-3.7-54.5-7.4-81.7-11.1c-1.2,3.8-2.2,7.2-3.2,10.6c28.5,3.9,56.8,7.7,85.2,11.5
		C810.4,72.9,810.3,69.4,810.3,66z"/>
	<path fill="#253844" d="M708,33.2c-11.4-1.7-21.5,5.8-23.3,17.4c-1.7,11.1,5.8,21.3,17.1,23.1c11.1,1.8,21.9-6.2,23.5-17.4
		C726.8,45.3,719,34.8,708,33.2z"/>
	<path fill="#253844" d="M186.7,186.4c0.2-0.4,0.4-0.9,0.5-1.3c-5-2.8-10-5.7-15.7-8.9c-0.4,2.8-0.8,4.7-1.1,6.7
		c1.6,0.1,3.2-0.1,4.6,0.3C179,184.1,182.8,185.3,186.7,186.4z"/>
	<path fill="#253844" d="M680.6,59.7c-0.1-3.6-0.2-7.2-0.3-10.8c-6.9-0.9-13.7-1.9-20.6-2.8C661.6,56.7,666.7,59.9,680.6,59.7z"/>
	<path fill="#253844" d="M866.3,67.2l5.1-11.2c-4.2-0.4-4.6-0.4-4.9-0.4c-0.2-2.5-0.8-6.9-1-10.3c-1.4,2-2.4,0.4-3.3,1.5
		c-5.4-8.6-2.5-7.8-8.3-4.3c0.4-6.2-1.7-3.9-6-4.8c1.6-1.3-1.8-2.2-0.4-2.9c2.2-1.1,5.2-3,6.9-2.4c3.9,1.5,4.6,11.7,5.2,8.5
		c2.8,0.9,9,1,12,2c1.5-3.2-3.2-16.2-7-16.5c-1.2-0.1-2.8,0.4-3.6-0.2c-3.9-3.1-5.3-0.8-5.8,2.2c-2.2-0.2-5-1-5.4-0.3
		c-2.6,3.9-6.9,5.2-9.7,7.8c-11.5-7.4-22.5-14.5-33.7-21.4c-8.6-5.4-17.9-8.7-28.2-9.7c-12.5-1.2-24.8-3.4-37.3-4.8
		c-2.9-0.3-6.3,0-8.9,1.2C722,5.9,712,10.8,702.2,16c-3.6,1.9-7.7,2.7-11.8,2.3c-9.4-0.9-18.8-1.2-28.2-1c-5.7,0.2-7.8,2.8-7.5,8.5
		c0.2,4.6,1.7,9,2.5,13.6c0.5,2.6,2.1,3.6,4.6,3.8c5.5,0.6,11,1.2,16.4,2.1c2.5,0.4,3.8-0.2,5.2-2.5c5.3-9.2,13.4-13.5,24-12.2
		c9.6,1.1,17.4,7.9,19.8,17.7c0.7,3,2.2,3.5,4.7,3.8c12.9,1.6,25.8,3.4,38.7,5.1c13.6,1.8,27.3,3.7,40.7,5.5
		c9.7-15,21.6-19.7,29.9-12.1c-1.1-0.2-2.2-0.3-3.3-0.4c-11.1-1.6-20.8,4.5-23.5,14.9c-2.7,10.5,3.1,21,13.7,24.7
		c7.8,2.7,16.3-1.5,19.2-9.3c2.9-7.5,3.5-15.2,1.2-23.3C849.9,61.3,854.6,63.4,866.3,67.2z M761.5,30.5c-2.3-0.3-4.5-0.6-6.7-0.9
		c-11.8-1.6-23.6-3.1-35.3-4.8c-1.9-0.3-5.2-1.5-5.2-2.2c0-3,0.1-7.5,2-8.7c8.3-5.5,16.8-11.2,27.7-9.4c6.8,1.1,13.7,1.9,20.7,2.8
		C763.5,15.2,762.5,22.5,761.5,30.5z M770.1,31c1-7.3,2-14.6,3-22.4c9.1,1.3,18.2,1,26.3,6.4c11.5,7.8,23.3,15.1,34.9,22.7
		c0.6,0.4,1.1,0.9,1.3,2.2C814,36.9,792.3,34,770.1,31z"/>
	<path fill="#253844" d="M231.1,186.4c0.3,0.1,0.9-0.4,1-0.7c1.3-5,6.2-5.5,9.8-7.6c-1.7-2.6-3.3-5-5.4-8.2c-2.5,3.7-4.7,7-6.9,10.3
		c-0.5,0.7-1.1,1.7-1.7,1.7c-6.9,0.2-5.9,6.6-8.2,10.3C223.2,189.4,225.6,185,231.1,186.4z"/>
	<path fill="#253844" d="M191.6,174.7c-0.3,0.7,0.4,2.4,1.2,3c3.6,3,4.1,6.7,3.4,11c-0.3,1.8-0.2,3.7-0.3,5.6c0.4,0,0.7,0.1,1.1,0.1
		c1.6-4.9,3.8-9.7,4.7-14.8c0.3-1.9-2.5-4.3-3.8-6.4c0.4,0,0.7,0.1,1.1,0.1c0.9-5.8,1.8-11.5,2.8-17.8c-4.9,1.2-8.8,2.1-13,3.1
		C191.6,164,194.1,168.9,191.6,174.7z"/>
	<path fill="#253844" d="M206.6,196.4c1.6-2.1,3.7-4.8,5.8-7.5c0.4-0.5,0.7-1.2,0.9-1.8c1.2-3.1,2.3-6.3,3.5-9.8
		c-1.4-0.8-3.5-2.1-6.6-4.1c-0.5,4-0.8,7-1.1,9.9c-0.1,0.9,0.4,2.6,0,2.8C203.4,189,207.4,193.7,206.6,196.4z"/>
	<path fill="#253844" d="M652,125.7c1.5-1.4,5.2-5.8,6.5-7.4c0.7-0.9,1.6-2.8,1.2-3.3c-1.2-1.4-3-2.3-4.2-3.2c-4,2.3-9.1,7-12.2,8.9
		c-0.5,0.3-0.5,1.5-0.7,2.3c0,0.2,0.2,0.4,0.3,0.6C647,131.3,647,130.4,652,125.7z"/>
	<path fill="#253844" d="M3.9,225.7c-0.8-0.4-1.5-0.7-2.1-0.6c-0.6,0.1-1.2,0.3-1.8,0.6H3.9z"/>
	<path fill="#253844" d="M433.3,221.6c-1-0.7-1.6-2.1-3-3.8c-0.7,2.1-1.8,3.6-1.7,5.1c0,1-0.2,1.9-0.4,2.8h9.2
		C436.6,224.2,435.2,222.8,433.3,221.6z"/>
	<path fill="#253844" d="M4.7,188.7c0.2,0.9,1.7,1.8,2.8,2c5.2,1,10.4,1.6,15.5,2.6c2.9,0.5,4.6-0.2,6.3-3
		c4.7-7.8,12-11.5,21.1-10.6c9.7,1,16.3,6.5,19.3,16c0.5,1.5,0.8,3,1.3,4.5c24,3.6,47.8,7,71.6,10.7c4.7,0.7,7.7,0.3,10.4-4.4
		c4.6-7.8,19.1-12.9,25.6-5.2c-1-0.2-2-0.4-3-0.7c-10-2.4-20.3,3.3-23.3,12.9c-1.3,4.1-1.1,8.3,0.2,12.1h31.6c2-7,2-14-1.4-21
		c1.1,1.3,3,2.5,3.2,3.9c0.7,4.4,4.1,5.6,7.4,7.2c1.2,0.6,2.5,1,3.5,1.8c1,0.8,1.5,2,2.3,3.1c-2.8-4.3-6.6-1.1-9.2-0.8
		c-3.8,0.4-3.8,3.1-4,5.8H198c-0.2-0.4-0.4-0.9-0.6-1.3c0.5-0.2,1-0.4,1.5-0.6c0.4,0.7,0.8,1.4,1.1,2h3.3c3.3-0.8,6.5-1.5,9.9-2.3
		c1-7.3,1.4-16.1,11.4-18.2c12-2.6,20.6,2.8,26.1,13.3c20.7-3.3,41.1-6.5,61.4-9.7c2.1-11.5,8.2-18.5,18.3-20.4
		c11.7-2.1,19.9,3.3,25.4,13.6c4.8-0.8,9.4-1.6,14.5-2.5c-1.7-2.6-2.9-4.6-4-6.3c2.5-3.4,4.9-6.7,7.3-9.9c-0.3-0.5-0.6-0.9-0.8-1.4
		c-3.1,0.3-6.2,0.3-9.2,1.1c-3.1,0.9-4.7,0-5.9-2.7c-4.3-10.1-12.2-15.8-22.7-18.5c-3.1-0.8-6-2.5-9.1-3.1
		c-3.6-0.7-7.5-1.1-11.1-0.7c-3.7,0.4-7.3,1.1-11,1.7c2.7-3.7,3.9-8.6,2.8-13.3c-0.6-2.5-1.6-4.9-2.4-7.3c2.4,3.8,4.9,7.5,8.2,12.6
		c26.4-1.5,54.1-3.1,81.8-4.7c2,0.4,3.6,1.6,5.1,3.2c5.5,5.8,11,11.7,16.4,17.6c1.7,1.8,3.3,3.7,5.2,5.8c-1.2,0.3-2,0.5-2.8,0.6
		c-6.2,1-12.4,1.6-18.5,3.1c-5.7,1.4-10.9,1-16.4-0.6c-1.2,1.1-2.6,1.9-3.9,2.7c-0.6,0.7-1.2,1.4-1.8,2.1c1.3,0.2,2.8,0.2,4.3,0
		c-1.6,1.8-3.4,3-3.9,4.6c-1.8,5.4-3.6,10.8-4.4,16.4c-0.9,6.2,2.2,9.4,8.4,10.2c3.2,0.4,6.4,0.8,9.7,1.2c0.1,0.7,0.2,1.2,0.3,1.8
		c0.8,3.9,2.8,7.3,5.5,9.8h23.9c2.3-2.1,4.1-4.9,5-8.3c0.6-2.2,1.8-2.1,3.4-2.1c27.4-0.1,54.9-0.3,82.3-0.5c1.3,0,2.6,0,3.8,0
		c0.2,0.8,0.4,1.3,0.5,1.8c1,3.7,2.9,6.8,5.3,9.1h23.9c2.5-2.4,4.4-5.5,5.3-9.3c0.4-1.5,0.9-2.1,2.5-2.4c4.8-0.7,5.8-2.2,5.3-7
		c-0.2-1.8-0.6-3.7-1.1-5.5c-1-4.1-1.7-8.1-0.7-12.4c0.2-0.6,0.3-1.3,0.4-1.9c-0.1,1.7,0.9,3.5,1.3,5.3c0.4,1.8,1.3,3.7,1.1,5.4
		c-0.4,2.8-0.2,5,1.4,7.5c1.8,2.8,3.1,6,4.1,9.1c1.1,3.1,2.5,4.2,5.9,3.2c4.7-1.5,9.6-2.7,14.4-3.8c3.3-0.8,4.3-2.7,3.1-5.6
		c-1-2.4-0.2-3.9,2-4.6c5-1.6,10.3-2.7,15.2-4.6c10.6-4.1,21.1-8.4,31.6-12.8c-2.6,2.9-4.2,7.1-5.1,12.9c-1.8,0.7-4.3,1.2-4.4,1.7
		c0,5,0.3,10,0.7,16.5c-0.9,0.8-3.7,3-5.7,5.7c-0.5,0.7-0.9,1.7-1.1,2.7h48.6c-0.2-0.1-0.4-0.3-0.5-0.4c10.7-5.2,20.3-9.9,30.3-14.9
		c0.5,1.1,1.2,1.9,1.3,2.7c0.1,4.2,4.9,8.4,3.2,12.6h12.8c7.3-3.5,14.6-7,21.9-10.5c8.2-3.9,13.5-10.5,17.3-18.4
		c1.1-2.4,2.3-4.7,3.7-7.7c10.1,5.6,18.7,1.7,27.3-3c3.5-1.9,7.5-2.9,11.4-4.2c0.4-0.1,1.1,0.5,2.1,1c-1.3,1.5-2.3,2.8-3.3,3.9
		c2.9,4.7,6.7,8.4,7,14.7c0.2,7,6.9,11.9,13.8,11.7c7.2-0.2,13.1-5.9,13.5-13c0.4-6.9-4.2-12.9-11.2-14.4c-2.3-0.5-4.7-0.3-7.1-0.5
		c0.1-6.5,2.8-8.5,7.7-5.9c10.7,5.6,14.8,15.8,11.1,28.2c13.2,3.5,8.5,2.2,21.6,5.7l8.1-9.1l4.7-11.5l0.8-12
		c-7.3-2-10.2-2.8-17.6-4.8c0.1-1,0.2-2,0.3-2.9c7.2-0.4,7.3-0.9,14.5-1.1l-2.3-4.3c-9.6-0.2-9.8,1-19.8,3.1c-2.5,0.5-6.1-0.2-8-1.8
		c-5.8-4.9-11-10.6-16.6-15.7c-5.1-4.7-9.7-6.2-14.3-4.4c7.4,7.5,14.5,14.8,21.7,22c-0.2,0.3-0.5,0.6-0.7,0.8
		c-4.8-2.4-9.6-4.7-15-7.4c-3.3,3.9-6.4,7.6-10.1,12c-2.4-1.3-6.7-3.7-12.2-6.8c0.7,4.1,1.1,6.6,1.6,9.5l-18.1,0.9
		c6.1-2.9,9.9-7,9.1-14.4c-2.6,1-5,2-7.3,2.9l-2.4-0.5c7.3-7,8.5-14.1,5.7-21.9c17.4-3.3,34.9-6.3,52.9-9.6
		c-0.8-7.4-3.9-17.3,9-21.3c-7.8,10.5-8.4,19.1-2.2,25.9c5,5.5,14.3,6.5,20.6,2.3c7.3-4.9,8.7-13.6,3.2-26.4
		c3.5,1.8-14.1,2.8-11.8,4.1c1.4,0.8,2.9,1.2,4.6,1.4l-19.8-15.1c-5.3,0.1,2.9-8.2-2.3-8c-15.4,0.6-3.8-4.3-19.3-8.7
		c-32.8-9.4-65.3-5.4-95.3,11.7c-5.2,3-9.4,7.5-14.1,11.3c-6.4-5.9-12-10-14.6-9.4c-3.4,0.8-2.2,8,0.9,16.8
		c-1.2,0.3-2.3,0.4-3.5,0.5c-1.2,0-2.4,0-3.7,0c-0.4,3.2-0.5,6.4-1.5,9.5c-1.4,4.5-3.7,7.7-6.9,9.9c2.6,3.1,4.1,6.9,3.4,11.4
		c-0.4,2.5-1.3,4.8-2.3,7.1c9.6-0.4,19.2-0.8,29-1.3c0.3-1.4,0.7-3,1.1-4.9c1.6,2.2,2.4,2.7,2.1,0.6c-0.3-2-0.6-4-0.8-5.9
		c0.7-1.3,1.5-2.5,2.2-3.6c4.7-6.9,10.2-9.6,16.5-8.4l0,0c3.5,0.7,7.4,2.6,11.5,5.8c0.8,1.6,1.8,3,2.7,4.1c-0.4,0.3-0.8,0.5-1.1,0.8
		c0,0,0,0,0,0c-0.5-1.6-1.1-3.3-1.6-4.9c-4.1-3.2-7.9-5.1-11.5-5.8c5.5,5.7,10,10.3,12,11.6c-1.4,1.2-2.4,2.4-3.2,3.8
		c-0.1-0.4-0.1-0.8-0.2-1.2c-1.3-6.4-6.2-9.2-12.2-8c-6.1,1.3-9.3,6.4-8,12.4c0.9,4.1,3.4,6.9,7.1,7.7c-4.7,1.7-9.4,3.5-13.7,6
		c-13.5,7.8-26.6,16.2-40,24.4c-1.8-3.3-3.8-6-6.2-7.9c0.6-0.2,1.2-0.5,1.9-0.8c4.7-1.9,9.4-3.9,14.1-5.9c1.5-0.6,2.6-1.4,1.9-3.4
		c-3.8-10.1-7.2-20.3-11.3-30.2c-1.5-3.6-4.2-6.9-6.8-10c-2.3-2.8-5.7-3.6-9.4-3.8c-2.2-0.2-4.7-1-6.5-2.3c-3.9-2.9-13,0.7-16.5-2.7
		c-2.6-2.5-5.4-3.3-8.6-2.3c-9.7,2.9-14.2-1.3-23.6,2.5c-10.3,4.1-20.1,9.5-30,14.3c-1.1,0.6-2.1,1.4-3.2,2.1
		c-4,2.3-5.4,5.4-5.1,10.3c0.3,5.3-1,10.6-1.7,16c-0.1,0.9-0.9,1.6-1.5,2.4c-2.1-3.8-4.2-7.5-6.4-11.2c-1.2-2.1-2-4.1,1-6.8
		c-2.7-1.1-4.6-2.3-6.6-2.6c-4.1-0.6-8.3-1.1-12.5-1.1c-19.4-0.1-38.8,0-58.2-0.2c-7.4-0.1-13.8,2.1-19.4,6.7
		c-3.5,2.8-6.6,6.1-10.1,8.8c-3.4,2.5-7.2,4.6-10.8,6.8c-1.6,0.9-2.8,0.5-4.2-0.8c-5.2-5-10.5-9.8-15.7-14.7
		c-0.2-0.2-0.5-0.4-0.7-0.6c1.5,0.9,3.2,1.5,5,1.9c8.1,1.7,15-2.8,18.4-10.6c2.5-5.8,6.6-11.1,10.5-17.4c0,0.1-1.1-1.6-1.7-2.6
		c5.2-1.9,10-4.4,15-5.2c4.9-0.8,10.2,0.1,15.3,0.3c3.5,4.6,1.4,15,12.3,12.2c0.1,0,0.1-0.5,0.1-0.7c-0.1-0.3-0.3-0.5-0.5-0.7
		c1.4,0.6,3.1,0.9,4.3,1.9c6.5,5.6,13.8,6.1,20.9,2.2c7.3-3.9,10.5-10.5,8.6-18.9c-0.2-1.1-0.3-2.3-0.4-3.5
		c24.3-8.7,52.1-6.5,74.9-23.1c10.3,8.5,15.6,8.5,27.4-1.2c3.2-2.6,5.1-2.9,6.4-0.5c1.7-4.7-0.1-7.1-4.8-9.6c-4.8-2.6-3-8.9,1.9-9.8
		c6.1-1.1,7.6-4.8,8.3-10.5c0.1-0.9,0.2-1.9,0.3-2.8c-4.2-0.3-8.3-0.7-12.5-1l-0.2-3.5c2.6-1,5.3-2,9.9-3.9
		c-6.1-2.6-10.8-4.7-16.3-7c3.8-3.2,6.9-7.3,11.1-9c5.9-2.4,5.9-5.9,4.3-10.5c-4.3,2-8.4,4.9-12.9,5.9c-10.1,2.1-17.1,7.5-21.7,18
		c-23.3-15-44.2-1.8-65.8,4c-5.3,1.4-10.3,3.9-15.5,5.3c-12.4,3.3-22.4,9.9-30.4,20c-3.5,4.4-8.2,8.1-13.1,10.9
		c-12.2,7.3-16.4,4.7-12.4,27.5c-4.4,1.9-9,4-12.3,5.4c-2.7-6-5.2-11.5-7.6-16.9c-7.1,1.8-13.1,3.3-19.2,4.8
		c-0.2-0.4-0.4-0.7-0.6-1.1c9.8-6.7,19.6-13.3,29.4-20c-0.3-0.9-0.6-1.8-0.9-2.7c-3,0.4-6.4-0.1-8.9,1.3c-9.9,5.3-19.5,11.1-29,17
		c-3.9,2.4-6.5,3-11.5,0.9c-37.9-16.7-76.4-18.6-113.1,2c-12,6.7-22.7,13.5-36.9,12.9c-1.5-0.1-3.7,3.3-4.5,5.4
		c-1.6,4.2-1.7,9.2-3.8,13.1c-4.9,8.9-2.5,15.2,7.5,16.5c8.7,1.1,17.5,1.6,26.5,2.3c0.7-2,1.8-4.9,2.8-7.7c0.7,3.6,0.9,7.5,2.3,10.9
		c1,2.3,2.5,4.3,4.5,5.7c-14.1,2.8-26.9,9-38.7,17.7c-12.5,9.2-25.2,18.2-38,27.4V206h-2.7c-0.2-2.3-0.3-4.2-0.4-6.2
		c-0.3-0.2-0.6-0.4-0.9-0.6c-0.5,1.2-0.9,2.3-1.5,3.9c-4.8-8.8-4.8-8.8-10.6-5.9c-0.3-1.2-0.3-2.3-0.8-3.3c-0.6-1.2-1.5-2.9-2.5-3
		c-5.8-0.8-9.7-4.8-14.1-8c0,0,0,0,0-0.1c0,0-0.1,0-0.1,0l0,0l0.1,0.1c-6.5-4.4-12.8-9.2-19.5-13.2c-8.6-5.2-17-10.7-27.4-12.1
		c-12.6-1.7-25.2-3.4-37.6-5.7c-5.3-1-9.8,0-14.3,2.2c-7.2,3.4-14.7,6.5-21.6,10.5c-5.9,3.4-11.6,3.9-18.2,3
		c-8-1.1-16.2-0.7-24.4-0.5c-3.5,0.1-5.7,2.9-5.4,6.3C2.5,178.5,3.6,183.6,4.7,188.7z M826.2,195.6c-1.2-3.4-4-5.1-7.9-5
		C822.2,190.5,825,192.3,826.2,195.6z M818.9,208.1c4.6-0.9,7.6-3.3,7.9-7.6C826.5,204.8,823.5,207.1,818.9,208.1
		c-2.4,0.2-4.7-0.7-6.5-2.2C814.2,207.4,816.5,208.3,818.9,208.1z M857.2,133.5c-1.1,2.8-3.4,4.9-6.5,5.7c-1.2,0.3-2.3,0.5-3.3,0.5
		c1,0,2.1-0.2,3.3-0.5C853.8,138.4,856.1,136.3,857.2,133.5z M851,119c-1-0.3-2.1-0.4-3.4-0.4C848.8,118.6,850,118.7,851,119z
		 M767.4,90.6c15.6-4,30.2,0.2,46.6,7c-17.8,3.3-33.3,6.1-49.8,9.1C763.4,100.4,757.1,93.3,767.4,90.6z M768.9,147.2
		c-0.6,6.3,0,12.8-5,17.8c1-7.2-0.2-12.4-3.3-16.2C763.4,148.3,766.1,147.8,768.9,147.2z M709.4,116.3l-1.3-2.9
		c10.9-6,21.5-13.1,33-17.7c12-4.8,15.3-1.5,14.6,12.1C740,110.7,724.7,113.5,709.4,116.3z M747.1,150.4c4.9,0.1,8.7,2.8,9.2,8.6
		c0.5,5.8-3,9.2-8.5,10.1c-4.8,0.8-9.8-3.6-10.2-8.5C737.2,155.7,741.3,150.9,747.1,150.4z M730.3,159.1c-0.1,0.9-0.2,1.7-0.3,2.7
		c-0.9-0.2-1.8-0.4-2.6-0.6C728.5,160.6,729.5,159.9,730.3,159.1z M708.8,204.4c8.1-4.4,16.5-8.5,26.5-13.5
		c-4.9,14.8-8.7,27.9-24.1,33.9c-1.7-5.3-3.7-10.3-4.9-15.4C705.9,207.9,707.4,205.1,708.8,204.4z M648.8,189
		c3.7,0.2,6.4,1.4,7.9,3.8C655.2,190.4,652.5,189.2,648.8,189z M647.9,181.5c0.9-0.4,1.7-0.9,2.6-1.3c0.4,0.3,0.6,0.3,0.6,0.4
		c0.2,0.3,0.4,0.6,0.5,0.9C650.5,181.3,649.3,181.3,647.9,181.5z M657.4,137.4c2.8,2.6,2.7,4.7,1.5,7.8c-1.9,4.6-5.4,6.9-9.4,9
		c-5.5,3-8,0.7-13.6-3.5C642.4,145.4,651.2,142.6,657.4,137.4z M563.5,144.5c18.7-10.4,33-11.8,53.5-17.9c3.2-0.9,5.8-0.7,8,2.2
		c1.7,2.2,9.3-2.8,11.2-0.8c2.5,2.6,2.3,3.8-0.9,5.5c-5.5,2.8-10.9,5.6-16.5,8.2c-8.8,4-17.7,7.8-26.6,11.6
		c-0.9,0.4-2.1,0.2-3.7,0.3c0.1-0.3,0.2-0.6,0.3-0.9c-4.4,2.1-9.2,3.4-13.9,4.8c-0.2,0.1-0.5,0.1-0.7,0.1c-1.4,1.1-2.7,2.1-4.2,3
		c-2.5,1.4-5.4,2.3-8.2,3.1c-0.4,0.1-1.8-1.8-1.9-2.9c-0.2-2.8,0.3-5.8-0.1-8.5C559.3,148.5,560.3,146.3,563.5,144.5z M559.6,178.6
		c8-0.8,16.1-1.6,24.2-2.3c-1,7.1-1,7.4-6.1,6.4c-3.5-0.7-5.8,0.2-7.4,3.2c-0.1,0.2-0.6,0.2-0.9,0.4c0.1-0.2,0.2-0.5,0.3-0.7
		c-3.5-1.8-6.9-3.6-10.4-5.5C559.4,179.5,559.5,179,559.6,178.6z M570.9,63.1c-11.4,3.4-22.2,6.7-33.4,10c-3.2-6.4-6.1-12.2-9-18
		C539.9,48.3,556.7,51.5,570.9,63.1z M497.2,74.7c2.1-10.1,10.2-17.1,21.9-17.1c9,0,8.1,9.2,11.2,15.6c-11,3.5-21.9,6.9-34.3,10.8
		C496.5,79.8,496.7,77.2,497.2,74.7z M496.9,103.3L496.9,103.3c-4.2,1.5-7.4,3.4-9.8,5.7C489.5,106.8,492.7,104.9,496.9,103.3z
		 M428.9,141c-0.1,1.9-0.6,3.7-1.7,5.1C428.3,144.6,428.8,142.9,428.9,141z M417.7,117.2c6.2-3.1,9.7,0.3,8.9,8.3
		c-3-0.4-6-1.1-9-1.2c-7.9-0.2-15.1,6.3-16,14.1c-0.5,4.5,0.6,8.6,2.8,11.9c-1.4-1.3-2.8-2.5-4.2-3.8c-0.5-0.4-1-0.8-1.6-1.1
		C398.1,127.9,405.4,123.4,417.7,117.2z M318.5,161.9c7.2,0.7,14.1,4.9,21,8.1c2.7,1.3,3.1,5.3,1.8,9.9c-14.5,2.3-29.1,4.6-44.3,7
		c-1.1-6.8-2.2-13.4-3.4-20.7c1-0.2,2.1-0.4,3.1-0.8c0.9-0.3,1.8-0.8,2.6-1.3C305.9,162.8,312.3,161.3,318.5,161.9z M345.7,93.2
		c14.7-0.2,28.1,4.3,43,12.8c-18.5,1.3-34.5,2.4-50.3,3.5C334.7,97,336.2,93.3,345.7,93.2z M280.7,113.8c11.1-9.5,21.9-15,34.1-17.6
		c13.4-2.8,16.8-0.4,14.4,14C313.9,111.3,298.3,112.5,280.7,113.8z M241,186.8c7.2-4.9,14.5-9.7,21.8-14.5
		c6.9-4.6,14.8-4.4,23.1-5.6c1.2,7.5,2.3,14.2,3.4,21.4c-20.8,3.3-41.5,6.5-62.2,9.8c-0.1-0.3-0.3-0.6-0.4-0.9
		C231.4,193.6,236.2,190.1,241,186.8z M113.7,160.2c10.3,1,20,2.4,28.6,8.7c10,7.4,20.6,14,31,20.9c-0.1,0.4-0.2,0.8-0.3,1.2
		c-20.6-3-41.2-6.1-62.4-9.2C111.7,174.5,112.7,167.4,113.7,160.2z M63.7,161.7c11.1-7.1,22.8-6.8,34.9-4.1c2.4,0.5,4.8,0.9,7.5,1.4
		c-1.1,7.4-2,14.2-3.1,21.6c-14.9-2.2-29.7-4.3-44.3-6.5C56.8,167.3,58.1,165.3,63.7,161.7z"/>
	<path fill="#253844" d="M322.7,225.7h22.5c4.9-3.5,8.1-9.2,8-15.8c0-10.7-8.6-19.2-19.2-19.2c-10.8,0-19.6,8.7-19.6,19.4
		C314.6,216.4,317.8,222.2,322.7,225.7z"/>
	<path fill="#253844" d="M293.5,225.7c7.2-1.1,14.4-2.3,21.6-3.4c-1.2-3.7-2.2-7-3.3-10.4c-19.9,3.1-39.9,6.3-59.7,9.4v4.4H293.5z"
		/>
	<path fill="#253844" d="M26,206.9v-10.4c-6.5-0.9-12.8-1.9-19.6-2.9C8.8,206,14,206.6,26,206.9z"/>
	<path fill="#253844" d="M148.2,214.5c-25.9-3.8-51.5-7.6-77.1-11.4c-1,3.5-2,6.7-3.1,10.4c26.8,4,53.4,7.9,80.2,11.8V214.5z"/>
	<path fill="#253844" d="M48.7,182c-10.6,0.2-19,8.8-19,19.5c0,10.8,8.6,19.3,19.6,19.2c10.6-0.1,19.2-8.8,19.2-19.3
		C68.3,190.8,59.2,181.8,48.7,182z"/>
	<path fill="#253844" d="M370.2,202.7c-4.6,0.7-9.1,1.5-13.2,2.1v10.3C364.8,215.4,368.7,211.8,370.2,202.7z"/>
	<path fill="#253844" d="M248.7,225.7c-0.5-9.3-7.2-17.3-16.3-18.4c-11.4-1.3-18.3,4.8-17.9,16.3c0,0.7,0.1,1.4,0.2,2H248.7z
		 M223,214.4L223,214.4c-0.7,0.8-1.7,1.5-2.3,2.3C221.3,215.9,222.3,215.1,223,214.4z"/>
	<path fill="#253844" d="M483.8,132.4L483.8,132.4c-0.1-0.5-0.1-1-0.2-1.4C483.6,131.4,483.7,131.9,483.8,132.4z"/>
</g>
<g>
	<path opacity="0.59" fill="#253844" d="M489.8,82.8l136.7-14.6l-2.1,16.5c0,0-121.8,19.7-122.2,18.6c-0.3-1.1-22.7-3.5-21.8-4.2
		C481.4,98.4,489.8,82.8,489.8,82.8z"/>
	<path opacity="0.76" fill="#253844" d="M655,65.6l-44.4,4.3c-3.5,0.3-6.3,3.1-6.7,6.6c-0.3,2.7-0.6,5.2-0.9,5.5
		c-0.4,0.5,31.2-3,44.9-4.5c3.6-0.4,6.3-3.3,6.6-6.9C654.7,67.8,654.9,65.2,655,65.6z"/>
	<g>
		<path fill="#253844" d="M618.7,86.6c-4,1.2-8.7-3-10.6-9.4s-0.1-12.4,3.8-13.6c4-1.2,8.7,3,10.6,9.4S622.7,85.4,618.7,86.6z
			 M613,67.1c-2.7,0.8-3.8,5-2.5,9.5c1.3,4.5,4.5,7.4,7.2,6.7c2.7-0.8,3.8-5,2.5-9.5S615.7,66.3,613,67.1z"/>
	</g>
	<path fill="#253844" d="M588.8,81.4c0.3,3.5-2.4,6.6-5.9,6.9l0,0c-3.5,0.3-6.6-2.4-6.9-5.9l-1-13.7c-0.3-3.5,2.4-6.6,5.9-6.9l0,0
		c3.5-0.3,6.6,2.4,6.9,5.9L588.8,81.4z"/>
	<path fill="#253844" d="M522.5,91.5c0.3,3.5-2.4,6.6-5.9,6.9l0,0c-3.5,0.3-6.6-2.4-6.9-5.9l-1-13.7c-0.3-3.5,2.4-6.6,5.9-6.9l0,0
		c3.5-0.3,6.6,2.4,6.9,5.9L522.5,91.5z"/>
	<g>
		<path opacity="0.3" fill="#FBF8EC" d="M556.6,91.8L554.8,54l-44.3,6.5c0,0-23,17.8-27.7,25.2c-4.8,7.4,4.2,14.5,4.2,14.5
			L556.6,91.8z"/>
		<path opacity="0.3" fill="#FBF8EC" d="M566.2,88.2l-6.7-36.5c0,0,23.7-5.4,40.3-1.9S656,69.3,656,69.3l0.9,3.1L566.2,88.2z"/>
		<circle fill="#253844" cx="489.1" cy="138" r="28.6"/>
		<circle fill="#253844" cx="667.1" cy="109.3" r="28.6"/>
		<g>
			<g>
				<path fill="#AAAAAA" d="M675.9,86.6c0.5,0.7,1,1.4,1.4,2.2c6.3,8.5,15.8,7.9,23.4,9c1.1-6.6,2-12.7,3-19
					c-1.2,0.4-2.3,0.8-3.5,1.2c-1.2-3.2-2.2-6-3.8-10.3c-1.1,3.1-1.7,4.7-2.3,6.5c-10.2-9.1-10.2-9.1-16.3-2.3
					c-1.8-8.2-8.2-8.3-14-7.7c1.6-2.3,2.5-4.4,4.1-5.8c2.5-2.3,5.6-5.9,8.1-5.7c5.6,0.5,5.7-2.3,5.3-6.6c4,0.1,7.5,0.3,11.7,0.4
					c0.7-4.6-1-6.5-6-5.4c-1.6,0.4-3.5,1.6-4.7,1.1c-6.2-2.5-7.1,0.9-6.6,5c-2.9,0.6-6.8,0.6-7.2,1.6c-1.9,6.1-7,9.3-9.7,13.7
					C641,59.3,624,54.2,607,49.5c-13.2-3.7-26.6-4.5-40.3-1.9c-16.6,3.1-33.5,5-50.2,7.9c-3.9,0.7-8.2,2.3-11.2,4.9
					c-11.4,9.8-22.5,20-33.3,30.4c-4.4,4.3-9.1,6.4-15.1,7.6c-12.2,2.4-24.4,5.5-36.3,9.3c-7.3,2.4-9.1,6.5-6.6,13.9
					c1.9,5.5,5.2,10.5,7.9,15.7c10.3,25.8,21.3,23.8,38.7,18.4c-1.4-4.4-5.6-14.3-3.9-21.7c0.1-0.3,0.2-0.7,0.3-1.1
					c3.3-14,12.9-22.8,27.1-25.2c12.8-2.2,25.5,3.7,32.4,15.5c0.7,1.3,1.5,2.1,2.3,2.6c3.7,7.8,3.8,16.3,3.7,20.8
					c38.5-5.8,75.8-10.8,114-16.6c-2.9-6.4-6.4-16.1-5.3-20.8c0,0,0,0-0.1,0c7-22.6,20.5-32.9,34-26.3c-1.5,0.2-3,0.5-4.4,0.7
					c-15,2.1-25.3,13.8-24.9,28.2c0.4,14.6,11.9,26,27,26.9c11.7,0.7,20-5.7,21.3-17.4c1.3-11.5-0.7-22.4-7.1-32.6
					C676.8,88.1,676.3,87.4,675.9,86.6z M545.4,88.5c-15.9,2.4-31.7,5-47.6,7.2c-2.5,0.4-7.3,0.1-7.5-0.9c-1.1-3.9-2.7-9.8-0.8-12.1
					c8.6-10.3,17.5-20.8,32.3-22.6c9.2-1.1,18.4-2.7,28-4.2c1.6,10.6,3.1,20.4,4.7,31.2C551.4,87.6,548.4,88,545.4,88.5z
					 M565.8,84.4c-1.5-9.9-3-19.7-4.6-30.2c12.3-1.8,24-5.7,36.5-1.6c17.9,5.7,35.9,10.8,53.9,16.2c0.9,0.3,1.7,0.7,2.5,2.3
					C625,75.5,595.8,79.9,565.8,84.4z M677.7,111.7c1.3,10.7-1.2,17-7.6,19.2c-9,3-18.9-0.5-23.9-8.8c-4.2-7-4.3-14.2-0.3-21.4
					c3.8-6.7,12-10.9,18.8-10c8.4,1.1,9.9,7.9,11.8,14.3c0.4,1.4,0.5,2.9,0.7,4.3c0,0,0,0,0,0C677.5,110,677.6,110.8,677.7,111.7z
					 M699,99.1c-4.2,2.2-10,3.3-11.8,6.6c-2,3.6-0.4,9.2-0.4,14.6c2.6-2,4.7-3.8,7.2-5.7c5.9,9.9,9.5-1.7,14.2-0.2
					C705,109.3,702.1,104.4,699,99.1z M485.9,118.4c-10.1,1.6-17,11.1-15.6,21.4c1.4,10.6,10.9,17.9,21.3,16.4
					c10.3-1.5,17.7-11.4,16.1-21.7C506.2,124.3,496.1,116.9,485.9,118.4z M489.4,141.4c-1.5-1.2-3.8-2.2-4.1-3.6
					c-0.3-1.4,1.5-3.2,2.9-5.9c2.1,2.3,4.4,3.6,4.4,5C492.6,138.3,490.6,139.9,489.4,141.4z"/>
			</g>
		</g>
		<circle fill="#253844" cx="489.2" cy="137.3" r="6.9"/>
		<circle fill="#F79525" cx="663" cy="111" r="6.9"/>
	</g>
</g>
<path opacity="0.59" fill="#253844" d="M422.3,226.5c6-3,14.4-6.9,13.7-7.2c-1.1-0.4-13.8-12.8-13.8-12.8l-99.1,20H422.3z"/>
<g>
	<path fill="#253844" d="M303.6,226.5c-1.1-1-2.4-1.5-3.7-1.5c-1.3,0-2.5,0.6-3.5,1.5H303.6z"/>
</g>
<path fill="#253844" d="M325.3,226.5h13.2l-1.8-7.9c-0.8-3.5-4.3-5.6-7.7-4.8c-3.5,0.8-5.6,4.3-4.8,7.7L325.3,226.5z"/>
<path fill="#253844" d="M393.6,224.7c0.2,0.6,0.4,1.2,0.7,1.8h11.1c0.8-1.4,1.1-3,0.7-4.7l-3.1-13.4c-0.8-3.5-4.3-5.6-7.7-4.8
	c-3.5,0.8-5.6,4.3-4.8,7.7L393.6,224.7z"/>
<g>
	<path opacity="0.3" fill="#FBF8EC" d="M414.7,226.4l15.5-2.9c0,0,6.5-9.4-0.3-15.1c-6.8-5.6-34-15.7-34-15.7l-44.2,7.1l7,26.6
		H414.7z"/>
	<path opacity="0.3" fill="#FBF8EC" d="M350,226.4l-3.4-27.3c0,0-24.2,2-39.1,10.3c-6.3,3.5-15.7,10.3-24.5,17.1H350z"/>
	<g>
		<path fill="#3B4850" d="M288.4,227.2c7.3-4.9,14.6-9.9,21.8-14.9c10.7-7.6,23-7.4,35.3-9.4c1.3,8.4,2.6,16.4,3.8,24.3H361
			c-1.4-8.9-2.7-17.3-4.1-26.2c9.5-1.5,18.8-2.7,27.9-4.4c14.7-2.7,26.3,4.6,37.6,11.9c2.6,1.6,2.8,7.7,2.9,11.8
			c0,1-4.4,2.7-6.9,3.1c-8.2,1.3-16.3,2.6-24.5,3.9h111.7c0.2-1.5,0.3-2.9,0.4-4.4c0.2-7.7-2.8-11.2-10.4-11.2
			c-12.5-0.1-25,0.6-37.4,2c-6.1,0.7-11.2,0-16.7-2.7c-13.4-6.7-27.1-13.1-40.9-19c-3.6-1.5-8.2-1.8-12.1-1.3
			c-16.8,2.3-33.4,5.5-50.3,7.5c-13.9,1.7-26.3,6.5-37.8,13.9c-7.7,5-15.3,10.1-23,15.2H288.4z"/>
	</g>
</g>
<g>
	<path opacity="0.49" fill="#253844" d="M735.9,132.9l6.1-41.1c0,0-39.9-1.5-75.9,39.2c-35.9,40.8-4.2,21.8-4.2,21.8L735.9,132.9z"
		/>
	<g>
		<path opacity="0.62" fill="#253844" d="M659.6,140.1c1.2-0.9,40.7-14.9,40.7-14.9l97.3-18.1l-1.9,17.6L659.6,140.1z"/>
		<g opacity="0.59">
			<path fill="#253844" d="M688,149.4c-6.4,1.2-12.8-4.4-14.3-12.3c-1.4-8,2.6-15.4,9-16.5s12.8,4.4,14.3,12.3
				C698.5,140.8,694.5,148.3,688,149.4z M683.7,125.5c-3.6,0.7-5.9,5.6-5,10.7c0.9,5.2,4.8,8.9,8.5,8.3c3.6-0.7,5.9-5.6,5-10.7
				C691.2,128.6,687.3,124.8,683.7,125.5z"/>
		</g>
		<path opacity="0.62" fill="#253844" d="M731.3,131.9c0.8,4.3-2,8.3-6.3,9.1l0,0c-4.3,0.8-8.3-2-9.1-6.3l-3.2-17.4
			c-0.8-4.3,2-8.3,6.3-9.1l0,0c4.3-0.8,8.3,2,9.1,6.3L731.3,131.9z"/>
		<circle fill="#F79525" cx="640" cy="192.7" r="17.3"/>
		<circle fill="#F79525" cx="819.4" cy="160.1" r="17.3"/>
		<path fill="#253844" d="M817.6,99.7c-11.3-19.6-47.6-15.8-76.3-9.5c0,0.1,0,0.2,0,0.3c0,0.8-0.1,1.5-0.2,2.2
			c-0.3,6.4-1.9,12.7-2.3,19.1l3.8,20.6c17.4-2,30.7-3.4,30.9-3.1c0.8,0.9,26.9-8.6,26.9-8.6S819.7,102.4,817.6,99.7z"/>
		<path fill="#F79525" d="M610.6,155.8c1-0.1-5,11.4-5,11.4l-4,5.8c0,0-12,3.2-13.1,2.7c-1.1-0.5-8.8,2-9.3,0.2
			C578.7,174.1,579.9,160,610.6,155.8z"/>
		<path fill="#395767" d="M592.6,160.9c4.6-2.2,9.1-4.9,13.9-6.6c14.9-5.5,29.9-10.6,44.8-16.2c4.4-1.7,8.6-4.2,12.3-7.2
			c10-8.1,18.8-17.8,29.5-24.8c20.6-13.5,44.7-17.2,68.6-21.3c27.5-4.7,52.9,2.5,78,11.7c5.1,1.9,8.6,2.3,10.3-4.4
			c0.7-2.9,4.2-5.1,6.4-7.6c0.6,0.3,1.2,0.7,1.9,1c-1.4,3.9-2.8,7.7-4.5,12.7c2.8-1,4.4-1.6,6.8-2.5c0.5,2,1.7,3.9,1.3,5.2
			c-1.3,3.9-0.4,6.6,1.6,10.4c1.8,3.3-0.1,8.5-0.4,12.9c-0.9,0.3-1.8,0.5-2.7,0.8c4.1,3.2,8.3,6.4,12.3,9.8c0.8,0.7,1.3,3.1,0.9,3.4
			c-7.9,6.3-15.9,12.4-25.1,19.4c-3.2-11.4-8.2-19.3-17.5-22.4c-5.2-1.7-11.4-2.3-16.8-1.4c-13.7,2.2-19.9,11.7-22.1,31.7
			c-41.5,7.6-83.1,15.1-124.7,22.7c-11.5-19.9-19.7-24.9-35-21.5c-13.3,3-19.7,12.4-21.3,32.1c-6.4,1.2-12.9,2.4-19.4,3.5
			c-1.3,0.2-3.8-0.3-4.1-1.1c-3-8.3-5.7-16.8-8.3-25.2c-0.3-0.8,0.7-2.1,1.1-3.1c1,1,2.3,3.1,3,2.9c6.1-1.9,12.6-3.4,18-6.6
			c3.1-1.9,4.4-6.7,6.5-10.1c-0.6-0.7-1.2-1.4-1.7-2.1C601.5,158.2,597.1,159.5,592.6,160.9z M662.7,141c7.5-1.4,14.5-2.5,21.3-3.9
			c15.7-3.3,31.5-6.8,47.1-10.4c1.9-0.4,4.7-2.3,4.8-3.7c0.6-9.3,0.6-18.5,0.9-27.5C703.8,97.9,682.1,117.1,662.7,141z M742.6,125.7
			c8.8-2,16.9-3.7,24.9-5.7c5.3-1.4,13-1.9,15.2-5.5c2.7-4.4,0.9-11.6,0.7-17.5c-0.3-7.4-2.5-9.6-9.9-8.9
			c-8.4,0.8-16.8,2.2-25.1,3.8c-1.7,0.3-4,3.1-4.2,4.9C743.2,106.1,743,115.5,742.6,125.7z M788.3,116.9c7.1-3.4,12.9-5.9,18.3-9
			c3.8-2.2,4.7-6.5,0.8-8.9c-5.9-3.7-12.6-6.1-19.9-9.5C787.7,99.6,788,107.4,788.3,116.9z"/>
		<g>
			<g>
				<path fill="#253844" d="M845.5,156.4c-2.5-14.2-15.8-23.8-29.7-21.4c-13.9,2.4-23.4,16.1-20.9,30.1c2.5,14.1,16.1,23.6,30,21
					C838.6,183.5,847.9,170.1,845.5,156.4z M822.9,173.5c-7.1,1.5-14-3-15.6-10.1c-1.6-7.4,3.2-14.7,10.5-16
					c7.1-1.3,13.9,3.4,15.3,10.6C834.5,165.2,830,172.1,822.9,173.5z M634.2,168.1c-13.6,2.6-22.8,16-20.3,29.8
					c2.5,14.2,15.8,23.7,29.8,21.3c13.8-2.4,23.3-16.4,20.8-30.3C661.8,174.9,648,165.4,634.2,168.1z M640.9,206.7
					c-7.2,1-13.7-3.9-14.8-11.2c-1.1-7.3,3.7-14,10.8-15.1c7.1-1.1,14,3.8,15.2,10.8C653.4,198.7,648.3,205.7,640.9,206.7z"/>
			</g>
		</g>
	</g>
</g>
<g>
	<path opacity="0.89" fill="#253944" d="M364.2,127.8c0.2-0.9,22.8-2.8,35.5-3.7c5.6-0.4,11.2-0.2,16.7,0.7l116.8,18.7l0.5,10.7
		C533.7,154.2,361,146.7,364.2,127.8z"/>
	<path fill="#FBED21" d="M446.8,151.3c-1.1,3.1-4.6,4.6-7.6,3.5l0,0c-3.1-1.1-4.6-4.6-3.5-7.6l9.8-26.2c1.1-3.1,4.6-4.6,7.6-3.5l0,0
		c3.1,1.1,4.6,4.6,3.5,7.6L446.8,151.3z"/>
	<path fill="#FBED21" d="M505.7,166.6c-1.1,3.1-4.6,4.6-7.6,3.5l0,0c-3.1-1.1-4.6-4.6-3.5-7.6l9.8-26.2c1.1-3.1,4.6-4.6,7.6-3.5l0,0
		c3.1,1.1,4.6,4.6,3.5,7.6L505.7,166.6z"/>
	<path opacity="0.59" fill="#AAAAAA" d="M533.7,152.2c0,0,1.7-10.3,0.3-11s-46.6-29.7-58.3-26c-3.7,1.2-8.7,23.7-8.7,23.7
		s-6.7,12-3.3,11.3C467,149.5,533.7,152.2,533.7,152.2z"/>
	<path opacity="0.59" fill="#AAAAAA" d="M457.7,148.2c0,0,9.3-10.7,9-12c-0.3-1.3,6.7-16.3,6.7-16.3s0-5-1-5s-52.7-9-92.3,4.3
		s-22,14.3-22,14.3L457.7,148.2z"/>
	<path fill="#395767" d="M347.8,160.1c14.3,18.7-6.9,39.9-25.6,25.6C307.9,167,329.1,145.8,347.8,160.1z"/>
	<path fill="#395767" d="M535.2,186.7c14.3,18.7-6.9,39.9-25.6,25.6C495.3,193.7,516.4,172.5,535.2,186.7z"/>
	<g>
		<g>
			<path fill="#253844" d="M581.7,169.1c-3.4-5.9-6.3-12-10.3-19.6c-3.9-1.3-10.3-3-16.3-5.5c-15.8-6.8-31.3-14.6-47.2-21.1
				c-48.1-19.6-96.8-20.8-145.8-2.9c-2,0.7-4.3,1.4-6.3,1.1c-15.9-2.6-31.8-3-47.7,0.5c-6.1,1.3-13.4-4.2-11.4-8.5
				c4.1-8.9,2.6-15.5-5.6-20.9c-1.6-1.1-2.6-3.3-4.7-6c-1.2,3.3-2.8,5.6-2.7,7.9c0.1,8.7-8.1,14.9-6.9,23.8c0,0.2-0.3,0.4-0.4,0.6
				c-3,3.8-5.9,7.4-5.2,12.9c0.2,1.5-2.7,3.2-3.9,5.1c-1.6,2.5-4.6,5.8-3.9,7.6c2.7,7.3,3.8,15.7,14.5,17.4
				c9.6,1.5,18.8,5.6,28.1,8.6c6.5-18.9,18.3-27.5,32.8-24.7l-0.2,0.1c0.1,0,0.2-0.1,0.2-0.1c-2.8,0.6-5.7,1.2-8.5,1.7
				c-11.3,2.2-20.1,11.9-21.6,23.7c-1.4,11.1,5,22.6,15.2,27.5c11,5.2,23.9,2.7,32-6.2c7.8-8.6,9.1-20.9,3.7-31.2
				c-4.6-8.8-12.7-12.2-21.2-15.4c17,1.1,24.5,10,27.2,32.6c42.3,6,84.7,11.9,126.8,17.9c8.8-19.6,18.9-27,33.8-25
				c15.3,2.1,23.5,12.3,26,32.6c8.6-1.4,17.2-2.7,25.8-4.2c1-0.2,2.1-1.1,2.8-2C584.6,192.5,584.8,174.5,581.7,169.1z M341.3,160.9
				c7.1,3.1,10.5,11.1,7.5,18.2c-2.9,7-11.1,10.4-18.2,7.5c-7.4-3-10.9-11.4-7.7-18.7C326,161,334.2,157.9,341.3,160.9z M459,141.4
				c-29.8-4.1-59.5-8.3-89.2-12.5c0-0.7-0.1-1.3-0.1-2c32.2-13.3,65.4-18.1,100.9-10.3c-2.5,8-4.6,15.4-7.2,22.6
				C463,140.3,460.4,141.5,459,141.4z M529.5,146.2c-0.3,1.1-3.6,2.2-5.5,2c-17.9-1.6-35.7-3.4-54.7-5.3c2.7-8.8,5-16.6,7.9-26.2
				c15.6,6.5,30.6,12.7,45.5,19c1.9,0.8,3.9,2.4,5,4.1C529,141.7,529.9,144.3,529.5,146.2z M556.7,157.7c10.3-5,16.3-3.1,17,5.5
				C567.8,161.3,562.6,159.7,556.7,157.7z M534,175.2c-13.3-6.2-30.1,0-36.4,13.5c-6.3,13.4,0,30,13.8,36.2
				c13.4,6.1,29.3,0.1,35.6-13.4C553.4,197.8,547.6,181.5,534,175.2z M535.3,205.4c-3.1,7.3-10.7,10.4-18,7.4
				c-7.2-3-10.7-10.7-7.9-17.9c2.7-7.1,11.7-10.9,18.7-7.8C535.1,190.2,538.3,198.2,535.3,205.4z M282.1,167.9
				c-8.5,2.4-16.2-0.3-24.1-2.8c-1.9-0.6-4.9-1.1-6-0.1c-6.8,6.3-13.1,13-19.6,19.6c0.3,0.4,0.6,0.8,0.9,1.1
				c6.3-2.2,12.6-4.3,21-7.2c1.2,4.6,2.1,8.5,3.6,14.3c2.8-6.5,4.8-11.3,7.5-17.6c3.9,6.2,6.7,10.6,9.9,15.6c1.9-3.4,3.3-6,5-9.1
				c6.3,3.2,12.1,6.2,19.4,10c-5-8.3-9.1-15.3-13.5-22.1C285.6,168.6,283.2,167.6,282.1,167.9z"/>
		</g>
	</g>
	<path fill="#F79525" d="M550.7,153.8c1.7,0,16.3-1.7,17.7-1.3c1.3,0.3,8,11,8,11s0.7,7.3-1,5.7
		C573.7,167.5,550.7,153.8,550.7,153.8z"/>
	<g opacity="0.48">
		<path fill="#253944" d="M398.1,119.9c-3.9,0-7.1,3.9-7.1,8.8c0,4.8,3.2,8.8,7.1,8.8s7.1-3.9,7.1-8.8
			C405.3,123.8,402.1,119.9,398.1,119.9z M398.1,134.7c-2.7,0-4.9-2.7-4.9-6.1c0-3.3,2.2-6.1,4.9-6.1s4.9,2.7,4.9,6.1
			C403.1,132,400.9,134.7,398.1,134.7z"/>
	</g>
	<path opacity="0.49" fill="#253944" d="M411.4,138.3l-33,0.7l-0.1-6.3c0-2.3,1.8-4.2,4.1-4.3l24.8-0.5c2.2,0,4.1,1.7,4.1,3.9
		L411.4,138.3z"/>
</g>
<g>
	<path opacity="0.61" fill="#253844" d="M848.4,226.2l4.4-1c0,0-34-20.4-53.9-32.8s-52.2-9.8-52.2-9.8l-5.6,38.8l58.2,4.7H848.4z"/>
	<path opacity="0.61" fill="#253844" d="M652.9,209.5l24.3,13.3c0,0,56.4-2.9,56.7-1.5c0.3,1.4,10.4-28.3,10.4-28.3l-7.2-11.4
		l-47.4,0.1C689.5,181.7,651,199.1,652.9,209.5z"/>
	<g>
		<g>
			<path fill="#935924" d="M568.7,226.2h63.7c5.2-2.1,11.1-3,17.8-2.7c4.3,0.2,8.4,1.2,12.2,2.7h210.4c-2.7-2.1-6.5-2.9-10.3-3.3
				c2.3-2,3.9-4,6.1-5.1c1.5-0.8,3.1-1.8,4.7-2.6v-7.7c-0.9,0-1.5,0.1-1.8,0.5c-3.6,5.9-10.2,8.1-14.3,12.1
				c-18.7-9.7-36.6-19.2-54.6-28.2c-14-7-28.8-11.1-44.9-11.7c-19.5-0.7-39-2.7-58.5-3.7c-4.6-0.2-9.8,0.5-13.8,2.5
				c-15.2,7.6-30.3,15.6-45,24c-6,3.4-11.8,4.6-18.9,4.4c-14.4-0.4-28.8-0.1-43.2,1.1c-8.8,0.7-11.8,4.7-10.8,13
				C568,222.9,568.3,224.5,568.7,226.2z M750,185.9c14.3,1.1,28.4-0.2,41.5,7c18.7,10.3,37.8,20,56.7,29.9c0.9,0.5,1.7,1.2,2.3,3
				l-102.8-7.2L750,185.9z M662.2,198.6c12.2-8.8,24.8-17.7,42-16.1c10.7,1,21.4,1.5,32.5,2.3l-2.4,33.9c-3.5-0.2-7-0.5-10.5-0.7
				c-18.5-1.2-37-2.4-55.4-3.8c-3-0.2-8.2-1.7-8.3-2.7C659.8,207.1,659.4,200.6,662.2,198.6z"/>
		</g>
	</g>
</g>
</svg>
