<?xml version="1.0" encoding="utf-8"?>
<!-- Generator: Adobe Illustrator 18.1.0, SVG Export Plug-In . SVG Version: 6.00 Build 0)  -->
<svg version="1.1" id="Layer_1" xmlns="http://www.w3.org/2000/svg" xmlns:xlink="http://www.w3.org/1999/xlink" x="0px" y="0px"
	 viewBox="0 0 853.4 322" enable-background="new 0 0 853.4 322" xml:space="preserve">
<metadata><?xpacket begin="﻿" id="W5M0MpCehiHzreSzNTczkc9d"?>
<x:xmpmeta xmlns:x="adobe:ns:meta/" x:xmptk="Adobe XMP Core 5.6-c014 79.156821, 2014/08/29-03:07:50        ">
   <rdf:RDF xmlns:rdf="http://www.w3.org/1999/02/22-rdf-syntax-ns#">
      <rdf:Description rdf:about=""
            xmlns:dc="http://purl.org/dc/elements/1.1/"
            xmlns:xmp="http://ns.adobe.com/xap/1.0/"
            xmlns:xmpGImg="http://ns.adobe.com/xap/1.0/g/img/"
            xmlns:xmpMM="http://ns.adobe.com/xap/1.0/mm/"
            xmlns:stRef="http://ns.adobe.com/xap/1.0/sType/ResourceRef#"
            xmlns:stEvt="http://ns.adobe.com/xap/1.0/sType/ResourceEvent#"
            xmlns:illustrator="http://ns.adobe.com/illustrator/1.0/"
            xmlns:xmpTPg="http://ns.adobe.com/xap/1.0/t/pg/"
            xmlns:stDim="http://ns.adobe.com/xap/1.0/sType/Dimensions#"
            xmlns:xmpG="http://ns.adobe.com/xap/1.0/g/"
            xmlns:pdf="http://ns.adobe.com/pdf/1.3/">
         <dc:format>image/svg+xml</dc:format>
         <dc:title>
            <rdf:Alt>
               <rdf:li xml:lang="x-default">Print</rdf:li>
            </rdf:Alt>
         </dc:title>
         <xmp:MetadataDate>2015-03-10T00:32:45-05:00</xmp:MetadataDate>
         <xmp:ModifyDate>2015-03-10T00:32:45-05:00</xmp:ModifyDate>
         <xmp:CreateDate>2015-03-10T00:32:45-05:00</xmp:CreateDate>
         <xmp:CreatorTool>Adobe Illustrator CC 2014 (Windows)</xmp:CreatorTool>
         <xmp:Thumbnails>
            <rdf:Alt>
               <rdf:li rdf:parseType="Resource">
                  <xmpGImg:width>256</xmpGImg:width>
                  <xmpGImg:height>100</xmpGImg:height>
                  <xmpGImg:format>JPEG</xmpGImg:format>
                  <xmpGImg:image>/9j/4AAQSkZJRgABAgEASABIAAD/7QAsUGhvdG9zaG9wIDMuMAA4QklNA+0AAAAAABAASAAAAAEA&#xA;AQBIAAAAAQAB/+4ADkFkb2JlAGTAAAAAAf/bAIQABgQEBAUEBgUFBgkGBQYJCwgGBggLDAoKCwoK&#xA;DBAMDAwMDAwQDA4PEA8ODBMTFBQTExwbGxscHx8fHx8fHx8fHwEHBwcNDA0YEBAYGhURFRofHx8f&#xA;Hx8fHx8fHx8fHx8fHx8fHx8fHx8fHx8fHx8fHx8fHx8fHx8fHx8fHx8fHx8f/8AAEQgAZAEAAwER&#xA;AAIRAQMRAf/EAaIAAAAHAQEBAQEAAAAAAAAAAAQFAwIGAQAHCAkKCwEAAgIDAQEBAQEAAAAAAAAA&#xA;AQACAwQFBgcICQoLEAACAQMDAgQCBgcDBAIGAnMBAgMRBAAFIRIxQVEGE2EicYEUMpGhBxWxQiPB&#xA;UtHhMxZi8CRygvElQzRTkqKyY3PCNUQnk6OzNhdUZHTD0uIIJoMJChgZhJRFRqS0VtNVKBry4/PE&#xA;1OT0ZXWFlaW1xdXl9WZ2hpamtsbW5vY3R1dnd4eXp7fH1+f3OEhYaHiImKi4yNjo+Ck5SVlpeYmZ&#xA;qbnJ2en5KjpKWmp6ipqqusra6voRAAICAQIDBQUEBQYECAMDbQEAAhEDBCESMUEFURNhIgZxgZEy&#xA;obHwFMHR4SNCFVJicvEzJDRDghaSUyWiY7LCB3PSNeJEgxdUkwgJChgZJjZFGidkdFU38qOzwygp&#xA;0+PzhJSktMTU5PRldYWVpbXF1eX1RlZmdoaWprbG1ub2R1dnd4eXp7fH1+f3OEhYaHiImKi4yNjo&#xA;+DlJWWl5iZmpucnZ6fkqOkpaanqKmqq6ytrq+v/aAAwDAQACEQMRAD8A9U4q7FXYq7FXYq7FXYq7&#xA;FXYq7FXYq7FXYq7FXYq7FXYq7FXYq7FXYq7FXYqo3F7ZWwrcTxw/8ZHVf1nCIk8mMpgcyldx5x8u&#xA;wVrdiRv5Y1ZvxAp+OWDDI9GmWrxjqllz+Y2mptb20sp8XKxj8OZ/DJjTnq0S18egKWy+e9futrK0&#xA;VAehVWlb7+n4ZMYIjmWk63JL6Ql13D5y1MVuYrqROvFkKJ/wNFX8MmDCPKmqQzT52u0L9MaTqGmS&#xA;vWK01CRVVSwKOjFQSVB2oHqK4z4ZA94Th48conpJ6dmC7l2KuxV2KuxV2KpT5o1WfTNIkubcD1iV&#xA;jRjuFLftU70yzFDiNNGpyGELHN58+seaI5g73N0jkcgrFwKdK8D8NPozM4IeTqjlyg8ymdl+YerQ&#xA;gLdRR3IHVv7tz9Iqv/C5XLTjo3Q18hzFpzbfmLpTik8E0Le3F1++oP4ZWdOXIjr4HmCmtv5s8vXF&#xA;OF6inwkrH+LgDKzikOjfHU4z1TFLu1kUMkyOp6FWBB+45Ci2iQPVVwMnYq7FXYq7FXYq7FXYq7FX&#xA;Yq7FXYqgtZ1KPTdNmu3pVF/dqf2nP2V+/JQjxGmvLkEIksPtfLPmHW/9N1G8a3Em6KwZmAPglVCj&#xA;6cyTljHYB18dPkyeqRpHw/lzp4atxdzS9zxCpX7+eQOoPc2jQR6kpjb+SfLkPW2Mp8ZHY/gCB+GQ&#xA;OaTdHR4x0TKDR9Kt6ejZwxkdxGtfvpXIGZPVtjiiOQCLApsOmRbHYq8x1S8nWPTYJuAk064niohI&#xA;pwdNt/ltmdEc/N02SZ9IP8JL07MF3LsVdirsVdirsVYr+YsvHSII/wCecH6FRv65kacbuDrz6B70&#xA;ToF2bvVJT6ZVLWztolckGpdfUP31H3ZHIKHxbMMuKR8gE8ltbWb++hST/XUN+sZUCQ5JiDzCCn8t&#xA;6DP9uwhHuihD/wAJxyQySHVqOnxnoEvm8h+XpPsRyRf6khP/ABPlkxnk1HRYygJ/y3szX0LyRPDm&#xA;qv8Aq4ZMak9zUez49C1oEuqaHqq6Rqb8rS42tJSSU5ilApPSvTj445AJCxzXAZY5cEuR5MyzGdg7&#xA;FXYq7FXYq7FXYq7FXYq7FXYqkeq3FnJ5j0yxuIxICksqBj8IenwMV7/YYDLYA8JIcbJIHJGJTzKn&#xA;JdirsVdirsVdirynzaqJ5gvEjbknqc6DszKC345n4vpDo9V/eF6pC5eJHPVlB26biuYJd2DsuwJd&#xA;irsVdirsVYZ+ZL0t7BPF5DTvsF/rmTpuZdd2gdgjvIMbnR3uH3eaSgP+TGiov6jkc/Om3RD0X3sl&#xA;yhzHYq7FXYqgNetrefSLoTIGEcTyIT1VkUlWB7EZOBohqzRBgbR4Ndx0yDa7FXYq7FXYq7FXYq7F&#xA;XYq7FUv1S6v0mt7SxEYnuObGWUEoixgV2FKklhTJxA5lqySlYEeZYzfab5jl1Zbx7IPeRvWOeJlE&#xA;NF4enTk3ICqvyr45fGUaq9nDnjyGd1v9nRkNneaymoJa6lHAVmjeSKS3L0BQrVWD/wCt1ykiNWHK&#xA;hKfFUq+Ca5W3uxV2KuxV2KvJfNCsvmC+DdfVJ+gio/DNhi+kOi1P94XqWmsG061YdGhjP3qMwZcy&#xA;7rH9I9yIyLN2KuxV2KuxVg35lPWTT0p0Epr8yn9MytN1dZ2gfp+KO/Ln/jj3G3/Hwfi/2CbZHUfU&#xA;26D6D72V5juc7FXYq7FWOebNVtZdEuILOeOeaX4GEbhiqoOb14nb4VIy7FA8W7ianIDAgG0Zomr2&#xA;j2FtBcXEUd6o9B4WcBy8Z4bAmprSuRnA3tybMOUcIBO6b5W3uxV2KuxV2KuxV2KuxV2KtFELK5AL&#xA;LXie4r1xWm8VaKIXDkDmoKhu4DUJH4DFabxV2KuxV2KuxV5j56QL5jnYftpGx/4AL/DM7B9LpdaP&#xA;3hehaM3LR7FunK3iNPmgzDn9RdtiPoHuCMyLY7FXYq7FXYqwL8yGP12zXsI2IHzb+zMvTci6vtDm&#xA;E88iRcPLsTf79kkf7m4/8a5VnPqcnRD92GQ5S5bsVdiqG1O2kutPubeNuLzRsinpuwpkomjbDJG4&#xA;kIS48saHPGiG1WP014q0VY24kUIJWnLbxyQyyDXLTwPRZL5a0tdOubeC3X1Zkakr1d+ZHwnm1W2O&#xA;IyG7U6ePCQBzTZF4qFJqQAKnqcrbw3irsVdirsVdirsVdirsVdirsVdirsVdirsVSUeYnlv7q0tL&#xA;NrgWf99MHVUB8Knv7Zb4ewJPNx/HuRAF0pWnmsXEdnN9TZIL2b0InLqSGqRuPownFV78mMdTYBrY&#xA;mmIeen5eY5xt8CRj/hAf45kYPpdfrT+8L0LRFK6NYKeotogfoQZhz+ou2w/QPcEZkWx2KuxV2Kux&#xA;VgP5kA/XrM9vSbf/AGWZem5F1faHMMj8lf8AKM2f/PX/AJOvlOb6i5ej/ux+Oqd5U5LsVdirsVdi&#xA;rsVdirsVdirsVdirsVdirsVdirsVdirsVdirsVUbq6EAjAjeV5X4Iicak8S37RUdFPfCBbGUqeba&#xA;Z5guNMa8WNoXN21ZPUElQd/5R/lZmyx8VOox5zC+W/vb0fVHB02wLJJHbXazR8eQc1O6/EFXqe5G&#xA;M48z5LiyfTHuKB8w3Et5q93dtGUV3UAGhoONEqQSKlV8cljFABqzyMpkvUtKBGl2YOxEEYI/2AzB&#xA;lzLu8f0j3IrIs3Yq7FXYq7FWD/mUnx6fJ4iVT9HA/wAcytN1db2gPp+Kd+R35eW7YfyGQf8AJRj/&#xA;AByrP9TkaM/uwnuVOU7FXYq7FXYq7FXYq7FXYq7FXYq7FXYq7FXYq7FXYq7FXYq7FUJqVjJdxxLH&#xA;IkbxSeoDJH6qn4WWhXkv83jkoypryQ4uSUQ+VbmJZALi1b1DWrWSErtTb95lhyjz+bQNMR1H+l/a&#xA;o3nlG7ks0ijntS8IBSlqI2YqtAGcOx3+WEZRfX5sZaUkVY+TCNQ9WD1bOaomWRS4K8TVVI3of8rt&#xA;9+ZUd93W5LHpPN6zZKVs4FPVY0H3KM18ubvY8grYGTsVaZlWnIgcjRamlT4DFW8VU5riOIxhzT1G&#xA;KqfcKzmv0IcICDKnmPmrzBJq17xUcbW3LLAN6mpoWNfGnTtmdix8IdLqc/iHyDJNN1C40nyzcNHE&#xA;nqW120CqeXHdwKnep+1lEo8Uvg5mOZhjNDkaRser65JrdxpKC19SCETeqVkCmvHanI0+3keCPDe7&#xA;YMszMw22CJ8u61NqK3UV0qR3lpKY5okBoKEgGpJrupyOSFVXJngzGdg8wnGVuQ7FXYq7FXYq7FXY&#xA;q7FXYq7FXYq7FXYq7FXYq7FXYq7FXYqx+HXNUvdRvobEQG0stmmkV6lt/hADb7qd8uMAAL6uKM0p&#xA;SIjVBDaf5n1O4gsLiRIBFeXP1ZkVXDL71LU/DDLEBY7mENRIgHbc0xvzoGfV7mYqAFl9IMK1PGJD&#xA;T6K5fh5OHrN5k/jkGUeVvM4vdPZboUnteCsVGzqSFDfOp3yjLio7ObptRxR35hkuUOY0zotOTBak&#xA;AVNKk9BitsV8/wCpzWtnb20aqfrJYszCpX0+JBXwNW65kaeNm3B12QxAA6sIkvL67ZpJp5pHY1JF&#xA;WFfvGZVAOtM5S3JLUd5e2kgeGaRGIO7bdQV6EnsxxoFROUTsXWlvDP60k1ykDRrzQOCfUav2dsSa&#xA;WEQbs0mEOuE6Zc6c0YSKSUXEQWrMDyX4ASegp3yBhvbaM3pMfO1VdZ1WPVZdRRZlvJ0Kt+6UjgCu&#xA;wUg7CgwcAqujIZZCXFvZRnlnUJob7U7wlVmKGWVZ/hLsWLlVUUoScjljsA2aeZEpH73oWYbtXYq7&#xA;FXYq7FXYq7FXYq7FXYq7FXYq7FXYq7FXYq7FXYqhdQu3t1h4NGhlk4c5dlX4Gep3H8tMlEWwnKqe&#xA;c2mr31lLeLYxS8J3YTFeLgkE9KxtTrmYYA1bqY5ZRJ4Qd/x3LbHUpbVbSN4JUtYLgXEbPuA9PZFq&#xA;D4VwyjdohkMa2NA2ptPDrF/LLezR2azy82n4s/GiGgAqNth8/oxrhG27GxkkTI1ZS6C9urdJEhla&#xA;NZRSQLtUVB/WMsMQWmMyOSokE/EEO45b7U7/AOywWGQiVex1vULK6gb1DIls5KRy/Go5bNStaVp2&#xA;yMoAhlDNKJHkyvzFrPlG+nSC8E00luWVXhBFCaBl3IruMoxwmOTnZ8uKRo2aSkjyIBX0rsj2Kn9T&#xA;ZZ+88mj9x5oLUZvKojK2FtcO7KaSSScOLdjx4vyH0jJRE+rXkOKvSC3H5X1JGWRZIwykMu0vUb/7&#xA;7x8UKNNIfj9i3Tb3y/GtLmK8icKKywSISzbE7FU4iqim5xlGXSkY54xz4vgnp8waGXWU3upc1BCk&#xA;vGDRqE7e9BlXhy7g5Xjw53JuwvfLVzevCt5fxzXjcJPVIpIzfDxNA3XpjKMgOQ2WE8ZlVyss3zFd&#xA;k7FXYq7FXYq7FXYq7FXYq7FXYq7FXYq7FXYq7FXYq7FVC7s47pEV2dPTbmjRsUYGhXqN+jHCDTGU&#xA;QWNatP5f0KQwO94Zpx6jRxTSbg1XkxLAdsvgJT7nDyyx4tvVZ80rk17y9NDHHJBfPFHT00adiBQU&#xA;/noKDLOCQ7mk58ZHKXzSq2sW1iWSGwQWyqA8qN6sgJUlVPwrIRQNkzLh5tEYeIajt81t7o0mjvFJ&#xA;fItykvILGvrRiop1LJH49sMZ8XJE8Ph/Vv8ANGJP5Q9NS+m3PKg5cZDSvelW8cjU+9sBw/zSjtGi&#xA;8kajeJbJaTRzuf3ayMxVqCtKqx8O+QmcgF22Yhgmao2l6aO15c63KqmS4tZeUcakNyBlPP4Qfi+H&#xA;J8dANQxcRmeoP6UFbwT3cy20FZJZCFRa896gqeFfgCJsetOmSJrdrjEyNB6LqHl7S5bC5it7G2S4&#xA;eJ1hcRIpDlSFNQNt8w45De5dtPBExIAFoL9EalT/AHng/wA/pyXGGHhy7gjLLy7psenQRTWVsbpI&#xA;UWSQxI1ZAoBNSN98jLIb5s4YIiIBAuu553JFLby/V5w0csbcXjJpvt6n7uvx+oKUNRWmZl3u6kgg&#xA;0fx8OtphHo7WGp6AzqUnndJJ0YgceMoI26j4KZDjsSbRi4ZQ7z+t6VmE7h2KuxV2KuxV2KuxV2Ku&#xA;xV2KuxV2KuxV2KuxV2KuxV2KuxVhXme1tbvzjp0E7IYXjVJVLhejO3E7gitRTxzKxEiBddqIiWaI&#xA;PJj0+nXlpdfVp4m9ZGAoFYlqHcpxBV/UG2/05aJAi3EOMxNEfj9rLdM8t3UVpatJBCZRCVmR+INW&#xA;kLrWsUwPFaDMeWQWXPx4CANhy/HQq8/l2eYsTDboBBMkYXgxEkgARhSGKlKdcAyMpYCeg5H8cgwk&#xA;2N4JxbG3f6wPg9Hg3PYU48aenQt8XL6euZXEObruA3Vb/j4J1punQ6d5zsIA6BkgBn+MH960LKw3&#xA;PVmNaZVKVwLkY8YhmA8vtpmNl+hfVP1H6t6vH4vQ9PlxqOvHelcxpcXV2EOC/TSKT0ebcOPP9ulK&#xA;/TgZil+BLsVdiqxvR9ReXH1P2a05fRhRshbz9C+sPrn1b16CnrenzpXb7W+EcXRhLgverRuRbHYq&#xA;7FXYq7FXYq7FXYq7FXYq7FXYq7FXYq7FXYq7FXYq7FXYq7FXYq7FXYq7FX//2Q==</xmpGImg:image>
               </rdf:li>
            </rdf:Alt>
         </xmp:Thumbnails>
         <xmpMM:InstanceID>xmp.iid:1085af76-36ee-2241-9b41-94f8a9ac47e4</xmpMM:InstanceID>
         <xmpMM:DocumentID>xmp.did:1085af76-36ee-2241-9b41-94f8a9ac47e4</xmpMM:DocumentID>
         <xmpMM:OriginalDocumentID>uuid:5D20892493BFDB11914A8590D31508C8</xmpMM:OriginalDocumentID>
         <xmpMM:RenditionClass>proof:pdf</xmpMM:RenditionClass>
         <xmpMM:DerivedFrom rdf:parseType="Resource">
            <stRef:instanceID>xmp.iid:c51d5694-19e7-3149-871e-ab062a73afd7</stRef:instanceID>
            <stRef:documentID>xmp.did:c51d5694-19e7-3149-871e-ab062a73afd7</stRef:documentID>
            <stRef:originalDocumentID>uuid:5D20892493BFDB11914A8590D31508C8</stRef:originalDocumentID>
            <stRef:renditionClass>proof:pdf</stRef:renditionClass>
         </xmpMM:DerivedFrom>
         <xmpMM:History>
            <rdf:Seq>
               <rdf:li rdf:parseType="Resource">
                  <stEvt:action>saved</stEvt:action>
                  <stEvt:instanceID>xmp.iid:819f12b9-29f1-3c43-861d-4d4d3da6bdab</stEvt:instanceID>
                  <stEvt:when>2015-03-10T00:30:21-05:00</stEvt:when>
                  <stEvt:softwareAgent>Adobe Illustrator CC 2014 (Windows)</stEvt:softwareAgent>
                  <stEvt:changed>/</stEvt:changed>
               </rdf:li>
               <rdf:li rdf:parseType="Resource">
                  <stEvt:action>saved</stEvt:action>
                  <stEvt:instanceID>xmp.iid:1085af76-36ee-2241-9b41-94f8a9ac47e4</stEvt:instanceID>
                  <stEvt:when>2015-03-10T00:32:45-05:00</stEvt:when>
                  <stEvt:softwareAgent>Adobe Illustrator CC 2014 (Windows)</stEvt:softwareAgent>
                  <stEvt:changed>/</stEvt:changed>
               </rdf:li>
            </rdf:Seq>
         </xmpMM:History>
         <illustrator:StartupProfile>Print</illustrator:StartupProfile>
         <xmpTPg:HasVisibleOverprint>False</xmpTPg:HasVisibleOverprint>
         <xmpTPg:HasVisibleTransparency>False</xmpTPg:HasVisibleTransparency>
         <xmpTPg:NPages>1</xmpTPg:NPages>
         <xmpTPg:MaxPageSize rdf:parseType="Resource">
            <stDim:w>11.852145</stDim:w>
            <stDim:h>4.472236</stDim:h>
            <stDim:unit>Inches</stDim:unit>
         </xmpTPg:MaxPageSize>
         <xmpTPg:PlateNames>
            <rdf:Seq>
               <rdf:li>Cyan</rdf:li>
               <rdf:li>Magenta</rdf:li>
               <rdf:li>Yellow</rdf:li>
            </rdf:Seq>
         </xmpTPg:PlateNames>
         <xmpTPg:SwatchGroups>
            <rdf:Seq>
               <rdf:li rdf:parseType="Resource">
                  <xmpG:groupName>Default Swatch Group</xmpG:groupName>
                  <xmpG:groupType>0</xmpG:groupType>
                  <xmpG:Colorants>
                     <rdf:Seq>
                        <rdf:li rdf:parseType="Resource">
                           <xmpG:swatchName>White</xmpG:swatchName>
                           <xmpG:mode>CMYK</xmpG:mode>
                           <xmpG:type>PROCESS</xmpG:type>
                           <xmpG:cyan>0.000000</xmpG:cyan>
                           <xmpG:magenta>0.000000</xmpG:magenta>
                           <xmpG:yellow>0.000000</xmpG:yellow>
                           <xmpG:black>0.000000</xmpG:black>
                        </rdf:li>
                        <rdf:li rdf:parseType="Resource">
                           <xmpG:swatchName>Black</xmpG:swatchName>
                           <xmpG:mode>CMYK</xmpG:mode>
                           <xmpG:type>PROCESS</xmpG:type>
                           <xmpG:cyan>0.000000</xmpG:cyan>
                           <xmpG:magenta>0.000000</xmpG:magenta>
                           <xmpG:yellow>0.000000</xmpG:yellow>
                           <xmpG:black>100.000000</xmpG:black>
                        </rdf:li>
                        <rdf:li rdf:parseType="Resource">
                           <xmpG:swatchName>CMYK Red</xmpG:swatchName>
                           <xmpG:mode>CMYK</xmpG:mode>
                           <xmpG:type>PROCESS</xmpG:type>
                           <xmpG:cyan>0.000000</xmpG:cyan>
                           <xmpG:magenta>100.000000</xmpG:magenta>
                           <xmpG:yellow>100.000000</xmpG:yellow>
                           <xmpG:black>0.000000</xmpG:black>
                        </rdf:li>
                        <rdf:li rdf:parseType="Resource">
                           <xmpG:swatchName>CMYK Yellow</xmpG:swatchName>
                           <xmpG:mode>CMYK</xmpG:mode>
                           <xmpG:type>PROCESS</xmpG:type>
                           <xmpG:cyan>0.000000</xmpG:cyan>
                           <xmpG:magenta>0.000000</xmpG:magenta>
                           <xmpG:yellow>100.000000</xmpG:yellow>
                           <xmpG:black>0.000000</xmpG:black>
                        </rdf:li>
                        <rdf:li rdf:parseType="Resource">
                           <xmpG:swatchName>CMYK Green</xmpG:swatchName>
                           <xmpG:mode>CMYK</xmpG:mode>
                           <xmpG:type>PROCESS</xmpG:type>
                           <xmpG:cyan>100.000000</xmpG:cyan>
                           <xmpG:magenta>0.000000</xmpG:magenta>
                           <xmpG:yellow>100.000000</xmpG:yellow>
                           <xmpG:black>0.000000</xmpG:black>
                        </rdf:li>
                        <rdf:li rdf:parseType="Resource">
                           <xmpG:swatchName>CMYK Cyan</xmpG:swatchName>
                           <xmpG:mode>CMYK</xmpG:mode>
                           <xmpG:type>PROCESS</xmpG:type>
                           <xmpG:cyan>100.000000</xmpG:cyan>
                           <xmpG:magenta>0.000000</xmpG:magenta>
                           <xmpG:yellow>0.000000</xmpG:yellow>
                           <xmpG:black>0.000000</xmpG:black>
                        </rdf:li>
                        <rdf:li rdf:parseType="Resource">
                           <xmpG:swatchName>CMYK Blue</xmpG:swatchName>
                           <xmpG:mode>CMYK</xmpG:mode>
                           <xmpG:type>PROCESS</xmpG:type>
                           <xmpG:cyan>100.000000</xmpG:cyan>
                           <xmpG:magenta>100.000000</xmpG:magenta>
                           <xmpG:yellow>0.000000</xmpG:yellow>
                           <xmpG:black>0.000000</xmpG:black>
                        </rdf:li>
                        <rdf:li rdf:parseType="Resource">
                           <xmpG:swatchName>CMYK Magenta</xmpG:swatchName>
                           <xmpG:mode>CMYK</xmpG:mode>
                           <xmpG:type>PROCESS</xmpG:type>
                           <xmpG:cyan>0.000000</xmpG:cyan>
                           <xmpG:magenta>100.000000</xmpG:magenta>
                           <xmpG:yellow>0.000000</xmpG:yellow>
                           <xmpG:black>0.000000</xmpG:black>
                        </rdf:li>
                        <rdf:li rdf:parseType="Resource">
                           <xmpG:swatchName>C=15 M=100 Y=90 K=10</xmpG:swatchName>
                           <xmpG:mode>CMYK</xmpG:mode>
                           <xmpG:type>PROCESS</xmpG:type>
                           <xmpG:cyan>15.000000</xmpG:cyan>
                           <xmpG:magenta>100.000000</xmpG:magenta>
                           <xmpG:yellow>90.000000</xmpG:yellow>
                           <xmpG:black>10.000000</xmpG:black>
                        </rdf:li>
                        <rdf:li rdf:parseType="Resource">
                           <xmpG:swatchName>C=0 M=90 Y=85 K=0</xmpG:swatchName>
                           <xmpG:mode>CMYK</xmpG:mode>
                           <xmpG:type>PROCESS</xmpG:type>
                           <xmpG:cyan>0.000000</xmpG:cyan>
                           <xmpG:magenta>90.000000</xmpG:magenta>
                           <xmpG:yellow>85.000000</xmpG:yellow>
                           <xmpG:black>0.000000</xmpG:black>
                        </rdf:li>
                        <rdf:li rdf:parseType="Resource">
                           <xmpG:swatchName>C=0 M=80 Y=95 K=0</xmpG:swatchName>
                           <xmpG:mode>CMYK</xmpG:mode>
                           <xmpG:type>PROCESS</xmpG:type>
                           <xmpG:cyan>0.000000</xmpG:cyan>
                           <xmpG:magenta>80.000000</xmpG:magenta>
                           <xmpG:yellow>95.000000</xmpG:yellow>
                           <xmpG:black>0.000000</xmpG:black>
                        </rdf:li>
                        <rdf:li rdf:parseType="Resource">
                           <xmpG:swatchName>C=0 M=50 Y=100 K=0</xmpG:swatchName>
                           <xmpG:mode>CMYK</xmpG:mode>
                           <xmpG:type>PROCESS</xmpG:type>
                           <xmpG:cyan>0.000000</xmpG:cyan>
                           <xmpG:magenta>50.000000</xmpG:magenta>
                           <xmpG:yellow>100.000000</xmpG:yellow>
                           <xmpG:black>0.000000</xmpG:black>
                        </rdf:li>
                        <rdf:li rdf:parseType="Resource">
                           <xmpG:swatchName>C=0 M=35 Y=85 K=0</xmpG:swatchName>
                           <xmpG:mode>CMYK</xmpG:mode>
                           <xmpG:type>PROCESS</xmpG:type>
                           <xmpG:cyan>0.000000</xmpG:cyan>
                           <xmpG:magenta>35.000000</xmpG:magenta>
                           <xmpG:yellow>85.000000</xmpG:yellow>
                           <xmpG:black>0.000000</xmpG:black>
                        </rdf:li>
                        <rdf:li rdf:parseType="Resource">
                           <xmpG:swatchName>C=5 M=0 Y=90 K=0</xmpG:swatchName>
                           <xmpG:mode>CMYK</xmpG:mode>
                           <xmpG:type>PROCESS</xmpG:type>
                           <xmpG:cyan>5.000000</xmpG:cyan>
                           <xmpG:magenta>0.000000</xmpG:magenta>
                           <xmpG:yellow>90.000000</xmpG:yellow>
                           <xmpG:black>0.000000</xmpG:black>
                        </rdf:li>
                        <rdf:li rdf:parseType="Resource">
                           <xmpG:swatchName>C=20 M=0 Y=100 K=0</xmpG:swatchName>
                           <xmpG:mode>CMYK</xmpG:mode>
                           <xmpG:type>PROCESS</xmpG:type>
                           <xmpG:cyan>20.000000</xmpG:cyan>
                           <xmpG:magenta>0.000000</xmpG:magenta>
                           <xmpG:yellow>100.000000</xmpG:yellow>
                           <xmpG:black>0.000000</xmpG:black>
                        </rdf:li>
                        <rdf:li rdf:parseType="Resource">
                           <xmpG:swatchName>C=50 M=0 Y=100 K=0</xmpG:swatchName>
                           <xmpG:mode>CMYK</xmpG:mode>
                           <xmpG:type>PROCESS</xmpG:type>
                           <xmpG:cyan>50.000000</xmpG:cyan>
                           <xmpG:magenta>0.000000</xmpG:magenta>
                           <xmpG:yellow>100.000000</xmpG:yellow>
                           <xmpG:black>0.000000</xmpG:black>
                        </rdf:li>
                        <rdf:li rdf:parseType="Resource">
                           <xmpG:swatchName>C=75 M=0 Y=100 K=0</xmpG:swatchName>
                           <xmpG:mode>CMYK</xmpG:mode>
                           <xmpG:type>PROCESS</xmpG:type>
                           <xmpG:cyan>75.000000</xmpG:cyan>
                           <xmpG:magenta>0.000000</xmpG:magenta>
                           <xmpG:yellow>100.000000</xmpG:yellow>
                           <xmpG:black>0.000000</xmpG:black>
                        </rdf:li>
                        <rdf:li rdf:parseType="Resource">
                           <xmpG:swatchName>C=85 M=10 Y=100 K=10</xmpG:swatchName>
                           <xmpG:mode>CMYK</xmpG:mode>
                           <xmpG:type>PROCESS</xmpG:type>
                           <xmpG:cyan>85.000000</xmpG:cyan>
                           <xmpG:magenta>10.000000</xmpG:magenta>
                           <xmpG:yellow>100.000000</xmpG:yellow>
                           <xmpG:black>10.000000</xmpG:black>
                        </rdf:li>
                        <rdf:li rdf:parseType="Resource">
                           <xmpG:swatchName>C=90 M=30 Y=95 K=30</xmpG:swatchName>
                           <xmpG:mode>CMYK</xmpG:mode>
                           <xmpG:type>PROCESS</xmpG:type>
                           <xmpG:cyan>90.000000</xmpG:cyan>
                           <xmpG:magenta>30.000000</xmpG:magenta>
                           <xmpG:yellow>95.000000</xmpG:yellow>
                           <xmpG:black>30.000000</xmpG:black>
                        </rdf:li>
                        <rdf:li rdf:parseType="Resource">
                           <xmpG:swatchName>C=75 M=0 Y=75 K=0</xmpG:swatchName>
                           <xmpG:mode>CMYK</xmpG:mode>
                           <xmpG:type>PROCESS</xmpG:type>
                           <xmpG:cyan>75.000000</xmpG:cyan>
                           <xmpG:magenta>0.000000</xmpG:magenta>
                           <xmpG:yellow>75.000000</xmpG:yellow>
                           <xmpG:black>0.000000</xmpG:black>
                        </rdf:li>
                        <rdf:li rdf:parseType="Resource">
                           <xmpG:swatchName>C=80 M=10 Y=45 K=0</xmpG:swatchName>
                           <xmpG:mode>CMYK</xmpG:mode>
                           <xmpG:type>PROCESS</xmpG:type>
                           <xmpG:cyan>80.000000</xmpG:cyan>
                           <xmpG:magenta>10.000000</xmpG:magenta>
                           <xmpG:yellow>45.000000</xmpG:yellow>
                           <xmpG:black>0.000000</xmpG:black>
                        </rdf:li>
                        <rdf:li rdf:parseType="Resource">
                           <xmpG:swatchName>C=70 M=15 Y=0 K=0</xmpG:swatchName>
                           <xmpG:mode>CMYK</xmpG:mode>
                           <xmpG:type>PROCESS</xmpG:type>
                           <xmpG:cyan>70.000000</xmpG:cyan>
                           <xmpG:magenta>15.000000</xmpG:magenta>
                           <xmpG:yellow>0.000000</xmpG:yellow>
                           <xmpG:black>0.000000</xmpG:black>
                        </rdf:li>
                        <rdf:li rdf:parseType="Resource">
                           <xmpG:swatchName>C=85 M=50 Y=0 K=0</xmpG:swatchName>
                           <xmpG:mode>CMYK</xmpG:mode>
                           <xmpG:type>PROCESS</xmpG:type>
                           <xmpG:cyan>85.000000</xmpG:cyan>
                           <xmpG:magenta>50.000000</xmpG:magenta>
                           <xmpG:yellow>0.000000</xmpG:yellow>
                           <xmpG:black>0.000000</xmpG:black>
                        </rdf:li>
                        <rdf:li rdf:parseType="Resource">
                           <xmpG:swatchName>C=100 M=95 Y=5 K=0</xmpG:swatchName>
                           <xmpG:mode>CMYK</xmpG:mode>
                           <xmpG:type>PROCESS</xmpG:type>
                           <xmpG:cyan>100.000000</xmpG:cyan>
                           <xmpG:magenta>95.000000</xmpG:magenta>
                           <xmpG:yellow>5.000000</xmpG:yellow>
                           <xmpG:black>0.000000</xmpG:black>
                        </rdf:li>
                        <rdf:li rdf:parseType="Resource">
                           <xmpG:swatchName>C=100 M=100 Y=25 K=25</xmpG:swatchName>
                           <xmpG:mode>CMYK</xmpG:mode>
                           <xmpG:type>PROCESS</xmpG:type>
                           <xmpG:cyan>100.000000</xmpG:cyan>
                           <xmpG:magenta>100.000000</xmpG:magenta>
                           <xmpG:yellow>25.000000</xmpG:yellow>
                           <xmpG:black>25.000000</xmpG:black>
                        </rdf:li>
                        <rdf:li rdf:parseType="Resource">
                           <xmpG:swatchName>C=75 M=100 Y=0 K=0</xmpG:swatchName>
                           <xmpG:mode>CMYK</xmpG:mode>
                           <xmpG:type>PROCESS</xmpG:type>
                           <xmpG:cyan>75.000000</xmpG:cyan>
                           <xmpG:magenta>100.000000</xmpG:magenta>
                           <xmpG:yellow>0.000000</xmpG:yellow>
                           <xmpG:black>0.000000</xmpG:black>
                        </rdf:li>
                        <rdf:li rdf:parseType="Resource">
                           <xmpG:swatchName>C=50 M=100 Y=0 K=0</xmpG:swatchName>
                           <xmpG:mode>CMYK</xmpG:mode>
                           <xmpG:type>PROCESS</xmpG:type>
                           <xmpG:cyan>50.000000</xmpG:cyan>
                           <xmpG:magenta>100.000000</xmpG:magenta>
                           <xmpG:yellow>0.000000</xmpG:yellow>
                           <xmpG:black>0.000000</xmpG:black>
                        </rdf:li>
                        <rdf:li rdf:parseType="Resource">
                           <xmpG:swatchName>C=35 M=100 Y=35 K=10</xmpG:swatchName>
                           <xmpG:mode>CMYK</xmpG:mode>
                           <xmpG:type>PROCESS</xmpG:type>
                           <xmpG:cyan>35.000000</xmpG:cyan>
                           <xmpG:magenta>100.000000</xmpG:magenta>
                           <xmpG:yellow>35.000000</xmpG:yellow>
                           <xmpG:black>10.000000</xmpG:black>
                        </rdf:li>
                        <rdf:li rdf:parseType="Resource">
                           <xmpG:swatchName>C=10 M=100 Y=50 K=0</xmpG:swatchName>
                           <xmpG:mode>CMYK</xmpG:mode>
                           <xmpG:type>PROCESS</xmpG:type>
                           <xmpG:cyan>10.000000</xmpG:cyan>
                           <xmpG:magenta>100.000000</xmpG:magenta>
                           <xmpG:yellow>50.000000</xmpG:yellow>
                           <xmpG:black>0.000000</xmpG:black>
                        </rdf:li>
                        <rdf:li rdf:parseType="Resource">
                           <xmpG:swatchName>C=0 M=95 Y=20 K=0</xmpG:swatchName>
                           <xmpG:mode>CMYK</xmpG:mode>
                           <xmpG:type>PROCESS</xmpG:type>
                           <xmpG:cyan>0.000000</xmpG:cyan>
                           <xmpG:magenta>95.000000</xmpG:magenta>
                           <xmpG:yellow>20.000000</xmpG:yellow>
                           <xmpG:black>0.000000</xmpG:black>
                        </rdf:li>
                        <rdf:li rdf:parseType="Resource">
                           <xmpG:swatchName>C=25 M=25 Y=40 K=0</xmpG:swatchName>
                           <xmpG:mode>CMYK</xmpG:mode>
                           <xmpG:type>PROCESS</xmpG:type>
                           <xmpG:cyan>25.000000</xmpG:cyan>
                           <xmpG:magenta>25.000000</xmpG:magenta>
                           <xmpG:yellow>40.000000</xmpG:yellow>
                           <xmpG:black>0.000000</xmpG:black>
                        </rdf:li>
                        <rdf:li rdf:parseType="Resource">
                           <xmpG:swatchName>C=40 M=45 Y=50 K=5</xmpG:swatchName>
                           <xmpG:mode>CMYK</xmpG:mode>
                           <xmpG:type>PROCESS</xmpG:type>
                           <xmpG:cyan>40.000000</xmpG:cyan>
                           <xmpG:magenta>45.000000</xmpG:magenta>
                           <xmpG:yellow>50.000000</xmpG:yellow>
                           <xmpG:black>5.000000</xmpG:black>
                        </rdf:li>
                        <rdf:li rdf:parseType="Resource">
                           <xmpG:swatchName>C=50 M=50 Y=60 K=25</xmpG:swatchName>
                           <xmpG:mode>CMYK</xmpG:mode>
                           <xmpG:type>PROCESS</xmpG:type>
                           <xmpG:cyan>50.000000</xmpG:cyan>
                           <xmpG:magenta>50.000000</xmpG:magenta>
                           <xmpG:yellow>60.000000</xmpG:yellow>
                           <xmpG:black>25.000000</xmpG:black>
                        </rdf:li>
                        <rdf:li rdf:parseType="Resource">
                           <xmpG:swatchName>C=55 M=60 Y=65 K=40</xmpG:swatchName>
                           <xmpG:mode>CMYK</xmpG:mode>
                           <xmpG:type>PROCESS</xmpG:type>
                           <xmpG:cyan>55.000000</xmpG:cyan>
                           <xmpG:magenta>60.000000</xmpG:magenta>
                           <xmpG:yellow>65.000000</xmpG:yellow>
                           <xmpG:black>40.000000</xmpG:black>
                        </rdf:li>
                        <rdf:li rdf:parseType="Resource">
                           <xmpG:swatchName>C=25 M=40 Y=65 K=0</xmpG:swatchName>
                           <xmpG:mode>CMYK</xmpG:mode>
                           <xmpG:type>PROCESS</xmpG:type>
                           <xmpG:cyan>25.000000</xmpG:cyan>
                           <xmpG:magenta>40.000000</xmpG:magenta>
                           <xmpG:yellow>65.000000</xmpG:yellow>
                           <xmpG:black>0.000000</xmpG:black>
                        </rdf:li>
                        <rdf:li rdf:parseType="Resource">
                           <xmpG:swatchName>C=30 M=50 Y=75 K=10</xmpG:swatchName>
                           <xmpG:mode>CMYK</xmpG:mode>
                           <xmpG:type>PROCESS</xmpG:type>
                           <xmpG:cyan>30.000000</xmpG:cyan>
                           <xmpG:magenta>50.000000</xmpG:magenta>
                           <xmpG:yellow>75.000000</xmpG:yellow>
                           <xmpG:black>10.000000</xmpG:black>
                        </rdf:li>
                        <rdf:li rdf:parseType="Resource">
                           <xmpG:swatchName>C=35 M=60 Y=80 K=25</xmpG:swatchName>
                           <xmpG:mode>CMYK</xmpG:mode>
                           <xmpG:type>PROCESS</xmpG:type>
                           <xmpG:cyan>35.000000</xmpG:cyan>
                           <xmpG:magenta>60.000000</xmpG:magenta>
                           <xmpG:yellow>80.000000</xmpG:yellow>
                           <xmpG:black>25.000000</xmpG:black>
                        </rdf:li>
                        <rdf:li rdf:parseType="Resource">
                           <xmpG:swatchName>C=40 M=65 Y=90 K=35</xmpG:swatchName>
                           <xmpG:mode>CMYK</xmpG:mode>
                           <xmpG:type>PROCESS</xmpG:type>
                           <xmpG:cyan>40.000000</xmpG:cyan>
                           <xmpG:magenta>65.000000</xmpG:magenta>
                           <xmpG:yellow>90.000000</xmpG:yellow>
                           <xmpG:black>35.000000</xmpG:black>
                        </rdf:li>
                        <rdf:li rdf:parseType="Resource">
                           <xmpG:swatchName>C=40 M=70 Y=100 K=50</xmpG:swatchName>
                           <xmpG:mode>CMYK</xmpG:mode>
                           <xmpG:type>PROCESS</xmpG:type>
                           <xmpG:cyan>40.000000</xmpG:cyan>
                           <xmpG:magenta>70.000000</xmpG:magenta>
                           <xmpG:yellow>100.000000</xmpG:yellow>
                           <xmpG:black>50.000000</xmpG:black>
                        </rdf:li>
                        <rdf:li rdf:parseType="Resource">
                           <xmpG:swatchName>C=50 M=70 Y=80 K=70</xmpG:swatchName>
                           <xmpG:mode>CMYK</xmpG:mode>
                           <xmpG:type>PROCESS</xmpG:type>
                           <xmpG:cyan>50.000000</xmpG:cyan>
                           <xmpG:magenta>70.000000</xmpG:magenta>
                           <xmpG:yellow>80.000000</xmpG:yellow>
                           <xmpG:black>70.000000</xmpG:black>
                        </rdf:li>
                     </rdf:Seq>
                  </xmpG:Colorants>
               </rdf:li>
               <rdf:li rdf:parseType="Resource">
                  <xmpG:groupName>Grays</xmpG:groupName>
                  <xmpG:groupType>1</xmpG:groupType>
                  <xmpG:Colorants>
                     <rdf:Seq>
                        <rdf:li rdf:parseType="Resource">
                           <xmpG:swatchName>C=0 M=0 Y=0 K=100</xmpG:swatchName>
                           <xmpG:mode>CMYK</xmpG:mode>
                           <xmpG:type>PROCESS</xmpG:type>
                           <xmpG:cyan>0.000000</xmpG:cyan>
                           <xmpG:magenta>0.000000</xmpG:magenta>
                           <xmpG:yellow>0.000000</xmpG:yellow>
                           <xmpG:black>100.000000</xmpG:black>
                        </rdf:li>
                        <rdf:li rdf:parseType="Resource">
                           <xmpG:swatchName>C=0 M=0 Y=0 K=90</xmpG:swatchName>
                           <xmpG:mode>CMYK</xmpG:mode>
                           <xmpG:type>PROCESS</xmpG:type>
                           <xmpG:cyan>0.000000</xmpG:cyan>
                           <xmpG:magenta>0.000000</xmpG:magenta>
                           <xmpG:yellow>0.000000</xmpG:yellow>
                           <xmpG:black>89.999400</xmpG:black>
                        </rdf:li>
                        <rdf:li rdf:parseType="Resource">
                           <xmpG:swatchName>C=0 M=0 Y=0 K=80</xmpG:swatchName>
                           <xmpG:mode>CMYK</xmpG:mode>
                           <xmpG:type>PROCESS</xmpG:type>
                           <xmpG:cyan>0.000000</xmpG:cyan>
                           <xmpG:magenta>0.000000</xmpG:magenta>
                           <xmpG:yellow>0.000000</xmpG:yellow>
                           <xmpG:black>79.998800</xmpG:black>
                        </rdf:li>
                        <rdf:li rdf:parseType="Resource">
                           <xmpG:swatchName>C=0 M=0 Y=0 K=70</xmpG:swatchName>
                           <xmpG:mode>CMYK</xmpG:mode>
                           <xmpG:type>PROCESS</xmpG:type>
                           <xmpG:cyan>0.000000</xmpG:cyan>
                           <xmpG:magenta>0.000000</xmpG:magenta>
                           <xmpG:yellow>0.000000</xmpG:yellow>
                           <xmpG:black>69.999700</xmpG:black>
                        </rdf:li>
                        <rdf:li rdf:parseType="Resource">
                           <xmpG:swatchName>C=0 M=0 Y=0 K=60</xmpG:swatchName>
                           <xmpG:mode>CMYK</xmpG:mode>
                           <xmpG:type>PROCESS</xmpG:type>
                           <xmpG:cyan>0.000000</xmpG:cyan>
                           <xmpG:magenta>0.000000</xmpG:magenta>
                           <xmpG:yellow>0.000000</xmpG:yellow>
                           <xmpG:black>59.999100</xmpG:black>
                        </rdf:li>
                        <rdf:li rdf:parseType="Resource">
                           <xmpG:swatchName>C=0 M=0 Y=0 K=50</xmpG:swatchName>
                           <xmpG:mode>CMYK</xmpG:mode>
                           <xmpG:type>PROCESS</xmpG:type>
                           <xmpG:cyan>0.000000</xmpG:cyan>
                           <xmpG:magenta>0.000000</xmpG:magenta>
                           <xmpG:yellow>0.000000</xmpG:yellow>
                           <xmpG:black>50.000000</xmpG:black>
                        </rdf:li>
                        <rdf:li rdf:parseType="Resource">
                           <xmpG:swatchName>C=0 M=0 Y=0 K=40</xmpG:swatchName>
                           <xmpG:mode>CMYK</xmpG:mode>
                           <xmpG:type>PROCESS</xmpG:type>
                           <xmpG:cyan>0.000000</xmpG:cyan>
                           <xmpG:magenta>0.000000</xmpG:magenta>
                           <xmpG:yellow>0.000000</xmpG:yellow>
                           <xmpG:black>39.999400</xmpG:black>
                        </rdf:li>
                        <rdf:li rdf:parseType="Resource">
                           <xmpG:swatchName>C=0 M=0 Y=0 K=30</xmpG:swatchName>
                           <xmpG:mode>CMYK</xmpG:mode>
                           <xmpG:type>PROCESS</xmpG:type>
                           <xmpG:cyan>0.000000</xmpG:cyan>
                           <xmpG:magenta>0.000000</xmpG:magenta>
                           <xmpG:yellow>0.000000</xmpG:yellow>
                           <xmpG:black>29.998800</xmpG:black>
                        </rdf:li>
                        <rdf:li rdf:parseType="Resource">
                           <xmpG:swatchName>C=0 M=0 Y=0 K=20</xmpG:swatchName>
                           <xmpG:mode>CMYK</xmpG:mode>
                           <xmpG:type>PROCESS</xmpG:type>
                           <xmpG:cyan>0.000000</xmpG:cyan>
                           <xmpG:magenta>0.000000</xmpG:magenta>
                           <xmpG:yellow>0.000000</xmpG:yellow>
                           <xmpG:black>19.999700</xmpG:black>
                        </rdf:li>
                        <rdf:li rdf:parseType="Resource">
                           <xmpG:swatchName>C=0 M=0 Y=0 K=10</xmpG:swatchName>
                           <xmpG:mode>CMYK</xmpG:mode>
                           <xmpG:type>PROCESS</xmpG:type>
                           <xmpG:cyan>0.000000</xmpG:cyan>
                           <xmpG:magenta>0.000000</xmpG:magenta>
                           <xmpG:yellow>0.000000</xmpG:yellow>
                           <xmpG:black>9.999100</xmpG:black>
                        </rdf:li>
                        <rdf:li rdf:parseType="Resource">
                           <xmpG:swatchName>C=0 M=0 Y=0 K=5</xmpG:swatchName>
                           <xmpG:mode>CMYK</xmpG:mode>
                           <xmpG:type>PROCESS</xmpG:type>
                           <xmpG:cyan>0.000000</xmpG:cyan>
                           <xmpG:magenta>0.000000</xmpG:magenta>
                           <xmpG:yellow>0.000000</xmpG:yellow>
                           <xmpG:black>4.998800</xmpG:black>
                        </rdf:li>
                     </rdf:Seq>
                  </xmpG:Colorants>
               </rdf:li>
               <rdf:li rdf:parseType="Resource">
                  <xmpG:groupName>Brights</xmpG:groupName>
                  <xmpG:groupType>1</xmpG:groupType>
                  <xmpG:Colorants>
                     <rdf:Seq>
                        <rdf:li rdf:parseType="Resource">
                           <xmpG:swatchName>C=0 M=100 Y=100 K=0</xmpG:swatchName>
                           <xmpG:mode>CMYK</xmpG:mode>
                           <xmpG:type>PROCESS</xmpG:type>
                           <xmpG:cyan>0.000000</xmpG:cyan>
                           <xmpG:magenta>100.000000</xmpG:magenta>
                           <xmpG:yellow>100.000000</xmpG:yellow>
                           <xmpG:black>0.000000</xmpG:black>
                        </rdf:li>
                        <rdf:li rdf:parseType="Resource">
                           <xmpG:swatchName>C=0 M=75 Y=100 K=0</xmpG:swatchName>
                           <xmpG:mode>CMYK</xmpG:mode>
                           <xmpG:type>PROCESS</xmpG:type>
                           <xmpG:cyan>0.000000</xmpG:cyan>
                           <xmpG:magenta>75.000000</xmpG:magenta>
                           <xmpG:yellow>100.000000</xmpG:yellow>
                           <xmpG:black>0.000000</xmpG:black>
                        </rdf:li>
                        <rdf:li rdf:parseType="Resource">
                           <xmpG:swatchName>C=0 M=10 Y=95 K=0</xmpG:swatchName>
                           <xmpG:mode>CMYK</xmpG:mode>
                           <xmpG:type>PROCESS</xmpG:type>
                           <xmpG:cyan>0.000000</xmpG:cyan>
                           <xmpG:magenta>10.000000</xmpG:magenta>
                           <xmpG:yellow>95.000000</xmpG:yellow>
                           <xmpG:black>0.000000</xmpG:black>
                        </rdf:li>
                        <rdf:li rdf:parseType="Resource">
                           <xmpG:swatchName>C=85 M=10 Y=100 K=0</xmpG:swatchName>
                           <xmpG:mode>CMYK</xmpG:mode>
                           <xmpG:type>PROCESS</xmpG:type>
                           <xmpG:cyan>85.000000</xmpG:cyan>
                           <xmpG:magenta>10.000000</xmpG:magenta>
                           <xmpG:yellow>100.000000</xmpG:yellow>
                           <xmpG:black>0.000000</xmpG:black>
                        </rdf:li>
                        <rdf:li rdf:parseType="Resource">
                           <xmpG:swatchName>C=100 M=90 Y=0 K=0</xmpG:swatchName>
                           <xmpG:mode>CMYK</xmpG:mode>
                           <xmpG:type>PROCESS</xmpG:type>
                           <xmpG:cyan>100.000000</xmpG:cyan>
                           <xmpG:magenta>90.000000</xmpG:magenta>
                           <xmpG:yellow>0.000000</xmpG:yellow>
                           <xmpG:black>0.000000</xmpG:black>
                        </rdf:li>
                        <rdf:li rdf:parseType="Resource">
                           <xmpG:swatchName>C=60 M=90 Y=0 K=0</xmpG:swatchName>
                           <xmpG:mode>CMYK</xmpG:mode>
                           <xmpG:type>PROCESS</xmpG:type>
                           <xmpG:cyan>60.000000</xmpG:cyan>
                           <xmpG:magenta>90.000000</xmpG:magenta>
                           <xmpG:yellow>0.003100</xmpG:yellow>
                           <xmpG:black>0.003100</xmpG:black>
                        </rdf:li>
                     </rdf:Seq>
                  </xmpG:Colorants>
               </rdf:li>
            </rdf:Seq>
         </xmpTPg:SwatchGroups>
         <pdf:Producer>Adobe PDF library 10.01</pdf:Producer>
      </rdf:Description>
   </rdf:RDF>
</x:xmpmeta>
                                                                                                    
                                                                                                    
                                                                                                    
                                                                                                    
                                                                                                    
                                                                                                    
                                                                                                    
                                                                                                    
                                                                                                    
                                                                                                    
                                                                                                    
                                                                                                    
                                                                                                    
                                                                                                    
                                                                                                    
                                                                                                    
                                                                                                    
                                                                                                    
                                                                                                    
                                                                                                    
                           
<?xpacket end="w"?>
	</metadata>
<path fill="#81BDCB" d="M547.7,104.3c0.4,2,0.9,3.9,1.7,5.8c0.1,0.3,0.2,0.7,0.7,1.1c0.1-1-0.1-1.8-0.2-2.7
	c-0.3-2.6-0.2-5.2,0.4-7.7c1.1-5.3,5.6-7.8,10.7-6c2.8,1,5.2,2.7,7.3,4.8c0.6,0.6,1.2,0.9,2.1,0.8c3.6,0,7.1,0,10.7,0
	c0.9,0,1.5-0.3,2.2-0.9c1.9-1.8,3.9-3.3,6.2-4.4c2.6-1.1,5.1-1.4,7.7-0.1c2.8,1.4,3.8,4,4.3,6.9c0.4,2.7,0.3,5.5,0,8.2
	c0,0.2-0.1,0.5,0,0.7c0.3-0.1,0.4-0.3,0.4-0.6c1.5-3.5,2.3-7.1,2-10.9c-0.3-3.5-2-6.2-5.1-7.8c-3.7-2-7.3-2.1-10.9,0.2
	c-0.5,0.3-1,0.5-1.5,0.5c-0.8,0-1.3-0.3-1.6-1c-1.4-3.8-2.8-7.7-4.2-11.5c-0.3-0.9-0.3-1.8-0.3-2.7c0-0.7-0.1-1.2-1-1.3
	c-0.9-0.1-1.1-1.1-0.4-1.8c0.6-0.6,0.9-2.5,0.5-3.2c-0.2-0.3-0.5-0.4-0.8-0.4c-0.7-0.1-1-0.5-1-1.2c0-0.4,0-0.8,0-1.2
	c0-0.3,0-0.7-0.4-0.8c-0.7-0.2-0.8-0.8-0.8-1.4c0-1.3,0-2.6,0-3.9c0-0.6,0.3-1,0.8-1.3c1.5-0.9,2.7-2.3,4-3.5
	c4.9-4.4,9.8-8.9,14.8-13.1c1.9-1.6,4.2-2.4,6.5-3c3.7-0.9,7.5-1.5,11.4-1.8c4.4-0.4,8.8-1.1,13.2-1.8c5.3-0.9,10.7-1.7,16-2.5
	c5.6-0.9,11.2-1.8,16.8-2.7c7.4-1.2,14.7-2.4,22.1-3.5c7.6-1.2,15.2-2.5,22.9-3.3c7-0.7,14.1-1.6,21.1-2.4c6-0.7,12.1-1.4,18.1-2.1
	c1.5-0.2,2.1,0.3,2.3,1.7c0.8,4.7,1.5,9.4,2.3,14.1c0.1,0.8,0,1.4-1,1.6c-0.6,0.1-0.8,0.5-0.7,1c0.1,0.8,0.3,1.6,0.4,2.4
	c0.1,0.8,0.2,1.4,1.2,1.6c0.6,0.1,0.6,0.7,0.7,1.3c0.8,4.4,1.6,8.8,2.4,13.2c1,5.8,2.1,11.6,3.1,17.4c0.2,0.9,0.1,1.8-0.3,2.7
	c-0.1,0.3-0.3,0.5-0.6,0.5c-0.3,0-0.3-0.3-0.4-0.5c-0.2-0.5-0.2-1.1-0.4-1.6c-0.1-0.4-0.3-0.8-0.8-0.7c-0.5,0-0.7,0.4-0.8,0.8
	c-0.1,0.9,0,1.8,0,2.6c0.1,3.8,0.8,7.6-0.3,11.5c-0.5,1.8,0.1,3.7,0.3,5.5c0.6,4.6,1.4,9.2,2,13.8c0.7,5.5,1.4,11,1.4,16.6
	c0,1.9,0.3,3.7,0.2,5.6c-0.3,4.5-0.1,9-0.4,13.6c-0.5,8-0.9,16.1-2,24.1c-0.1,1-0.4,1.9-0.8,2.8c-0.6,1.3-1.1,2.6-1.6,4
	c-0.2,0.5-0.3,1-0.9,1.2c-2.2,0.1-4.5,0-6.7,0c-0.2,0-0.3,0-0.4-0.1c-0.1,0-0.2,0-0.3,0c0,0.5,0,1.1,0,1.6c0,0,0,0,0,0h0l0,0
	c0,0,0,0,0,0c0,0,0,0,0,0c1.9,0,3.8,0,5.7,0c0.6,0,0.9,0.1,0.9,0.8c0,2,0,3.9,0,5.9c0,0.5-0.1,0.7-0.7,0.7c-1.7,0-3.4-0.1-5.1,0
	c-0.7,0-0.8-0.2-0.8-0.8c0-2.2,0-4.4,0-6.6c0,0,0,0,0,0c0,0,0,0,0,0v0c0,0,0,0,0,0c-1.6,0-3.2,0-4.7,0c-2,0-3.9,0-5.9,0h-27
	c-2.1,0-4.2,0-6.3,0c-1.1,0-2.3-0.1-3.4,0c0,2.6,0,5.2,0,7.8l0,0c0,0,0,0,0,0c0,0,0,0,0,0c1.3,0,1.7,0.7,1,2.2c-3.1,0-6.1,0-9.2,0
	c-0.6,0-0.9-0.1-0.9-0.8c0-2.8,0-5.6,0-8.3c0-0.6,0.1-0.8,0.8-0.8c2.7,0,5.3,0,8,0c0,0,0,0,0,0c0-1.2,0-1.5-0.5-1.6
	c-0.3,0-0.6,0-1.1,0c-2.5,0-5,0-7.4,0c-1.1,0-1.2,0.1-1.2,1.2c0,6.6,0,13.2,0,19.8c0,0.4-0.1,0.8,0.3,1c0.5,0.3,1.1,0.2,1.6,0.2
	c17.9,0,35.8,0,53.7,0c1.5,0,2.6,0.4,3.6,1.6c2.9,3.2,5.8,6.3,8.7,9.4c0.7,0.7,1.3,1.5,2,2.2c0.4,0.4,0.6,0.8,0.6,1.4
	c0,3,0.2,6-0.2,9c-0.1,0.8-0.3,1.3-1.2,1.4c-0.5,0-0.7,0.4-0.7,0.8c0,1.3,0,2.6,0,3.9c0,0.2,0,0.4,0.2,0.6c0.8,0.8,0.6,1.8,0.5,2.8
	c-0.2,1.9-0.2,3.8-0.2,5.7c-0.1,3.5-0.3,6.9-0.5,10.4c-0.1,1.6-1.2,2.5-2.4,3.3c-2.3,0.1-4.7,0-7,0.1c-0.2,0-0.3,0-0.4-0.1
	c-0.3,0.1-0.5,0.3-0.5,0.9c0,1.1,0.7,0.9,1.3,0.9c1.4,0,2.8,0,4.2,0c0.2,0,0.8-0.3,0.5,0.4c-1.2,1.4-2.4,2.8-3.7,4.2
	c-0.5,0.5-0.6,1-0.3,1.7c0.1,0.3,0.2,0.6,0.3,0.9c0.1,0.4,0.1,0.7-0.5,0.7c-0.6,0-1.1-0.1-1.7-0.1c-0.4-0.5-0.2-1-0.2-1.6
	c0-1.7,0-3.4,0-5.1c0-0.7-0.2-1-0.9-0.9c-0.7,0-1.5,0.2-2.2-0.1c-0.7,0-1.5,0-2.2,0c-11,0-21.9,0-32.9,0c-2.5,0-4.9,0.2-7.4-0.1
	c-0.2,0-0.5,0.1-0.7,0.1c-0.7,0.2-0.9,0.6-0.9,1.3c0.1,2.1,0.1,4.3,0,6.4c0,0.7,0.2,1.1,0.8,1.3c0.2,0.8,0,1.1-0.8,1.1
	c-2.8,0-5.6,0-8.4,0c-0.6,0-0.8-0.1-0.8-0.8c0-3,0-6.1,0-9.1c0.3-0.4,0.7-0.2,1-0.2c2.3,0,4.7,0,7,0c0.7,0,0.9-0.2,0.9-0.9
	c0-0.5-0.1-0.8-0.5-0.9c-0.2,0-0.4,0-0.7,0.1c-2.7,0-5.5,0-8.2,0c-1.7,0-1.9,0.4-1.3,2c0.2,0.6,0.2,1.1,0.2,1.7c0,5.6,0,11.3,0,16.9
	c0,0.3,0,0.7,0,1c0.1,0.9,0.3,1.1,1.2,0.9c0.7-0.2,1.5-0.2,2.2-0.2c22.5,0,45,0,67.5,0c0.4,0,0.9,0,1.3,0c0.3,0,0.7,0.1,0.7,0.5
	c0.2,0.7,0.8,1,1.2,1.4c0.6,0.6,0.9,1.3,1.8,1.7c0.4,0.2,0.2,1-0.4,1.2c-0.4,0.1-0.8,0.1-1.2,0.1c-3.2,0-6.5,0-9.7,0
	c-0.3,0-0.6,0-0.9,0c-0.4,0-0.8,0-0.9,0.5c-0.1,0.5,0.1,0.8,0.6,0.9c0.9,0.3,1.6,0.9,2.4,1.4c0.3,0.2,0.8,0.4,0.7,0.9
	c-0.1,0.4-0.7,0.3-1.1,0.4c-0.4,0-0.8,0-1.2,0c-10.6,0-21.2,0-31.8,0c-1.4,0-2.7,0.2-4,0.7c-2.7,1-5.3,2-8,3
	c-0.9,0.3-1.3,0.9-1.2,1.8c0.4,7.2,0.1,14.4,0.2,21.6c0,0.8,0.3,1.2,1.1,1.2c0.8,0,1.1,0.5,1.1,1.2c0,1.2,0,2.4,0,3.7
	c0,0.8-0.4,1.2-1.2,1.2c-0.7,0-1.4,0-2,0c-0.6,0-1.3-0.1-1.6,0.6c-0.3,0.6,0.2,1.1,0.5,1.6c0,0.1,0.1,0.1,0.1,0.2
	c4.9,0,9.8,0,14.7,0c0.8-0.3,1.1-0.9,0.9-1.7c-0.2-0.8-0.8-1.1-1.5-1.1c-0.7,0-1.4,0-2,0c-0.5,0-0.7-0.2-0.7-0.7c0-1.3,0-2.5,0-3.8
	c0-0.7,0.2-1,0.9-0.8c0.7,0.1,0.8-0.2,0.8-0.9c0-3,0.1-6,0.1-9c0-0.6,0.2-0.9,0.7-1.1c1.4-0.7,2.7-1.5,4.1-2.2
	c0.4-0.2,0.6-0.5,0.8-1c2.3-6.9,7.1-11.2,14.3-12.1c7.5-0.9,13.2,2.2,17.1,8.7c0.3,0.5,0.5,0.7,1.2,0.7c1.7-0.1,3.3,0,5-0.1
	c0.7,0,0.8,0.3,0.8,0.9c0,4.2,0,8.4,0,12.6c0,1,0.2,1.5,1.3,1.3c0.6-0.1,1.4,0.2,1.3-0.9c0-0.5,0.6-0.3,0.9-0.3c4.5,0,9,0,13.6,0
	c3.8,0,7.6,0,11.4,0c0.5,0,1,0,0.9,0.7c-0.1,0.4,0.2,0.5,0.6,0.5c2,0.2,2,0.2,2-1.8c0-3.9,0-7.8,0-11.6c0-0.9,0.1-1.2,1.1-1.1
	c1.9,0.1,3.9,0,5.8,0c0.5,0,0.8-0.2,1.1-0.7c3.8-6.6,9.6-9.7,17.1-8.8c7.2,0.9,11.9,5.1,14.3,12c0.2,0.5,0.4,0.9,0.9,1.1
	c1.3,0.7,2.6,1.4,3.9,2.1c0.5,0.3,0.7,0.6,0.7,1.2c0,2.9,0.1,5.8,0.1,8.8c0,0.7,0.1,1.2,1,1c0.5-0.1,0.7,0.1,0.7,0.7
	c0,1.3,0,2.7,0,4c0,0.6-0.2,0.7-0.7,0.7c-0.7,0-1.4,0-2.1,0c-0.8,0-1.3,0.3-1.5,1.1c-0.2,0.8,0.1,1.3,0.9,1.6c5,0,9.9,0,14.9,0
	c0-0.1,0-0.1,0-0.2c0.1-0.2,0.3-0.4,0.3-0.6c0.3-0.8,0-1.4-0.9-1.5c-0.8-0.1-1.7,0-2.5,0c-0.8,0-1.2-0.4-1.3-1.2c0-1.2,0-2.4,0-3.7
	c0-0.7,0.3-1.2,1.1-1.2c1,0,1.1-0.5,1.1-1.4c0-5,0-10,0-15c0-2.2,0.3-4.3,0.2-6.5c0-1-0.4-1.5-1.3-1.8c-3-1.1-6-2.2-9-3.4
	c-0.8-0.3-1.7-0.4-2.5-0.4c-11.3,0-22.5,0-33.8,0c-0.4,0-0.9,0-1.3,0c-0.7-0.1-0.9-0.5-0.4-0.9c0.9-0.9,1.7-1.7,3.1-1.7
	c0.3,0,0.7,0,0.9-0.3c0.3-0.5-0.1-1-0.8-1.1c-1.2,0-2.3,0-3.5,0c-2.4,0-4.8,0-7.2,0c-0.4,0-0.8,0-1.1-0.1c-0.3-0.1-0.6-0.2-0.6-0.6
	c-0.1-0.4,0-0.7,0.4-0.9c1.1-0.5,1.4-1.7,1.9-2.6c0.3-0.6,0.6-0.9,1.2-1c0.4,0,0.9,0,1.3,0c17.9,0,35.7,0,53.6,0
	c2,0,3.6-0.7,4.7-2.3c1-1.4,0.9-2.9,0.8-4.4c-0.5-5-0.9-10-1.4-15c-0.3-3.2-2.3-5-5.5-5c-1.3,0-2.6,0-3.9,0c-0.5,0-1.1,0.1-1.3-0.6
	c-0.1-0.6,0.3-1,0.8-1.3c1.3-0.8,2.6-1.5,3.9-2.2c0.9-0.4,1.4-1.1,1.6-2c0.3-1.2,0.6-2.3,1-3.5c-0.4-0.1-0.6,0.2-0.8,0.3
	c-2.2,1.3-4.2,2.8-6.2,4.3c-1.3,1-2.2,2.2-2.9,3.6c-0.6,1.3-1,1.4-1.9,0.2c-0.8-1-1.5-2-2.3-3c-0.7-0.9-1.6-1.3-2.7-1.4
	c-5.3-0.2-10.7-0.4-16-0.7c-4.1-0.2-8.2-0.1-12.3-0.6c-1.9-0.2-3.5,0.3-4.5,2.1c-0.2,0.3-0.4,0.6-0.6,0.8c-0.2,0.2-0.4,0.6-0.7,0.5
	c0,0,0,0-0.1,0c0,0-0.1,0.1-0.1,0.1c0-0.1,0-0.1,0-0.2c-0.2-0.2-0.2-0.5-0.2-0.8c0-0.3,0-0.7,0-1c0-3,0-5.9,0-8.9c0-0.3,0-0.6,0-0.9
	c0-0.5-0.3-0.8-0.8-0.8c-0.5,0-0.7,0.3-0.8,0.8c0,0.3,0,0.7,0,1c0,3.7,0,7.4,0,11.1c0,1.8-0.1,1.9-2,2c-1.2,0-2.3,0-3.5,0
	c-2,0-2.1-0.1-2.1-2c0-2.8,0-5.5,0-8.3c0-1.5,0-1.5-1.5-1.5c-2.2,0-2.2,0-2.2-2.2c0-1,0-2-0.2-2.9c-0.6-2.7-2.6-4.6-5.4-4.8
	c-1-0.1-1.6-0.5-2.1-1.3c-0.9-1.5-1.7-2.9-2.8-4.3c-0.3-0.3-0.4-0.7-0.4-1.1c0-2.7,0.2-5.3,0.3-7.9c0.1-1.9,0.1-3.7,0.3-5.6
	c0.1-2.2,0.2-4.3,0.3-6.5c0.2-4.2,0.2-8.5,0.5-12.7c0.2-2.1,0.1-4.3,0.2-6.4c0.1-2.8,0.3-5.6,0.3-8.4c0.1-6.2,0.3-12.3,0.4-18.5
	c0.2-8.5,0.1-17,0.1-25.5c0-5.1-0.2-10.3-0.4-15.4c-0.2-5.5-0.4-11-0.6-16.5c-0.2-4.4-0.3-8.8-0.6-13.1c-0.3-5.6-0.6-11.1-0.9-16.7
	c-0.2-3.7-0.5-7.5-0.7-11.2c-0.2-3-0.5-6-0.7-8.9c-0.2-3.5-0.6-7-0.9-10.6c-0.5-5.2-1-10.4-2-15.6c-0.2-0.8-0.1-1.5,0.4-2.2
	c0.7-1,0.8-2.1,0.2-3.2c-0.6-1.3-1.3-2.6-2.1-3.9c-2.6-4-6.4-6.4-11-7.7c-1.1-0.3-2.3-0.6-3.5-0.7c-0.4-0.1-0.9,0-1.1-0.6h-5.5
	c-0.2,0.2-0.4,0.1-0.6,0.1c0,0-0.1,0-0.1,0c-2.4,0.4-4.9,0.8-7.2,1.7c-3.1,1.2-6,2.6-9.2,3.5c-8.3,2.4-16.8,4.3-25.2,6.1
	c-10.7,2.3-21.4,4.3-32.1,6.3c-8.3,1.5-16.6,2.9-24.9,4.3c-9.5,1.7-19.1,3.2-28.5,5.4c-2.6,0.6-5.3,0.3-7.9,0.3
	c-4.4,0-8.8-0.1-13,1.4c-5.4,2-9.8,5.3-13,10.2c-1,1.6-1.5,3.3-2.2,5c-1.4,3.7-3.7,6.9-6,10c-0.9,1.3-2.2,2.4-2.6,3.7
	c-0.4,1.4,0,3,0,4.5c0,1,0,2,0,3c0,0.5,0.2,1.1-0.7,1.1c-0.3,0-0.2,0.4-0.2,0.6c0,0.6,0,1.2,0,1.8c0,0.5,0.1,1-0.7,0.9
	c-0.5,0-0.4,0.3-0.4,0.6c0,0.9,0,1.8,0,2.7c0,0.2-0.1,0.6,0.3,0.6c0.9,0.1,0.4,0.8,0.4,1.2c0,0.5-0.5,0.3-0.8,0.3
	c-1.4,0.1-1.5,0-1.4,1.4c0.2,1.8-0.5,3.4-1.1,5c-1.1,3-2.1,5.9-3.2,8.9c-0.5,1.4-1.2,1.6-2.4,0.8c-1.4-0.9-2.9-1.5-4.6-1.8
	c-5.5-0.8-11,3.2-11.9,8.6c0,0.2-0.1,0.3-0.2,0.5v4.3C547.7,103.4,547.6,103.9,547.7,104.3 M577.8,81.1c0.1,0,0.1,0,0.2,0
	c1.3,3.5,2.6,7,3.8,10.5c0.2,0.5,0.4,1,0.6,1.5c0.5,1.4-0.9,3.3-2,3.6c-0.7,0.2-1.6-0.3-2.4-0.5c-0.2-0.1-0.2-0.4-0.2-0.6
	C577.8,90.7,577.8,85.9,577.8,81.1 M695,196.6c-1.4,0-2.9,0-4.3,0c-1.4,0-2.9,0-4.3,0c-0.5,0-0.7-0.2-0.7-0.7c0-1.8,0-3.6,0-5.4
	c0-0.6,0.2-0.7,0.7-0.7c2.9,0,5.8,0,8.7,0c0.6,0,0.8,0.2,0.8,0.7c0,1.7,0,3.5,0,5.2C695.9,196.5,695.6,196.6,695,196.6 M695.9,270.5
	c0,0.6-0.2,0.8-0.8,0.8c-2.9,0-5.8,0-8.7,0c-0.5,0-0.7-0.2-0.7-0.7c0-1.7,0-3.3,0-5c0-0.5,0.2-0.7,0.7-0.7c1.5,0,2.9,0,4.4,0
	c1.4,0,2.9,0,4.3,0c0.6,0,0.8,0.2,0.8,0.8C695.9,267.2,695.9,268.8,695.9,270.5 M703.7,262.7c5.1,0,10.3,0,15.4,0
	c0.4,0,0.9-0.2,0.9,0.5c0,0.8-0.5,0.6-0.9,0.6c-2.6,0-5.1,0-7.7,0c-2.6,0-5.2,0-7.8,0c-0.4,0-0.9,0.2-0.9-0.5
	C702.7,262.6,703.3,262.7,703.7,262.7 M698.8,271.2c-1.8,0.1-1.8,0.1-1.8-1.7c0-1.3,0-2.6,0-3.9c0-0.6,0.2-0.8,0.8-0.8
	c2.1,0.1,1.7-0.3,1.7,1.7c0,0.5,0,1,0,1.5c0,0.8,0,1.6,0,2.4C699.5,271,699.4,271.2,698.8,271.2 M698.7,263.8c-0.2,0-0.3,0-0.6,0
	c-0.3-0.2-1.1,0.5-1.1-0.6c0-0.3,0.1-0.5,0.4-0.5c0.4,0,0.8,0,1.2,0c0.4,0,0.8-0.2,0.9,0.5C699.5,263.9,699.1,263.8,698.7,263.8
	 M701.1,269.7c-0.5,0-0.7-0.2-0.7-0.7c0-1.1,0-2.3,0-3.4c0-0.6,0.3-0.6,0.8-0.7c0.5,0,0.6,0.2,0.6,0.7c0,0.6,0,1.2,0,1.8
	c0,0.5,0,1.1,0,1.6C701.8,269.5,701.6,269.7,701.1,269.7 M701.1,263.8c-0.4,0-0.7,0-0.7-0.6c0-0.6,0.3-0.6,0.7-0.5
	c0.4-0.1,0.6,0.1,0.6,0.6C701.7,263.8,701.4,263.8,701.1,263.8 M720,268.8c0,0.6-0.2,0.9-0.8,0.8c-0.7-0.1-0.9,0.2-0.8,0.9
	c0.1,0.7-0.3,0.8-0.8,0.8c-4,0-8.1,0-12.1,0c-0.6,0-0.9-0.1-0.8-0.8c0.1-0.7-0.2-0.9-0.9-0.9c-0.8,0.1-1-0.3-0.9-1
	c0.1-0.9,0.1-1.8,0-2.7c-0.1-0.8,0.2-1.1,1-1c2.5,0.1,5.1,0,7.6,0c2.5,0,5.1,0,7.6,0c0.7,0,1,0.1,1,0.9
	C719.9,266.7,719.9,267.8,720,268.8 M739.9,262.7c0.4,0,0.8-0.2,0.8,0.5c0,0.8-0.5,0.5-0.9,0.6c-0.4,0-0.8,0.1-0.9-0.5
	C738.9,262.6,739.5,262.7,739.9,262.7 M721.9,262.7c5.1,0,10.1,0,15.2,0c0.4,0,0.8-0.1,0.8,0.6c0,0.6-0.4,0.5-0.8,0.5
	c-2.6,0-5.2,0-7.7,0c-2.5,0-5,0-7.4,0c-0.4,0-0.8,0.2-0.8-0.5C721.1,262.6,721.6,262.7,721.9,262.7 M737.9,268.8
	c0,0.6-0.2,0.8-0.7,0.8c-0.7-0.1-1.1,0.1-1,0.9c0.1,0.6-0.3,0.7-0.8,0.7c-4,0-8.1,0-12.1,0c-0.6,0-0.8-0.2-0.7-0.8
	c0.1-0.6-0.1-1-0.8-0.9c-0.5,0.1-0.6-0.2-0.6-0.6c0-1.1,0-2.2,0-3.3c0-0.7,0.2-0.9,0.9-0.9c2.5,0,5.1,0,7.6,0c2.5,0,5,0,7.4,0
	c0.6,0,0.9,0.2,0.9,0.8C737.9,266.7,737.9,267.8,737.9,268.8 M740.7,271.3c-0.5-0.4-0.4-0.7-0.4-1c0-0.5-0.2-0.8-0.7-0.7
	c-0.5,0.1-0.7-0.2-0.7-0.7c0-1.1,0-2.2,0-3.3c0-0.7,0.3-0.8,0.9-0.8c0.5,0,0.9,0,0.9,0.7C740.7,267.4,740.7,269.2,740.7,271.3
	 M742.2,263.1c0-0.4,0.2-0.5,0.6-0.5c1.1,0,2.2,0,3.4,0c-0.7,1.1-2.7,1.7-3.7,1.2C742.1,263.6,742.2,263.4,742.2,263.1 M744.7,269.5
	c-0.5,0.5-1.1,1-0.1,1.8c-0.6,0-1.3,0-1.9,0c-0.4,0-0.5-0.3-0.5-0.6c0-1.7,0-3.5,0-5.2c0-0.5,0.2-0.7,0.7-0.6c0.4,0,0.7,0,1.2,0
	c-0.4,1.5-0.1,1.8,1.3,1.9c0.5,0,1,0.1,1.7,0.1C746.2,267.8,745.4,268.7,744.7,269.5 M751.7,270.8c0,0.3-0.2,0.5-0.5,0.5
	c-1.2,0-2.4,0-3.9,0c1.4-1.5,2.6-2.8,3.8-4c0.3-0.3,0.6-0.2,0.6,0.3C751.7,268.6,751.7,269.7,751.7,270.8 M751.1,257.4
	c-1.1,1-2.1,2.1-3,3.3c-0.7,0.9-1.5,1.1-2.7,0.8c2.3-2.6,4.5-5,6.8-7.6C752.2,255.4,752.2,256.5,751.1,257.4 M758.5,282.2
	c0.1,0.3,0.2,0.9-0.5,0.8c-1,0-2,0.1-2.9,0c-1-0.2-1.4-1.2-2.1-2c1.7,0,3.4,0,5,0C758.9,281,758.4,281.7,758.5,282.2 M791.1,281
	c1.5,0,2.9,0,4.5,0c-1.2,1.6-2.6,2.3-4.5,2c-0.8-0.1-0.6-0.5-0.6-1C790.6,281.6,790.2,281,791.1,281 M829.6,265.8c-4.5,0-9,0-13.6,0
	c-4.5,0-9,0-13.6,0c-0.6,0-1,0-0.9-0.8c0-0.7,0.4-0.7,0.9-0.7c9,0,18.1,0,27.1,0c0.5,0,1-0.1,1,0.7
	C830.6,265.8,830.1,265.8,829.6,265.8 M802.5,261.6c9,0,18,0,27,0c0.3,0,0.7-0.1,0.9,0.2c0.1,0.2,0.1,0.5,0,0.7
	c-0.1,0.4-0.5,0.2-0.8,0.2c-4.6,0-9.1,0-13.7,0c-4.5,0-9,0-13.6,0c-0.4,0-0.9,0.3-1-0.5C801.5,261.4,802.1,261.6,802.5,261.6
	 M801.5,259.6c0-0.8,0.5-0.6,1-0.6c9,0,18,0,27,0c0.3,0,0.7-0.1,0.9,0.2c0.1,0.2,0.1,0.5,0,0.7c-0.1,0.4-0.5,0.2-0.8,0.2
	c-4.6,0-9.2,0-13.8,0c-4.5,0-9,0-13.5,0C802.1,260.1,801.6,260.4,801.5,259.6 M829.6,257.5c-4.6,0-9.1,0-13.7,0c-4.5,0-9,0-13.6,0
	c-0.4,0-0.9,0.2-0.9-0.6c0-0.7,0.5-0.6,0.9-0.6c9.1,0,18.2,0,27.2,0c0.4,0,0.9-0.1,0.9,0.6C830.5,257.6,830,257.5,829.6,257.5
	 M802.6,253.3c4.5,0,9,0,13.5,0c4.5,0,9,0,13.5,0c0.5,0,1.1-0.2,1.1,0.7c0,0.9-0.5,0.7-1,0.7c-9,0-18,0-27,0c-0.5,0-1,0.2-1-0.7
	C801.5,253.2,802.1,253.3,802.6,253.3 M752.8,183.1c1.5,0.8,1.9,2.1,2.1,3.4c0.1,0.4,0,0.8,0,1.1c0.2,1-0.2,1.3-1.2,1.2
	c-0.8,0-1-0.2-1-1C752.9,186.3,752.8,184.8,752.8,183.1 M701.7,194c0,0.4-0.1,0.7-0.6,0.6c-0.8-0.1-1,0.3-0.8,0.9
	c0.2,0.9-0.3,1.1-1.1,1.1c-2.2-0.1-2.2,0-2.2-2.2c0-0.4,0-0.8,0-1.2c0-0.9,0-1.8,0-2.7c0-0.4,0.2-0.6,0.6-0.6c1.2,0,2.4,0,3.6,0
	c0.4,0,0.6,0.1,0.6,0.6C701.7,191.6,701.7,192.8,701.7,194 M701.1,188.9c-0.6,0-1.2,0-1.7,0c-0.5,0-0.9,0-1.4,0c-0.5,0-1,0.2-1-0.7
	c0-0.8,0.3-0.9,1-0.9c1,0,2.1,0,3.1,0c0.7,0,0.6,0.4,0.7,0.8C701.7,188.6,701.7,188.9,701.1,188.9 M720,190.9c-0.1,1,0,2,0,3
	c0,0.6-0.1,0.9-0.7,0.8c-0.7-0.1-1,0.2-0.9,0.9c0.1,0.9-0.2,1.1-1.1,1.1c-3.9-0.1-7.8,0-11.7,0c-0.7,0-1.1-0.1-1-0.9
	c0.2-0.9-0.2-1.3-1.1-1.1c-0.5,0.1-0.7-0.2-0.7-0.7c0-1.1,0-2.2,0-3.3c0-0.7,0.2-0.8,0.8-0.8c2.6,0,5.2,0,7.8,0c2.6,0,5.1,0,7.6,0
	C719.8,189.8,720,190.1,720,190.9 M719.1,188.9c-2.6,0-5.2,0-7.8,0c-2.6,0-5.1,0-7.7,0c-0.5,0-1,0.1-1-0.7c0-0.7,0.3-0.8,0.9-0.8
	c5.2,0,10.3,0,15.5,0c0.7,0,0.9,0.2,0.9,0.9C720.1,188.9,719.6,188.9,719.1,188.9 M737.9,190.8c-0.1,1,0,2,0,3.1
	c0,0.6-0.1,0.9-0.7,0.8c-0.8-0.1-1.1,0.3-1,1c0.1,0.8-0.2,1-1,1c-3.9,0-7.8,0-11.7,0c-0.8,0-1.1-0.2-0.9-0.9
	c0.1-0.6,0.1-1.3-0.9-1.1c-0.5,0.1-0.5-0.2-0.5-0.6c0-1.1,0-2.2,0-3.3c0-0.7,0.2-0.9,0.8-0.9c2.5,0,5,0,7.5,0c2.5,0,5,0,7.4,0
	C737.7,189.9,738,190,737.9,190.8 M737,188.9c-2.5,0-5.1,0-7.6,0c-2.5,0-5,0-7.4,0c-0.6,0-0.8-0.1-0.9-0.7c0-0.7,0.3-0.8,0.9-0.8
	c5,0,10.1,0,15.1,0c0.7,0,0.8,0.2,0.9,0.9C737.9,188.9,737.5,188.9,737,188.9 M741.1,193.2c0,0.9,0,1.9,0,2.8c0,0.2,0,0.5-0.3,0.5
	c-0.4,0-0.4-0.3-0.4-0.5c0-0.3,0-0.6,0-0.9c0-0.4-0.2-0.6-0.5-0.5c-0.8,0.1-0.9-0.3-0.9-1c0-1,0-2.1,0-3.1c0-0.9,0.6-0.6,1-0.6
	c0.4,0,1.1-0.3,1.1,0.6C741,191.4,741.1,192.3,741.1,193.2 M740,188.9c-0.5,0-1.1,0.1-1-0.8c0-0.9,0.5-0.8,1.1-0.8
	c0.6,0,1.1-0.1,1.1,0.8C741.1,189,740.5,188.9,740,188.9 M742.9,187.3c2,0,4,0,6,0c0.7,0,0.9-0.2,0.9-0.9c0-2.2,0-4.4,0-6.6
	c0-0.9,0.4-0.9,1-0.9c0.7,0,1,0.1,1,0.9c-0.1,1.4,0,2.7,0,4.1c0,1.4,0,2.9,0,4.3c0,0.5-0.2,0.7-0.7,0.7c-2.8,0-5.5,0-8.3,0
	c-0.6,0-0.7-0.3-0.7-0.8C742.1,187.5,742.2,187.3,742.9,187.3 M742.7,196.6c-0.5,0-0.6-0.2-0.6-0.6c0-1.8,0-3.7,0-5.5
	c0-0.5,0.2-0.6,0.7-0.6c2.8,0,5.6,0,8.4,0c0.5,0,0.6,0.2,0.6,0.7c0,1.5,0,3,0,4.8c-1-1.1-1.9-2-2.8-2.9c-0.4-0.5-0.8-1-1.3-1.4
	c-0.8-0.7-1.7-0.7-2.6-0.4c-0.8,0.3-0.9,1-0.9,1.8c0,0.4,0.2,0.6,0.4,0.9c1,1.1,1.9,2.1,3.1,3.4
	C745.9,196.6,744.3,196.6,742.7,196.6 M754.7,208.4c-0.1,0-0.2,0-0.3,0.1c-2.6-2.8-5.2-5.6-8-8.6c1.5,0,2.7,0,3.9,0
	c0.4,0,0.5,0.3,0.7,0.5c1.1,1.1,2.1,2.3,3.2,3.4c0.3,0.3,0.4,0.6,0.4,1C754.7,206,754.7,207.2,754.7,208.4 M754,196.6
	c-0.4,0-1.1,0.3-1.1-0.5c0-0.9,0-1.9,0-2.8h0c0-0.9,0-1.8,0-2.6c-0.1-0.9,0.5-0.7,1-0.7c0.4,0,1.2-0.4,1.1,0.6
	c-0.1,1.9-0.1,3.7-0.1,5.6C754.8,196.8,754.4,196.6,754,196.6 M758.9,267c-0.1,0.4-0.4,0.4-0.6,0.4c-0.5,0-1.1,0-1.6,0
	c-1.6,0-2.6,1.1-2.6,2.6c0,0.2,0,0.5,0,0.7c0,0.3-0.1,0.5-0.4,0.5c-0.3,0-0.6-0.1-0.6-0.5c0-0.5,0-1.1,0-1.6c0-2,0-2,1.9-1.9
	c1.3,0,1.4,0,1.3-1.3c0-0.9,0.3-1.1,1.2-1.1C758.9,264.9,759.4,265.6,758.9,267 M757,260.8c0.6-0.6,1.2-1.3,1.9-2.1
	c0,1.7,0,3.2,0,4.6c0,0.3-0.1,0.5-0.5,0.5c-0.1,0-0.1,0-0.2,0c-0.6-0.1-1.3,0.3-1.8-0.2C756.1,263.2,756.6,261.3,757,260.8
	 M758.6,253.9c-0.6,0.9-1.2,1.5-1.9,2.1C756.4,253.8,756.4,253.8,758.6,253.9 M760.8,272.5v-7.7c0.1-0.1,0.3-0.2,0.4-0.3
	c0.7,0.8,1.5,1.7,2.2,2.5c0.2,0.2,0.2,0.5,0.2,0.8c-0.1,1.9-0.1,3.7-0.2,5.6c0,0.6-0.2,0.8-0.8,0.8
	C760.8,274.2,760.8,274.2,760.8,272.5 M787.7,307.3c-0.6,0.5-1.9,0.2-3,0.2c-3.4,0-6.8,0-10.2,0c-4.2,0-8.4,0-12.6,0
	c-0.7,0-1-0.2-0.9-0.9c0-0.8,0-1.6,0-2.4c0-0.7,0.3-0.9,0.9-0.8c2.6,0,5.1,0,7.7,0c5.8,0,11.6,0,17.3,0c0.8,0,1.1,0.2,1,1
	C787.8,305.3,788.4,306.7,787.7,307.3 M761,290.1c0-0.7,0.2-0.9,0.9-0.9c8.4,0,16.7,0,25.1,0c0.7,0,0.9,0.2,0.9,0.9
	c0,1.2-0.1,2.5,0,3.7c0,0.7-0.2,0.8-0.9,0.8c-4.2,0-8.4,0-12.6,0c-4.2,0-8.3,0-12.5,0c-0.8,0-1.1-0.2-1-1
	C761.1,292.5,761.1,291.3,761,290.1 M761,296.9c0-0.6,0.1-0.8,0.8-0.8c8.5,0,16.9,0,25.4,0c0.6,0,0.7,0.2,0.7,0.8c0,1.5,0,2.9,0,4.4
	c0,0.7-0.2,0.8-0.9,0.8c-4.2,0-8.4,0-12.5,0c-4.1,0-8.3,0-12.4,0c-0.8,0-1.1-0.1-1-1C761.1,299.6,761.1,298.2,761,296.9
	 M784.6,236.8c0-0.8,0.5-0.6,1-0.6c0.4,0,1.1-0.3,1.1,0.6c0,1.4,0,2.9,0,4.3c0,1.4,0,2.9,0,4.3c0,0.9-0.6,0.7-1,0.7
	c-0.5,0-1,0.2-1-0.7C784.6,242.5,784.6,239.7,784.6,236.8 M766.3,253.3c2.1,0,4.3,0,6.4,0c0.5,0,0.7,0.2,0.7,0.7c0,1.2,0,2.4,0,3.6
	c0,1.2,0,2.4,0,3.6c0,0.5-0.1,0.8-0.7,0.8c-2.1,0-4.3,0-6.4,0c-0.5,0-0.7-0.2-0.7-0.7c0-2.4,0-4.8,0-7.2
	C765.5,253.5,765.8,253.3,766.3,253.3 M777.6,283c3.1,0,6.3,0,9.4,0c0.7,0,1,0.1,1,0.9c-0.1,1-0.1,2,0,3.1c0,0.7-0.2,0.9-0.9,0.9
	c-4.2,0-8.4,0-12.5,0c-4.1,0-8.3,0-12.4,0c-0.8,0-1.1-0.2-1-1c0.1-0.9,0.1-1.9,0-2.9c-0.1-0.8,0.2-1,1-1
	C767.2,283,772.4,283,777.6,283 M763.7,259.6c0,0.1,0,0.2-0.1,0.2c-1.1-0.3-1,0.8-1.4,1.3c-0.4,0.6-0.7,1.3-1.1,1.9
	c-0.1,0.1-0.2,0.2-0.4,0.5c0-2.3,0-4.3,0-6.3c0-0.3,0.1-0.6,0.3-0.8c0.8-0.9,1.7-1.8,2.6-2.8C763.7,255.7,763.7,257.7,763.7,259.6
	 M760.7,251.5c-0.8,0.7-2.3,0.3-3.6,0.2c-0.3,0-0.3-0.3-0.3-0.5c0-1.5-0.1-2.9,1.3-4.1c1.5-1.4,2.8-3,4.3-4.8
	c0.2,1.7,0.2,3.2,0.6,4.7C763.7,249.5,761.9,250.5,760.7,251.5 M757.6,207.8c1,0.4,0.9,0.5,1.3,5.4
	C756.5,211.9,757.9,209.7,757.6,207.8 M759.9,221c0.5,5.6,1.2,11.2,1.9,16.8c0.1,0.6,0,0.9-0.4,1.4c-1.4,1.6-2.8,3.2-4.3,4.9
	c0.2-4.4,0.4-8.5,0.5-12.7c0-0.5-0.2-1.2,0.7-1.1c0.3,0,0.3-0.3,0.3-0.5c0-1.7,0-3.3,0-5c0-0.7-0.5-0.6-0.9-0.6
	c-0.7,0.1-0.9-0.2-0.9-0.9c0.1-2.2,0.2-4.3,0.3-6.7C758.6,218,759.8,219,759.9,221 M762.1,178.9c0.1-0.3,0-0.7,0.5-0.7
	c0.5,0,0.4,0.5,0.4,0.8c-0.2,3.4-0.3,6.7-0.5,10.1c-0.2,4.4-0.5,8.9-0.8,13.3c-0.1,1-0.1,2-0.2,2.8c-1.1-1-2.3-2.1-3.4-3.1
	c-0.6-0.6-0.3-1.3-0.1-1.9c0.1-0.5,0.7-0.2,1.1-0.2c1.6,0,1.6,0,1.6-1.7V198c0-1.4,0-1.4-1.4-1.4c-0.9,0-1.2-0.2-1.1-1.2
	c0.2-1.6,0.2-3.2,0.2-4.8c0-0.5,0-0.9,0.7-0.8c0.3,0,0.4-0.2,0.4-0.5c0-0.2,0-0.4-0.2-0.5c-0.9-0.5-1-1.1-0.4-2
	c1.1-1.6,2-3.2,2.5-5.1C761.7,180.9,761.9,179.9,762.1,178.9 M750.6,20.2c3.1-0.4,6.1-0.7,9.2-1.1c0.8-0.1,1,0.1,0.9,0.9
	c-0.2,4.2-0.4,8.5-0.6,12.7c-0.3,7-0.7,14-1.3,20.9c-0.2,2.6-0.5,5.1-0.8,7.7c0,0.3-0.1,0.7-0.3,1.2c-1.1-6-2.1-11.8-3.2-17.6
	c-0.1-0.5-0.2-0.9-0.2-1.4c-0.1-0.6-0.5-1.4,0.7-1.4c0.4,0,0.3-0.4,0.2-0.6c-0.2-1.4-0.5-2.8-0.7-4.2c-0.1-0.5-0.3-0.6-0.8-0.5
	c-1.9,0.3-1.9,0.3-2.3-1.7c-0.7-4.5-1.5-9-2.2-13.5C749.2,20.8,749.6,20.4,750.6,20.2 M568.8,92.8c1.5-4.2,3-8.4,4.6-12.8
	c0.3,0.4,0.2,0.8,0.2,1c0,4.7,0,9.3,0,14c0,0.8-0.2,1.3-1.1,1.2c-0.1,0-0.3,0-0.4,0.1c-0.9,0.4-1.7,0.4-2.4-0.5
	C569,94.9,568.4,93.9,568.8,92.8"/>
<path fill="#81BDCB" d="M702.5,152.5c-1.1,0.9-2.1,1.8-3,2.9c-2.7,3.2-4.2,6.9-4.4,11.2c0,0.2,0,0.5-0.1,0.7
	c-0.1,0.4-0.1,0.9-0.1,1.3c0,2.3,0,4.6,0,6.8c0,0.4,0,0.8,0,1c0.1,0.4,0.4,0.6,1.1,0.6c15.4,0,30.8,0,46.2,0
	c-0.4-0.5-0.2-1.1-0.3-1.6c0-8.2,0-16.3,0-24.5c0-0.3,0-0.6,0-0.9c0-1.1-0.1-1.2-1.2-1.2c-13,0-25.9,0-38.9,0
	c-1.2,0-2.1,0.3-2.8,1.3c-0.2,0.3-0.4,0.7-0.2,1c0.2,0.4,0.6,0.3,0.9,0.3c0.8,0,1.7,0,2.5,0c0.2,0,0.5,0,0.7,0.2h0.3
	c-0.1,0.1-0.1,0.1-0.2,0.2C703,152.1,702.7,152.3,702.5,152.5 M728.2,151.1c2.4,0,4.8,0,7.2,0c0.7,0,0.8,0.2,0.8,0.9
	c0,3.4,0,6.9,0,10.3c0,3.4,0,6.8,0,10.2c0,0.8-0.2,1-1,1c-0.9-0.1-1.8,0-2.7,0c-3-0.1-5.3-2.5-5.3-5.5c0-5.3,0-10.6,0-15.9
	C727.4,151.3,727.5,151.1,728.2,151.1 M705.2,161.2c0.2-5.3,4.7-9.7,10-9.7c1.1,0,2.3,0.1,3.4,0c1-0.1,1.1,0.3,1.1,1.1
	c0,3,0,5.9,0,8.9c0,3.1,0,6.2,0,9.3c0,0.7-0.2,0.9-0.9,0.9c-4.3,0-8.5,0-12.8,0c-0.6,0-0.9-0.1-0.8-0.8
	C705.2,167.7,705.1,164.5,705.2,161.2"/>
<path fill="#81BDCB" d="M702.5,228.6c-2.4,1.9-4.4,4.2-5.7,7.1c-0.9,1.9-1.4,3.9-1.6,6c-0.2,1.9-0.1,3.7-0.1,5.6c0,1.1,0,2.2,0,3.4
	c0,0.2,0,0.4,0,0.6c0.1,0.4,0.4,0.5,1,0.5c15,0,30,0,45,0c0.7,0,1-0.1,1.1-0.5c0-0.1,0-0.2,0-0.3c0-0.4,0-0.7,0-1.1
	c0-7.9,0-15.7,0-23.6c0-1.5-0.1-1.6-1.5-1.6c-8.4,0-16.7,0-25.1,0c-4.6,0-9.3,0-13.9,0c-1.1,0-2,0.4-2.6,1.3
	c-0.2,0.3-0.4,0.6-0.2,0.9c0.2,0.3,0.5,0.3,0.8,0.3c0.8,0,1.6,0,2.4,0c0.5,0,1.1-0.2,1.3,0.3c0.1,0,0.1,0,0.2,0
	c-0.1,0-0.1,0.1-0.2,0.1C703.4,228.1,702.8,228.3,702.5,228.6 M728.3,227.1c2.4,0,4.8,0,7.2,0c0.7,0,0.9,0.2,0.9,0.9
	c0,3.5,0,6.9,0,10.4c0,3.4,0,6.8,0,10.2c0,0.7-0.2,1-0.9,0.9c-1.2-0.1-2.4,0.1-3.7-0.2c-2.6-0.6-4.4-2.8-4.4-5.4c0-5.3,0-10.7,0-16
	C727.4,227.2,727.6,227,728.3,227.1 M705.3,236.9c0.5-5.3,4.8-9.3,10.1-9.4c1.1,0,2.2,0,3.4,0c0.7,0,0.9,0.2,0.9,0.9
	c0,3.1,0,6.2,0,9.3c0,3,0,6.1,0,9.1c0,0.7-0.1,0.9-0.9,0.9c-4.3,0-8.6,0-12.9,0c-0.5,0-0.8,0-0.8-0.7
	C705.3,243.6,705.1,240.2,705.3,236.9"/>
<path fill="#81BDCB" d="M736.5,286.5c-9,0-16.3,7.3-16.4,16.2c0,9,7.3,16.4,16.3,16.4c9.1,0,16.4-7.2,16.4-16.3
	C752.8,293.8,745.6,286.5,736.5,286.5 M738.2,293.5c0-0.1,0-0.2,0-0.3v-0.4c0-2.3,0-2.3,2.3-1.5c1.1,0.4,2,0.9,3,1.5
	c0.4,0.3,0.5,0.4,0.1,0.8c-0.9,0.9-1.8,1.8-2.7,2.7c-0.3,0.3-0.5,0.3-0.9,0.2C738.5,296.1,737.9,295.1,738.2,293.5 M729.5,292.8
	c1.4-1,3-1.7,4.7-2c0.5-0.1,0.6,0,0.6,0.5c0,0.6,0,1.3,0,1.9c0,0.1,0,0.3,0,0.4c0,2.2,0,2.2-2.1,2.9c-0.3,0.1-0.4,0-0.6-0.2
	c-0.9-0.9-1.8-1.8-2.7-2.7C729.1,293.3,729.1,293.1,729.5,292.8 M724.7,299.7c0.3-1.3,0.9-2.5,1.6-3.6c0.3-0.4,0.5-0.5,0.8-0.1
	c0.8,0.9,1.7,1.8,2.6,2.6c0.4,0.3,0.4,0.6,0.2,1c-0.8,1.7-0.7,1.7-3,1.7c-0.3,0-0.7,0-1,0C724.1,301.3,724.3,301.7,724.7,299.7
	 M726.5,309.9c-0.9-1.4-1.6-2.9-2-4.5c-0.1-0.5,0.1-0.6,0.5-0.6c0.6,0,1.3,0,1.9,0c0.2,0,0.3,0,0.5,0c1.9,0,1.9,0,2.6,1.7
	c0.1,0.3,0.2,0.5-0.1,0.7c-0.9,0.9-1.9,1.9-2.8,2.8C726.9,310.3,726.7,310.2,726.5,309.9 M734.2,314.9c-1.8-0.4-3.4-1-5-2.2
	c1.1-1.1,2.2-2.1,3.2-3.1c0.4-0.4,0.7-0.3,1,0c0.5,0.4,1.4,0,1.4,1c0,1.3,0,2.6,0,3.9C734.8,314.9,734.7,315,734.2,314.9
	 M732.9,302.8c0-2,1.5-3.6,3.6-3.6c2.1,0,3.7,1.5,3.7,3.6c0,2-1.6,3.6-3.6,3.6C734.5,306.5,732.9,304.9,732.9,302.8 M743.3,313.1
	c-1.3,0.8-2.7,1.4-4.2,1.8c-0.6,0.1-0.9,0.1-0.8-0.6c0.1-0.6,0-1.2,0-1.7v-0.9c0-1.6,0.2-1.8,1.7-2.2c0.4-0.1,0.6,0.1,0.8,0.3
	c0.9,0.9,1.7,1.7,2.6,2.6C743.6,312.6,743.7,312.8,743.3,313.1 M748.5,305.6c-0.3,1.5-1.3,3.6-2.4,4.8c-1-1-2-2-3-3.1
	c-0.1-0.1-0.4-0.3-0.3-0.5c0.2-0.6,0.5-1.3,0.8-1.8c0.2-0.4,0.8-0.1,1.2-0.1c1,0,2,0,3.1,0C748.5,304.8,748.6,305,748.5,305.6
	 M748.1,301.4c-1.3,0-2.6,0-3.9,0c-0.4,0-0.5-0.1-0.7-0.5c-0.7-1.8-0.7-1.8,0.7-3.1c0.7-0.7,1.4-1.4,2.1-2.2
	c1.3,1.7,1.9,3.4,2.3,5.3C748.7,301.3,748.5,301.4,748.1,301.4"/>
<path fill="#81BDCB" d="M813.5,286.5c-9,0-16.3,7.3-16.3,16.3c0,9.2,7.2,16.4,16.4,16.4c9.1,0,16.3-7.4,16.3-16.6
	C829.8,293.8,822.4,286.5,813.5,286.5 M815.2,291.3c0-0.3,0-0.6,0.5-0.5c1.7,0.3,3.4,1,4.9,2.1c0.3,0.2,0.3,0.4,0,0.6
	c-0.9,0.9-1.9,1.9-2.8,2.8c-0.2,0.2-0.4,0.2-0.7,0.1c-1.9-0.8-2-0.8-2-2.9C815.2,292.8,815.2,292,815.2,291.3 M806.5,292.8
	c1.4-1,3-1.6,4.6-2c0.5-0.1,0.7,0,0.7,0.5c0,0.6,0,1.3,0,1.9c0,0.1,0,0.2,0,0.3c0.3,1.5-0.3,2.4-1.8,2.8c-0.4,0.1-0.6,0.2-0.9-0.1
	c-0.9-0.9-1.8-1.8-2.7-2.7C806,293.2,806.2,293.1,806.5,292.8 M801.8,299.3c0.3-1.1,0.8-2.1,1.5-3.1c0.3-0.4,0.5-0.6,0.9-0.1
	c0.8,0.9,1.7,1.8,2.6,2.6c0.4,0.3,0.4,0.6,0.2,1.1c-0.1,0.2-0.2,0.4-0.3,0.7c-0.1,0.8-0.6,1.1-1.4,1c-0.4-0.1-0.9,0-1.3,0h-0.6
	C801.2,301.4,801.2,301.4,801.8,299.3 M804.3,310c-0.3,0.4-0.5,0.3-0.8-0.1c-0.9-1.3-1.6-2.8-1.9-4.3c-0.1-0.6,0-0.8,0.6-0.8
	c0.6,0,1.2,0,1.8,0c0.3,0,0.5,0,0.8,0c1.5,0,2,0.3,2.3,1.8c0.1,0.3,0,0.4-0.2,0.6C806.1,308.1,805.2,309,804.3,310 M811.8,314.3
	c0,0.4-0.1,0.6-0.6,0.5c-1.8-0.4-3.4-1-5-2.2c1.1-1.1,2.2-2.1,3.2-3.1c0.4-0.4,0.8-0.2,1.1,0c0.4,0.3,1.3,0,1.3,1
	C811.8,311.8,811.8,313.1,811.8,314.3 M813.6,306.5c-2.1,0-3.7-1.6-3.7-3.7c0-2,1.6-3.6,3.6-3.6c2.1,0,3.6,1.5,3.6,3.6
	C817.2,304.9,815.6,306.5,813.6,306.5 M820.4,313c-1.4,0.9-2.9,1.5-4.6,1.9c-0.5,0.1-0.6-0.1-0.6-0.5c0-0.6,0-1.3,0-1.9
	c0-0.3,0-0.5,0-0.8c0-1.7,0.1-1.8,1.7-2.2c0.3-0.1,0.5,0,0.7,0.2c0.9,0.9,1.8,1.8,2.7,2.7C820.7,312.6,820.7,312.8,820.4,313
	 M825.4,305.8c-0.4,1.4-1,2.7-1.7,3.9c-0.3,0.5-0.6,0.7-1,0.1c-0.7-0.8-1.4-1.5-2.2-2.2c-0.5-0.5-0.5-0.9-0.3-1.5
	c0.4-1.1,1-1.4,2.1-1.3c0.3,0,0.6,0,0.9,0c0.5,0,1,0.1,1.5,0C825.6,304.7,825.6,305.1,825.4,305.8 M825,301.4c-0.6,0-1.2,0-1.8,0
	c-0.2,0-0.4,0-0.6,0c-1.9,0-2.1-0.2-2.6-2c-0.1-0.3,0.1-0.4,0.2-0.6c0.9-0.9,1.8-1.8,2.7-2.7c0.4-0.4,0.6-0.2,0.8,0.1
	c0.9,1.4,1.5,2.9,1.8,4.6C825.7,301.3,825.5,301.4,825,301.4"/>
<path fill="#81BDCB" d="M91.7,159c-0.8,15.6,1.9,48.6,2.1,50.5c0.2,2.7,0.3,5.4,0.4,8.1c0,0.4-0.2,0.8-0.4,1.2
	c-1.1,1.4-1.9,2.9-2.8,4.4c-0.5,0.8-1.1,1.3-2.2,1.3c-2.8,0.2-4.9,2.1-5.5,4.9c-0.2,1-0.2,2-0.2,3c0,2.2,0,2.3-2.3,2.3
	c-1.4,0-1.5,0.1-1.5,1.6c0,2.8,0,5.6,0,8.4c0,2-0.1,2.1-2.1,2.1c-1.2,0-2.4,0-3.5,0c-1.9,0-2-0.1-2-2c0-3.8,0-7.6,0-11.3
	c0-0.3,0-0.7,0-1c0-0.5-0.3-0.8-0.8-0.8c-0.6,0-0.8,0.3-0.8,0.8c0,0.3,0,0.6,0,0.9c0,3,0,6,0,9.1c0,0.3,0,0.7,0,1
	c0,0.3,0,0.6-0.2,0.8c0,0.1,0,0.1,0,0.2c0,0-0.1-0.1-0.1-0.1c0,0,0,0-0.1,0c-0.3,0.1-0.5-0.2-0.8-0.5c-0.2-0.3-0.5-0.5-0.6-0.8
	c-1-1.8-2.6-2.3-4.6-2.1c-4.2,0.4-8.4,0.4-12.6,0.6c-5.4,0.2-10.9,0.5-16.3,0.7c-1.2,0-2.1,0.5-2.8,1.4c-0.8,1-1.5,2.1-2.3,3.1
	c-0.9,1.2-1.3,1.2-1.9-0.2c-0.7-1.5-1.6-2.7-3-3.7c-2-1.6-4.1-3.1-6.3-4.4c-0.2-0.1-0.5-0.4-0.9-0.3c0.3,1.2,0.7,2.4,1,3.6
	c0.2,0.9,0.7,1.6,1.6,2c1.3,0.7,2.7,1.4,4,2.2c0.5,0.3,1,0.7,0.8,1.3c-0.1,0.7-0.8,0.6-1.3,0.6c-1.3,0-2.6,0-4,0
	c-3.2,0-5.3,1.9-5.6,5.1c-0.5,5.1-1,10.2-1.4,15.3c-0.1,1.6-0.2,3.1,0.8,4.5c1.2,1.6,2.8,2.4,4.8,2.4c18.2,0,36.4,0,54.6,0
	c0.5,0,0.9,0,1.4,0c0.7,0,1,0.3,1.3,1c0.5,1,0.8,2.2,1.9,2.7c0.4,0.2,0.5,0.5,0.4,0.9c-0.1,0.4-0.3,0.5-0.6,0.6
	c-0.4,0.1-0.8,0.1-1.1,0.1c-2.5,0-4.9,0-7.4,0c-1.2,0-2.4,0-3.5,0c-0.7,0-1.1,0.5-0.8,1.1c0.2,0.4,0.6,0.4,0.9,0.4
	c1.4-0.1,2.3,0.8,3.2,1.7c0.5,0.5,0.3,0.8-0.4,1c-0.4,0.1-0.9,0-1.4,0c-11.5,0-40.3,0-51.8,0c-0.9,0-1.7,0-2.6,0.4
	c-3,1.2-6.1,2.3-9.2,3.4c-0.9,0.3-1.3,0.8-1.3,1.8c-0.1,2.2,0.3,4.4,0.2,6.7c0,5.1,0,10.2,0,15.3c0,0.8,0.1,1.4,1.2,1.4
	c0.8,0,1.1,0.5,1.1,1.2c0,1.2,0,2.5,0,3.7c0,0.9-0.4,1.3-1.3,1.3c-0.9,0-1.7-0.1-2.6,0c-0.9,0.1-1.2,0.7-0.9,1.6
	c0.1,0.2,0.3,0.4,0.4,0.6c0,0.1,0,0.1,0,0.2l15.2,0c0.8-0.3,1-0.9,0.9-1.7c-0.2-0.8-0.8-1.1-1.5-1.1c-0.7,0-1.5,0-2.2,0
	c-0.5,0-0.8-0.1-0.7-0.7c0-1.4,0-2.7,0-4.1c0-0.6,0.2-0.8,0.7-0.7c0.9,0.2,1-0.3,1-1.1c0-3,0.1-6,0.1-8.9c0-0.6,0.2-0.9,0.8-1.2
	c1.4-0.7,2.7-1.5,4-2.2c0.5-0.3,0.8-0.6,0.9-1.1c2.4-7,7.2-11.4,14.6-12.2c7.7-0.9,13.5,2.3,17.5,9c0.3,0.5,0.6,0.7,1.1,0.7
	c2,0,21.3,0.1,23.3,0c1,0,1.1,0.3,1.1,1.2c0,4,0,7.9,0,11.9c0,2.1,0,2,2.1,1.8c0.4,0,0.6-0.1,0.6-0.5c-0.1-0.7,0.4-0.7,0.9-0.7
	c3.9,0,7.8,0,11.7,0c4.6,0,9.2,0,13.8,0c0.3,0,1-0.2,0.9,0.3c0,1.2,0.7,0.9,1.4,0.9c1.1,0.2,1.3-0.3,1.3-1.4c-0.1-4.3,0-8.5,0-12.8
	c0-0.6,0.1-0.9,0.8-0.9c1.7,0.1,20.8,0,22.4,0.1c0.6,0,0.9-0.2,1.2-0.7c3.9-6.6,9.8-9.8,17.4-8.9c7.4,0.9,12.2,5.3,14.6,12.3
	c0.2,0.5,0.4,0.8,0.8,1c1.4,0.7,2.8,1.5,4.2,2.3c0.5,0.3,0.7,0.6,0.7,1.1c0,3,0.1,6.1,0.1,9.1c0,0.7,0.2,1,0.9,0.9
	c0.7-0.1,0.9,0.2,0.9,0.9c0,1.3,0,2.6,0,3.9c0,0.5-0.2,0.7-0.7,0.7c-0.7,0-1.4,0-2.1,0c-0.8,0-1.4,0.3-1.6,1.1
	c-0.2,0.8,0.1,1.4,1,1.7c5,0,10,0,15,0c0-0.1,0-0.1,0.1-0.2c0.3-0.5,0.8-0.9,0.5-1.6c-0.4-0.7-1-0.6-1.7-0.6c-0.7,0-1.4,0-2.1,0
	c-0.8,0-1.2-0.4-1.2-1.2c0-1.2,0-2.5,0-3.7c0-0.8,0.3-1.3,1.2-1.3c0.9,0,1.1-0.4,1.1-1.2c0.1-7.4-0.2-14.7,0.2-22
	c0.1-1-0.3-1.5-1.3-1.9c-2.7-1-5.5-2-8.2-3.1c-1.3-0.5-2.6-0.7-4.1-0.7c-10.8,0-21.6,0-32.5,0c-0.4,0-0.8,0-1.2,0
	c-0.4,0-18.3,0.1-18.5-0.4c-0.2-0.4,0.4-0.7,0.7-0.9c0.8-0.5,1.5-1.1,2.4-1.4c0.5-0.1,0.7-0.4,0.6-0.9c-0.1-0.5-0.5-0.5-0.9-0.5
	c-0.3,0-0.6,0-0.9,0c-3.3,0-6.6,0-9.9,0c-0.4,0-0.8,0-1.2-0.1c-0.6-0.2-0.9-1-0.4-1.2c0.9-0.4,1.2-1.1,1.8-1.8
	c0.4-0.5,1-0.7,1.2-1.4c0.1-0.3,0.4-0.4,0.8-0.5c0.4-0.1,0.9-0.1,1.4-0.1c22.9,0,45.9,0,68.8,0c0.8,0,1.5,0,2.3,0.2
	c0.9,0.2,1.1,0.1,1.2-0.9c0-0.3,0-0.7,0-1c0-5.8,0-11.5,0-17.3c0-0.6,0-1.2,0.2-1.8c0.6-1.6,0.3-2-1.3-2c-2.8,0-5.6,0-8.4,0
	c-0.3,0-0.5,0-0.7-0.1c-0.4,0.1-0.5,0.4-0.5,0.9c0,0.7,0.2,1,0.9,0.9c2.4,0,4.8,0,7.2,0c0.4,0,0.8-0.2,1.1,0.2c0,3.1,0,6.2,0,9.3
	c0,0.7-0.3,0.8-0.9,0.8c-2.8,0-5.7,0-8.5,0c-0.9,0-1.1-0.3-0.9-1.1c0.7-0.2,0.9-0.6,0.9-1.3c-0.1-2.2-0.1-4.3,0-6.5
	c0-0.7-0.2-1.2-0.9-1.3c-0.2,0-0.5-0.2-0.7-0.1c-2.5,0.4-5,0.1-7.6,0.1c-11.2,0.1-22.4,0-33.6,0c-0.8,0-1.5,0-2.3,0
	c-0.7,0.4-1.5,0.2-2.2,0.1c-0.7,0-0.9,0.3-0.9,1c0,1.7,0,3.5,0,5.2c0,0.5,0.2,1.1-0.2,1.6c-0.6,0-1.2,0-1.7,0.1
	c-0.6,0-0.6-0.3-0.5-0.7c0.1-0.3,0.2-0.6,0.3-0.9c0.3-0.7,0.2-1.2-0.3-1.7c-1.3-1.4-2.5-2.8-3.8-4.3h0c-0.3-0.7,0.3-0.4,0.5-0.4
	c1.4,0,2.8,0,4.3,0c0.6,0,1.3,0.2,1.3-0.9c0-0.6-0.2-0.8-0.5-0.9c-0.1,0-0.3,0.1-0.4,0.1c-2.4,0-4.8,0.1-7.2-0.1
	c-1.2-0.8-2.4-1.7-2.5-3.4c-0.2-3.5-0.4-7.1-0.5-10.6c-0.1-1.9,0-3.9-0.2-5.8c-0.1-1-0.3-2,0.5-2.8c0.1-0.1,0.1-0.4,0.2-0.6
	c0-1.3,0-2.6,0-4c0-0.5-0.2-0.8-0.7-0.9c-0.9-0.1-1.1-0.6-1.2-1.4c-0.3-3,0.5-6.2,0.4-9.3c0,0-3.6-44.8,0.3-71.9
	c0.7-4.7,1.4-9.4,2.1-14.1c0.3-1.8,0.8-3.7,0.3-5.6c-1.1-3.9-0.4-7.8-0.3-11.7c0-0.9,0.1-1.8,0-2.7c-0.1-0.4-0.3-0.8-0.8-0.8
	c-0.5,0-0.7,0.3-0.8,0.8c-0.2,0.5-0.2,1.1-0.4,1.6c-0.1,0.2-0.1,0.5-0.4,0.6c-0.3,0-0.5-0.3-0.6-0.5c-0.3-0.9-0.4-1.8-0.3-2.8
	c1.1-5.9,2.1-11.8,3.2-17.7c0.8-4.5,1.6-8.9,2.4-13.4c0.1-0.5,0.1-1.2,0.7-1.3c1-0.2,1.1-0.9,1.3-1.6c0.1-0.8,0.3-1.6,0.4-2.5
	c0.1-0.6-0.1-1-0.7-1.1c-1-0.1-1.1-0.8-1-1.6c0.8-4.8,1.5-9.6,2.3-14.4c0.3-1.5,0.9-1.9,2.4-1.8c6.2,0.7,12.3,1.4,18.5,2.2
	c7.2,0.8,14.3,1.7,21.5,2.5c7.8,0.8,15.6,2.2,23.4,3.4c7.5,1.1,19.4,2.4,24.8,3.3c4.5,0.7,9,1.4,13.5,1.8c3.9,0.3,7.8,0.9,11.6,1.9
	c2.4,0.6,4.7,1.5,6.6,3.1c5.2,4.3,10.2,8.8,15.1,13.3c1.3,1.2,2.5,2.6,4.1,3.6c0.6,0.3,0.8,0.7,0.8,1.3c0,1.3,0,16.6,0,17.9
	c0,0.6-0.1,1.2-0.8,1.4c-0.4,0.1-0.4,0.5-0.4,0.9c0,0.4,0,0.8,0,1.2c0,0.7-0.3,1.1-1,1.2c-0.3,0-0.6,0.1-0.8,0.4
	c-0.3,0.7,0,2.7,0.5,3.3c0.7,0.7,0.5,1.7-0.5,1.8c-0.9,0.1-1,0.6-1,1.4c0,0.9,0,1.9-0.3,2.8c-1.4,3.9-2.9,7.8-4.3,11.7
	c-0.3,0.8-0.8,1.1-1.6,1c-0.6,0-1.1-0.2-1.6-0.5c-3.7-2.3-7.4-2.2-11.2-0.2c-3.2,1.7-5,4.4-5.2,8c-0.3,3.9,0.5,7.6,2.1,11.2
	c0.1,0.2,0.1,0.5,0.5,0.6c0.2-0.3,0.1-0.5,0-0.8c-0.3-2.8-0.5-5.6,0-8.4c0.5-2.9,1.4-5.6,4.3-7.1c2.6-1.3,5.2-1,7.8,0.1
	c2.4,1,4.5,2.6,6.4,4.4c0.7,0.6,1.3,0.9,2.2,0.9c3.6,0,7.3,0,10.9,0c0.9,0,1.5-0.3,2.1-0.9c2.1-2.1,4.5-3.9,7.4-4.9
	c5.2-1.8,9.7,0.8,10.9,6.2c0.6,2.6,0.6,5.2,0.4,7.9c-0.1,0.8-0.3,1.7-0.2,2.7c0.5-0.4,0.5-0.8,0.7-1.1c0.7-1.9,1.3-3.9,1.7-5.9
	c0.1-0.4,0-0.9,0.6-1v-4.4c-0.1-0.2-0.1-0.3-0.2-0.5c-1-5.5-6.6-9.6-12.2-8.8c-1.7,0.2-3.3,0.8-4.7,1.8c-1.3,0.9-2,0.6-2.5-0.8
	c-1.1-3-2.2-6.1-3.3-9.1c-0.6-1.7-1.3-3.3-1.1-5.1c0.1-1.4,0-1.4-1.4-1.5c-0.3,0-0.8,0.2-0.8-0.3c0-0.4-0.4-1.1,0.5-1.2
	c0.4-0.1,0.3-0.4,0.3-0.7c0-0.9,0-1.8,0-2.7c0-0.3,0.1-0.7-0.4-0.7c-0.8,0.1-0.7-0.4-0.7-0.9c0-0.6,0-1.2,0-1.9c0-0.2,0-0.6-0.3-0.6
	c-0.9,0-0.7-0.6-0.7-1.1c0-1,0-15.9,0-16.9c0-1.5,0.4-3.2,0-4.6c-0.5-1.4-1.8-2.5-2.7-3.8c-2.3-3.3-4.6-6.5-6.1-10.2
	c-0.7-1.7-1.2-3.5-2.2-5.1c-3.2-5-7.7-8.4-13.2-10.4c-4.3-1.6-8.8-1.5-13.3-1.5c-2.7,0-5.4,0.3-8.1-0.3c-9.6-2.2-45.1-8.4-56-10.7
	c-8.6-1.8-17.2-3.8-25.7-6.2c-3.2-0.9-6.3-2.4-9.4-3.6c-2.4-0.9-4.9-1.3-7.4-1.7c0,0-0.1,0-0.1,0c-0.2,0-0.4,0.1-0.6-0.1h-5.6
	c-0.1,0.6-0.7,0.5-1.1,0.6c-1.2,0.2-2.4,0.4-3.6,0.7c-4.6,1.4-8.5,3.8-11.2,7.8c-0.8,1.2-1.5,2.6-2.1,3.9c-0.5,1.1-0.5,2.2,0.2,3.3
	c0.5,0.7,0.6,1.4,0.4,2.2c-1,5.3-1.5,10.6-2,15.9c-0.3,3.6-0.7,7.2-0.9,10.8c-0.2,3-0.5,6.1-0.7,9.1c-0.2,3.8-0.5,7.6-0.7,11.4
	c-0.4,5.7-0.6,11.3-1,17c-0.3,4.5-0.4,8.9-0.6,13.4c-0.3,5.6-0.4,11.2-0.6,16.8L91.7,159z M262.4,135.8c0,0.2,0.1,0.6-0.2,0.7
	c-0.8,0.2-1.7,0.7-2.5,0.5c-1.2-0.3-2.6-2.2-2.1-3.6c0.2-0.5,0.4-1,0.6-1.6c1.3-3.6,2.6-7.1,3.9-10.7l0.2,0
	C262.4,126.1,262.4,131,262.4,135.8 M173.1,266.4c0-0.6,0.2-0.8,0.8-0.8c1.5,0,2.9,0,4.4,0c1.5,0,3,0,4.5,0c0.5,0,0.7,0.2,0.7,0.7
	c0,1.7,0,3.4,0,5.1c0,0.5-0.2,0.7-0.7,0.7c-2.9,0-5.9,0-8.8,0c-0.6,0-0.8-0.2-0.8-0.8C173.2,269.7,173.2,268,173.1,266.4 M166.1,264
	c0,0.7-0.5,0.5-0.9,0.5c-2.6,0-5.3,0-7.9,0c-2.6,0-5.2,0-7.8,0c-0.4,0-1,0.2-0.9-0.6c0-0.7,0.5-0.5,0.9-0.5c5.2,0,10.5,0,15.7,0
	C165.6,263.5,166.2,263.3,166.1,264 M169.4,271.4c0-0.8,0-1.7,0-2.5c0-0.5,0-1,0-1.6c0.1-2-0.4-1.7,1.8-1.7c0.7,0,0.8,0.2,0.8,0.8
	c0,1.3,0,2.6,0,4c0,1.8,0,1.8-1.9,1.8C169.6,272.1,169.4,271.9,169.4,271.4 M169.4,264c0-0.7,0.5-0.5,0.9-0.5c0.4,0,0.8,0,1.2,0
	c0.4,0,0.5,0.2,0.5,0.5c0,1.1-0.8,0.4-1.1,0.6c-0.3,0-0.4,0-0.6,0C169.9,264.5,169.4,264.7,169.4,264 M167.2,269.8
	c0-0.5,0-1.1,0-1.7c0-0.6,0-1.2,0-1.9c0-0.5,0.1-0.7,0.6-0.7c0.5,0,0.8,0.1,0.8,0.7c0,1.2,0,2.3,0,3.5c0,0.5-0.2,0.7-0.7,0.7
	C167.3,270.5,167.2,270.3,167.2,269.8 M167.2,264.1c0-0.5,0.2-0.7,0.6-0.6c0.4,0,0.8,0,0.8,0.5c0,0.6-0.3,0.6-0.7,0.6
	C167.5,264.6,167.2,264.6,167.2,264.1 M148.6,266.5c0-0.8,0.3-0.9,1-0.9c2.6,0,5.2,0,7.8,0c2.6,0,5.2,0,7.8,0c0.9,0,1.1,0.3,1,1.1
	c-0.1,0.9-0.1,1.9,0,2.8c0,0.7-0.1,1.1-1,1c-0.6-0.1-1,0.2-0.9,0.9c0.1,0.7-0.3,0.8-0.8,0.8c-4.1,0-8.2,0-12.4,0
	c-0.6,0-1-0.1-0.9-0.8c0.1-0.7-0.2-1-0.9-0.9c-0.7,0.1-0.8-0.2-0.8-0.8C148.6,268.6,148.6,267.5,148.6,266.5 M129.2,264
	c0,0.7-0.5,0.5-0.9,0.5c-0.4,0-0.9,0.2-0.9-0.6c0-0.7,0.5-0.5,0.9-0.5C128.7,263.5,129.3,263.3,129.2,264 M147.4,264
	c0,0.7-0.5,0.5-0.9,0.5c-2.5,0-5.1,0-7.6,0c-2.6,0-5.3,0-7.9,0c-0.4,0-0.8,0.1-0.8-0.5c0-0.7,0.4-0.6,0.8-0.6c5.2,0,10.3,0,15.5,0
	C147,263.5,147.4,263.3,147.4,264 M130.3,266.4c0-0.7,0.2-0.9,0.9-0.9c2.5,0,5.1,0,7.6,0c2.6,0,5.2,0,7.8,0c0.7,0,0.9,0.2,0.9,0.9
	c-0.1,1.1,0,2.2,0,3.3c0,0.5-0.1,0.7-0.6,0.7c-0.7-0.1-0.9,0.3-0.8,0.9c0.1,0.6-0.1,0.8-0.7,0.8c-4.1,0-8.2,0-12.4,0
	c-0.5,0-0.9-0.1-0.8-0.7c0.1-0.8-0.2-1.1-1-1c-0.6,0.1-0.8-0.2-0.8-0.8C130.3,268.6,130.4,267.5,130.3,266.4 M127.4,266.3
	c0-0.8,0.4-0.7,0.9-0.7c0.6,0,0.9,0.1,0.9,0.8c0,1.1,0,2.3,0,3.4c0,0.5-0.2,0.8-0.7,0.7c-0.5-0.1-0.7,0.2-0.7,0.7
	c0,0.3,0.1,0.5-0.4,1C127.5,270.1,127.5,268.2,127.4,266.3 M125.7,264.5c-1,0.5-3.1-0.1-3.8-1.2c1.2,0,2.3,0,3.4,0
	c0.4,0,0.6,0.1,0.6,0.5C125.9,264.1,126.1,264.4,125.7,264.5 M121,267.7c0.7,0,1.2-0.1,1.8-0.1c1.4-0.1,1.7-0.4,1.3-2
	c0.5,0,0.8,0,1.2,0c0.5,0,0.7,0.1,0.7,0.6c0,1.8,0,3.5,0,5.3c0,0.4-0.1,0.6-0.5,0.6c-0.6,0-1.3,0-1.9,0c1-0.8,0.4-1.3-0.1-1.8
	C122.6,269.5,121.9,268.6,121,267.7 M116.3,268.3c0-0.5,0.3-0.6,0.6-0.3c1.2,1.3,2.4,2.6,3.8,4.1c-1.5,0-2.7,0-4,0
	c-0.3,0-0.5-0.1-0.5-0.5C116.3,270.5,116.3,269.4,116.3,268.3 M115.8,254.5c2.4,2.6,4.6,5.1,6.9,7.8c-1.2,0.2-2.1,0.1-2.8-0.9
	c-0.9-1.2-2-2.4-3.1-3.3C115.7,257.1,115.8,255.9,115.8,254.5 M109.8,282.1c1.7,0,3.4,0,5.1,0c-0.7,0.8-1.1,1.8-2.1,2
	c-1,0.2-2,0-3,0c-0.7,0-0.6-0.5-0.5-0.9C109.4,282.8,108.9,282.1,109.8,282.1 M76.7,283.1c0,0.4,0.2,0.9-0.6,1
	c-1.9,0.2-3.3-0.5-4.6-2.1c1.6,0,3.1,0,4.6,0C77,282,76.6,282.7,76.7,283.1 M35.8,265.8c0-0.9,0.5-0.7,1-0.7c9.2,0,18.4,0,27.7,0
	c0.5,0,0.9,0,0.9,0.7c0,0.8-0.4,0.8-1,0.8c-4.6,0-9.2,0-13.8,0c-4.6,0-9.2,0-13.8,0C36.3,266.5,35.8,266.6,35.8,265.8 M65.4,263
	c0,0.8-0.6,0.5-1,0.5c-4.6,0-9.2,0-13.8,0c-4.6,0-9.3,0-13.9,0c-0.3,0-0.7,0.2-0.8-0.2c-0.1-0.2-0.1-0.5,0-0.7
	c0.2-0.4,0.6-0.2,1-0.2c9.2,0,18.4,0,27.6,0C64.9,262.3,65.5,262.1,65.4,263 M64.5,260.8c-4.6,0-9.2,0-13.7,0c-4.7,0-9.4,0-14,0
	c-0.3,0-0.7,0.2-0.8-0.3c-0.1-0.2-0.1-0.5,0-0.7c0.2-0.4,0.6-0.2,1-0.2c9.2,0,18.4,0,27.6,0c0.5,0,1-0.2,1,0.6
	C65.4,261.1,64.8,260.8,64.5,260.8 M35.8,257.5c0-0.7,0.5-0.6,0.9-0.6c9.3,0,18.5,0,27.8,0c0.4,0,0.9-0.1,0.9,0.6
	c0,0.8-0.5,0.6-0.9,0.6c-4.6,0-9.2,0-13.8,0c-4.6,0-9.3,0-13.9,0C36.3,258.1,35.8,258.2,35.8,257.5 M65.5,254.6c0,0.9-0.5,0.7-1,0.7
	c-9.2,0-18.4,0-27.6,0c-0.5,0-1,0.2-1-0.7c0-0.9,0.6-0.8,1.1-0.8c4.6,0,9.1,0,13.7,0c4.6,0,9.1,0,13.7,0
	C64.9,253.9,65.5,253.7,65.5,254.6 M110.4,265.6c0.9,0,1.2,0.2,1.2,1.1c-0.1,1.4,0,1.4,1.3,1.3c2-0.1,2-0.1,2,1.9c0,0.6,0,1.1,0,1.7
	c0,0.4-0.2,0.5-0.6,0.5c-0.4,0-0.5-0.2-0.4-0.5c0-0.2,0-0.5,0-0.7c-0.1-1.6-1.1-2.6-2.7-2.7c-0.6,0-1.1,0-1.7,0
	c-0.3,0-0.5,0-0.6-0.4C108.4,266.3,108.9,265.6,110.4,265.6 M111.4,264.3c-0.5,0.5-1.2,0.1-1.9,0.2c-0.1,0-0.1,0-0.2,0
	c-0.4,0-0.5-0.1-0.5-0.5c0-1.5,0-2.9,0-4.7c0.8,0.9,1.4,1.5,2,2.1C111.3,262,111.7,264,111.4,264.3 M111.1,256.6
	c-0.7-0.7-1.3-1.3-1.9-2.2C111.4,254.3,111.4,254.4,111.1,256.6 M105.2,275.1c-0.6,0-0.8-0.2-0.8-0.9c0-1.9-0.1-3.8-0.2-5.7
	c0-0.3,0-0.5,0.2-0.8c0.8-0.8,1.5-1.7,2.2-2.6c0.1,0.1,0.3,0.2,0.4,0.3v7.9C107,275.1,107,275.1,105.2,275.1 M79.3,305.8
	c-0.1-0.9,0.3-1,1-1c5.9,0,11.8,0,17.7,0c2.6,0,5.2,0,7.8,0c0.7,0,1,0.1,0.9,0.9c-0.1,0.8,0,1.7,0,2.5c0,0.7-0.3,0.9-1,0.9
	c-4.3,0-8.5,0-12.8,0c-3.5,0-6.9,0-10.4,0c-1,0-2.4,0.3-3-0.2C78.8,308.3,79.4,306.8,79.3,305.8 M106.7,295c0,0.8-0.2,1.1-1,1
	c-4.2,0-8.5,0-12.7,0c-4.3,0-8.5,0-12.8,0c-0.7,0-0.9-0.2-0.9-0.9c0.1-1.2,0.1-2.5,0-3.7c0-0.7,0.2-1,0.9-1c8.5,0,17.1,0,25.6,0
	c0.7,0,0.9,0.2,0.9,0.9C106.7,292.5,106.6,293.8,106.7,295 M106.7,302.5c0,0.9-0.3,1-1.1,1c-4.2,0-8.5,0-12.7,0c-4.3,0-8.5,0-12.8,0
	c-0.7,0-0.9-0.2-0.9-0.9c0.1-1.5,0-3,0-4.5c0-0.6,0.1-0.8,0.7-0.8c8.6,0,17.3,0,25.9,0c0.7,0,0.8,0.3,0.8,0.9
	C106.7,299.7,106.6,301.1,106.7,302.5 M82.7,245.8c0,0.9-0.6,0.7-1,0.7c-0.5,0-1.1,0.2-1-0.7c0-1.5,0-2.9,0-4.4c0-1.5,0-2.9,0-4.4
	c0-0.9,0.7-0.6,1.1-0.6c0.4,0,1-0.2,1,0.6C82.7,239.9,82.6,242.8,82.7,245.8 M102.1,254.6c0,2.5,0,4.9,0,7.4c0,0.5-0.2,0.7-0.7,0.7
	c-2.2,0-4.4,0-6.5,0c-0.6,0-0.7-0.3-0.7-0.8c0-1.2,0-2.4,0-3.6c0-1.2,0-2.4,0-3.6c0-0.5,0.1-0.7,0.7-0.7c2.2,0,4.4,0,6.5,0
	C101.9,253.9,102.1,254,102.1,254.6 M105.7,284.1c0.8,0,1.1,0.2,1,1c-0.1,1-0.1,1.9,0,2.9c0.1,0.8-0.2,1.1-1,1c-4.2,0-8.5,0-12.7,0
	c-4.3,0-8.5,0-12.8,0c-0.7,0-1-0.2-0.9-0.9c0.1-1,0.1-2.1,0-3.1c-0.1-0.8,0.3-1,1-1c3.2,0,6.4,0,9.6,0
	C95.1,284.1,100.4,284.1,105.7,284.1 M104,254.1c1,1.1,1.8,2,2.7,2.9c0.2,0.2,0.3,0.5,0.3,0.8c0,2.1,0,4.2,0,6.5
	c-0.2-0.3-0.3-0.4-0.4-0.5c-0.4-0.7-0.7-1.4-1.1-2c-0.4-0.5-0.3-1.6-1.4-1.3c0,0-0.1-0.1-0.1-0.2C104,258.3,104,256.3,104,254.1
	 M104.7,247.5c0.4-1.5,0.4-3,0.6-4.8c1.6,1.7,2.8,3.4,4.4,4.8c1.3,1.2,1.3,2.6,1.3,4.2c0,0.2,0,0.5-0.3,0.5
	c-1.2,0.1-2.8,0.4-3.6-0.2C105.8,251,104,249.9,104.7,247.5 M110.6,216.5c0.1,2.4,0.2,4.6,0.3,6.8c0,0.7-0.1,1-0.9,0.9
	c-0.4-0.1-0.9-0.2-0.9,0.6c0,1.7,0,3.4,0,5.1c0,0.2,0,0.6,0.3,0.5c0.9-0.1,0.7,0.6,0.8,1.1c0.2,4.2,0.4,8.4,0.5,12.9
	c-1.6-1.8-3-3.4-4.4-5c-0.4-0.4-0.5-0.8-0.4-1.4c0.7-5.7,1.4-11.4,1.9-17.1C108,218.9,109.3,217.8,110.6,216.5 M118.6,52.3
	c-0.8,4.6-1.5,9.1-2.3,13.7c-0.3,2-0.3,2-2.3,1.7c-0.4-0.1-0.7,0-0.8,0.5c-0.2,1.4-0.4,2.9-0.7,4.3c0,0.3-0.2,0.6,0.2,0.7
	c1.2,0,0.8,0.8,0.7,1.4c-0.1,0.5-0.2,1-0.2,1.4c-1.1,5.9-2.1,11.8-3.2,18c-0.1-0.6-0.2-0.9-0.3-1.2c-0.3-2.6-0.6-5.2-0.8-7.9
	c-0.6-7.1-1-14.2-1.3-21.4c-0.2-4.3-0.4-8.6-0.6-13c0-0.8,0.1-1,0.9-0.9c3.1,0.4,6.3,0.7,9.4,1.1C118.3,51,118.8,51.5,118.6,52.3
	 M270.6,136.3c-0.7,0.9-1.5,0.9-2.5,0.5c-0.1-0.1-0.3-0.1-0.4-0.1c-0.9,0.1-1.1-0.4-1.1-1.3c0-4.8,0-9.5,0-14.3
	c0-0.3-0.1-0.6,0.2-1.1c1.6,4.4,3.2,8.7,4.7,13C271.9,134.3,271.4,135.3,270.6,136.3"/>
<path fill="#81BDCB" d="M165.6,227.6c-0.1,0-0.1-0.1-0.2-0.1c0.1,0,0.1,0,0.2,0c0.2-0.5,0.9-0.3,1.3-0.3c0.8,0,1.7,0,2.5,0
	c0.3,0,0.7,0,0.8-0.3c0.2-0.4,0-0.7-0.2-1c-0.7-0.9-1.6-1.3-2.7-1.3c-4.7,0-9.4,0-14.2,0c-8.5,0-17.1,0-25.6,0
	c-1.5,0-1.6,0.1-1.6,1.6c0,8,0,16,0,24c0,0.4,0,0.8,0,1.1c0,0.1,0,0.2,0,0.3c0.1,0.4,0.4,0.6,1.1,0.6c15.3,0,30.6,0,45.9,0
	c0.7,0,1-0.2,1.1-0.5c0-0.2,0-0.4,0-0.6c0-1.1,0-2.3,0-3.4c0-1.9,0.1-3.8-0.1-5.7c-0.3-2.1-0.8-4.2-1.7-6.1
	c-1.3-2.9-3.3-5.3-5.8-7.2C166.1,228.4,165.5,228.1,165.6,227.6 M141,227.9c0,5.4,0,10.9,0,16.3c0,2.7-1.9,4.9-4.5,5.5
	c-1.2,0.3-2.5,0.1-3.7,0.2c-0.7,0.1-0.9-0.2-0.9-0.9c0-3.5,0-6.9,0-10.4c0-3.5,0-7.1,0-10.6c0-0.7,0.2-0.9,0.9-0.9
	c2.5,0,4.9,0,7.4,0C140.8,227.1,141,227.2,141,227.9 M163.6,247.4c0,0.7-0.3,0.7-0.8,0.7c-4.4,0-8.7,0-13.1,0c-0.8,0-0.9-0.3-0.9-1
	c0-3.1,0-6.2,0-9.3c0-3.2,0-6.3,0-9.5c0-0.7,0.2-1,0.9-0.9c1.1,0.1,2.3,0,3.4,0c5.4,0.1,9.9,4.2,10.3,9.6
	C163.8,240.5,163.6,244,163.6,247.4"/>
<path fill="#81BDCB" d="M132.5,304.4c0,9.2,7.4,16.6,16.7,16.6c9.2,0,16.6-7.5,16.6-16.7c0-9.1-7.5-16.5-16.7-16.5
	C139.8,287.7,132.5,295.1,132.5,304.4 M145.4,297.8c-0.4,0.1-0.6,0.1-0.9-0.2c-0.9-0.9-1.8-1.8-2.7-2.7c-0.4-0.4-0.3-0.6,0.1-0.8
	c1-0.6,2-1.2,3-1.5c2.3-0.8,2.3-0.8,2.3,1.6v0.4c0,0.1,0,0.2,0,0.3C147.6,296.4,147.1,297.4,145.4,297.8 M156.3,294.9
	c-1,0.9-1.9,1.9-2.8,2.8c-0.2,0.2-0.3,0.3-0.6,0.2c-2.1-0.7-2.1-0.7-2.1-2.9c0-0.1,0-0.3,0-0.4c0-0.7,0-1.3,0-2
	c0-0.5,0.1-0.6,0.6-0.5c1.7,0.4,3.4,1,4.8,2.1C156.6,294.4,156.7,294.6,156.3,294.9 M159.9,302.9c-0.3,0-0.7,0-1,0
	c-2.3,0-2.3,0-3-1.7c-0.2-0.5-0.2-0.7,0.2-1.1c0.9-0.9,1.8-1.7,2.6-2.6c0.4-0.4,0.6-0.4,0.8,0.1c0.7,1.1,1.3,2.4,1.6,3.7
	C161.6,303.2,161.7,302.8,159.9,302.9 M158.5,311.6c-0.9-1-1.9-1.9-2.9-2.9c-0.2-0.2-0.2-0.4-0.1-0.7c0.8-1.7,0.7-1.7,2.7-1.7
	c0.2,0,0.3,0,0.5,0c0.7,0,1.3,0,2,0c0.4,0,0.6,0.1,0.5,0.6c-0.3,1.7-1,3.2-2,4.6C159.1,311.8,158.9,312,158.5,311.6 M150.8,316.1
	c0-1.3,0-2.6,0-4c0-1,1-0.6,1.5-1c0.3-0.2,0.6-0.4,1,0c1,1.1,2.1,2.1,3.2,3.2c-1.6,1.2-3.3,1.9-5.1,2.3
	C150.9,316.7,150.8,316.6,150.8,316.1 M149,308.1c-2.1,0-3.7-1.6-3.7-3.7c0-2.1,1.6-3.7,3.7-3.7c2.1,0,3.7,1.6,3.7,3.7
	C152.8,306.5,151.2,308.1,149,308.1 M142.2,313.9c0.9-0.9,1.8-1.8,2.7-2.6c0.2-0.2,0.4-0.4,0.8-0.3c1.6,0.4,1.7,0.6,1.7,2.2v0.9
	c0,0.6,0,1.2,0,1.8c0.1,0.7-0.2,0.8-0.8,0.7c-1.5-0.4-3-0.9-4.3-1.8C141.7,314.5,141.8,314.3,142.2,313.9 M137.5,306.3
	c1,0,2.1,0,3.1,0c0.4,0,0.9-0.2,1.2,0.1c0.4,0.6,0.6,1.2,0.9,1.9c0.1,0.2-0.2,0.4-0.3,0.5c-1,1-2,2.1-3,3.1
	c-1.1-1.2-2.2-3.4-2.4-4.9C136.8,306.6,136.9,306.3,137.5,306.3 M136.7,302.3c0.4-1.9,1-3.7,2.3-5.4c0.7,0.8,1.4,1.5,2.1,2.2
	c1.4,1.4,1.4,1.4,0.7,3.2c-0.1,0.3-0.3,0.5-0.7,0.5c-1.3,0-2.6,0-4,0C136.9,302.9,136.7,302.8,136.7,302.3"/>
<path fill="#81BDCB" d="M19.2,304c-0.1,9.4,7.3,16.9,16.6,16.9c9.3,0,16.7-7.3,16.7-16.7c0-9.2-7.4-16.6-16.6-16.6
	C26.8,287.7,19.3,295.1,19.2,304 M34.1,294.8c0,2.2,0,2.2-2,3c-0.3,0.1-0.5,0.2-0.7-0.1c-0.9-1-1.9-1.9-2.9-2.9
	c-0.2-0.2-0.3-0.4,0-0.6c1.5-1.1,3.3-1.8,5-2.1c0.5-0.1,0.5,0.2,0.5,0.5C34.1,293.3,34.1,294.1,34.1,294.8 M43.1,294.9
	c-1,0.9-1.9,1.8-2.8,2.8c-0.3,0.3-0.5,0.2-0.9,0.1c-1.5-0.4-2.2-1.3-1.8-2.9c0-0.1,0-0.2,0-0.3c0-0.7,0-1.3,0-2
	c0-0.5,0.2-0.6,0.7-0.5c1.7,0.4,3.3,1,4.7,2C43.3,294.4,43.5,294.5,43.1,294.9 M46.3,302.9h-0.6c-0.5,0-0.9-0.1-1.4,0
	c-0.8,0.1-1.3-0.2-1.4-1c0-0.2-0.1-0.5-0.3-0.7c-0.3-0.4-0.2-0.7,0.2-1.1c0.9-0.9,1.8-1.7,2.6-2.6c0.4-0.5,0.6-0.3,0.9,0.1
	c0.6,1,1.1,2.1,1.5,3.2C48.4,302.9,48.4,302.9,46.3,302.9 M42.5,308.8c-0.2-0.2-0.3-0.3-0.2-0.6c0.4-1.5,0.8-1.9,2.4-1.9
	c0.3,0,0.6,0,0.8,0c0.6,0,1.3,0,1.9,0c0.6,0,0.8,0.2,0.7,0.8c-0.4,1.6-1,3.1-2,4.4c-0.2,0.4-0.4,0.5-0.8,0.1
	C44.4,310.7,43.4,309.7,42.5,308.8 M37.6,312.2c0-1,0.9-0.7,1.3-1c0.3-0.2,0.7-0.5,1.1,0c1,1.1,2.1,2.1,3.2,3.2
	c-1.6,1.2-3.2,1.9-5.1,2.2c-0.5,0.1-0.6-0.1-0.6-0.5C37.6,314.8,37.6,313.5,37.6,312.2 M32.1,304.3c0-2.1,1.6-3.7,3.7-3.7
	c2.1,0,3.7,1.6,3.7,3.7c0,2.1-1.6,3.8-3.8,3.7C33.7,308,32.1,306.4,32.1,304.3 M28.9,314c0.9-0.9,1.9-1.9,2.8-2.8
	c0.2-0.2,0.4-0.3,0.7-0.2c1.7,0.5,1.8,0.5,1.8,2.3c0,0.3,0,0.6,0,0.8c0,0.7,0,1.3,0,2c0,0.4,0,0.6-0.6,0.5c-1.7-0.3-3.2-1-4.7-1.9
	C28.5,314.5,28.6,314.3,28.9,314 M24.5,306.3c0.5,0.1,1,0,1.6,0c0.3,0,0.6,0,0.9,0c1.1-0.2,1.8,0.1,2.1,1.3c0.2,0.7,0.3,1.1-0.3,1.6
	c-0.8,0.7-1.6,1.5-2.3,2.3c-0.5,0.5-0.7,0.4-1.1-0.1c-0.8-1.2-1.4-2.6-1.8-4C23.5,306.7,23.5,306.2,24.5,306.3 M23.5,302.2
	c0.3-1.7,0.9-3.2,1.9-4.7c0.2-0.4,0.4-0.6,0.8-0.1c0.9,1,1.9,1.9,2.8,2.8c0.2,0.2,0.3,0.3,0.2,0.6c-0.5,1.9-0.7,2-2.6,2
	c-0.2,0-0.4,0-0.6,0c-0.6,0-1.2,0-1.9,0C23.6,302.9,23.4,302.8,23.5,302.2"/>
</svg>
