<?xml version="1.0" encoding="utf-8"?>
<!-- Generator: Adobe Illustrator 18.1.1, SVG Export Plug-In . SVG Version: 6.00 Build 0)  -->
<svg version="1.1" id="Layer_1" xmlns="http://www.w3.org/2000/svg" xmlns:xlink="http://www.w3.org/1999/xlink" x="0px" y="0px"
	 viewBox="31.8 0 188.4 162.1" enable-background="new 31.8 0 188.4 162.1" xml:space="preserve">
<metadata><?xpacket begin="﻿" id="W5M0MpCehiHzreSzNTczkc9d"?>
<x:xmpmeta xmlns:x="adobe:ns:meta/" x:xmptk="Adobe XMP Core 5.6-c014 79.156821, 2014/08/29-03:07:50        ">
   <rdf:RDF xmlns:rdf="http://www.w3.org/1999/02/22-rdf-syntax-ns#">
      <rdf:Description rdf:about=""
            xmlns:dc="http://purl.org/dc/elements/1.1/"
            xmlns:xmp="http://ns.adobe.com/xap/1.0/"
            xmlns:xmpGImg="http://ns.adobe.com/xap/1.0/g/img/"
            xmlns:xmpMM="http://ns.adobe.com/xap/1.0/mm/"
            xmlns:stRef="http://ns.adobe.com/xap/1.0/sType/ResourceRef#"
            xmlns:stEvt="http://ns.adobe.com/xap/1.0/sType/ResourceEvent#"
            xmlns:illustrator="http://ns.adobe.com/illustrator/1.0/"
            xmlns:xmpTPg="http://ns.adobe.com/xap/1.0/t/pg/"
            xmlns:stDim="http://ns.adobe.com/xap/1.0/sType/Dimensions#"
            xmlns:xmpG="http://ns.adobe.com/xap/1.0/g/"
            xmlns:pdf="http://ns.adobe.com/pdf/1.3/">
         <dc:format>image/svg+xml</dc:format>
         <dc:title>
            <rdf:Alt>
               <rdf:li xml:lang="x-default">Print</rdf:li>
            </rdf:Alt>
         </dc:title>
         <xmp:MetadataDate>2015-03-10T21:17:13-05:00</xmp:MetadataDate>
         <xmp:ModifyDate>2015-03-10T21:17:13-05:00</xmp:ModifyDate>
         <xmp:CreateDate>2015-03-10T21:17:13-05:00</xmp:CreateDate>
         <xmp:CreatorTool>Adobe Illustrator CC 2014 (Windows)</xmp:CreatorTool>
         <xmp:Thumbnails>
            <rdf:Alt>
               <rdf:li rdf:parseType="Resource">
                  <xmpGImg:width>256</xmpGImg:width>
                  <xmpGImg:height>220</xmpGImg:height>
                  <xmpGImg:format>JPEG</xmpGImg:format>
                  <xmpGImg:image>/9j/4AAQSkZJRgABAgEASABIAAD/7QAsUGhvdG9zaG9wIDMuMAA4QklNA+0AAAAAABAASAAAAAEA&#xA;AQBIAAAAAQAB/+4ADkFkb2JlAGTAAAAAAf/bAIQABgQEBAUEBgUFBgkGBQYJCwgGBggLDAoKCwoK&#xA;DBAMDAwMDAwQDA4PEA8ODBMTFBQTExwbGxscHx8fHx8fHx8fHwEHBwcNDA0YEBAYGhURFRofHx8f&#xA;Hx8fHx8fHx8fHx8fHx8fHx8fHx8fHx8fHx8fHx8fHx8fHx8fHx8fHx8fHx8f/8AAEQgA3AEAAwER&#xA;AAIRAQMRAf/EAaIAAAAHAQEBAQEAAAAAAAAAAAQFAwIGAQAHCAkKCwEAAgIDAQEBAQEAAAAAAAAA&#xA;AQACAwQFBgcICQoLEAACAQMDAgQCBgcDBAIGAnMBAgMRBAAFIRIxQVEGE2EicYEUMpGhBxWxQiPB&#xA;UtHhMxZi8CRygvElQzRTkqKyY3PCNUQnk6OzNhdUZHTD0uIIJoMJChgZhJRFRqS0VtNVKBry4/PE&#xA;1OT0ZXWFlaW1xdXl9WZ2hpamtsbW5vY3R1dnd4eXp7fH1+f3OEhYaHiImKi4yNjo+Ck5SVlpeYmZ&#xA;qbnJ2en5KjpKWmp6ipqqusra6voRAAICAQIDBQUEBQYECAMDbQEAAhEDBCESMUEFURNhIgZxgZEy&#xA;obHwFMHR4SNCFVJicvEzJDRDghaSUyWiY7LCB3PSNeJEgxdUkwgJChgZJjZFGidkdFU38qOzwygp&#xA;0+PzhJSktMTU5PRldYWVpbXF1eX1RlZmdoaWprbG1ub2R1dnd4eXp7fH1+f3OEhYaHiImKi4yNjo&#xA;+DlJWWl5iZmpucnZ6fkqOkpaanqKmqq6ytrq+v/aAAwDAQACEQMRAD8AFad5i17TafUNQuLdR+wk&#xA;jBPpWvH8M4zHnnD6SQ+m5dJiyfXEH4Mih/ObzpYQEyPb3tKAfWIqHr4xGLM/D2nmujRdXn7B0x3A&#xA;Mfcf12yjSvz1t3ij/SelvGxUc3tnDgmm9EfhT/gsyo9sDlKPydbl9mpc4T+Y/H3Mn0/81fJV5QG9&#xA;a1c/sXEbJ/wwDJ+OZcO0sMute912XsTUw/h4vcfwWR2Or6VfgGxvILoH/fMiP/xEnMuGWMvpILrs&#xA;mDJj+qJj7wi8sanYq7FXYq7FXYq7FXYq7FXYq7FXYq7FXYq7FXYq7FXYq7FXYq7FXYq7FXYq7FXY&#xA;q7FXyfnDvqqF1A1jRB1Zsuw87a8nJFAUFPDKWx2KtglSCDQjcEdQcUJvYeb/ADRYUFrqlzGo6RmR&#xA;nT/gG5L+GXw1WWPKRcTLoMGT6oR+TIrH85PONvtO1veDuZYuJ/5JGMfhmXDtXMOdH8eTr8ns/p5c&#xA;uKPuP67ZDY/npEdr7SWXxeCUN/wrKv8AxLMuHbI/ii6/J7NH+CfzCd6d+c3km8naGSSezZe9xF8J&#xA;r7xGX8czI9pYiLNj3/sdfk7B1EeQEvcf10yWy81eWr6gtdUtZWPRBKgf/gSQ34ZkQ1OOXKQ+bgZN&#xA;Dmh9UJD4JqCCKjcHocvcV2KuxV2KuxV2KuxV2KuxV2KuxV2KuxV2KuxV2KuxV2KuxV2KuxV2Kvk/&#xA;OHfVULc/FdQJ4Hl/n92XQ2iS1y5hFZS2OxV2KuxV2KuxVC2XxSzyeLUH45dl2ADXDmUVlLYi7PVt&#xA;VsTWyvJ7an++ZHj/AOIkZOGWUeRIasmDHP6oiXvCfWX5m+d7SgXU2lUdVmRJK/SylvxzKh2hmj/E&#xA;4GTsbTS/gr3WE+svzv8AMMYAu7K2uAO6c4mPzNXH4Zkw7YyDmAXByezeE/TKQ+1PrL88tHen13Tb&#xA;iAnr6TJMB/wXpZlQ7YgecSPt/U4GT2ayD6ZRPv2/Wn1l+anki6oDfm3c/sTxulP9kAU/HMqHaWGX&#xA;WnBydiamP8N+4j+1kFlrmi31PqV/b3JPQRSo5+4GuZUM0JciC4GTTZIfVGQ94RuWNDsVdirsVdir&#xA;sVdirsVdirsVdirsVdirsVdirsVYDc/kn5Ml/umvLX/jFPyp/wAjVkzAl2bhPR3UO3tSOZB+H6km&#xA;uvyBsGkElrrU8bgUUzQpLQf7ExZTLsqFUC5MPaOd3KIPxr9aWXP5GeZEr9V1Ozm8PVSWL/iPq5jy&#xA;7HPQuZD2kh/FE/j5JPd/lN5/tqlbGG7A6mCdPwEvpnMeXZWQct3Lx9v6eXMkfBJLzyt5qsq/WtFv&#xA;Y1HVxC0iCn+VHyXMeWhyx6Obj7SwT5Tj80qeVI3KSExuOquCpH0NTMc4pDmHLjkieRbVlb7JB+WR&#xA;IZW524ozeAJ+7ECypQ+nrS3r/MSf4ZZmPqY4+SJypm7FXYq7FXYq7FXYqmVj5l8w2FPqepXMCj9h&#xA;JXC/SteJ+7LoajJHlIj4uNk0eGf1QifgyKw/Nzzra0ElxFdqOizxL+uP02/HMqHamaPW/e6/L2Dp&#xA;pcgY+4/rtken/no1Quo6UKd5LeT/AI0cf8bZmQ7Z/nR+Trsvs1/Mn8x+PuZLZ/m/5JnWstxNaH+W&#xA;aFyf+SXqjMuPamE8yR8P1Otydg6mPICXuP66RH/K1fIX/V0/5IXH/VPJ/wApYP532H9TX/Imr/mf&#xA;bH9bv+Vq+Qv+rp/yQuP+qeP8pYP532H9S/yJq/5n2x/Wrw/mT5Flp/uZgiBNA0/KAVPvKEGWQ1uK&#xA;Wwk05ey9RjFygfsP3J/aXtneQLPZzx3MDfZlhdXQ/JlJGZIIPJwZRINFWwodirsVdirsVdirsVdi&#xA;rsVdirsVdirsVUrmztLpOF1BHOn8sqq439mBwGIPNlGco8jSQ335c+Rr2vr6LaqT1MKegd/eLhlM&#xA;tNjPOIcuHaOojymfv+9Ir38kPJdwCIGu7MGvwxTcl39phLmPLs3EelObj7e1EedS+H6qSK6/IMop&#xA;Gn62VUV4xXEAb/h0Zf8AiOY+TsmJ3Bc3H7SSH1Q+RSW8/JfztBUwPZXi70VJHjc/RIgX/hsxZ9kT&#xA;HIubj9osJ5iQSS88g+ebOvr6JcMB3t+FxX5ekzHMafZ2UdHOx9saaX8Q+O33pJdQ3Nm3G9t5rRun&#xA;GeJ4z/wwGY8sE48w5sNRCf0kFSWWJvsuD8iMqMSG2wuwJXwxmWVIwQpdgvImgFTSpJwgWaYyNC0x&#xA;/NjQLzyzqyX+kzx3Xl29NbcqEdYpKVMLOm/um+4+WbrUaTGDYAMXjcHaWoGxJB8/2p95B8seXPOv&#xA;lmeexuJbbzFZqVubJnUwl6VjdfgLiN6U6mh/Fx9nY8kbBIk3S7ezYzUhEh5/Jq0drqMun6nDJYXM&#xA;MphnVxzEbBuJ50o1B/kqfbMGWjo1bsYdtg84/Isu8w+StX0Kzt726kt5rO6IFvPbyeorhl5AioU0&#xA;K71yGo0c8QBlVFzdH2ni1BIhdjvDH8xXYOxV2KrZIo5UKSKHU9Qd8IJHJjKIkKK2w+v6Tc/W9Evp&#xA;9NuR+1C5CtTejLX4h7HbMrFrJxLg5+zceQVT1byL+dN3LcJpnmyBY3O0erwikTf8Zk/Zr/Mu3+SB&#xA;vm4wdpxP1PNavsLJGzjF+X6v1PXUdJEV0YOjgMrKagg7ggjNqDboCCDRbxQ7FXYq7FXYq7FXYq7F&#xA;XYq7FXYq7FXYq7FXYq7FXYq0yqylWAZTsQdwcVtKL7yd5Uvqm70ezlZushhjD/8ABgBvxyqWGB5g&#xA;OTDWZocpy+aQ3n5OeQ7ipitJbNj1a3nlHanRy6/hlE9Bil0czH21qY/xX7wkd5+Q2nNX6jrNzB4e&#xA;vHHP/wAR9HMafZOM8i52P2jyj6og/Z+tJLr8kPNcJJs9Qs7gf5fqwsfuEg/HMc9kSH0ycyPtFikK&#xA;nE/YUstfI35meXrxr/T9OZLll9N7m0khkdlJBKkEhyKgGlMrGk1MDcS2fnez8oqQj8qY35t0zXNU&#xA;vnv/ADFpl1FfMio929s8BYLspPBVjYgbciMryS1HOQv4f2NkNJo5/RKvdL9drBr0z+X7HQmuTNZ6&#xA;e8j2xkYFwJKfBWi/CpB4/PwpmPnzznERI5OZotBDBKUgb4kMCD0zEdk7FXYq7FXYq7FXof5ZfmFJ&#xA;pdzHo+pyltMmIWCVz/cOem5/YY9fDr45tez9cYHgl9P3PP8AbPZQyg5ID1jn5/te250bxTsVdirs&#xA;VdirsVdirsVdirsVdirsVdirsVdirsVdirsVdirsVdirsVdirsVQN9oOh39fr2n211y6maGOQ/8A&#xA;DA5CWOJ5gNsM+SH0yI9xSSf8rvIM5JfRoVrWvpmSLr/xjZcqOkxH+Fyo9qagcplLrn8l/Isv91Bc&#xA;Wv8AxiuJD/ycMmUy7Owno5EO3NSOoPw/Uk17+Q2nkH9H6zcwnsLiOOf/AIj6OUT7JxnkXMx+0mQf&#xA;VEH3bfrYzqv5OedLIM9r9X1OMdFhcxS0/wBSSi/c2YeTsmY+k27PB7Q4ZbSBiwy5t7q0uXtbyCS1&#xA;uo/twTKUce9D2981mTDKBqQd1izQyC4mwp5W2uxV9A/lb5hbWPK0SzPzu7A/VpiepVRWNj812+YO&#xA;dT2dn8TEL5x2eB7a0ng5zX0y3/Wy/M91DsVdirsVdirsVdirsVdirsVdirsVdirsVdirsVdirsVd&#xA;irsVdirsVdirsVdirsVdirsVSPzZ5O0bzPYfVr+PjMlTbXabSxN4qe48VOxynPgjkFFy9HrcmCXF&#xA;E+8d75/8x+WtW8uak1hqSdam2ulH7udB+0vuP2l7Zy+q0ssUt+T3mh10NRC48+o7krzFc5mv5UeZ&#xA;F0jzIttO/Gz1ICCQnoJK/um+88fpzY9m6jw8lHlL8B0vbmj8XDxD6ob/AA6/jye9507wjsVdirsV&#xA;dirsVdirsVdirsVdirsVdirsVdirsVdirsVdirsVdirsVdirsVdirsVdirsVdiqV+ZPLel+YdLk0&#xA;/UI+UbfFFKu0kUg6Oh7Ef2HbKs2GOSPDJyNNqZ4ZicDu+evM/lfVPLeptY345K1WtbpRRJowftL4&#xA;EftL2+VDnLavSywyo8nv9BroaiHFHn1HclIJBqNiOhzFc59Aflr5wXzBooiuHrqdkBHcg9XXosv+&#xA;y7++dT2fqvFhR+oc/wBbwPbGg8DLY+iXL9TL8z3UOxV2KuxV2KuxV2KuxV2KuxV2KuxV2KuxV2Ku&#xA;xV2KuxV2KuxV2KuxV2KuxV2KuxV2KuxV2KpZ5j8uaZ5g0yTT9Qj5Rt8UUq7PG46Oh7Efj0O2VZsM&#xA;ckeGTkaXVTwTE4Hd89eafK+peXNUaxvQGUjlb3CiiSx1pyHgf5l7fcTyuq00sMqPLo+gaHXQ1EOK&#xA;PPqO5Z5Z8w3ugaxDqVqamM8Zoq0EkZ+0h+fbwO+Q0+c4piQZ6zSRz4zCX9hfSOlanaapp1vqFo3K&#xA;3uUDxk9RXqD7g7HOvx5BOIkORfOc+GWKZhLmEVk2p2KuxV2KuxV2KuxV2KuxV2KuxV2KuxV2KuxV&#xA;2KuxV2KuxV2KuxV2KuxV2KuxV2KuxV2KuxVKfM3lnTfMOmPY3yf5UE4+3E9NmX+I75TnwRyx4ZOV&#xA;o9XPBPjj/a8G1Sx1Hyvd32jXtjFPLcCkM8iEkp8QWSJq9Dyr7MBXpTNHh0mSMpY+EG/4j0/H3vVa&#xA;ntDDOEM3GRw/wDqe4/r7ve9p/LWIxeR9KQ9QkhPfcyuT+vN7hxDHARHR5LVag5shmecmTZa0OxV2&#xA;KuxV2KuxV2KuxV2KuxV2KuxV2KuxV2KuxV2KuxV2KuxV2KuxV2KuxV2KuxV2KuxV2KuxV5R+coH6&#xA;U049/Qff/Z4pZt+X3/KHaZ/qP/ycbFDIcVdirsVdirsVdirsVdirsVdirsVdirsVdirsVdirsVdi&#xA;rsVdirsVdirsVdirsVdirsVdirsVdiryn85P+Onp3/GF/wDieKWa/l9/yh2mf6j/APJxsUMhxV2K&#xA;uxV2KuxV2KuxV2KuxV2KuxV2KuxV2KuxV2KuxV2KuxV2KuxV2KuxV2KuxV2KuxV2KuxVjH5maXLq&#xA;fkjVbWO7lsm9L1TNDsxERDlPk3GhyGSHEKZQlwm3zVF5EnuJOEV/cyyHcKqhj+GY/wCUHe5H5kp7&#xA;5A8lS/4y0kx6vcxFLhZKpQVEdZCpp2bjQ4Y6UA3aJagkVT6fzKcZ2KuxV2KuxV2KuxV2KuxV2Kux&#xA;V2KuxV2KuxV2KuxV2KuxV2KuxV2KuxV2KuxV2KuxV2KuxVj/AJ/W9byfqps2pKkDOy8eRdFFXQVI&#xA;oWXauV5RMx9BqTfp5YxP94CY+XN89WXmt7CcSJJLYz0oSeUZ6g96A7gEb9d8xvzGWP1QP+bu5v5P&#xA;BP6MoHlIEfbyZN+XN/azecdMZZQeUjDkSNyY2A39zk8eshI8PKXcdmvN2blhHj2lDvibD3/Mp17s&#xA;VdirsVdirsVdirsVdirsVdirsVdirsVdirsVdirsVdirsVdirsVdirsVdirsVdirsVdiqWeZNbtd&#xA;E0a41G6jaWGLipiWlWLsEA32Aq25OU58wxwMi5Ok00s+QQHMvnvzFZpdazeT8WsVmcsLO3lR4owQ&#xA;CFUoOBHy2yWGZlEEivtRqMQxzMQbA61X2Mx/KHyJos9xLq03qPPYzo0KniAXA5KzEKGPEioFchk0&#xA;4nISJ+np5s8OrljxyhED17E9a7ns2XuI7FXYq7FXYq7FXYq7FXYq7FXYq7FXYq7FXYq7FXYq7FXY&#xA;q7FXYq7FXYq7FXYq7FXYq7FXYqsnghnieGeNZYZBxeNwGVgexB2OAgEUWUZGJsGi+cfOui/VvNep&#xA;R6dMLW3SYiO3CAotANhQqRv75hnQY+cbj7jTsh2tnqpVMf0gCyP8q77zZa30dtbL9at7i5QXsaxE&#xA;xJDSjStMSCjr2XeuV1lx5IxBMwedjkPe33gzYZTlGOOQ5cJ5nu4e7ze3ZsXSOxV2KuxV2KuxV2Ku&#xA;xV2KuxV2KuxV2KuxV2KuxV2KuxV2KuxV2KuxV2KuxV2KuxV2KuxV2KpR5s0zU9T0C6stMufqt3MF&#xA;CSksoIDAspZfiAYbbZRqccp4zGJouXoc0MeUSmOKIfPevXcGla1dafdQLZSwPwaFXZ0BoD8Mj/ar&#xA;165i4sk8UeE4zQ7jbn58OLPMzGYcR/nDh/Y9G/JvzHooiurFrpFurqVTbxnbnRaEK32Sfatcvx6y&#xA;Ejw8pdxFOJm7Nywjx7Sh3xNh6rmU4DsVdirsVdirsVdirsVdirsVdirsVdirsVdirsVdirsVdirs&#xA;VdirsVdirsVdirsVdirsVdiriaAk9Bvtv+rFXzRf+ZItc1i81L0TJGb2aO5toyFkCRuyKCHOxICl&#xA;qnpWm9MxdT4pxnwq4/NtiAD6mS/lRDo+recdRsvTkht9NaPUrS0Vl4iTkVQzcAfjQUoOX35jafTZ&#xA;DwnNLinGjtsLc862MMZjjgI8QonmT+p7lmzdW7FXYq7FXYq7FXYq7FXYq7FXYq7FXYq7FXYq7FXY&#xA;q7FXYq7FXYq7FXYq7FXYq7FXYq7FWldHrxYNxPFqGtCOxxVD6lqVlpljLfXsnpWsIBkkoWpUhRso&#xA;JNScVfMunQeTE1HVrvWfL+p3t1eXtxNFdWd0IFaKSZ3Sq+tGfssOozHA8i5BPmGV/ktc6Do/nPXP&#xA;QtJ9K0/VxbRaZBct60jSKz8lZ1aWhJcfaOSxiidmOQ2Bu94y5paDoWZQwLL9oA7iu++Kt4q7FXYq&#xA;7FXYq7FXYq7FXYq7FXYq7FXYq7FXYq7FXYq7FXYq7FXYq7FXYq7FXYq8R/Or84JrKWbyx5dn4XS/&#xA;BqWoRmjRnvDGR0f+du3TrWmBqdTXpi5mnwX6i8TsfM2v2Ehksb6W0LRrFIIG9JXRBQCRU4h/9lXM&#xA;KGWUTYLmSxxkKIek+QPzptbGKXS/NqCfR5l2kkX1o43U1WsbcvhJ6gV33FN65+LW8W0hu4WTSVvH&#xA;k8a1LzRq93qN1dpfS26XEryrBFMyRxh2LBEVWChVrQAYmcvNIhFnf5NfmVpnl7UtSk8yE6hE9usu&#xA;nmWlxKt3C9Y1iMhJj5hzUgjoMlHNw7m2MsQlyprzH+afmrV9Qku47uWz5k8PSkZWVT+ypBHEf6uY&#xA;uTVyly2DkY9NEc90n0Lzf5g0PVYdU0+6Md5EWLOwDeqrmrrNXeQN/lH5UyiGSUTYbpYxIUX1d+X3&#xA;nvTfOWhJqFtSK6ipHf2latFLT8Ubqp7/ADBzb4comLdXlxmBpk2WtbsVdirsVdirsVdirsVdirsV&#xA;dirsVdirsVdirsVdirsVdirsVdirsVdirFPzR81v5X8l32pQNxvXAt7IntNLsG/2C1f6Mpz5OCJL&#xA;bhhxSp8ezz/bnnepJLSSOakk7kknvmmAJLtSQAyvyD+Wfmbzmou7ZY9O0apA1K8JUSUNCIYx8T0P&#xA;fYe9dsyoaW+Zpx5aiuQek2//ADjo1lc217aeaLeS7tZFlRJ7T90SNvi43HLofv8ADMjHgEDYk0ZM&#xA;xmKISe//AOcT73VNRu9QfzRb+rdzSTyrDZlY1eVi5CqJvhWp2GZIs9zjkAJloP8AzjHq2j2eo2UX&#xA;mG1lg1VEiuXksnaREUtvEROoDUc9a9vniYkilBAK3VP+cY9UjtWfS9ehubpRVYLi3aBGPh6iyS0/&#xA;4HMQ6HzcoazyeM61p+qaDrMuja5aPYajEf7t6FXB6NG4+FlPYjMbJp5RciGcSZZ+U/nCfyx5ys5+&#xA;fGwvHW11BCfhMUjUDn/jGx5fh3wafJwS8lz4+KL67zcuqdirsVdirsVdirsVdirsVdirsVdirsVd&#xA;irsVdirsVdirsVdirsVdirsVeR/85KxzN5M091qYk1FPUA8TDKFJ/HMPW/SPe5Wk+o+58yW9k2te&#xA;atK0EPwju7iGKRx29VwvI17KDXKdNComTbnlcuF7f5qk0PTrm0igtHSGS2SSFFNFSDdbdFFR0hVC&#xA;a7kknJ4ez8WYeJMWZeZ5dPsY59fkwy8OJoR93Pr9qlo2reQr3VYbG8ju7KOWqm4MqycX41oY1j5U&#xA;Pjlp7HwAfT9p/W1DtfOT9X2D9ScanovlZLjjp1161vQESSmZW9xx9IUzBzdmC/RAV/WP63Nw9pGv&#xA;XM3/AFR+pS16HyJpWmQTxSXF/fS0WS2jYxIp41Y+pJF0r0+HMrH2VhI3jv75frcXJ2rmB2lt7h+p&#xA;ji6vo1xcRQw2EtvzbiWef1dzstAI4qZYex9P/N+0/rax2vn/AJ32D9S781PK8Oofk7DrxJe90e+a&#xA;OOVt2FtKwT0q+Ak4sPCp8cx9FHhge4TI+Dk6yXFId5iD8Xkeizy3lrFSrTV9PbqWrQfftlGfHwzo&#xA;NuGfFGy+983LqnYq7FXYq7FXYq7FXYq7FXYq7FXYq7FXYq7FXYq7FXYq7FXYq7FXYq7FWJ/mp5dk&#xA;8weRNUsII2lu1jE9oiCrGWEhwqjuWAK/TlGojxQLdglUw+XPLflOA6jY68Lho3DkzoR0C1QGOlNx&#xA;QHfNDk1pAOM7Dv8Afzd3i0YJGQbnu9zMvM+rTazqs00dmotUcJb/AB0ZY0UIq1r/ACqO2bc9pYcc&#xA;QIy6fzT+x1I7OzZJEmPX+cP2pPaWdza3X1qG1i9cdGkcn6dqZX/LWPqb90f+PM/5GydBXvl/x1OD&#xA;q+p7AW0YNd35ltv9Wi/rxPbOGtr+X7UjsjNe9fP9iD1KfU7yAxmGIkGsb8ipG3+yGQj2zAdf9j/x&#xA;5nLseZ6D/Tf8dSmzt9ctLuOb0FmVTUhnU0PYgVTp88yo9sac85H5OKeyM43ER82UatrV1qHkLVPL&#xA;MKhI9Ue3kcNv6MsU8bSkeKssXL8M1ktZDFOQibhL1fF2cNJPLCJkKnH0/BIPyn/Ll3/MGw031PrF&#xA;naONSuZOPGkcRFFZan7UgVevQ5dp835iYNcmnPh8CJF831tm4dU7FXYq7FXYq7FXYq7FXYq7FXYq&#xA;7FXYq7FXYq7FXYq7FXYq7FXYq7FXYq7FXhPnxI21u40XQ4GlS3nnmjhQVpcXPFpkSn7AdSfYk9s5&#xA;nX5IzzDGOQP383otHA48JmTuR/Yxy58tedrSNa6MFQ7Kz3CD76A75YeyzI3Iy3/oj/imuPaYiKiI&#xA;7f0j/wASgX0vz4fsaXbD53IP6gMsj2Vj68fyH62uXaeTpwfaonSPzGJ20+zA/wCM/wDblg7Lw92T&#xA;7GB7Szd+P7Vy6T+Ylfi06zI9p6f1yJ7Lxf7Z/sUjtPN/tf8AskXaaH58uJViXRoZJG6LHdKSfo45&#xA;VLsmPQy+Q/4ptj2pLqI/M/qRFxo3mbSbkPqenyaeTRkkDB1Lg7cXUUrmFq8PhACzfTav0n8Fy9Ln&#xA;8WRO1Ed/7A9n/LnQtIisT5ht7dIr7Vo09dlHEKIlCMiDoFaRGfbx9hm/0EI+GJgUS6TXTl4hiTYD&#xA;Mcz3CdirsVdirsVdirsVdirsVdirsVdirsVdirsVdirsVdirsVdirsVdirsVdirzHRIdK8ued9Us&#xA;r65LyTlZoLy7ZeTiUGRuTgKtebeG9M5bKRh1/FL6DfwMq3+8X5u4nGeTTQreufwZB5t1bSV08wtc&#xA;wm4kI9Neak0rWvXpnQxzQHOQ+brPCmeQPyYV9ctf+WiL/gh/XJfmMf8AOHzC+Bk/mn5O+uWv/LRF&#xA;/wAEP64/mMf84fML4GT+afk765a/8tEX/BD+uP5jH/OHzC+Bk/mn5Jz5Y1vTLO7lMs8XORAsbFlA&#xA;rWpFSe+Y2s1YhjMoVOQ6WN2UcE73B+RRvnbzBoj+XpoZZ4pppY2CQqys3IghdhXo29c5vtDVnLhx&#xA;xP8Ae8Qkf6IHO/OtvO+5ztFgn4oIGwZD5K0U6P5bs7M3EtwSvrMZSG4NL8bRpQD4FZjxGdZpocOK&#xA;I8g4GpnxZJHzTzL2l2KuxV2KuxV2KuxV2KuxV2KuxV2KuxV2KuxV2KuxV2KuxV2KuxV2KuxV2Kvm&#xA;H87L3zT5e85Tz6nOkttqbPLpjqvILAhCrHQ0oyCnLxO/fKsvZ+HOeKQN1TPFr82EGMSKu2FaJr+p&#xA;a5rNppVn6JvL6VYYPUQKpd9gCx6Vyv8AkjTgfxfNn/K2oJ/h+T07S/yx80WGrW0nmyx9bRiJA6ac&#xA;s08hl4/uw4tB6qr1NelRQ9cOPs/BA2Bfv3WeuzyFE17tmRN5P/LRFANvc23D9uV79R4UJmJX78tO&#xA;mx/zY/INf5jIP4pfMpRrnkvQ7tIbXyhOLnWZ5aC1aRZFWMIxZ5Ayl0SoHxGgrQd8rlocMuca92zO&#xA;OtzR5G/ewHz3pnm7yP8AUf05Dbr+kPV+r+hwk/uOHPl0p/ejIDsnTn+d82R7U1A/m/Jj+k+atY1X&#xA;V9P0yxYJdXlzDb2ylIwhklkCIG5chx5EV2yyHZOmib4b97CfampkK4q9z7M0WPUYtIsotSMR1BII&#xA;1uzAOMXqhQG4Db4a9NsuodOTWCevNGYq7FXYq7FXYq7FXYq7FXYq7FXYq7FXYq7FXYq7FXYq7FXY&#xA;q7FXYq7FXYq7FXin/OT3+EP0LpH6Z+tfpT1Zv0X9V4fZonr+rz24fY6b19q5ZjtryUw78kP+VMf4&#xA;s0/0/wBJ/wCI6n6j+kfR+q+txNPT9H9ulePPv03pkp3TGFW+nMpbnYq7FXg3/OWP6J/Qug+t6n6U&#xA;9ef6lxpw9LjH6/Ou/X06Uy3E1ZXi/wCUf6K/5WV5c/Sfqeh9eh9H0uv1jmPq/L/J9bjy9sslya48&#xA;33DmM5L/AP/Z</xmpGImg:image>
               </rdf:li>
            </rdf:Alt>
         </xmp:Thumbnails>
         <xmpMM:InstanceID>xmp.iid:2cbbe80e-d2d5-7c44-978b-bcb8992dc99d</xmpMM:InstanceID>
         <xmpMM:DocumentID>xmp.did:2cbbe80e-d2d5-7c44-978b-bcb8992dc99d</xmpMM:DocumentID>
         <xmpMM:OriginalDocumentID>uuid:5D20892493BFDB11914A8590D31508C8</xmpMM:OriginalDocumentID>
         <xmpMM:RenditionClass>proof:pdf</xmpMM:RenditionClass>
         <xmpMM:DerivedFrom rdf:parseType="Resource">
            <stRef:instanceID>uuid:d1c078a0-2746-42b2-b0d1-25aedff8fb1e</stRef:instanceID>
            <stRef:documentID>xmp.did:1b6690ed-28a8-c141-9479-b6a9cf6be651</stRef:documentID>
            <stRef:originalDocumentID>uuid:5D20892493BFDB11914A8590D31508C8</stRef:originalDocumentID>
            <stRef:renditionClass>proof:pdf</stRef:renditionClass>
         </xmpMM:DerivedFrom>
         <xmpMM:History>
            <rdf:Seq>
               <rdf:li rdf:parseType="Resource">
                  <stEvt:action>saved</stEvt:action>
                  <stEvt:instanceID>xmp.iid:2cbbe80e-d2d5-7c44-978b-bcb8992dc99d</stEvt:instanceID>
                  <stEvt:when>2015-03-10T21:17:13-05:00</stEvt:when>
                  <stEvt:softwareAgent>Adobe Illustrator CC 2014 (Windows)</stEvt:softwareAgent>
                  <stEvt:changed>/</stEvt:changed>
               </rdf:li>
            </rdf:Seq>
         </xmpMM:History>
         <illustrator:StartupProfile>Print</illustrator:StartupProfile>
         <xmpTPg:HasVisibleOverprint>False</xmpTPg:HasVisibleOverprint>
         <xmpTPg:HasVisibleTransparency>True</xmpTPg:HasVisibleTransparency>
         <xmpTPg:NPages>1</xmpTPg:NPages>
         <xmpTPg:MaxPageSize rdf:parseType="Resource">
            <stDim:w>2.616666</stDim:w>
            <stDim:h>2.250823</stDim:h>
            <stDim:unit>Inches</stDim:unit>
         </xmpTPg:MaxPageSize>
         <xmpTPg:PlateNames>
            <rdf:Seq>
               <rdf:li>Cyan</rdf:li>
               <rdf:li>Magenta</rdf:li>
               <rdf:li>Yellow</rdf:li>
               <rdf:li>Black</rdf:li>
            </rdf:Seq>
         </xmpTPg:PlateNames>
         <xmpTPg:SwatchGroups>
            <rdf:Seq>
               <rdf:li rdf:parseType="Resource">
                  <xmpG:groupName>Default Swatch Group</xmpG:groupName>
                  <xmpG:groupType>0</xmpG:groupType>
               </rdf:li>
            </rdf:Seq>
         </xmpTPg:SwatchGroups>
         <pdf:Producer>Adobe PDF library 10.01</pdf:Producer>
      </rdf:Description>
   </rdf:RDF>
</x:xmpmeta>
                                                                                                    
                                                                                                    
                                                                                                    
                                                                                                    
                                                                                                    
                                                                                                    
                                                                                                    
                                                                                                    
                                                                                                    
                                                                                                    
                                                                                                    
                                                                                                    
                                                                                                    
                                                                                                    
                                                                                                    
                                                                                                    
                                                                                                    
                                                                                                    
                                                                                                    
                                                                                                    
                           
<?xpacket end="w"?>
	</metadata>
<path fill="#C23F28" d="M31.8,1.3c26.8,6.2,63.6,12.5,63.6,12.5s36.6,6.1,45.8,8.3c9.1,2.1,5,0.9,19.2,1.3
	c14.2,0.4,23.3,10.6,25.5,16.3c2.1,5.7,3.5,8.2,5.7,11.6c1.3,2.1,3.7,5.4,5.2,7.5c0.9,1.2,0.7,2.9-0.5,3.9l-3,1.8
	c0,0-17.3-18.4-23.1-22.7c-5.7-4.3-24.9-5.2-24.9-5.2S52.2,21.5,48.2,21.1c-1.1-0.1-7.6-0.9-16.4-2V1.3z"/>
<rect x="197.4" y="119" transform="matrix(0.9925 0.1223 -0.1223 0.9925 16.2602 -24.204)" fill="#FFFFFF" width="15.7" height="2.8"/>
<rect x="178" y="118.9" transform="matrix(-0.9925 0.1223 -0.1223 -0.9925 385.1129 217.0255)" fill="#FFFFFF" width="15.7" height="2.8"/>
<path fill="#34A3DC" d="M189.2,121.8l-2.4-3.1c-0.3-0.4-0.8-0.6-1.4-0.5l-4.1,0.8L189.2,121.8z"/>
<g opacity="0.18">
	<g>
		<g>
			<defs>
				<rect id="SVGID_1_" x="201.6" y="118.7" width="3.3" height="2.7"/>
			</defs>
			<clipPath id="SVGID_2_">
				<use xlink:href="#SVGID_1_"  overflow="visible"/>
			</clipPath>
			<polygon clip-path="url(#SVGID_2_)" fill="#24231F" points="202.6,121.4 201.6,121.3 203.6,118.7 204.9,118.9 			"/>
		</g>
	</g>
</g>
<path fill="#8D8B8C" d="M189.2,121.8l-2.4-3.1c-0.3-0.4-0.8-0.6-1.4-0.5l-4.1,0.8L189.2,121.8z"/>
<path fill="#8D8B8C" d="M201.8,121.8l2.6-3.3c0.3-0.4,0.8-0.6,1.4-0.5l4.1,0.8L201.8,121.8z"/>
<path fill="#49301C" d="M173.7,140c-0.1-0.3-0.1-0.4,0.2-0.5l2-0.9c0.5-0.2,1,0,1.2,0.4c0.6,1.2,1.2,2.1,1.4,2.5c0,0,0,0,0,0l0,0
	c-2-9.3,1.5-12.7,4.5-14.2c2.5-1.2,5.2-0.9,6.7-0.6v-4.1l-6.3-3.1c-0.4-0.2-0.9-0.2-1.3,0.1c-1.7,1.4-6.5,5.6-7.1,10.4
	c-0.1,0.8-0.1,1.5-0.1,2.2l-1.5,2c0,0-0.3,5.7-0.4,5.8c0,0.1,0.7,0.9,0.7,0.9L173.7,140z M182.4,120.2c0-0.3,0.3-0.6,0.6-0.6
	c0.3,0,0.6,0.3,0.6,0.6c0,0.3-0.3,0.6-0.6,0.6C182.6,120.8,182.4,120.5,182.4,120.2"/>
<path fill="#49301C" d="M201.1,122.5v4.1c1.5-0.3,4.2-0.6,6.7,0.6c3,1.5,6.5,4.8,4.5,14l0,0h0l0,0c0.2-0.5,0.8-1.3,1.3-2.3
	c0.2-0.4,0.8-0.6,1.2-0.4l2,0.9c0.3,0.1,0.3,0.2,0.2,0.5l-0.2,0.9c0,0,0.7-0.8,0.7-0.9c0-0.1-0.4-5.8-0.4-5.8l-1.5-2
	c0.1-0.7,0-1.5-0.1-2.2c-0.6-4.7-5.4-9-7.1-10.4c-0.4-0.3-0.9-0.3-1.3-0.1L201.1,122.5z M207.4,120.2c0-0.3,0.3-0.6,0.6-0.6
	c0.3,0,0.6,0.3,0.6,0.6c0,0.3-0.3,0.6-0.6,0.6C207.7,120.8,207.4,120.5,207.4,120.2"/>
<path fill="#24231F" d="M205.4,125.8c0,0,6.4,0.6,8,6.5c0.5,1.8,0.6,3.2,0.6,3.9c0,0.4,0.2,0.7,0.6,0.9l2.7,1.2l2.2-8
	c0,0-7.3-5.6-7.5-5.6s-6,0-6.3,0C205.4,124.7,205.4,125.8,205.4,125.8"/>
<path fill="#24231F" d="M185.5,125.6c0,0-6.4,0.8-8,6.7c-0.5,1.8-0.6,3.2-0.6,3.9c0,0.4-0.2,0.7-0.6,0.9l-2.7,1.2l-2.2-8
	c0,0,7.3-5.6,7.5-5.6c0.2,0,6,0,6.3,0C185.5,124.7,185.5,125.6,185.5,125.6"/>
<g opacity="0.18">
	<g>
		<g>
			<defs>
				<rect id="SVGID_3_" x="190.1" y="118.1" width="8.2" height="3.1"/>
			</defs>
			<clipPath id="SVGID_4_">
				<use xlink:href="#SVGID_3_"  overflow="visible"/>
			</clipPath>
			<polygon clip-path="url(#SVGID_4_)" fill="#24231F" points="191.4,118.1 198.3,118.2 198.3,121.1 191,121.1 190.1,121.2 			"/>
		</g>
	</g>
</g>
<path fill="#8D8B8C" d="M191.3,111.6h0.1V110h-0.1c-0.3,0-0.6,0.3-0.6,0.6v0.4C190.8,111.3,191,111.6,191.3,111.6"/>
<path fill="#8D8B8C" d="M199.7,111.6h-0.1V110h0.1c0.3,0,0.6,0.3,0.6,0.6v0.4C200.3,111.3,200.1,111.6,199.7,111.6"/>
<path fill="#49301C" d="M191.5,108.6v8h8.2v-8c0-0.1-0.1-0.2-0.2-0.2h-7.8C191.6,108.4,191.5,108.5,191.5,108.6 M198.1,115.5H193
	v-2.1h5.1V115.5z M199,115.5h-0.5v-2.1h0.5V115.5z M192.1,113.4h0.5v2.1h-0.5V113.4z"/>
<g opacity="0.44">
	<g>
		<g>
			<defs>
				<rect id="SVGID_5_" x="191.6" y="108.4" width="7" height="4.2"/>
			</defs>
			<clipPath id="SVGID_6_">
				<use xlink:href="#SVGID_5_"  overflow="visible"/>
			</clipPath>
			<path clip-path="url(#SVGID_6_)" fill="#24231F" d="M191.6,108.4L191.6,108.4h7v0.7c0,1.9-1.6,3.5-3.5,3.5h-0.1
				c-1.9,0-3.5-1.6-3.5-3.5L191.6,108.4L191.6,108.4z"/>
		</g>
	</g>
</g>
<path fill="#8D8B8C" d="M201.2,78.2V87c0,1.2-0.9,2.1-2.1,2.1h0v19.8c0,1.9-1.6,3.5-3.5,3.5h-0.1c-1.9,0-3.5-1.6-3.5-3.5V89.1h0
	c-1.2,0-2.1-0.9-2.1-2.1v-8.8c0-0.7,0.6-1.3,1.3-1.3h8.8C200.7,76.9,201.2,77.5,201.2,78.2"/>
<path fill="#49301C" d="M194.4,109c0,0.7,0.5,1.2,1.2,1.2c0.7,0,1.2-0.5,1.2-1.2c0-0.7-0.5-1.2-1.2-1.2
	C194.9,107.9,194.4,108.4,194.4,109"/>
<g opacity="0.54">
	<g>
		<g>
			<defs>
				<rect id="SVGID_7_" x="192.1" y="95.2" width="7" height="15.1"/>
			</defs>
			<clipPath id="SVGID_8_">
				<use xlink:href="#SVGID_7_"  overflow="visible"/>
			</clipPath>
			<path clip-path="url(#SVGID_8_)" fill="#24231F" d="M192.1,104c0.9,0.2,2.1,0.5,3.2,0.7c1.5,0.3,2.8,0.5,3.9,0.9v1.2
				c-0.1,0-0.1,0-0.2-0.1c-1.1-0.4-2.5-0.7-3.9-0.9c-1.1-0.2-2.1-0.4-3-0.6L192.1,104L192.1,104z"/>
		</g>
		<g>
			<defs>
				<rect id="SVGID_9_" x="192.1" y="95.2" width="7" height="15.1"/>
			</defs>
			<clipPath id="SVGID_10_">
				<use xlink:href="#SVGID_9_"  overflow="visible"/>
			</clipPath>
			<path clip-path="url(#SVGID_10_)" fill="#24231F" d="M194.9,109.3c0.1-0.2,0.3-0.4,0.6-0.4c1.3,0.1,2.7-0.6,3.6-0.6v0.6
				c0,0.2,0,0.5-0.1,0.7c-1.1,0.2-2.8,0.7-3.6,0.6C195,110.1,194.8,109.7,194.9,109.3L194.9,109.3z"/>
		</g>
		<g>
			<defs>
				<rect id="SVGID_11_" x="192.1" y="95.2" width="7" height="15.1"/>
			</defs>
			<clipPath id="SVGID_12_">
				<use xlink:href="#SVGID_11_"  overflow="visible"/>
			</clipPath>
			<path clip-path="url(#SVGID_12_)" fill="#24231F" d="M192.1,96.4v-1.2c0.9,0.2,2.1,0.5,3.2,0.7c1.5,0.3,2.8,0.5,3.9,0.9v1.2
				c-0.1,0-0.1,0-0.2-0.1c-1.1-0.4-2.5-0.6-3.9-0.9C194,96.8,192.9,96.6,192.1,96.4"/>
		</g>
	</g>
</g>
<g opacity="0.54">
	<g>
		<g>
			<defs>
				<rect id="SVGID_13_" x="189.9" y="85.4" width="10.7" height="3.7"/>
			</defs>
			<clipPath id="SVGID_14_">
				<use xlink:href="#SVGID_13_"  overflow="visible"/>
			</clipPath>
			<path clip-path="url(#SVGID_14_)" fill="#24231F" d="M195.4,88.3c-2.1-0.4-4.1-0.9-5.4-1.5v-1.4c0.3,0.2,0.9,0.6,1.8,0.9
				c1.1,0.4,2.5,0.6,3.9,0.9c2.1,0.4,3.9,0.8,5,1.3c-0.4,0.4-0.9,0.6-1.5,0.6h0v0C198.1,88.8,196.7,88.5,195.4,88.3"/>
		</g>
	</g>
</g>
<path fill="#E35326" d="M189.2,102.1c0.2-1,1.2-1.6,2.9-2.1v1.2c-0.1,0-0.2,0.1-0.4,0.1c-1.4,0.4-1.4,0.8-1.4,0.8s0,0.4,1.4,0.8
	c1.1,0.4,2.5,0.6,3.9,0.9c3.5,0.7,6.2,1.2,6.2,2.8c0,1.4-2.9,2.3-6,2.9c-0.4,0.1-0.7-0.2-0.7-0.6l0,0c0-0.3,0.2-0.5,0.5-0.6
	c1.3-0.3,2.9-0.8,3.7-1c1.4-0.4,1.4-0.8,1.4-0.8s0-0.4-1.4-0.8c-1.1-0.4-2.5-0.7-3.9-0.9C191.4,104.2,188.9,103.7,189.2,102.1"/>
<path fill="#E35326" d="M192.1,91.2v1.2c-0.1,0-0.2,0.1-0.4,0.1c-1.4,0.4-1.4,0.8-1.4,0.8s0,0.4,1.4,0.8c1.1,0.4,2.5,0.6,3.9,0.9
	c3.5,0.7,6.2,1.2,6.2,2.8c0,0.9-1,1.5-2.6,2v-1.2c0,0,0,0,0.1,0c1.4-0.4,1.4-0.8,1.4-0.8s0-0.4-1.4-0.8c-1.1-0.4-2.5-0.6-3.9-0.9
	c-3.5-0.7-6.2-1.2-6.2-2.8C189.2,92.2,190.3,91.6,192.1,91.2"/>
<path fill="#49301C" d="M192.3,117.1h6.5l2.3,6.9c0.4,1-0.4,2-1.5,2h-8.2c-1.1,0-1.8-1.1-1.5-2L192.3,117.1z"/>
<path fill="#E35326" d="M199.1,90.8v-1.2c0,0,0.1,0,0.1,0c1.4-0.4,1.4-0.8,1.4-0.8s0-0.4-1.4-0.8c-1.1-0.4-2.5-0.6-3.9-0.9
	c-2.6-0.5-5.2-1.1-6.3-2.1c-0.4-0.4-0.1-1,0.4-1l0,0c0.1,0,0.2,0,0.4,0.1c0.3,0.2,0.9,0.7,1.9,1c1.1,0.4,2.5,0.6,3.9,0.9
	c3.5,0.7,6.2,1.2,6.2,2.8C201.7,89.8,200.7,90.4,199.1,90.8"/>
<g opacity="0.54">
	<g>
		<g>
			<defs>
				<rect id="SVGID_15_" x="194.2" y="81.6" width="2.5" height="2.5"/>
			</defs>
			<clipPath id="SVGID_16_">
				<use xlink:href="#SVGID_15_"  overflow="visible"/>
			</clipPath>
			<path clip-path="url(#SVGID_16_)" fill="#24231F" d="M194.2,82.9c0,0.7,0.6,1.2,1.2,1.2c0.7,0,1.2-0.6,1.2-1.2
				c0-0.7-0.6-1.2-1.2-1.2C194.8,81.6,194.2,82.2,194.2,82.9"/>
		</g>
	</g>
</g>
<path fill="#FFFFFF" d="M194.4,82.7c0,0.7,0.6,1.2,1.2,1.2c0.7,0,1.2-0.6,1.2-1.2c0-0.7-0.6-1.2-1.2-1.2
	C194.9,81.4,194.4,82,194.4,82.7"/>
<g opacity="0.28">
	<g>
		<g>
			<defs>
				<rect id="SVGID_17_" x="191.6" y="117.6" width="8" height="1.7"/>
			</defs>
			<clipPath id="SVGID_18_">
				<use xlink:href="#SVGID_17_"  overflow="visible"/>
			</clipPath>
			<polygon clip-path="url(#SVGID_18_)" fill="#24231F" points="199.6,119.3 191.6,119.3 192.2,117.6 199,117.6 			"/>
		</g>
	</g>
</g>
<path fill="#6E451C" d="M190.8,118.3h9.4c0.4,0,0.7-0.3,0.7-0.7v-0.8c0-0.4-0.3-0.7-0.7-0.7h-9.4c-0.4,0-0.7,0.3-0.7,0.7v0.8
	C190.2,118,190.4,118.3,190.8,118.3"/>
<path fill="#F8EC20" d="M196.1,109.8l1.6-0.5l-0.5-1.6l-1.6,0.5c-0.5,0.1-0.7,0.6-0.6,1.1l0,0C195.1,109.7,195.6,109.9,196.1,109.8"
	/>
<path fill="#49301C" d="M195.5,109c0,0.2,0.2,0.4,0.4,0.4s0.4-0.2,0.4-0.4c0-0.2-0.2-0.4-0.4-0.4C195.6,108.6,195.5,108.8,195.5,109
	"/>
<g opacity="0.54">
	<g>
		<g>
			<defs>
				<rect id="SVGID_19_" x="195.4" y="81.4" width="0.4" height="2.5"/>
			</defs>
			<clipPath id="SVGID_20_">
				<use xlink:href="#SVGID_19_"  overflow="visible"/>
			</clipPath>
			<path clip-path="url(#SVGID_20_)" fill="#24231F" d="M195.8,83.9c-0.1,0-0.1,0-0.2,0c-0.1,0-0.1,0-0.2,0v-2.5c0.1,0,0.1,0,0.2,0
				c0.1,0,0.1,0,0.2,0V83.9z"/>
		</g>
	</g>
</g>
<g opacity="0.37">
	<g>
		<g>
			<defs>
				<rect id="SVGID_21_" x="191.5" y="89" width="8.2" height="1.4"/>
			</defs>
			<clipPath id="SVGID_22_">
				<use xlink:href="#SVGID_21_"  overflow="visible"/>
			</clipPath>
			<path clip-path="url(#SVGID_22_)" fill="#24231F" d="M199.7,89c-0.2,0-0.4,0.1-0.5,0.1h0v1.3h-7v-1.3h0c-0.2,0-0.4,0-0.5-0.1
				H199.7z"/>
		</g>
	</g>
</g>
<line fill="none" stroke="#8D8B8C" stroke-width="2" stroke-linecap="square" stroke-miterlimit="10" x1="200.8" y1="117.4" x2="190.3" y2="117.4"/>
<path fill="#8D8B8C" d="M193.4,78.6h4.4v-19c0-1.2-1-2.2-2.2-2.2h0c-1.2,0-2.2,1-2.2,2.2L193.4,78.6L193.4,78.6z"/>
<g opacity="0.24">
	<g>
		<g>
			<defs>
				<rect id="SVGID_23_" x="193.4" y="59.4" width="4.4" height="6"/>
			</defs>
			<clipPath id="SVGID_24_">
				<use xlink:href="#SVGID_23_"  overflow="visible"/>
			</clipPath>
			<path clip-path="url(#SVGID_24_)" fill="#24231F" d="M193.4,65.4v-3.3l4.4-2.7c0,0.1,0,0.2,0,0.2v2.5
				C196.6,63.2,194.2,64.8,193.4,65.4"/>
		</g>
	</g>
</g>
<path fill="#E35326" d="M31.8,0C58.7,6.2,96,12.6,96,12.6s36.6,6.1,45.8,8.3c9.1,2.1,5,0.9,19.2,1.3c14.2,0.4,23.3,10.6,25.5,16.3
	c2.1,5.7,3.5,8.2,5.7,11.6c1.3,2.1,3.7,5.4,5.2,7.5c0.9,1.2,0.7,2.9-0.5,3.9l-3.5,2.9c0,0-16.7-19.6-22.5-23.9
	c-5.7-4.3-24.9-5.2-24.9-5.2S52.7,20.4,48.8,20c-1.2-0.1-7.9-0.9-17-1.9V0z"/>
<g opacity="0.54">
	<g>
		<g>
			<defs>
				<rect id="SVGID_25_" x="193.3" y="59.4" width="2.5" height="2.5"/>
			</defs>
			<clipPath id="SVGID_26_">
				<use xlink:href="#SVGID_25_"  overflow="visible"/>
			</clipPath>
			<path clip-path="url(#SVGID_26_)" fill="#24231F" d="M193.3,60.6c0,0.7,0.6,1.2,1.2,1.2s1.2-0.6,1.2-1.2s-0.6-1.2-1.2-1.2
				C193.9,59.4,193.3,59.9,193.3,60.6"/>
		</g>
	</g>
</g>
<path fill="#FFFFFF" d="M193.5,60.4c0,0.7,0.6,1.2,1.2,1.2c0.7,0,1.2-0.6,1.2-1.2s-0.6-1.2-1.2-1.2
	C194.1,59.2,193.5,59.7,193.5,60.4"/>
<g opacity="0.54">
	<g>
		<g>
			<defs>
				<rect id="SVGID_27_" x="194.5" y="59.2" width="0.4" height="2.5"/>
			</defs>
			<clipPath id="SVGID_28_">
				<use xlink:href="#SVGID_27_"  overflow="visible"/>
			</clipPath>
			<path clip-path="url(#SVGID_28_)" fill="#24231F" d="M194.9,61.6c-0.1,0-0.1,0-0.2,0s-0.1,0-0.2,0v-2.5c0.1,0,0.1,0,0.2,0
				s0.1,0,0.2,0V61.6z"/>
		</g>
	</g>
</g>
<g opacity="0.43">
	<g>
		<g>
			<defs>
				<rect id="SVGID_29_" x="165.2" y="22.6" width="12.2" height="6"/>
			</defs>
			<clipPath id="SVGID_30_">
				<use xlink:href="#SVGID_29_"  overflow="visible"/>
			</clipPath>
			<path clip-path="url(#SVGID_30_)" fill="#24231F" d="M165.3,23.1c0.1-0.1,0.2-0.3,0.3-0.4c4.6,0.8,8.5,2.7,11.7,5
				c-0.1,0.2-0.3,0.4-0.5,0.7c-0.2,0.3-0.7,0.4-1,0.2c-3.2-2.4-8.1-3.8-10.2-4.3C165.2,24,165,23.4,165.3,23.1"/>
		</g>
	</g>
</g>
<path fill="#6E451C" d="M201,76.7h-11c-0.5,0-0.9,0.4-0.9,0.9v1.3h12.8v-1.3C202,77.2,201.6,76.7,201,76.7"/>
<g opacity="0.43">
	<g>
		<g>
			<defs>
				<rect id="SVGID_31_" x="189.2" y="77.9" width="12.8" height="1"/>
			</defs>
			<clipPath id="SVGID_32_">
				<use xlink:href="#SVGID_31_"  overflow="visible"/>
			</clipPath>
			<rect x="189.2" y="77.9" clip-path="url(#SVGID_32_)" fill="#24231F" width="12.8" height="1"/>
		</g>
	</g>
</g>
<path fill="#C23F28" d="M80.1,24.8c-0.7-0.1-1.3-0.2-2-0.3l2.2-14.6c0.7,0.1,1.3,0.2,2,0.4L80.1,24.8z"/>
<path fill="#C23F28" d="M41.8,19.2c-0.6-0.1-1.3-0.1-2-0.2l2.5-16.6c0.7,0.1,1.3,0.3,2,0.4L41.8,19.2z"/>
<rect x="120" y="26.2" transform="matrix(0.9879 0.1551 -0.1551 0.9879 5.9697 -19.9063)" fill="#FFFFFF" width="21.1" height="4.2"/>
<polygon fill="#6E451C" points="134.5,31 131,26.3 136.8,27.2 140.3,32 "/>
<polygon fill="#6E451C" points="124.1,29.4 120.6,24.6 126.4,25.5 129.9,30.3 "/>
<g>
	<g>
		<path fill="#253844" d="M175.4,149l-1.6,0.4c-0.1,0-0.3,0-0.3-0.2l-0.1-0.5c-0.1-0.3,0.1-0.7,0.4-0.7l1.2-0.3L175.4,149z"/>
	</g>
	<g>
		<path fill="#253844" d="M214.1,149l1.6,0.4c0.1,0,0.3,0,0.3-0.2l0.1-0.5c0.1-0.3-0.1-0.7-0.4-0.7l-1.2-0.3L214.1,149z"/>
	</g>
	<g opacity="0.59">
		<path fill="#253844" d="M209.4,138.1c0,0,0.1-6.9,0-7.1c0-0.1-1.6-0.7-1.6-0.7l-0.2,0.2l-24.1,0.2c0,0-0.1,0-0.1,0l0,0
			c0,0,0,0-0.1,0l-1.4-0.9c0,0-0.1,0-0.1,0l-1.9,8.2l-2.6,2.6l34.4-0.2L209.4,138.1z M202.9,134h-16.1l-2.4-2.2h21.6l-1.2,2.2
			L202.9,134L202.9,134z"/>
	</g>
	<g>
		<g>
			<path fill="#395767" d="M183.7,137.3h4.1c1,0,1.7-0.8,1.7-1.7v-1.2c0-1-0.8-1.7-1.7-1.7l-4.1,0.6c-0.8-0.5-1.9-0.3-2.5,0.5
				l0.8,1.8C182,136.5,182.8,137.3,183.7,137.3z"/>
		</g>
		<g>
			<path fill="#395767" d="M189.3,137.6h-7.7c-1,0-1.7,0.8-1.7,1.7v1.2c0,1,0.8,1.7,1.7,1.7h7.7c1,0,1.7-0.8,1.7-1.7v-1.2
				C191,138.4,190.3,137.6,189.3,137.6z"/>
		</g>
		<g>
			<path fill="#395767" d="M207.8,137.6h-3.1v-0.3h1.1c1,0,1.7-0.8,1.7-1.7v-1.2c0-1-0.8-1.7-1.7-1.7h-4.1c-1,0-1.7,0.8-1.7,1.7v1.2
				c0,1,0.8,1.7,1.7,1.7h1.3v0.3h-3.3c-1,0-1.7,0.8-1.7,1.7v1.2c0,1,0.8,1.7,1.7,1.7h8.2c1,0,1.7-0.8,1.7-1.7v-1.2
				C209.6,138.4,208.8,137.6,207.8,137.6z"/>
		</g>
	</g>
	<g>
		<path fill="#253844" d="M207.2,138.7c-0.8-1.7-2.8-2.5-4.5-1.7s-2.5,2.8-1.7,4.5s2.8,2.5,4.5,1.7
			C207.2,142.4,208,140.4,207.2,138.7z M206,141.5c-0.4-0.5-1-1.1-1.3-1.5l1.5-1.2c0,0.1,0.1,0.1,0.1,0.2
			C206.6,139.9,206.5,140.8,206,141.5z M203.1,137.9c0.8-0.4,1.7-0.2,2.4,0.2c-0.7,0.6-2.7,2.2-3.6,2.9
			C201.4,139.8,201.9,138.4,203.1,137.9z M202.5,141.8l1.4-1.1l1.3,1.5c0,0-0.1,0-0.1,0.1C204.2,142.6,203.2,142.4,202.5,141.8z"/>
	</g>
	<g>
		<path fill="#253844" d="M177.9,140.1c0,0,16.1-3,33.5,0"/>
	</g>
	<g>
		<path fill="#CB7329" d="M177.3,141.3l-0.1-0.4c0,0-0.6-0.2-0.4-0.8l0,0c0,0,0-0.1,0-0.1c0.2-0.9-0.6-1.9-1.9-2.2
			c-1.3-0.4-2.5,0.1-2.7,0.9c-0.2,0.9,0.6,1.9,1.8,2.2c0.3,0.1,0.6,0.1,1,0.1c0.5,0,1.6,0.2,2.1,1
			C177.6,143.2,177.3,141.3,177.3,141.3z"/>
	</g>
	<g>
		<path fill="#CB7329" d="M212.3,140.9l0.3-0.4c0,0,0.6-0.6,0.9-1.1v0c0,0,0-0.1,0.1-0.1c0.5-0.8,1.8-0.8,2.9-0.1
			c1.1,0.7,1.6,1.9,1.1,2.7c-0.5,0.8-1.8,0.8-2.9,0.1c-0.3-0.2-0.5-0.4-0.7-0.6c-0.3-0.3-1-0.3-1.6,0.4
			C211.6,142.6,212.3,140.9,212.3,140.9z"/>
	</g>
	<g>
		<path fill="#CB7329" d="M196.9,132.1h-1.6v-1.1h-0.5v1.2h-1.7c-0.4,0-0.7,0.3-0.7,0.7v0c0,0.4,0.3,0.7,0.7,0.7h3.8
			c0.4,0,0.7-0.3,0.7-0.7v0C197.6,132.4,197.2,132.1,196.9,132.1z"/>
	</g>
	<g opacity="0.19">
		<path fill="#FBF8EC" d="M211.5,138.6c-1.6-0.9-2.7-2.7-2.2-4.6c0.1-0.5,0.4-1.1,0.7-1.6l-0.6-2l-27.3-0.6c0,0,0,0-0.1,0l-4.7,11
			l34.5,0L211.5,138.6C211.5,138.6,211.5,138.6,211.5,138.6z M196,132.8l-1.1-0.4l-0.7,0.8l-1.4,0.6l-3.8,2l1,1.1l-1.5-0.9v2.2
			l-1.1-1.7l-0.5,1.9v-1.7l-4.6,3.2l1.8-1.5l-2.4,0.4l-3,1.2l3.2-1.5l2.1-0.4l-0.3-0.5l1.9-0.9l0.7-0.3l-1.1-1.1l1.4,0.5l-0.7-2.4
			l1.1,1.4l0-1l0.4,1l1.3-2.2l-0.8,2.4l3.3-2.7l-2.1,2.6l4.5-1.6l0.8-0.4l0.8-0.9l1.1,0.4l0.4-0.4l0.7,0.1l1.2-0.7l1.1-0.5l0.4-0.1
			l-1.5,0.7l-1.1,0.7l-0.8-0.1L196,132.8z M209.7,139.8l-0.6-0.1l-0.1-0.3l-1.3-0.1l-1.8,0.3c0,0-4.7-0.3-4.8-0.4
			c-0.1,0-4.1-0.5-4.1-0.5l4.9,0.5l-2.2-1.9l2.5,1.6l0.2-2.8l0.5,2.7l1.5-2.5l-0.8,2.3l1.4-0.6l-0.9,0.7l1.9-1.1l-1.2,1.2l2.5-1.3
			l-1,1.6l1.8-0.2l0.8,0.3l0,0.1l1.7,0.1L209.7,139.8z"/>
	</g>
	<g>
		<g>
			<path fill="#CB7329" d="M211.5,138.6c-0.2-0.1-0.4-0.3-0.6-0.4l0.5,2h-33.2l2.3-8.4c0.1-0.5,0.6-0.8,1.1-0.8h26.7
				c0.5,0,1,0.4,1.1,0.9c0,0-0.5,2.8-0.2,4.1c0.3,1.3,2.2,4.2,2.2,4.2c0.2-0.5,0.5-1,0.9-1.4c0,0-1.5-1.1-2-3
				c-0.5-1.9,0.1-4.6,0.1-4.6c-0.2-0.8-0.9-1.4-1.8-1.4l-25.5-0.3c-0.7-0.5-1.6-0.4-2.3,0.2l-4.3,11.8h36.4l-0.6-2.6
				C212,138.8,211.7,138.7,211.5,138.6z"/>
		</g>
	</g>
	<g>
		<path fill="#253844" d="M181.9,160.9l-3,0.6c-1.3,0.2-2.5-0.6-2.8-1.9l-0.5-2.8l7.7-1.5l0.5,2.8
			C184.1,159.4,183.2,160.7,181.9,160.9z"/>
	</g>
	<g>
		<path fill="#395767" d="M175.6,153.2l-1.3,1.6c-0.7,0.9-0.1,2.1,1,2.1h38.9c1.1,0,1.8-2-0.8-2.5l0.6-1.2"/>
	</g>
	<g>
		<path fill="#CB7329" d="M212,140.1c0,0-7.5-0.8-16.9-0.8l0,0c-0.1,0-0.2,0-0.4,0c-0.1,0-0.2,0-0.4,0l0,0c-9.4,0-16.9,0.8-16.9,0.8
			l-1.6,1.9c1.6,0.5-2.3,3.6-1.8,5.9l1.5,6.9h19.3h1.2h14.5l4.1-1.3l-0.2-1.2l1-4.5c0.5-2.4-0.2-4.8-2-6.4L212,140.1z"/>
	</g>
	<g>
		<path fill="#253844" d="M211.1,162.1H208c-1.3,0-2.4-1.1-2.4-2.4v-2.8h7.8v2.8C213.5,161,212.4,162.1,211.1,162.1z"/>
	</g>
	<g>
		<rect x="180.3" y="146" fill="#C5C5C3" width="28.9" height="6.4"/>
	</g>
	<g>
		<g>
			<rect x="180.8" y="146.6" fill="#AEAEAF" width="27.8" height="0.4"/>
		</g>
		<g>
			<rect x="180.8" y="147.6" fill="#AEAEAF" width="27.8" height="0.4"/>
		</g>
		<g>
			<rect x="180.8" y="148.6" fill="#AEAEAF" width="27.8" height="0.4"/>
		</g>
		<g>
			<rect x="180.8" y="149.6" fill="#AEAEAF" width="27.8" height="0.4"/>
		</g>
		<g>
			<rect x="180.8" y="150.6" fill="#AEAEAF" width="27.8" height="0.4"/>
		</g>
		<g>
			<rect x="180.8" y="151.6" fill="#AEAEAF" width="27.8" height="0.4"/>
		</g>
	</g>
	<g opacity="0.22">
		<g>
			<path fill="#253844" d="M208.9,153.7h-28.4c-0.6,0-1.1-0.5-1.1-1.1v-0.9h0.5v0.9c0,0.3,0.2,0.6,0.6,0.6h28.4
				c0.3,0,0.6-0.3,0.6-0.6v-0.9h0.5v0.9C209.9,153.2,209.5,153.7,208.9,153.7z"/>
		</g>
	</g>
	<g>
		<ellipse fill="#FBED21" cx="210.3" cy="149.6" rx="3.3" ry="3"/>
	</g>
	<g>
		<circle fill="#DFE5E7" cx="209.1" cy="149.2" r="3.3"/>
	</g>
	<g>
		<circle fill="#FBF8EC" cx="209.1" cy="149.2" r="2.9"/>
	</g>
	<g>
		<ellipse fill="#FBED21" cx="179.2" cy="149.6" rx="3.3" ry="3"/>
	</g>
	<g>
		<circle fill="#DFE5E7" cx="180.3" cy="149.2" r="3.3"/>
	</g>
	<g>
		<circle fill="#FBF8EC" cx="180.1" cy="149.9" r="2.7"/>
	</g>
	<g>
		<path fill="#DFE5E7" d="M200.4,158.4l-11-0.5c-0.4,0-0.7-0.4-0.7-0.7l0.1-2.5c0-0.4,0.4-0.7,0.7-0.7l11,0.5c0.4,0,0.7,0.4,0.7,0.7
			l-0.1,2.5C201.1,158.1,200.7,158.4,200.4,158.4z"/>
		<path fill="#253844" d="M200.2,158.7c0,0-0.1,0-0.1,0l-11-0.5c-0.2,0-0.5-0.1-0.6-0.3c-0.2-0.2-0.2-0.4-0.2-0.6l0.1-2.5
			c0-0.5,0.4-0.8,0.8-0.9c0,0,0.1,0,0.1,0l11,0.5c0.2,0,0.5,0.1,0.6,0.3c0.2,0.2,0.2,0.4,0.2,0.6l-0.1,2.5
			C201.1,158.3,200.7,158.6,200.2,158.7z M189.3,154.3c-0.3,0-0.5,0.2-0.5,0.5l-0.1,2.5c0,0.1,0,0.3,0.1,0.4s0.2,0.2,0.4,0.2l11,0.5
			c0.3,0,0.5-0.2,0.5-0.5l0.1-2.5c0-0.1,0-0.3-0.1-0.4s-0.2-0.2-0.4-0.2L189.3,154.3C189.3,154.3,189.3,154.3,189.3,154.3z"/>
	</g>
	<g opacity="0.56">
		<path fill="#1F6E8D" d="M211.8,144.9c0-0.1,0-1.4-2.4-5c-0.1,0-0.3,0-0.5,0c2.2,3.1,2.6,4.5,2.6,4.8l-9-0.9c-5-0.5-9.9-0.5-14.9,0
			l-9,0.9c0.6-2.4,2.4-4.3,2.9-4.9c-0.2,0-0.4,0-0.5,0c-0.4,0.4-2.1,2.2-2.7,5l-0.1,0.2h33.6V144.9z"/>
	</g>
	<g>
		<g>
			<g>
				<path fill="#395767" d="M195.1,139.4C195.1,139.4,195.1,139.4,195.1,139.4c-2.9-1.6-13.2-0.9-13.3-0.9c-0.1,0-0.1-0.1-0.2-0.1
					c0-0.1,0.1-0.1,0.1-0.2c0.4,0,10.5-0.7,13.4,0.9c0.1,0,0.1,0.1,0.1,0.2C195.2,139.3,195.2,139.4,195.1,139.4z"/>
			</g>
		</g>
		<g>
			<path fill="#CB7329" d="M181.7,138.3c0,0,2.2-1,8.6-0.1c0.1,0-1.9-0.1-4-0.1C184.2,138.1,182.1,138.2,181.7,138.3z"/>
		</g>
	</g>
	<g>
		<g>
			<g>
				<path fill="#395767" d="M208.1,139.9C208.1,139.9,208.1,139.9,208.1,139.9c-2.8-1.7-13.1-1.7-13.3-1.7c-0.1,0-0.1-0.1-0.1-0.1
					s0.1-0.1,0.1-0.1c0.4,0,10.6-0.1,13.4,1.7c0.1,0,0.1,0.1,0,0.2C208.2,139.8,208.2,139.9,208.1,139.9z"/>
			</g>
		</g>
		<g>
			<path fill="#CB7329" d="M194.8,137.9c0,0,2.2-0.9,8.6,0.4c0.1,0.1-1.9-0.2-4-0.3C197.3,137.9,195.2,137.9,194.8,137.9z"/>
		</g>
	</g>
	<g>
		<g>
			<polygon fill="none" points="198.3,131.7 199.8,131 199.4,131.1 198.3,131.6 197.1,132.2 196.3,132.1 196,132.6 194.9,132.2 
				194.1,133 193.4,133.4 191,134.5 192.8,133.8 194.2,133.3 194.9,132.5 196,132.8 196.4,132.4 197.2,132.4 			"/>
		</g>
		<g>
			<polygon fill="none" points="183.9,137.6 185.3,137.2 186.2,136.4 185.5,136.8 183.6,137.6 183.8,138.1 181.7,138.5 178.5,140 
				181.5,138.7 183.9,138.3 184.2,138.1 			"/>
		</g>
		<g>
			<polygon fill="none" points="193.4,133.4 188.9,134.9 191,132.4 187.8,135 188.5,132.7 187.3,134.9 186.9,133.8 186.8,134.8 
				185.7,133.5 186.4,135.8 185.1,135.3 186.2,136.4 185.3,137.2 185.5,137.1 186.8,136.6 186.8,138.3 187.2,136.4 188.4,138.1 
				188.4,135.9 189.9,136.9 188.9,135.8 192.8,133.8 191,134.5 			"/>
		</g>
		<g>
			<polygon fill="none" points="184.2,138.1 183.9,138.3 184.3,138.2 			"/>
		</g>
		<g opacity="0.19">
			<polygon fill="#FBF8EC" points="184.2,138.1 185.3,137.2 183.9,137.6 			"/>
		</g>
	</g>
	<g>
		<path fill="#253844" d="M178.2,145c0,0,10.9-1,17.9-1s15.8,1,15.8,1H178.2z"/>
	</g>
	<g>
		<path fill="#FBED21" d="M209,148.8l-1.6,2.6l0.3-1.7l-0.6,1.6c0.4,0.4,0.9,0.6,1.4,0.7c0.1,0,0.2,0,0.2,0l1.2-0.2l-1-0.4l0.9-0.8
			l-1.5,0.6c0,0,1.8-2.1,1.9-2.2c0.1-0.1-2.6,2.5-2.6,2.5L209,148.8z"/>
	</g>
</g>
<path fill="#6E451C" d="M175,143.9C175.1,144,175.1,144,175,143.9L175,143.9h0.1c-2.4-11.1,1.8-15.1,5.4-16.9
	c4.2-2.1,9.2-0.4,9.2-0.4h11.6c0,0,4.9-1.7,9.1,0.4c3.6,1.8,8.1,4.9,5.4,16.8c0,0,0,0.1,0,0.1c0,0,0.1,0,0.1,0
	c0.9-1.6,4.9-7.6,4.1-13.7c-0.8-5.6-6.5-10.8-8.5-12.4c-0.4-0.4-1.1-0.4-1.5-0.1l-9.8,4.9c-0.3,0.1-0.6,0.2-0.9,0.2h-7.5
	c-0.3,0-0.6-0.1-0.9-0.2l-9.8-4.9c-0.5-0.3-1.1-0.2-1.5,0.1c-2.1,1.7-7.8,6.8-8.5,12.4C170.1,136.4,174.1,142.4,175,143.9
	 M210,118.7c0-0.4,0.3-0.7,0.7-0.7s0.7,0.3,0.7,0.7c0,0.4-0.3,0.7-0.7,0.7S210,119.1,210,118.7 M179.6,118.7c0-0.4,0.3-0.7,0.7-0.7
	s0.7,0.3,0.7,0.7c0,0.4-0.3,0.7-0.7,0.7S179.6,119.1,179.6,118.7"/>
<path fill="#24231F" d="M190.4,126.4h10.1c0.9,0,1.6-0.7,1.6-1.6v0c0-0.9-0.7-1.6-1.6-1.6h-10.1c-0.9,0-1.6,0.7-1.6,1.6v0
	C188.9,125.7,189.6,126.4,190.4,126.4"/>
<path fill="#FFFFFF" d="M201.2,125.7c0.5-0.3,0.6-1,0.3-1.5c-0.3-0.5-1-0.6-1.5-0.3c-0.5,0.3-0.6,1-0.3,1.5
	C200,125.9,200.7,126,201.2,125.7"/>
<path fill="#8D8B8C" d="M201.4,124.1c0,0,0.1,0.1,0.1,0.1c0,0,0,0.1,0.1,0.1l-1.8,1.2c0,0,0-0.1-0.1-0.1c0,0-0.1-0.1-0.1-0.1
	L201.4,124.1z"/>
<path fill="#FFFFFF" d="M189.7,125.4c0.4,0.5,1,0.6,1.5,0.2c0.5-0.4,0.6-1,0.2-1.5c-0.4-0.5-1-0.6-1.5-0.2
	C189.5,124.3,189.4,124.9,189.7,125.4"/>
<path fill="#8D8B8C" d="M191.3,125.6c0,0-0.1,0.1-0.1,0.1c0,0-0.1,0-0.1,0.1l-1.2-1.8c0,0,0.1,0,0.1-0.1c0,0,0.1-0.1,0.1-0.1
	L191.3,125.6z"/>
</svg>
