<?xml version="1.0" encoding="utf-8"?>
<!-- Generator: Adobe Illustrator 18.1.1, SVG Export Plug-In . SVG Version: 6.00 Build 0)  -->
<svg version="1.1" id="Layer_1" xmlns="http://www.w3.org/2000/svg" xmlns:xlink="http://www.w3.org/1999/xlink" x="0px" y="0px"
	 viewBox="31.4 0 188.8 162.1" enable-background="new 31.4 0 188.8 162.1" xml:space="preserve">
<metadata><?xpacket begin="﻿" id="W5M0MpCehiHzreSzNTczkc9d"?>
<x:xmpmeta xmlns:x="adobe:ns:meta/" x:xmptk="Adobe XMP Core 5.6-c014 79.156821, 2014/08/29-03:07:50        ">
   <rdf:RDF xmlns:rdf="http://www.w3.org/1999/02/22-rdf-syntax-ns#">
      <rdf:Description rdf:about=""
            xmlns:dc="http://purl.org/dc/elements/1.1/"
            xmlns:xmp="http://ns.adobe.com/xap/1.0/"
            xmlns:xmpGImg="http://ns.adobe.com/xap/1.0/g/img/"
            xmlns:xmpMM="http://ns.adobe.com/xap/1.0/mm/"
            xmlns:stRef="http://ns.adobe.com/xap/1.0/sType/ResourceRef#"
            xmlns:stEvt="http://ns.adobe.com/xap/1.0/sType/ResourceEvent#"
            xmlns:illustrator="http://ns.adobe.com/illustrator/1.0/"
            xmlns:xmpTPg="http://ns.adobe.com/xap/1.0/t/pg/"
            xmlns:stDim="http://ns.adobe.com/xap/1.0/sType/Dimensions#"
            xmlns:xmpG="http://ns.adobe.com/xap/1.0/g/"
            xmlns:pdf="http://ns.adobe.com/pdf/1.3/">
         <dc:format>image/svg+xml</dc:format>
         <dc:title>
            <rdf:Alt>
               <rdf:li xml:lang="x-default">Print</rdf:li>
            </rdf:Alt>
         </dc:title>
         <xmp:MetadataDate>2015-04-03T00:01:47-05:00</xmp:MetadataDate>
         <xmp:ModifyDate>2015-04-03T00:01:47-05:00</xmp:ModifyDate>
         <xmp:CreateDate>2015-04-03T00:01:47-05:00</xmp:CreateDate>
         <xmp:CreatorTool>Adobe Illustrator CC 2014 (Windows)</xmp:CreatorTool>
         <xmp:Thumbnails>
            <rdf:Alt>
               <rdf:li rdf:parseType="Resource">
                  <xmpGImg:width>256</xmpGImg:width>
                  <xmpGImg:height>220</xmpGImg:height>
                  <xmpGImg:format>JPEG</xmpGImg:format>
                  <xmpGImg:image>/9j/4AAQSkZJRgABAgEASABIAAD/7QAsUGhvdG9zaG9wIDMuMAA4QklNA+0AAAAAABAASAAAAAEA&#xA;AQBIAAAAAQAB/+4ADkFkb2JlAGTAAAAAAf/bAIQABgQEBAUEBgUFBgkGBQYJCwgGBggLDAoKCwoK&#xA;DBAMDAwMDAwQDA4PEA8ODBMTFBQTExwbGxscHx8fHx8fHx8fHwEHBwcNDA0YEBAYGhURFRofHx8f&#xA;Hx8fHx8fHx8fHx8fHx8fHx8fHx8fHx8fHx8fHx8fHx8fHx8fHx8fHx8fHx8f/8AAEQgA3AEAAwER&#xA;AAIRAQMRAf/EAaIAAAAHAQEBAQEAAAAAAAAAAAQFAwIGAQAHCAkKCwEAAgIDAQEBAQEAAAAAAAAA&#xA;AQACAwQFBgcICQoLEAACAQMDAgQCBgcDBAIGAnMBAgMRBAAFIRIxQVEGE2EicYEUMpGhBxWxQiPB&#xA;UtHhMxZi8CRygvElQzRTkqKyY3PCNUQnk6OzNhdUZHTD0uIIJoMJChgZhJRFRqS0VtNVKBry4/PE&#xA;1OT0ZXWFlaW1xdXl9WZ2hpamtsbW5vY3R1dnd4eXp7fH1+f3OEhYaHiImKi4yNjo+Ck5SVlpeYmZ&#xA;qbnJ2en5KjpKWmp6ipqqusra6voRAAICAQIDBQUEBQYECAMDbQEAAhEDBCESMUEFURNhIgZxgZEy&#xA;obHwFMHR4SNCFVJicvEzJDRDghaSUyWiY7LCB3PSNeJEgxdUkwgJChgZJjZFGidkdFU38qOzwygp&#xA;0+PzhJSktMTU5PRldYWVpbXF1eX1RlZmdoaWprbG1ub2R1dnd4eXp7fH1+f3OEhYaHiImKi4yNjo&#xA;+DlJWWl5iZmpucnZ6fkqOkpaanqKmqq6ytrq+v/aAAwDAQACEQMRAD8A9U4q7FXYq7FXYq7FXYq7&#xA;FXYq7FXYq7FXYq7FXYq7FXYq7FXYq7FXYq7FXYq7FXYq7FXYqg77WdIsATfXsFrTek0iIfuYjK55&#xA;YR+ogN2LT5Mn0xMvcGO3/wCa3km0qFvWunH7FvG7f8MwVPxzEn2lhj1v3Oxxdh6mf8PD7yxjVfz1&#xA;t0jk/RmlvIwUlHuZAgrTaqIHr/wWYku2BdRj83Y4vZqXOc/kP0/sYvN+c3nS/gDRyQWVag/V4q/j&#xA;KZcxc3aea6FD8ebscHYOmG5Bl7z+qmO6j5i17Uq/X9QuLhT+w8jFPoWvH8MwMmec/qJLtMWkxY/o&#xA;iB8H0/nZvmTsVdirsVdirsVdirsVdirsVdirsVdirsVdirsVdirsVdirsVdiriQASTQDck4qlV95&#xA;s8s2NRdapbRsvVPVUv8A8ApLfhlE9TjjzkHKx6HPP6YSPwY1qP5z+SbOdYY5Li8Zq0aCKi7e8pi/&#xA;DMaXaWICxZ/Hm5+PsHUS51H3n9VpJffnpGKix0kt4PPKB/wiqf8AiWYk+2f5sftdhj9mj/HP5Bjt&#xA;9+cfnG4qIGt7MdvSi5H75TJmJPtXMeVD8ebsMXs/p487l7z+qmPX/m/zRf1F1qlzIh6xiRlT/gF4&#xA;r+GYk9VllzkXYYtBgh9MI/JKCSSSTUnck5Q5bWKXEVFPHFULp5pG6HqrZdm5214+SKylsfWGdw+V&#xA;OxV2KuxV2KuxV2KuxV2KuxV2KuxV2KuxV2KuxVA3uvaHYVF7qFvbMNissqK1fChNcqnmhHmQPi34&#xA;9Lln9MZH3AsfvfzV8kWtQL43Dj9iGN2/4YhV/HMWfaWEdbc/H2JqZfw17yEhvfzy0lK/UtNnnPYz&#xA;OkI/4X1cxp9sQ/hiT9n63Px+zWQ/VMD3b/qSG9/O7zFJUWlna26nuweRh9PJR+GYs+18h5ABzsfs&#xA;5hH1SkfkEhvPzM873dQ2pvEp6LCqRU+lFDfjmLPtDNL+Jz8fY+mj/BfvspFearql6a3l5Pcn/i6R&#xA;5P8AiROY08kpcyS52PBCH0xEfcKQmQbULe/DLBJ4NQ/hl2LkQ1z5hFZS2OxV2KuxV2KuxVC23w3U&#xA;6eJ5f5/fl094gtceZRWUtj6wzuHyp2KuxV2KuxV2KuxV2KqF7f2NjAbi9uIrW3XZppnWNB82YgYD&#xA;IDmyjEyNAWkE35meRIq/7mIZQDTlAHmFfnErjMaeuwxNGTnYuy9RkFxh9w+9Dyfmx5EWnHUGev8A&#xA;LBPt/wAEgyo9p4P532FuHYeqP8P2j9bafmt5DZanUih/lME9fwjOI7SwfzvsP6lPYeq/m/bH9aHv&#xA;Pzg8lW61hmmuz4QwsP8Ak76eRn2phHIk/D9bZj7A1MuYEfef1WxrUfz0kNV07S1XwkuJCf8AhEA/&#xA;4lmHk7ZP8Mfm7HF7ND+OfyH6f2Mbv/za863VQl1HaKeqwRKP+Gfmw+/MSfaeaXWvc7LF2Fpo8wZe&#xA;8/qpj195j1+/r9c1G5nU9UeVyv0LXiMxJ58kucifi7DHpMUPpjEfBLsqch2KuxV2KuxV2KuxVDag&#xA;tbev8pB/hluE+phk5IhG5IreIB+/KyKLIOZ0X7TAfM0xAJW2o5FlcRxVlkPRIwXJ+hQcmMUjyDGW&#xA;SI3JTaz8qebLyn1bRL11b7LtC0SHen2pOIy+Ohyy6OHk7T08Ocx807tPyk8/XNOdnBZg9550P4Re&#xA;rmTHsrIeezhZO39PHkSfh+uk4tfyL8wvT61qtpB4+jHJL/xL0svj2OepcSftLD+GJ+79aZ2v5A6e&#xA;snqXeszyuRRjDEkVR/sjLmRHsqFUS4k/aPJdxiB9v6k6tfyV8lQ09b63dU6+rOVr/wAihFl0ezcI&#xA;6OLPt7UnkQPh+u2eZnumdirsVdirsVdirUkiRo0kjBI0BZ3Y0AA3JJOAmkgEmg8g89/nRfR3D6Z5&#xA;ThViNn1iYAxg/wDFKH7XzYfRTfNVn7TiPpeg0nYWQkHIK8v1vKr1b3VLn63rN7PqV0f25nYgeyiu&#xA;w9htmny6uci9Jg7Ox4xVL44o40CRqEUdABQZjEk83OjERFBdgZOxV2Ksg8veSdW12yub62lt7ezt&#xA;CRcT3MhRUCrzLGgY0C71zL0+jnlBIqh3uu1naeLTkRldnuYlFqqXepxadpcEl/czyiG3VaRiRieK&#xA;la8jQ9fiA96ZOOis1bhT7bAFiPzLP/P/AJa8t+SfLcE15PLd+Y7xAtvZq6iBXoPUkNFDlErQbjkf&#xA;wzcnZ2PHHckyddHt3PkNREQPx5pD+U+g3XmXVn1DWLiO18u2TAzl/TjWaWlVhVn3p+0+/Tbvjp9L&#xA;jJs0I/jvas/aOoO0STLy/Yl00fpyvHUNwYryBBBoaVBGaUii9lE2LWYGS1pol+06j6RhESUWFa0t&#xA;r29NLG0nuz0pBFJJ7fsg5bHTzlyDTk1OOH1SATuz/L7z1eU9HRJ0B73Bjgp9EjKfwzJh2blPRwsn&#xA;bGmj/F8t/uTyz/JXzpPRriWys1PVWkeRx9CJx/4bMmHZE+pcLJ7R4R9IkU6tfyDV1A1DW2dT9qOC&#xA;BU79mdn/AFZkw7JiOZcHJ7SSP0w+ZT2y/JLyTAAJxd3gHaacqP8AkiIsyY9nYh0twp9u6iXIge4f&#xA;rtPbL8vfJFlQwaLakjo0sYmP3y8zl8dNjHKIcKfaGeXOcvu+5Pbe1trZPTt4khj/AJI1Cj7hTLgA&#xA;OTiykZbk2qYWLsVdirsVdirsVdirsVdirsVdirxD8zfzBl1a6k0jTZeOlQtxmkU/37qdzUfsDt49&#xA;fDOb7Q1xmeCP0j7f2PbdjdlDFEZJj94fs/a8+zVu/dirsVdirsVcSB12xVENrsy+X73QkuTFaahJ&#xA;G9z6TAOwjB+Do3wsSCfl4Zl4M04RMQObrdZoMeeUZSNcKv5T0jzBpl6l/wCXNKu2vAjIl2ls8tFc&#xA;fFQyKyKSNuQofvzIxnUE3EV8P7XCnpdFD65X75fqpkdx5C/M3X71b/ULEm54CNbq7miVwg3C0Us4&#xA;FT0plv5PUzNyLX+e0GIVEA/5qZ2n5HeZ5iDe6laWwPX0lknYf8EIh+OTj2QT9Ra5+0eOIqET9g/W&#xA;ndn+Q+lLT6/q91ORSvoLHAD94lP45kQ7JxjmXDye0eU/TED7f1J5Z/k/5Ct6GSxe7cU+K4mlbp4q&#xA;GVfwzJhocUejg5O2dTL+KvcE/sfKXlewp9T0m0gZejrDHz2/yqcvxzIjhgOQDhz1eWf1SkfimoAA&#xA;oNgOgyxx3Yq7FXYq7FXYq7FXYq7FXYq7FXYq7FXYq7FXYq7FWH/mn5hfSPK0qQPwu79vq0RHUKwr&#xA;Iw/2O1fE5gdpZ/Dxbc5bO37E0vi5wT9Md/1Pn/OWe+diqpa213eXS2ljbyXd2+6wQqXenjQdB7nL&#xA;ceGUzUQ1Zc8MYuRoM10r8mfOV6oe8a30uM9UkYzS/wDAx/B/w+bLH2TM/UadHn9ocMdogy/H46Mn&#xA;svyH0pafX9Xurgjr6CxwA/eJj+OZkOycY5l1uT2jyn6Ygfb+pOLb8mfIcQAltZro+M1xL/zLZMyI&#xA;9n4R0cOfbepP8VfAfpTGD8svIUJBTRbdiDX94Gk/4mWy0aXGP4XHl2nqD/GU8stG0iw/3hsbe1p0&#xA;9CJI+1P2QMujCI5CnFnmnP6iT7yi8k1uxV2KuxV2KuxV2KuxV2KuxV2KuxV2KuxV2KuxV2KuxV2K&#xA;uxV2KuxV2KvAvzV8yrrPmRoIH5WenAwREGoZ6/vXH+yHH5DOX7S1HiZKHKO363vOxNH4OGz9U9/1&#xA;fjzYZmvdymvlnyxqvmXUxYacoUKA11dMCY4UPdvFj+yvf5Zl6XSSyy25ODrtfDTwuXPoH0D5V8o6&#xA;P5Z08Wmnx/vGobm6feWVh+07fqHQZ0+HBHGKi8Fq9ZPPLikfh3J1lziuxV2KuxV2KuxV2KuxV2Ku&#xA;xV2KuxV2KuxV2KuxV2KuxV2KuxV2KuxV2KuxV2KuxV2KsO/MzzgNA0UwWz01S+Bjt6dY16PL9HRf&#xA;f5Zr+0NV4UKH1H8W7jsfQePluX0R5+fk8Bzl3vU58qeU9T8zakLOzHpwpRru7YVSFD+tj+yvf5Vz&#xA;L0mklml5Ov7Q7QhpoWfqPIPoTy/5e0vQNNj0/TohHEm7ud3kfu8jftMf89s6nFijCNReB1GpnmmZ&#xA;TNlMssaHYq7FXYq7FXYq7FXYq7FXYq7FXYq7FXYq7FXYq7FXYq7FXYq7FXYq7FXYq7FXYq7FUJq2&#xA;qWmlabcajdtxt7ZC706nsFHux2GV5cghEyPINuDDLLMQjzL5t8x6/ea9q8+pXRo0ppHHWojjH2UH&#xA;y/tzkdRnOWZkX0fSaWODGIR6fae9W8reVtS8x6mtlZLxRaNdXLD4IoyftHxJ/ZXv8qkT0ullmlQ5&#xA;dWrX66GnhxS59B3vobQNA03QtNj0/T4+EKbsx3eRz9p3Pdj/AGDbOrxYo448MeT5/qdTPNMzmdym&#xA;OWNDsVdirsVdirsVdirsVdirsVdirsVdirsVdirsVdirsVdirsVdirsVdirsVdirsVdirsVYz+ZU&#xA;Rl8kaqg6lEI+YlQj9WV5sQyQMT1b9NnOHIJjnF4vpOn6v5qu7LRrW0hga1U+rcJHx4pRVLysOo+H&#xA;bxYnxzRZtJllKOOhQ/i/H4t6vTdo4IRnm4iTI/Qeh8v19z3vy55d07QNLj0+xSiLvLKftySHq7nx&#xA;P4dM3eDBHFHhi8tq9VPPMzn/AGJnlzjOxV2KuxV2KuxV2KuxV2KuxV2KuxV2KuxV2KuxV2KuxV2K&#xA;uxV2KuxV2KuxV2KuxV2KuxV2Kse/MH/lDtT/ANRP+Ti4qwr8m/8Ajp6j/wAYE/4nil6tih2KuxV2&#xA;KuxV2KuxV2KuxV2KuxV2KuxV2KuxV2KuxV2KuxV2KuxV2KuxV2KuxV2KuxV2KuxV2Kse/MH/AJQ7&#xA;U/8AUT/k4uKsK/Jv/jp6j/xhT/ieKXq2KHYq7FXYq7FXYq7FXYq7FXYq7FXYq7FXYq7FXYq7FXYq&#xA;7FXYq7FXYq7FXYq7FXYq7FXYq7FXYq+X/P3kK1HnPVy1/dSPLcNKWcoTWUB6VK9ByoPbMWWliTZc&#xA;mOokBSSXH5dx20npXE91FJSvBwinw7rg/JwT+ak+k/yy0ddI8jaVZpcS3Kel6oeYgsPVJfiKADiv&#xA;KgzIhDhFBx5y4jbKMmxdirsVdirsVdirsVdirsVdirsVdirsVdirsVdirsVdirsVdirsVdirsVdi&#xA;rsVdirsVdirsVfP35j6nZw+cdTZplFJFFaj7SooIr4gjMXJrIRPCLlLuAt2GHs3JKImTGET1ka/a&#xA;xq68zzX8pkrNezdOdGfvX7R+Hqa9euQ8bNL6YV/WP6A2fltND68nF5RH6Ts+h/IMV7H5P0oXr8pm&#xA;gRwpUKURxyVDSoPFTSvfMnFGQj6jZcHUShKdwHDH5p/ljS7FXYq7FXYq7FXYq7FXYq7FXYq7FXYq&#xA;7FXYq7FXYq7FXYq7FXYq7FXYq7FXYq7FXYq7FXYq8e/N3yVolvLDqsKulxezu06hvg5kcmddqgsf&#xA;tb0yjHp4wkZD+Lp097lZdXLJjjCQHp5HrXd7mF+X7eOz1m0uVUXJhfmLe6mCQvQE0dn+EfTks0zC&#xA;JIq/M0jS4RkyCJuj3C/sfQXlrXYdd0W31OGJoEm5D0moaFGKGhGxFV2ODT5hlgJDqus0xwZDAm6T&#xA;PLnGdirsVdirsVdirsVdirsVdirsVdirsVdirsVdirsVdirsVdirsVdirsVdirsVdirsVdirsVeJ&#xA;fmpL5tub54bwtbW0Vy4sF9L/AEdoKfC6yK3JpDtyU9M13BkyZCJGUYjlXKve7vxMOHDGWOMJyPPi&#xA;3IP9Xu7ixzyTo8cnmvTBqM/1mAzAPC6IImqCKMDyrv2rlo0OIbkX793Hl2pqJCgeEd0RX3Po6OOO&#xA;ONY41CRoAqIoAAA6AAZlgU60kk2V2FDsVdirsVdirsVdirsVdirsVdirsVdirsVdirsVdirsVdir&#xA;sVdirsVdirsVdirsVdirsVdiryf84/NGhtFbWKXSvc2kzfWQK8UJWnEuaLy9q1zEnrIRPCLlLyFu&#xA;ww9m5JRE5GMInrI1+1555euV1fWrTT7S3S6e5fgqziQQGoP23QAgfI1ynJPLliY+Hsf5x/QHKwY8&#xA;GCQn4vqH82P6Ts+hfKmkXukaDa6feXP1qeENylHIgAsSEUtViFBoK5labEccBEmyHA12eOXKZxHC&#xA;Cm2XuI7FXYq7FXYq7FXYq7FXYq7FXYq7FXYq7FXYq7FXYq7FXYq7FXYq7FXYq7FXYq7FXYq7FXYq&#xA;8O/NgaXpHnbS7VY2a31EyahdWsjkRPLzCv6Na0kcV5ZrdTpZ+rwZ8E5fEX7nZx13Fj4ckRPhFA/x&#xA;D+xjFp5l/QmtWeo+moJvoktLUgs7I8ioQFDbsFZiPi8K5kabxY4wMpBn3j8D7nBkAT6eT6YBqAfH&#xA;xzKanYq7FXYq7FXYq7FXYq7FXYq7FXYq7FXYq7FXYq7FXYq7FXYq7FXYq7FXYq7FXYq7FXYqpSXl&#xA;pFOkEk8aTy/3cTModv8AVUmpwWE0q4UPCfzevdF1nztozTac2r6foouYdRtS/ocpGdQFRqqTxMZq&#xA;cpyRJI2ttxmgd2N6uvlKa80y60fyo+mXVneW9xLdNd+s3pRTJIyqrORUqppkTE9zIS830fpOq2eq&#xA;6fFf2bFrablwZgVPwsVOx91OZDQrXF5aW3E3M8cPM8U9RlTkfAVIrgJASBarhQ7FXYq7FXYq7FXY&#xA;q7FXYq7FXYq7FXYq7FXYq7FXYq7FXYq7FXYq7FXYq7FXYqxP8x/zAsPJehm8lCzahcVTT7MmnqOO&#xA;rNTfglasfo75TmzCAvq24sRmXynrPmjXtZv7q/1C8ea4u2UymtBRDyRVH7KofsgdM1EshkbLs4wA&#xA;FBMvLn5h+Y9Ev4ruO4edoyK+oxLMo6qW6kH3rl+PVyjz3DVk00Zctl/5yfmfp3m3UtNk0hfqEdtb&#xA;k3oDLFI11I37wMUPxqoQcST3PTfMqWQyogFx4wEdiQwTTdfu7LUbW8F0Zfq0qS+lJLyRuDBuLKSQ&#xA;QaUIORHF3Mjw972T8wvzqTW1isPLcfoaPCPhcgJ6jn7Temp4gA/ZB/2nLrDHaIoscWkB3kbebz6t&#xA;qc8plnuZJXKNHV2LURxRlAOwHyzAlklI2TbmxxxiKAp7Z+Sf5vyvLb+VfMM3MtSPS7+Q716LBIT1&#xA;r0Rvo8MzdLqP4ZOJqMH8Qe7ZsHCdirsVdirsVdirsVdirsVdirsVdirsVdirsVdirsVdirsVdirs&#xA;VdirsVdir5A/NLzdN5n85X15zJsrdzbWCV2EMRIDD/XNXPzzS58nHIl22GHDFjPl/S9W8x60mjaF&#xA;bG7vWqZGJ4RRIv2nkc7Kq/2dclj05O52YzzgcntOmf8AONlubNTqfmSMXrAF0togYlPcBnkDP86L&#xA;8syPykP5zT+Zl3Kevf8AOOsOr2mnWF553hW30mN4bNBZoGVHIJDH6zufhGZImBtxD8fFxzAnfhP4&#xA;+CX6Z/zi9pum6laajbeeIhc2U0dxAWtIyOcTB1qPrPiMfEH86P4+K+Gf5p/HwTqb/nH/AEi7urm8&#xA;vvN8ct3dOZJHit4ok5EU+wJm22HfKMmOEzZkG6E5xFCJea/mB+WuseUUN9FdW+t6KG4yXlmwEkR6&#xA;fvoeTlfmGI960zHlgj/DIFvGaXWJDEIJ1dUmheo6o6mm4zHlExNFuEgRYfX/AOU/myXzP5Jsr+4b&#xA;nfQVtb1u7SxAfEfd0Ksfnm40+Tjhbq88OGVMwy5qdirsVdirsVdirsVdirsVdirsVdirsVdirsVd&#xA;irsVdirsVdirsVdirsVfA+uyzWVrMhHCcN6RHcNWh/Uc02nx8U6LtM86hYewflf5XtrD8ln1ihW6&#xA;1nUE9RxsWghZo1j9x6nNv9rL9bESgL5GY+VsNHIxma5iB+amNb0m2uJoZ9Na5CNxVlnMVCpIP7D5&#xA;lDsrB/N+/wDW4Z7Vz39X3fqZHoU3kTU9LuJJrW4s9QjLLFH6pliY0qhLBFYCvUUyvJ2XhA2iL+LZ&#xA;i7Tyk7yNfBfpen+WvrX+5Qj6pQ1+r+r6gPanIUpmLh7N9XrjCvK3Lzdo7eiUr+CUaz5j8i2mrzWV&#xA;lptxcxR0VZJLn0nL8ak8PSbYfPM4dlYK+kfb+twJdq5ga4vu/UreUbnSr+7u1lsi0cVs8jpXkHiG&#xA;1xEw/wAu3MgynPocWGPiQFGO/wAOv2N2n12TLLgkbEvv6fa8Pu7L9C+bdW0IP6kNrczRRP8Azek5&#xA;UOPZlFcr1EQYiXc2YJESI7305/zjVDKvkzUJG/u5NQfgN/2YYqnLtF9J97Vq/qHuet5mOK7FXYq7&#xA;FXYq7FXYq7FXYq7FXYq7FXYq7FXYq7FXYq7FXYq7FXYq7FXYq+Tvzd/LkJ+YN9YmT6vaXxOp2rhe&#xA;QIlJDpSq04yFu/SmabVZvy8zIC7/AEu202Hx4gE1ScaZq17p3kvTfLT0lg0trhoABx9SWaaR42YV&#xA;6IslaePtlENbDJOPFtCHq+P7G/JpJ44S4d5z9PwYzdWOvXd007elEr7lQ5U17k8VcVObGXbeAcuI&#xA;/D9odbHsXOdzwj4/sKaae2r2cXpr6FD9o1Yknx5cR+rMWfbUD/O+Q/WXKh2NMfzfmf1BFjUtaC8e&#xA;Fvyr9ss52/1Qq/ryY7bxAcpH5MT2NlJ5x+1LLqxurm5NzLFbmY0q4Lg/RTpj/LkP6Q+A/wCKQexJ&#xA;/wBE/E/8Smnl3VLvRNTgufq8b25bjcRAmrIwKMvInaqsRlse1MUwQSTt3ftapdmZcZBAA37/ANjF&#xA;PMPlC2N3e67G0s0pdBAiqfh5kR0kpyqzb0pmqxauRAxjePU/c7XNpYgnIdpd33vqL8svLknl7yPp&#xA;emzR+ldiMzXanqJZiXYH3Xlx+jOg08OGABdFnlcyWUZc1OxV2KuxV2KuxV2KuxV2KuxV2KuxV2Ku&#xA;xV2KuxV2KuxV2KuxV2KuxV2KsS/MTSdLfSzrs9ukl/pKSG0kZVb++UxcWDA1VWcOPdR71wdfGIxm&#xA;RFkOZoTI5BEHYvGbHyz5p1qUzaXZC6Va8pZZPSXkTv8AEVbkc5/SYfFBjv51X6SHearUDFIH08uW&#xA;/wCgFD3nlT8xLeYxPYWkTj9l5i230AZnR7Lj1GT/AGH/ABThy7Sn0OP/AGf6kG3lj8ySPhisVP8A&#xA;rMf+NstHZ2L+Zk+cP1tR7Qy/z8fyl+ppfLH5l/tR2J+TEf8AGxw/yfi/1PJ84/8AFI/P5f58PlL/&#xA;AIlVTy3+YQ+3bWTeNJCP65CXZmM8o5PnD9bOPaOQc5Y/lP8AUmNn5M8+3kbD9G27JQgstxQE+Aqu&#xA;Vjswg3ETHv4P+KbD2lYqXAb7uL/iU+8jRmy8xWuj67blFmnhlMbD/j5g5egSSN05vUU70ynQ5Bjz&#xA;mBFAn5Ho26yHiYBMGzEf2vdM6d512KuxV2KuxV2KuxV2KuxV2KuxV2KuxV2KuxV2KuxV2KuxV2Ku&#xA;xV2KuxV2KpJ5z0SLWfLt3ZySyRcV9ZGjfhV4vjQP4pyA5DKdTDixyHeC3aeXDkifMMX8n+bfL8Pl&#xA;+GBrqG0nhRVaOV1j+JQAd2I6neucl2fqZYsOSA/vOIyH9IHz5X0+XR2Os0s/EJokFBeZfMmi39zE&#xA;Y7q2YxpxdxMlCSa0G/bOj0ervEDlMYz6jiGzgS02S9oy+RSf9I6X/wAtNt/yOX+uZP5nF/Oj8wx/&#xA;LZP5svkXfpHS/wDlptv+Ry/1x/M4v50fmF/LZP5svkXfpHS/+Wm2/wCRy/1x/M4v50fmF/LZP5sv&#xA;kWZeV/NPlqLTlgl1G1glQmoeaNQQTUUJO+QnqMf86PzCRp8n82XyKTap+hvNXnXTbG0mZo7cyTXF&#xA;3bNxICAMoSQf5ajcZoMJGbX8Y+kAfHhvf7g7GOOeLTS4tuJ6fnUundirsVdirsVdirsVdirsVdir&#xA;sVdirsVdirsVdirsVdirsVdirsVdirsVdiqD1qDULjSLyDTZkt7+WF0tZ5F5IkjKQrMCGqAfY4RX&#xA;VBvo+L9a8x63o+t6lpVzP6lzY3U9tcOnFo2kikZHKc1B4krtsPlkJ9naeZsw+W33Jh2hqIChP9P3&#xA;sn/LjQvOPn79I/om7tbf9G+j6/1sceXr+px4enDJ09I1rlUuzNMP4ftl+ttj2jqT/F9kf1PRNF8h&#xA;aVYxXFj5stbm61iCbaWzF8YpIzGjIYfqyoHWpIPw1rUHJR0eGIoRFee/3sZavMTcpG/Lb7k4i8q+&#xA;RYiWXRNSJbYlrPVnO3+shpkxggOUY/IMDmmecpfMse1P8pfNOratc3PlkQaRpHGNY7fUEkhcyKlH&#xA;ZEaKVuJoPtU3rkMmjwTNzjZ8rH3EM4avPAVCVDzo/eC8j8w65q+g67faNdXCy3WnzNBNJBGhjLoa&#xA;NxLojUr7YjsrTEfT9sv1qe09SD9X2R/Uzb8jm8z+ZvN8V3ZXv1e10d4578uoUyRSFlMShFNeahh8&#xA;RFOvUDJ49Fgwm4Ronbmf0ljPWZ8205WBvyH6A+oMkh2KuxV2KuxV2KuxV2KuxV2KuxV2KuxV2Kux&#xA;V2KuxV2KuxV2KuxV2KuxV2KuxV8Y/m7/AIL/AOVja79Q+uV+tS/Xf7vh9b5n6x6dfi4+pXr3r2pm&#xA;RG6ceVW9h/5xc/wx+gNY/Rfr/pP14v0l9Y4fYo/1fhw/Z+313rX2yvJbZjp7blbY7FXYq+ffzl/5&#xA;UJ/iO6/TX17/ABD8P179DceXLiKep637jnx6038cthxNU+G2T/8AOOv/ACr39B6n/hP659a9WP8A&#xA;Sv6Q9P1/st6NPS+D0/t8e9a1wZL6px10et5W2OxV2KuxV2KuxV2KuxV2KuxV2KuxV2KuxV2KuxV2&#xA;KuxV2KuxV2KuxV2KuxV//9k=</xmpGImg:image>
               </rdf:li>
            </rdf:Alt>
         </xmp:Thumbnails>
         <xmpMM:InstanceID>xmp.iid:e4b268d9-96c4-6e44-86a3-5483ab51478f</xmpMM:InstanceID>
         <xmpMM:DocumentID>xmp.did:e4b268d9-96c4-6e44-86a3-5483ab51478f</xmpMM:DocumentID>
         <xmpMM:OriginalDocumentID>uuid:5D20892493BFDB11914A8590D31508C8</xmpMM:OriginalDocumentID>
         <xmpMM:RenditionClass>proof:pdf</xmpMM:RenditionClass>
         <xmpMM:DerivedFrom rdf:parseType="Resource">
            <stRef:instanceID>xmp.iid:2cbbe80e-d2d5-7c44-978b-bcb8992dc99d</stRef:instanceID>
            <stRef:documentID>xmp.did:2cbbe80e-d2d5-7c44-978b-bcb8992dc99d</stRef:documentID>
            <stRef:originalDocumentID>uuid:5D20892493BFDB11914A8590D31508C8</stRef:originalDocumentID>
            <stRef:renditionClass>proof:pdf</stRef:renditionClass>
         </xmpMM:DerivedFrom>
         <xmpMM:History>
            <rdf:Seq>
               <rdf:li rdf:parseType="Resource">
                  <stEvt:action>saved</stEvt:action>
                  <stEvt:instanceID>xmp.iid:2cbbe80e-d2d5-7c44-978b-bcb8992dc99d</stEvt:instanceID>
                  <stEvt:when>2015-03-10T21:17:13-05:00</stEvt:when>
                  <stEvt:softwareAgent>Adobe Illustrator CC 2014 (Windows)</stEvt:softwareAgent>
                  <stEvt:changed>/</stEvt:changed>
               </rdf:li>
               <rdf:li rdf:parseType="Resource">
                  <stEvt:action>saved</stEvt:action>
                  <stEvt:instanceID>xmp.iid:e4b268d9-96c4-6e44-86a3-5483ab51478f</stEvt:instanceID>
                  <stEvt:when>2015-04-03T00:01:47-05:00</stEvt:when>
                  <stEvt:softwareAgent>Adobe Illustrator CC 2014 (Windows)</stEvt:softwareAgent>
                  <stEvt:changed>/</stEvt:changed>
               </rdf:li>
            </rdf:Seq>
         </xmpMM:History>
         <illustrator:StartupProfile>Print</illustrator:StartupProfile>
         <xmpTPg:HasVisibleOverprint>False</xmpTPg:HasVisibleOverprint>
         <xmpTPg:HasVisibleTransparency>True</xmpTPg:HasVisibleTransparency>
         <xmpTPg:NPages>1</xmpTPg:NPages>
         <xmpTPg:MaxPageSize rdf:parseType="Resource">
            <stDim:w>2.622162</stDim:w>
            <stDim:h>2.250823</stDim:h>
            <stDim:unit>Inches</stDim:unit>
         </xmpTPg:MaxPageSize>
         <xmpTPg:PlateNames>
            <rdf:Seq>
               <rdf:li>Cyan</rdf:li>
               <rdf:li>Magenta</rdf:li>
               <rdf:li>Yellow</rdf:li>
               <rdf:li>Black</rdf:li>
            </rdf:Seq>
         </xmpTPg:PlateNames>
         <xmpTPg:SwatchGroups>
            <rdf:Seq>
               <rdf:li rdf:parseType="Resource">
                  <xmpG:groupName>Default Swatch Group</xmpG:groupName>
                  <xmpG:groupType>0</xmpG:groupType>
               </rdf:li>
            </rdf:Seq>
         </xmpTPg:SwatchGroups>
         <pdf:Producer>Adobe PDF library 10.01</pdf:Producer>
      </rdf:Description>
   </rdf:RDF>
</x:xmpmeta>
                                                                                                    
                                                                                                    
                                                                                                    
                                                                                                    
                                                                                                    
                                                                                                    
                                                                                                    
                                                                                                    
                                                                                                    
                                                                                                    
                                                                                                    
                                                                                                    
                                                                                                    
                                                                                                    
                                                                                                    
                                                                                                    
                                                                                                    
                                                                                                    
                                                                                                    
                                                                                                    
                           
<?xpacket end="w"?>
	</metadata>
<path fill="#C23F28" d="M220.2,1.3c-26.9,6.2-63.8,12.5-63.8,12.5s-36.7,6.1-45.9,8.3c-9.2,2.1-5,0.9-19.2,1.3S67.9,33.9,65.8,39.6
	c-2.1,5.7-3.5,8.2-5.7,11.6c-1.3,2.1-3.7,5.4-5.2,7.5c-0.9,1.2-0.7,2.9,0.5,3.9l3,1.8c0,0,17.3-18.4,23.1-22.7
	c5.8-4.3,25-5.2,25-5.2s93.4-14.9,97.4-15.2c1.1-0.1,7.7-0.9,16.4-2V1.3z"/>
<rect x="38.5" y="119" transform="matrix(-0.9925 0.122 -0.122 -0.9925 107.0397 234.1495)" fill="#FFFFFF" width="15.7" height="2.8"/>
<rect x="57.9" y="118.9" transform="matrix(0.9925 0.122 -0.122 0.9925 15.1779 -7.1298)" fill="#FFFFFF" width="15.7" height="2.8"/>
<path fill="#34A3DC" d="M62.5,121.8l2.4-3.1c0.3-0.4,0.8-0.6,1.4-0.5l4.1,0.8L62.5,121.8z"/>
<g opacity="0.18">
	<g>
		<g>
			<defs>
				<rect id="SVGID_1_" x="46.8" y="118.7" width="3.3" height="2.7"/>
			</defs>
			<clipPath id="SVGID_2_">
				<use xlink:href="#SVGID_1_"  overflow="visible"/>
			</clipPath>
			<polygon clip-path="url(#SVGID_2_)" fill="#24231F" points="49.1,121.4 50,121.3 48,118.7 46.8,118.9 			"/>
		</g>
	</g>
</g>
<path fill="#8D8B8C" d="M62.5,121.8l2.4-3.1c0.3-0.4,0.8-0.6,1.4-0.5l4.1,0.8L62.5,121.8z"/>
<path fill="#8D8B8C" d="M49.8,121.8l-2.6-3.3c-0.3-0.4-0.8-0.6-1.4-0.5l-4.1,0.8L49.8,121.8z"/>
<path fill="#49301C" d="M78,140c0.1-0.3,0.1-0.4-0.2-0.5l-2-0.9c-0.5-0.2-1,0-1.2,0.4c-0.6,1.2-1.2,2.1-1.4,2.5c0,0,0,0,0,0l0,0
	c2-9.3-1.5-12.7-4.5-14.2c-2.5-1.2-5.2-0.9-6.7-0.6v-4.1l6.3-3.1c0.4-0.2,0.9-0.2,1.3,0.1c1.7,1.4,6.5,5.6,7.2,10.4
	c0.1,0.8,0.1,1.5,0.1,2.2l1.5,2c0,0,0.3,5.7,0.4,5.8c0,0.1-0.7,0.9-0.7,0.9L78,140z M69.3,120.2c0-0.3-0.3-0.6-0.6-0.6
	c-0.3,0-0.6,0.3-0.6,0.6c0,0.3,0.3,0.6,0.6,0.6C69.1,120.8,69.3,120.5,69.3,120.2"/>
<path fill="#49301C" d="M50.5,122.5v4.1c-1.5-0.3-4.2-0.6-6.7,0.6c-3,1.5-6.5,4.8-4.5,14l0,0h0l0,0c-0.2-0.5-0.8-1.3-1.3-2.3
	c-0.2-0.4-0.8-0.6-1.2-0.4l-2,0.9c-0.3,0.1-0.3,0.2-0.2,0.5l0.2,0.9c0,0-0.7-0.8-0.7-0.9c0-0.1,0.4-5.8,0.4-5.8l1.5-2
	c-0.1-0.7,0-1.5,0.1-2.2c0.6-4.7,5.4-9,7.2-10.4c0.4-0.3,0.9-0.3,1.3-0.1L50.5,122.5z M44.3,120.2c0-0.3-0.3-0.6-0.6-0.6
	c-0.3,0-0.6,0.3-0.6,0.6c0,0.3,0.3,0.6,0.6,0.6C44,120.8,44.3,120.5,44.3,120.2"/>
<path fill="#24231F" d="M46.3,125.8c0,0-6.5,0.6-8,6.5c-0.5,1.8-0.6,3.2-0.6,3.9c0,0.4-0.2,0.7-0.6,0.9l-2.7,1.2l-2.2-8
	c0,0,7.3-5.6,7.5-5.6s6,0,6.3,0C46.3,124.7,46.3,125.8,46.3,125.8"/>
<path fill="#24231F" d="M66.1,125.6c0,0,6.5,0.8,8,6.7c0.5,1.8,0.6,3.2,0.6,3.9c0,0.4,0.2,0.7,0.6,0.9l2.7,1.2l2.2-8
	c0,0-7.3-5.6-7.5-5.6c-0.2,0-6,0-6.3,0C66.1,124.7,66.1,125.6,66.1,125.6"/>
<g opacity="0.18">
	<g>
		<g>
			<defs>
				<rect id="SVGID_3_" x="53.3" y="118.1" width="8.2" height="3.1"/>
			</defs>
			<clipPath id="SVGID_4_">
				<use xlink:href="#SVGID_3_"  overflow="visible"/>
			</clipPath>
			<polygon clip-path="url(#SVGID_4_)" fill="#24231F" points="60.3,118.1 53.4,118.2 53.4,121.1 60.7,121.1 61.5,121.2 			"/>
		</g>
	</g>
</g>
<path fill="#8D8B8C" d="M60.3,111.6h-0.1V110h0.1c0.3,0,0.6,0.3,0.6,0.6v0.4C60.9,111.3,60.7,111.6,60.3,111.6"/>
<path fill="#8D8B8C" d="M51.9,111.6h0.1V110h-0.1c-0.3,0-0.6,0.3-0.6,0.6v0.4C51.3,111.3,51.6,111.6,51.9,111.6"/>
<path fill="#49301C" d="M60.2,108.6v8H52v-8c0-0.1,0.1-0.2,0.2-0.2H60C60.1,108.4,60.2,108.5,60.2,108.6 M53.5,115.5h5.1v-2.1h-5.1
	V115.5z M52.6,115.5h0.5v-2.1h-0.5V115.5z M59.6,113.4H59v2.1h0.5V113.4z"/>
<g opacity="0.44">
	<g>
		<g>
			<defs>
				<rect id="SVGID_5_" x="53" y="108.4" width="7.1" height="4.2"/>
			</defs>
			<clipPath id="SVGID_6_">
				<use xlink:href="#SVGID_5_"  overflow="visible"/>
			</clipPath>
			<path clip-path="url(#SVGID_6_)" fill="#24231F" d="M60,108.4L60,108.4H53v0.7c0,1.9,1.6,3.5,3.5,3.5h0.1c1.9,0,3.5-1.6,3.5-3.5
				L60,108.4L60,108.4z"/>
		</g>
	</g>
</g>
<path fill="#8D8B8C" d="M50.4,78.2V87c0,1.2,0.9,2.1,2.1,2.1h0v19.8c0,1.9,1.6,3.5,3.5,3.5h0.1c1.9,0,3.5-1.6,3.5-3.5V89.1h0
	c1.2,0,2.1-0.9,2.1-2.1v-8.8c0-0.7-0.6-1.3-1.3-1.3h-8.8C51,76.9,50.4,77.5,50.4,78.2"/>
<path fill="#49301C" d="M57.3,109c0,0.7-0.5,1.2-1.2,1.2c-0.7,0-1.2-0.5-1.2-1.2c0-0.7,0.5-1.2,1.2-1.2
	C56.7,107.9,57.3,108.4,57.3,109"/>
<g opacity="0.54">
	<g>
		<g>
			<defs>
				<rect id="SVGID_7_" x="52.6" y="95.2" width="7.1" height="15.1"/>
			</defs>
			<clipPath id="SVGID_8_">
				<use xlink:href="#SVGID_7_"  overflow="visible"/>
			</clipPath>
			<path clip-path="url(#SVGID_8_)" fill="#24231F" d="M59.6,104c-0.9,0.2-2.1,0.5-3.2,0.7c-1.5,0.3-2.8,0.5-3.9,0.9v1.2
				c0.1,0,0.1,0,0.2-0.1c1.1-0.4,2.5-0.7,3.9-0.9c1.1-0.2,2.1-0.4,3-0.6L59.6,104L59.6,104z"/>
		</g>
		<g>
			<defs>
				<rect id="SVGID_9_" x="52.6" y="95.2" width="7.1" height="15.1"/>
			</defs>
			<clipPath id="SVGID_10_">
				<use xlink:href="#SVGID_9_"  overflow="visible"/>
			</clipPath>
			<path clip-path="url(#SVGID_10_)" fill="#24231F" d="M56.8,109.3c-0.1-0.2-0.3-0.4-0.6-0.4c-1.3,0.1-2.7-0.6-3.6-0.6v0.6
				c0,0.2,0,0.5,0.1,0.7c1.1,0.2,2.8,0.7,3.7,0.6C56.6,110.1,56.9,109.7,56.8,109.3L56.8,109.3z"/>
		</g>
		<g>
			<defs>
				<rect id="SVGID_11_" x="52.6" y="95.2" width="7.1" height="15.1"/>
			</defs>
			<clipPath id="SVGID_12_">
				<use xlink:href="#SVGID_11_"  overflow="visible"/>
			</clipPath>
			<path clip-path="url(#SVGID_12_)" fill="#24231F" d="M59.6,96.4v-1.2c-0.9,0.2-2.1,0.5-3.2,0.7c-1.5,0.3-2.8,0.5-3.9,0.9v1.2
				c0.1,0,0.1,0,0.2-0.1c1.1-0.4,2.5-0.6,3.9-0.9C57.7,96.8,58.7,96.6,59.6,96.4"/>
		</g>
	</g>
</g>
<g opacity="0.54">
	<g>
		<g>
			<defs>
				<rect id="SVGID_13_" x="51" y="85.4" width="10.7" height="3.7"/>
			</defs>
			<clipPath id="SVGID_14_">
				<use xlink:href="#SVGID_13_"  overflow="visible"/>
			</clipPath>
			<path clip-path="url(#SVGID_14_)" fill="#24231F" d="M56.3,88.3c2.1-0.4,4.1-0.9,5.4-1.5v-1.4c-0.3,0.2-0.9,0.6-1.8,0.9
				c-1.1,0.4-2.5,0.6-3.9,0.9c-2.1,0.4-3.9,0.8-5.1,1.3c0.4,0.4,0.9,0.6,1.5,0.6h0v0C53.6,88.8,55,88.5,56.3,88.3"/>
		</g>
	</g>
</g>
<path fill="#E35326" d="M62.5,102.1c-0.2-1-1.2-1.6-2.9-2.1v1.2c0.1,0,0.2,0.1,0.4,0.1c1.4,0.4,1.4,0.8,1.4,0.8s0,0.4-1.4,0.8
	c-1.1,0.4-2.5,0.6-3.9,0.9c-3.5,0.7-6.2,1.2-6.2,2.8c0,1.4,2.9,2.3,6,2.9c0.4,0.1,0.7-0.2,0.7-0.6l0,0c0-0.3-0.2-0.5-0.5-0.6
	c-1.3-0.3-2.9-0.8-3.8-1c-1.4-0.4-1.4-0.8-1.4-0.8s0-0.4,1.4-0.8c1.1-0.4,2.5-0.7,3.9-0.9C60.3,104.2,62.8,103.7,62.5,102.1"/>
<path fill="#E35326" d="M59.6,91.2v1.2c0.1,0,0.2,0.1,0.4,0.1c1.4,0.4,1.4,0.8,1.4,0.8s0,0.4-1.4,0.8c-1.1,0.4-2.5,0.6-3.9,0.9
	c-3.5,0.7-6.2,1.2-6.2,2.8c0,0.9,1,1.5,2.6,2v-1.2c0,0,0,0-0.1,0C51.1,98,51,97.6,51,97.6s0-0.4,1.4-0.8c1.1-0.4,2.5-0.6,3.9-0.9
	c3.5-0.7,6.2-1.2,6.2-2.8C62.5,92.2,61.4,91.6,59.6,91.2"/>
<path fill="#49301C" d="M59.3,117.1h-6.5l-2.4,6.9c-0.4,1,0.4,2,1.5,2h8.3c1.1,0,1.8-1.1,1.5-2L59.3,117.1z"/>
<path fill="#E35326" d="M52.6,90.8v-1.2c0,0-0.1,0-0.1,0c-1.4-0.4-1.4-0.8-1.4-0.8s0-0.4,1.4-0.8c1.1-0.4,2.5-0.6,3.9-0.9
	c2.6-0.5,5.2-1.1,6.3-2.1c0.4-0.4,0.1-1-0.4-1l0,0c-0.1,0-0.2,0-0.4,0.1c-0.3,0.2-0.9,0.7-1.9,1c-1.1,0.4-2.5,0.6-3.9,0.9
	c-3.5,0.7-6.2,1.2-6.2,2.8C49.9,89.8,50.9,90.4,52.6,90.8"/>
<g opacity="0.54">
	<g>
		<g>
			<defs>
				<rect id="SVGID_15_" x="55" y="81.6" width="2.5" height="2.5"/>
			</defs>
			<clipPath id="SVGID_16_">
				<use xlink:href="#SVGID_15_"  overflow="visible"/>
			</clipPath>
			<path clip-path="url(#SVGID_16_)" fill="#24231F" d="M57.5,82.9c0,0.7-0.6,1.2-1.2,1.2c-0.7,0-1.2-0.6-1.2-1.2
				c0-0.7,0.6-1.2,1.2-1.2C56.9,81.6,57.5,82.2,57.5,82.9"/>
		</g>
	</g>
</g>
<path fill="#FFFFFF" d="M57.3,82.7c0,0.7-0.6,1.2-1.2,1.2c-0.7,0-1.2-0.6-1.2-1.2c0-0.7,0.6-1.2,1.2-1.2
	C56.7,81.4,57.3,82,57.3,82.7"/>
<g opacity="0.28">
	<g>
		<g>
			<defs>
				<rect id="SVGID_17_" x="52.1" y="117.6" width="8" height="1.7"/>
			</defs>
			<clipPath id="SVGID_18_">
				<use xlink:href="#SVGID_17_"  overflow="visible"/>
			</clipPath>
			<polygon clip-path="url(#SVGID_18_)" fill="#24231F" points="52.1,119.3 60.1,119.3 59.5,117.6 52.7,117.6 			"/>
		</g>
	</g>
</g>
<path fill="#6E451C" d="M60.8,118.3h-9.4c-0.4,0-0.7-0.3-0.7-0.7v-0.8c0-0.4,0.3-0.7,0.7-0.7h9.4c0.4,0,0.7,0.3,0.7,0.7v0.8
	C61.5,118,61.2,118.3,60.8,118.3"/>
<path fill="#F8EC20" d="M55.6,109.8l-1.7-0.5l0.5-1.6l1.7,0.5c0.5,0.1,0.7,0.6,0.6,1.1l0,0C56.5,109.7,56,109.9,55.6,109.8"/>
<path fill="#49301C" d="M56.2,109c0,0.2-0.2,0.4-0.4,0.4c-0.2,0-0.4-0.2-0.4-0.4c0-0.2,0.2-0.4,0.4-0.4
	C56,108.6,56.2,108.8,56.2,109"/>
<g opacity="0.54">
	<g>
		<g>
			<defs>
				<rect id="SVGID_19_" x="55.9" y="81.4" width="0.4" height="2.5"/>
			</defs>
			<clipPath id="SVGID_20_">
				<use xlink:href="#SVGID_19_"  overflow="visible"/>
			</clipPath>
			<path clip-path="url(#SVGID_20_)" fill="#24231F" d="M55.9,83.9c0.1,0,0.1,0,0.2,0s0.1,0,0.2,0v-2.5c-0.1,0-0.1,0-0.2,0
				s-0.1,0-0.2,0V83.9z"/>
		</g>
	</g>
</g>
<g opacity="0.37">
	<g>
		<g>
			<defs>
				<rect id="SVGID_21_" x="52" y="89" width="8.2" height="1.4"/>
			</defs>
			<clipPath id="SVGID_22_">
				<use xlink:href="#SVGID_21_"  overflow="visible"/>
			</clipPath>
			<path clip-path="url(#SVGID_22_)" fill="#24231F" d="M52,89c0.2,0,0.4,0.1,0.5,0.1h0v1.3h7.1v-1.3h0c0.2,0,0.4,0,0.5-0.1H52z"/>
		</g>
	</g>
</g>
<line fill="none" stroke="#8D8B8C" stroke-width="2" stroke-linecap="square" stroke-miterlimit="10" x1="50.9" y1="117.4" x2="61.4" y2="117.4"/>
<path fill="#8D8B8C" d="M58.3,78.6h-4.4v-19c0-1.2,1-2.2,2.2-2.2h0c1.2,0,2.2,1,2.2,2.2L58.3,78.6L58.3,78.6z"/>
<g opacity="0.24">
	<g>
		<g>
			<defs>
				<rect id="SVGID_23_" x="53.9" y="59.4" width="4.4" height="6"/>
			</defs>
			<clipPath id="SVGID_24_">
				<use xlink:href="#SVGID_23_"  overflow="visible"/>
			</clipPath>
			<path clip-path="url(#SVGID_24_)" fill="#24231F" d="M58.3,65.4v-3.3l-4.4-2.7c0,0.1,0,0.2,0,0.2v2.5
				C55,63.2,57.4,64.8,58.3,65.4"/>
		</g>
	</g>
</g>
<path fill="#E35326" d="M220.2,0c-26.9,6.2-64.3,12.6-64.3,12.6s-36.7,6.1-45.9,8.3c-9.2,2.1-5,0.9-19.2,1.3S67.4,32.8,65.2,38.5
	c-2.1,5.7-3.5,8.2-5.7,11.6c-1.3,2.1-3.7,5.4-5.2,7.5c-0.9,1.2-0.7,2.9,0.5,3.9l3.5,2.9c0,0,16.8-19.6,22.5-23.9
	c5.8-4.3,25-5.2,25-5.2s93.4-14.9,97.4-15.2c1.2-0.1,7.9-0.9,17-1.9V0z"/>
<g opacity="0.54">
	<g>
		<g>
			<defs>
				<rect id="SVGID_25_" x="55.9" y="59.4" width="2.5" height="2.5"/>
			</defs>
			<clipPath id="SVGID_26_">
				<use xlink:href="#SVGID_25_"  overflow="visible"/>
			</clipPath>
			<path clip-path="url(#SVGID_26_)" fill="#24231F" d="M58.3,60.6c0,0.7-0.6,1.2-1.2,1.2c-0.7,0-1.2-0.6-1.2-1.2s0.6-1.2,1.2-1.2
				C57.8,59.4,58.3,59.9,58.3,60.6"/>
		</g>
	</g>
</g>
<path fill="#FFFFFF" d="M58.2,60.4c0,0.7-0.6,1.2-1.2,1.2c-0.7,0-1.2-0.6-1.2-1.2s0.6-1.2,1.2-1.2C57.6,59.2,58.2,59.7,58.2,60.4"/>
<g opacity="0.54">
	<g>
		<g>
			<defs>
				<rect id="SVGID_27_" x="56.8" y="59.2" width="0.4" height="2.5"/>
			</defs>
			<clipPath id="SVGID_28_">
				<use xlink:href="#SVGID_27_"  overflow="visible"/>
			</clipPath>
			<path clip-path="url(#SVGID_28_)" fill="#24231F" d="M56.7,61.6c0.1,0,0.1,0,0.2,0s0.1,0,0.2,0v-2.5c-0.1,0-0.1,0-0.2,0
				s-0.1,0-0.2,0V61.6z"/>
		</g>
	</g>
</g>
<g opacity="0.43">
	<g>
		<g>
			<defs>
				<rect id="SVGID_29_" x="74.4" y="22.6" width="12.2" height="6"/>
			</defs>
			<clipPath id="SVGID_30_">
				<use xlink:href="#SVGID_29_"  overflow="visible"/>
			</clipPath>
			<path clip-path="url(#SVGID_30_)" fill="#24231F" d="M86.4,23.1c-0.1-0.1-0.2-0.3-0.3-0.4c-4.6,0.8-8.6,2.7-11.8,5
				c0.1,0.2,0.3,0.4,0.5,0.7c0.2,0.3,0.7,0.4,1,0.2c3.2-2.4,8.1-3.8,10.2-4.3C86.5,24,86.8,23.4,86.4,23.1"/>
		</g>
	</g>
</g>
<path fill="#6E451C" d="M50.6,76.7h11c0.5,0,0.9,0.4,0.9,0.9v1.3H49.7v-1.3C49.7,77.2,50.1,76.7,50.6,76.7"/>
<g opacity="0.43">
	<g>
		<g>
			<defs>
				<rect id="SVGID_31_" x="49.7" y="77.9" width="12.9" height="1"/>
			</defs>
			<clipPath id="SVGID_32_">
				<use xlink:href="#SVGID_31_"  overflow="visible"/>
			</clipPath>
			<rect x="49.7" y="77.9" clip-path="url(#SVGID_32_)" fill="#24231F" width="12.9" height="1"/>
		</g>
	</g>
</g>
<path fill="#C23F28" d="M171.8,24.8c0.7-0.1,1.3-0.2,2-0.3l-2.2-14.6c-0.7,0.1-1.3,0.2-2,0.4L171.8,24.8z"/>
<path fill="#C23F28" d="M210.2,19.2c0.6-0.1,1.3-0.1,2-0.2l-2.5-16.6c-0.7,0.1-1.3,0.3-2,0.4L210.2,19.2z"/>
<polygon fill="#FFFFFF" points="111.1,32 132,28.7 131.3,24.6 110.5,27.9 "/>
<polygon fill="#6E451C" points="117.3,31 120.8,26.3 115,27.2 111.5,32 "/>
<polygon fill="#6E451C" points="127.7,29.4 131.2,24.6 125.4,25.5 121.9,30.3 "/>
<g>
	<g>
		<path fill="#253844" d="M76.3,149l1.6,0.4c0.1,0,0.3,0,0.3-0.2l0.1-0.5c0.1-0.3-0.1-0.7-0.4-0.7l-1.2-0.3L76.3,149z"/>
	</g>
	<g>
		<path fill="#253844" d="M37.6,149l-1.6,0.4c-0.1,0-0.3,0-0.3-0.2l-0.1-0.5c-0.1-0.3,0.1-0.7,0.4-0.7l1.2-0.3L37.6,149z"/>
	</g>
	<g opacity="0.59">
		<path fill="#253844" d="M42.3,138.1c0,0-0.1-6.9,0-7.1c0-0.1,1.6-0.7,1.6-0.7l0.2,0.2l24.1,0.2c0,0,0.1,0,0.1,0l0,0c0,0,0,0,0.1,0
			l1.4-0.9c0,0,0.1,0,0.1,0l1.9,8.2l2.6,2.6l-34.5-0.2L42.3,138.1z M48.8,134h16.1l2.4-2.2H45.7l1.2,2.2L48.8,134L48.8,134z"/>
	</g>
	<g>
		<g>
			<path fill="#395767" d="M68,137.3h-4.1c-1,0-1.7-0.8-1.7-1.7v-1.2c0-1,0.8-1.7,1.7-1.7l4.1,0.6c0.8-0.5,1.9-0.3,2.5,0.5l-0.8,1.8
				C69.7,136.5,68.9,137.3,68,137.3z"/>
		</g>
		<g>
			<path fill="#395767" d="M62.4,137.6h7.7c1,0,1.7,0.8,1.7,1.7v1.2c0,1-0.8,1.7-1.7,1.7h-7.7c-1,0-1.7-0.8-1.7-1.7v-1.2
				C60.6,138.4,61.4,137.6,62.4,137.6z"/>
		</g>
		<g>
			<path fill="#395767" d="M43.8,137.6h3.1v-0.3h-1.1c-1,0-1.7-0.8-1.7-1.7v-1.2c0-1,0.8-1.7,1.7-1.7h4.1c1,0,1.7,0.8,1.7,1.7v1.2
				c0,1-0.8,1.7-1.7,1.7h-1.3v0.3H52c1,0,1.7,0.8,1.7,1.7v1.2c0,1-0.8,1.7-1.7,1.7h-8.2c-1,0-1.7-0.8-1.7-1.7v-1.2
				C42.1,138.4,42.8,137.6,43.8,137.6z"/>
		</g>
	</g>
	<g>
		<path fill="#253844" d="M44.4,138.7c0.8-1.7,2.8-2.5,4.5-1.7s2.5,2.8,1.7,4.5c-0.8,1.7-2.8,2.5-4.5,1.7
			C44.4,142.4,43.7,140.4,44.4,138.7z M45.6,141.5c0.4-0.5,1-1.1,1.3-1.5l-1.5-1.2c0,0.1-0.1,0.1-0.1,0.2
			C45,139.9,45.1,140.8,45.6,141.5z M48.5,137.9c-0.8-0.4-1.7-0.2-2.4,0.2c0.7,0.6,2.8,2.2,3.6,2.9
			C50.2,139.8,49.7,138.4,48.5,137.9z M49.1,141.8l-1.4-1.1l-1.3,1.5c0,0,0.1,0,0.1,0.1C47.5,142.6,48.5,142.4,49.1,141.8z"/>
	</g>
	<g>
		<path fill="#253844" d="M73.8,140.1c0,0-16.1-3-33.6,0"/>
	</g>
	<g>
		<path fill="#CB7329" d="M74.4,141.3l0.1-0.4c0,0,0.6-0.2,0.4-0.8l0,0c0,0,0-0.1,0-0.1c-0.3-0.9,0.6-1.9,1.9-2.2
			c1.3-0.4,2.5,0.1,2.8,0.9c0.3,0.9-0.6,1.9-1.8,2.2c-0.3,0.1-0.6,0.1-1,0.1c-0.5,0-1.6,0.2-2.1,1C74.1,143.2,74.4,141.3,74.4,141.3
			z"/>
	</g>
	<g>
		<path fill="#CB7329" d="M39.3,140.9l-0.3-0.4c0,0-0.6-0.6-0.9-1.1v0c0,0,0-0.1-0.1-0.1c-0.5-0.8-1.8-0.8-2.9-0.1
			c-1.1,0.7-1.6,1.9-1.1,2.7c0.5,0.8,1.8,0.8,2.9,0.1c0.3-0.2,0.5-0.4,0.7-0.6c0.3-0.3,1-0.3,1.6,0.4
			C40.1,142.6,39.3,140.9,39.3,140.9z"/>
	</g>
	<g>
		<path fill="#CB7329" d="M54.8,132.1h1.6v-1.1h0.5v1.2h1.7c0.4,0,0.7,0.3,0.7,0.7v0c0,0.4-0.3,0.7-0.7,0.7h-3.8
			c-0.4,0-0.7-0.3-0.7-0.7v0C54.1,132.4,54.4,132.1,54.8,132.1z"/>
	</g>
	<g opacity="0.19">
		<path fill="#FBF8EC" d="M40.1,138.6c1.6-0.9,2.7-2.7,2.2-4.6c-0.1-0.5-0.4-1.1-0.7-1.6l0.6-2l27.3-0.6c0,0,0,0,0.1,0l4.8,11
			l-34.6,0L40.1,138.6C40.1,138.6,40.1,138.6,40.1,138.6z M55.6,132.8l1.1-0.4l0.7,0.8l1.4,0.6l3.9,2l-1,1.1l1.5-0.9v2.2l1.1-1.7
			l0.5,1.9v-1.7l4.6,3.2l-1.8-1.5l2.4,0.4l3,1.2l-3.2-1.5l-2.1-0.4l0.3-0.5l-1.9-0.9l-0.7-0.3l1.1-1.1l-1.4,0.5l0.8-2.4l-1.1,1.4
			l0-1l-0.4,1l-1.3-2.2l0.8,2.4l-3.3-2.7l2.1,2.6l-4.5-1.6l-0.8-0.4l-0.8-0.9l-1.1,0.4l-0.4-0.4l-0.7,0.1l-1.2-0.7l-1.1-0.5
			l-0.4-0.1l1.5,0.7l1.1,0.7l0.8-0.1L55.6,132.8z M41.9,139.8l0.6-0.1l0.1-0.3l1.3-0.1l1.8,0.3c0,0,4.8-0.3,4.9-0.4
			c0.1,0,4.1-0.5,4.1-0.5l-4.9,0.5l2.2-1.9l-2.5,1.6l-0.2-2.8l-0.5,2.7l-1.5-2.5l0.8,2.3l-1.4-0.6l0.9,0.7l-1.9-1.1l1.2,1.2
			l-2.5-1.3l1,1.6l-1.8-0.2l-0.8,0.3l0,0.1l-1.8,0.1L41.9,139.8z"/>
	</g>
	<g>
		<g>
			<path fill="#CB7329" d="M40.1,138.6c0.2-0.1,0.4-0.3,0.6-0.4l-0.5,2h33.2l-2.3-8.4c-0.1-0.5-0.6-0.8-1.1-0.8H43.4
				c-0.5,0-1,0.4-1.1,0.9c0,0,0.5,2.8,0.2,4.1c-0.3,1.3-2.3,4.2-2.3,4.2c-0.3-0.5-0.5-1-0.9-1.4c0,0,1.5-1.1,2-3
				c0.5-1.9-0.1-4.6-0.1-4.6c0.2-0.8,0.9-1.4,1.8-1.4l25.6-0.3c0.7-0.5,1.6-0.4,2.3,0.2l4.3,11.8H38.7l0.6-2.6
				C39.6,138.8,39.9,138.7,40.1,138.6z"/>
		</g>
	</g>
	<g>
		<path fill="#253844" d="M69.8,160.9l3,0.6c1.3,0.2,2.5-0.6,2.8-1.9l0.5-2.8l-7.7-1.5l-0.5,2.8C67.6,159.4,68.5,160.7,69.8,160.9z"
			/>
	</g>
	<g>
		<path fill="#395767" d="M76.1,153.2l1.3,1.6c0.7,0.9,0.1,2.1-1,2.1h-39c-1.1,0-1.8-2,0.8-2.5l-0.6-1.2"/>
	</g>
	<g>
		<path fill="#CB7329" d="M39.6,140.1c0,0,7.5-0.8,16.9-0.8l0,0c0.1,0,0.3,0,0.4,0c0.1,0,0.3,0,0.4,0l0,0c9.4,0,16.9,0.8,16.9,0.8
			l1.6,1.9c-1.6,0.5,2.3,3.6,1.8,5.9l-1.5,6.9H56.8h-1.3H41l-4.1-1.3l0.3-1.2l-1-4.5c-0.5-2.4,0.3-4.8,2-6.4L39.6,140.1z"/>
	</g>
	<g>
		<path fill="#253844" d="M40.5,162.1h3.1c1.3,0,2.4-1.1,2.4-2.4v-2.8h-7.8v2.8C38.1,161,39.2,162.1,40.5,162.1z"/>
	</g>
	<g>
		<rect x="42.4" y="146" fill="#C5C5C3" width="29" height="6.4"/>
	</g>
	<g>
		<g>
			<rect x="43" y="146.6" fill="#AEAEAF" width="27.9" height="0.4"/>
		</g>
		<g>
			<rect x="43" y="147.6" fill="#AEAEAF" width="27.9" height="0.4"/>
		</g>
		<g>
			<rect x="43" y="148.6" fill="#AEAEAF" width="27.9" height="0.4"/>
		</g>
		<g>
			<rect x="43" y="149.6" fill="#AEAEAF" width="27.9" height="0.4"/>
		</g>
		<g>
			<rect x="43" y="150.6" fill="#AEAEAF" width="27.9" height="0.4"/>
		</g>
		<g>
			<rect x="43" y="151.6" fill="#AEAEAF" width="27.9" height="0.4"/>
		</g>
	</g>
	<g opacity="0.22">
		<g>
			<path fill="#253844" d="M42.8,153.7h28.5c0.6,0,1.1-0.5,1.1-1.1v-0.9h-0.5v0.9c0,0.3-0.3,0.6-0.6,0.6H42.8
				c-0.3,0-0.6-0.3-0.6-0.6v-0.9h-0.5v0.9C41.7,153.2,42.2,153.7,42.8,153.7z"/>
		</g>
	</g>
	<g>
		<ellipse fill="#FBED21" cx="41.3" cy="149.6" rx="3.3" ry="3"/>
	</g>
	<g>
		<ellipse fill="#DFE5E7" cx="42.6" cy="149.2" rx="3.3" ry="3.3"/>
	</g>
	<g>
		<ellipse fill="#FBF8EC" cx="42.6" cy="149.2" rx="2.9" ry="2.9"/>
	</g>
	<g>
		<ellipse fill="#FBED21" cx="72.5" cy="149.6" rx="3.3" ry="3"/>
	</g>
	<g>
		<ellipse fill="#DFE5E7" cx="71.4" cy="149.2" rx="3.3" ry="3.3"/>
	</g>
	<g>
		<ellipse fill="#FBF8EC" cx="71.6" cy="149.9" rx="2.7" ry="2.7"/>
	</g>
	<g>
		<path fill="#DFE5E7" d="M51.3,158.4l11-0.5c0.4,0,0.7-0.4,0.7-0.7l-0.1-2.5c0-0.4-0.4-0.7-0.7-0.7l-11,0.5c-0.4,0-0.7,0.4-0.7,0.7
			l0.1,2.5C50.6,158.1,50.9,158.4,51.3,158.4z"/>
		<path fill="#253844" d="M51.4,158.7c0,0,0.1,0,0.1,0l11-0.5c0.2,0,0.5-0.1,0.6-0.3c0.2-0.2,0.3-0.4,0.2-0.6l-0.1-2.5
			c0-0.5-0.4-0.8-0.8-0.9c0,0-0.1,0-0.1,0l-11,0.5c-0.2,0-0.5,0.1-0.6,0.3c-0.2,0.2-0.3,0.4-0.2,0.6l0.1,2.5
			C50.6,158.3,51,158.6,51.4,158.7z M62.4,154.3c0.3,0,0.5,0.2,0.5,0.5l0.1,2.5c0,0.1,0,0.3-0.1,0.4s-0.2,0.2-0.4,0.2l-11,0.5
			c-0.3,0-0.5-0.2-0.5-0.5l-0.1-2.5c0-0.1,0-0.3,0.1-0.4c0.1-0.1,0.2-0.2,0.4-0.2L62.4,154.3C62.4,154.3,62.4,154.3,62.4,154.3z"/>
	</g>
	<g opacity="0.56">
		<path fill="#1F6E8D" d="M39.8,144.9c0-0.1,0-1.4,2.4-5c0.1,0,0.3,0,0.5,0c-2.2,3.1-2.6,4.5-2.6,4.8l9-0.9c5-0.5,9.9-0.5,14.9,0
			l9,0.9c-0.6-2.4-2.4-4.3-2.9-4.9c0.2,0,0.4,0,0.5,0c0.4,0.4,2.1,2.2,2.8,5l0.1,0.2H39.8V144.9z"/>
	</g>
	<g>
		<g>
			<g>
				<path fill="#395767" d="M56.5,139.4C56.5,139.4,56.6,139.4,56.5,139.4c2.9-1.6,13.3-0.9,13.4-0.9c0.1,0,0.1-0.1,0.2-0.1
					c0-0.1-0.1-0.1-0.1-0.2c-0.4,0-10.5-0.7-13.5,0.9c-0.1,0-0.1,0.1-0.1,0.2C56.4,139.3,56.5,139.4,56.5,139.4z"/>
			</g>
		</g>
		<g>
			<path fill="#CB7329" d="M70,138.3c0,0-2.2-1-8.6-0.1c-0.1,0,1.9-0.1,4-0.1C67.5,138.1,69.6,138.2,70,138.3z"/>
		</g>
	</g>
	<g>
		<g>
			<g>
				<path fill="#395767" d="M43.5,139.9C43.5,139.9,43.5,139.9,43.5,139.9c2.8-1.7,13.2-1.7,13.3-1.7c0.1,0,0.1-0.1,0.1-0.1
					s-0.1-0.1-0.1-0.1c-0.4,0-10.6-0.1-13.4,1.7c-0.1,0-0.1,0.1,0,0.2C43.4,139.8,43.5,139.9,43.5,139.9z"/>
			</g>
		</g>
		<g>
			<path fill="#CB7329" d="M56.9,137.9c0,0-2.2-0.9-8.6,0.4c-0.1,0.1,1.9-0.2,4-0.3C54.4,137.9,56.5,137.9,56.9,137.9z"/>
		</g>
	</g>
	<g>
		<g>
			<polygon fill="none" points="53.4,131.7 51.9,131 52.3,131.1 53.4,131.6 54.6,132.2 55.3,132.1 55.7,132.6 56.8,132.2 57.5,133 
				58.3,133.4 60.7,134.5 58.9,133.8 57.5,133.3 56.8,132.5 55.6,132.8 55.2,132.4 54.5,132.4 			"/>
		</g>
		<g>
			<polygon fill="none" points="67.8,137.6 66.4,137.2 65.5,136.4 66.2,136.8 68.1,137.6 67.8,138.1 70,138.5 73.2,140 70.2,138.7 
				67.7,138.3 67.5,138.1 			"/>
		</g>
		<g>
			<polygon fill="none" points="58.3,133.4 62.8,134.9 60.6,132.4 63.9,135 63.1,132.7 64.4,134.9 64.8,133.8 64.9,134.8 66,133.5 
				65.3,135.8 66.6,135.3 65.5,136.4 66.4,137.2 66.2,137.1 64.9,136.6 64.9,138.3 64.5,136.4 63.3,138.1 63.3,135.9 61.8,136.9 
				62.8,135.8 58.9,133.8 60.7,134.5 			"/>
		</g>
		<g>
			<polygon fill="none" points="67.5,138.1 67.7,138.3 67.4,138.2 			"/>
		</g>
		<g opacity="0.19">
			<polygon fill="#FBF8EC" points="67.5,138.1 66.4,137.2 67.8,137.6 			"/>
		</g>
	</g>
	<g>
		<path fill="#253844" d="M73.5,145c0,0-10.9-1-17.9-1s-15.8,1-15.8,1H73.5z"/>
	</g>
	<g>
		<path fill="#FBED21" d="M42.7,148.8l1.6,2.6l-0.3-1.7l0.6,1.6c-0.4,0.4-0.9,0.6-1.4,0.7c-0.1,0-0.2,0-0.2,0l-1.2-0.2l1-0.4
			l-0.9-0.8l1.5,0.6c0,0-1.8-2.1-1.9-2.2c-0.1-0.1,2.6,2.5,2.6,2.5L42.7,148.8z"/>
	</g>
</g>
<path fill="#6E451C" d="M76.7,143.9C76.6,144,76.6,144,76.7,143.9L76.7,143.9h-0.1c2.4-11.1-1.8-15.1-5.4-16.9
	c-4.2-2.1-9.2-0.4-9.2-0.4H50.3c0,0-5-1.7-9.2,0.4c-3.6,1.8-8.1,4.9-5.4,16.8c0,0,0,0.1,0,0.1c0,0-0.1,0-0.1,0
	c-0.9-1.6-5-7.6-4.1-13.7c0.8-5.6,6.5-10.8,8.6-12.4c0.4-0.4,1.1-0.4,1.5-0.1l9.9,4.9c0.3,0.1,0.6,0.2,0.9,0.2h7.5
	c0.3,0,0.6-0.1,0.9-0.2l9.9-4.9c0.5-0.3,1.1-0.2,1.5,0.1c2.1,1.7,7.8,6.8,8.6,12.4C81.6,136.4,77.6,142.4,76.7,143.9 M41.7,118.7
	c0-0.4-0.3-0.7-0.7-0.7c-0.4,0-0.7,0.3-0.7,0.7c0,0.4,0.3,0.7,0.7,0.7C41.4,119.4,41.7,119.1,41.7,118.7 M72.1,118.7
	c0-0.4-0.3-0.7-0.7-0.7s-0.7,0.3-0.7,0.7c0,0.4,0.3,0.7,0.7,0.7S72.1,119.1,72.1,118.7"/>
<path fill="#24231F" d="M61.2,126.4H51.1c-0.9,0-1.6-0.7-1.6-1.6v0c0-0.9,0.7-1.6,1.6-1.6h10.1c0.9,0,1.6,0.7,1.6,1.6v0
	C62.8,125.7,62.1,126.4,61.2,126.4"/>
<path fill="#FFFFFF" d="M50.4,125.7c-0.5-0.3-0.6-1-0.3-1.5c0.3-0.5,1-0.6,1.5-0.3c0.5,0.3,0.6,1,0.3,1.5
	C51.6,125.9,50.9,126,50.4,125.7"/>
<path fill="#8D8B8C" d="M50.2,124.1c0,0-0.1,0.1-0.1,0.1c0,0,0,0.1-0.1,0.1l1.8,1.2c0,0,0-0.1,0.1-0.1c0,0,0.1-0.1,0.1-0.1
	L50.2,124.1z"/>
<path fill="#FFFFFF" d="M62,125.4c-0.4,0.5-1,0.6-1.5,0.2s-0.6-1-0.2-1.5s1-0.6,1.5-0.2C62.2,124.3,62.3,124.9,62,125.4"/>
<path fill="#8D8B8C" d="M60.3,125.6c0,0,0.1,0.1,0.1,0.1c0,0,0.1,0,0.1,0.1l1.2-1.8c0,0-0.1,0-0.1-0.1c0,0-0.1-0.1-0.1-0.1
	L60.3,125.6z"/>
</svg>
