<?xml version="1.0" encoding="utf-8"?>
<!-- Generator: Adobe Illustrator 18.1.1, SVG Export Plug-In . SVG Version: 6.00 Build 0)  -->
<svg version="1.1" id="Layer_1" xmlns="http://www.w3.org/2000/svg" xmlns:xlink="http://www.w3.org/1999/xlink" x="0px" y="0px"
	 viewBox="63.6 0 188.4 144" enable-background="new 63.6 0 188.4 144" xml:space="preserve">
<metadata><?xpacket begin="﻿" id="W5M0MpCehiHzreSzNTczkc9d"?>
<x:xmpmeta xmlns:x="adobe:ns:meta/" x:xmptk="Adobe XMP Core 5.6-c014 79.156821, 2014/08/29-03:07:50        ">
   <rdf:RDF xmlns:rdf="http://www.w3.org/1999/02/22-rdf-syntax-ns#">
      <rdf:Description rdf:about=""
            xmlns:dc="http://purl.org/dc/elements/1.1/"
            xmlns:xmp="http://ns.adobe.com/xap/1.0/"
            xmlns:xmpGImg="http://ns.adobe.com/xap/1.0/g/img/"
            xmlns:xmpMM="http://ns.adobe.com/xap/1.0/mm/"
            xmlns:stRef="http://ns.adobe.com/xap/1.0/sType/ResourceRef#"
            xmlns:stEvt="http://ns.adobe.com/xap/1.0/sType/ResourceEvent#"
            xmlns:illustrator="http://ns.adobe.com/illustrator/1.0/"
            xmlns:xmpTPg="http://ns.adobe.com/xap/1.0/t/pg/"
            xmlns:stDim="http://ns.adobe.com/xap/1.0/sType/Dimensions#"
            xmlns:xmpG="http://ns.adobe.com/xap/1.0/g/"
            xmlns:pdf="http://ns.adobe.com/pdf/1.3/">
         <dc:format>image/svg+xml</dc:format>
         <dc:title>
            <rdf:Alt>
               <rdf:li xml:lang="x-default">Print</rdf:li>
            </rdf:Alt>
         </dc:title>
         <xmp:MetadataDate>2015-03-31T23:39:47-05:00</xmp:MetadataDate>
         <xmp:ModifyDate>2015-03-31T23:39:47-05:00</xmp:ModifyDate>
         <xmp:CreateDate>2015-03-31T23:39:47-05:00</xmp:CreateDate>
         <xmp:CreatorTool>Adobe Illustrator CC 2014 (Windows)</xmp:CreatorTool>
         <xmp:Thumbnails>
            <rdf:Alt>
               <rdf:li rdf:parseType="Resource">
                  <xmpGImg:width>256</xmpGImg:width>
                  <xmpGImg:height>196</xmpGImg:height>
                  <xmpGImg:format>JPEG</xmpGImg:format>
                  <xmpGImg:image>/9j/4AAQSkZJRgABAgEASABIAAD/7QAsUGhvdG9zaG9wIDMuMAA4QklNA+0AAAAAABAASAAAAAEA&#xA;AQBIAAAAAQAB/+4ADkFkb2JlAGTAAAAAAf/bAIQABgQEBAUEBgUFBgkGBQYJCwgGBggLDAoKCwoK&#xA;DBAMDAwMDAwQDA4PEA8ODBMTFBQTExwbGxscHx8fHx8fHx8fHwEHBwcNDA0YEBAYGhURFRofHx8f&#xA;Hx8fHx8fHx8fHx8fHx8fHx8fHx8fHx8fHx8fHx8fHx8fHx8fHx8fHx8fHx8f/8AAEQgAxAEAAwER&#xA;AAIRAQMRAf/EAaIAAAAHAQEBAQEAAAAAAAAAAAQFAwIGAQAHCAkKCwEAAgIDAQEBAQEAAAAAAAAA&#xA;AQACAwQFBgcICQoLEAACAQMDAgQCBgcDBAIGAnMBAgMRBAAFIRIxQVEGE2EicYEUMpGhBxWxQiPB&#xA;UtHhMxZi8CRygvElQzRTkqKyY3PCNUQnk6OzNhdUZHTD0uIIJoMJChgZhJRFRqS0VtNVKBry4/PE&#xA;1OT0ZXWFlaW1xdXl9WZ2hpamtsbW5vY3R1dnd4eXp7fH1+f3OEhYaHiImKi4yNjo+Ck5SVlpeYmZ&#xA;qbnJ2en5KjpKWmp6ipqqusra6voRAAICAQIDBQUEBQYECAMDbQEAAhEDBCESMUEFURNhIgZxgZEy&#xA;obHwFMHR4SNCFVJicvEzJDRDghaSUyWiY7LCB3PSNeJEgxdUkwgJChgZJjZFGidkdFU38qOzwygp&#xA;0+PzhJSktMTU5PRldYWVpbXF1eX1RlZmdoaWprbG1ub2R1dnd4eXp7fH1+f3OEhYaHiImKi4yNjo&#xA;+DlJWWl5iZmpucnZ6fkqOkpaanqKmqq6ytrq+v/aAAwDAQACEQMRAD8A9U4q7FXYq7FXYq7FXYq7&#xA;FXYq7FXYq7FXYq7FXYq7FXYq7FXYq7FXYq7FXYq7FXYq7FXYqg77WdIsATfXsFrTek0iIfuYjK55&#xA;YR+ogN2LT5Mn0xMvcGO3/wCa3km0qFvWunH7FvG7f8MwVPxzEn2lhj1v3Oxxdh6mf8PD7yxjVPz1&#xA;gSKT9GaW7sFJR7mQKK02qiBq/wDBZiS7YHKMfm7HF7NHnOfyH6f2MWm/ObzpfwBo5ILKtQfq8QP4&#xA;ymXMXN2nmuhQdjg7B0w3IMvef1Ux7UPMOvajUX2oXFwp6pJIxT6Frx/DMCeec/qJLtMWkxY/ojEf&#xA;B9P52b5k7FXYq7FXYq7FXYq7FXYq7FXYq7FXYq7FXYq7FXYq7FXYq7FXYq4kKCSaAbknoBiqU33m&#xA;7yvY1+tapbRsOqCVWf8A4FSW/DKJ6rFHnIOXj0Gef0wl8mNaj+dPkq0nWGJ7i8ZujQRUWvzlMX6s&#xA;xpdp4gLFn8ebn4+wdRLnUfef1Wkl9+eibrYaST4STy02/wBRFP8AxLMOfbP82Pzdhi9mv58/kPx9&#xA;zHr784vOVzUQPBZg9PRiDGnzlMmYs+1cx5UPx5uwxez+mjzuXvP6qY7f+bvM9/X63qlzIp6x+oyp&#xA;/wAApC/hmJPVZJc5F2GLQYMf0wj8kpJJJJNSdyTlDlNYpcRUU8cVQunmkboeqtl2bnbXj5IrKWx9&#xA;YZ3D5U7FXYq7FXYq7FXYq7FXYq7FXYq7FXYq7FXYq7FUvvvMWg2Ffrmo21uw6pJKgb/ga1yqeeEe&#xA;cgPi5GPSZZ/TGR+CQXv5r+SbWoW9a5YdVgidv+GYKv45iz7Twjrbn4+w9TL+GveQkF7+eelpX6lp&#xA;k83gZnSL/iPq5iz7Yj/DE/j5udj9mpn6pge4X+pIb387fMktRa2lrbKehIeRx9JZV/4XMafa+Q8g&#xA;A5+P2cwj6jI/YkV5+ZXna7qH1SSNT0WFUip9KKrfjmLPtDNL+JzsfY+mhygD79/vSK81PUr08ry7&#xA;muT4zSPIf+GJzGnklLmSXOx4YQ+mIHuFIXINqFvfhkgk8Gofwy7FuCGufMIrKWx2KuxV2KuxV2Ko&#xA;W2+G6nTxPL/P78unvEFrjzKKylsfWGdw+VOxV2KuxV2KuxV2KuxVD32o6fp8BuL+6itIB1lnkWNP&#xA;+CcgYDIDmyjAyNAWx+X80PIcfTWIpRWlYVkmFR/lRqwzFnrsMTRl97n4uydTkFxjt7x+tDf8rb8j&#xA;/wDLZJ/yJl/5pyr+U8Pf9hb/AOQtV/NHzDa/m15GLAG+dQf2jBLQfcpw/wAp4O/7Cg9har+b9oQ9&#xA;5+cXkyBSYXnuz2EURWv/ACNMeQn2rhHKz8P1tmP2f1MudR95/VbG9Q/PO5NV07S0T+WS4kL/AHog&#xA;T/iWYk+2T/DH5uxxezQ/jn8h+PuY3f8A5sedruoW7S1Q9UgjQf8ADMHb8cw59p5pda9zssXYemj/&#xA;AA8XvLHr7X9cv6/XdQuLkHYrLK7LTwoTTMWeecvqJLsMelxQ+mMR8EBlTe7FXYq7FXYq7FXYqhtQ&#xA;WtvX+Ug/wy3CfUwyckQjckVvEA/flZFFkHM6L9pgPmaYgErbon9Z/TgVppP5IlZz9yg5OOKR5BhL&#xA;LGPMpvaeT/N95T6vol6QejSRGFT9MvAZkR0GU9HDydqaePOY+9O7T8ofPtxT1La2s6955w3/ACZE&#xA;uZMeych57OFk9oNOOVn4frpOLb8itdf/AHq1e2gHf0Ynl/4k0WXx7H75OJP2lj/DA/j5pnafkFpS&#xA;yepd6xcyuRRjDHHDXp/N6uZEeyoVRJcSftHk/hiB9v6k5tfyW8kw09ZLq78RNcOtf+RXpZdHs3CO&#xA;jiz7d1MuRA+H67Z3mc6d2KuxV2KuxV2KrZZY4o2llcRxoCzuxAVQNyST0GAkDcpAJNDm8f8APf5z&#xA;6gJ303ylEoA2k1iYArX/AIpjP/EmH0d81OftSI2g9DpOwZmjkHw/W8rvIrrUrk3esXk2o3Z6yTuz&#xA;U9gCdh7dM1GTVzkXpMHZ2PGKpUjjjjUJGoRR0UCgzGJJ5ubGIAoLsDJ2KuxVkPl3yTqeuWFzqENx&#xA;bWtlZk/WZ7mQoECrzZjxVtgvfMvT6KeUEggAd7rdb2nj08hGQJJ7mIQar9d1WLTdJtpL+4nl9GBV&#xA;/d+oSaArXkQD1+KlB1ycdFZq7cKfbdDaPzP4+96D+YXlzyx5I8twPczS3fmS9ULBaiRRCrAfvJSA&#xA;quUQnap3NPfM7J2fixx3syddHt3PkOwjEe79rH/yn0KbzDqj6hrl3Fa+XrJqy+oY4hNL1WFWah4j&#xA;q+/Sg74NPpsd3KhHz/a15tfqZfSZGXl+xL5oxHK8YYOEYrzU1BoaVBGaUii9lE2LWYGSxp4V+06j&#xA;6ckIk9EcQRNnY6jfU+o2NzeV6ehDJJ/xFTlsNNklyDRk1WKH1SA+KeWf5defLuhi0aWNe7XDxQ02&#xA;8Hbl+GZMOzcp6OFk7a00f4r9yeWf5J+cJqG5ubK1U9RyklcfQFVf+GzIj2RLqXBye0eIfSJFOrb8&#xA;g7dlpqGtSyqftJBCkX4u0v6syodkxHMuFk9pJn6YD4n+xPLL8lPI1uAJo7m8C7UnncD7ofSzIj2f&#xA;iHS3Cn25qZciB7h+u0+svIXkuyp9X0W0DDo7xLIw/wBlJyOZEdPjHKIcKevzy5zl807hgggT04Y1&#xA;iQdEQBR9wy0CnFMiea/Ch2KuxV2KuxV2KuxV2KuxV2KuxV4d+Zf5hS6xcyaTpsnHSYWpJIp/3odT&#xA;1J/kB+yO/XwpzfaGuOQ8Efp+97bsfsoYYjJMfvD/ALH9rAM1bv3Yq7FXYq7FXFlHUgfPGkK51q4/&#xA;Qd3oUdwyWl/JG9wkR+J/TrRNgfhYkVp4DMvDlyQiYgc3X6zQ480hKRrhtF+VtB8zaberf+XtHvEu&#xA;+DIt2tu7UVtjxeYFVJ6VFDSuZMBqCbiK+DgywaGAqcgffL9VMjl/Lz8ztbvPr2oWoFyyhBc3dxHz&#xA;4AkhfgLsACx2yz8lqJm5H7Wv+UdBjFRiD7o/rTO0/IvzDL/vbq1rb16mCOSc/wDDmHLI9jnrJqn7&#xA;SQH0wP3frTu0/IjQ13vdUvLg+EXpwr/xFz+OZEeysY5uFk9osx+kRH4+CeWf5R+QbahOmm5cft3E&#xA;ssn/AApbh+GZMdDij0cLJ2xqZfxV7qT+x8s+XLCn1LS7S3I/ajhjU/eBXL44ojkA4c9Tln9UpH4p&#xA;lljQ7FXYq7FXYq7FXYq7FXYq7FXYq7FXYq7FXYq7FXYqw381fMDaT5Wkihfhdag31eMjqEIrIw/2&#xA;Pw/Tmv7Sz8GKhzls7jsTS+LnBP0w3/U8Bzl3vXYqrWVnfX92tnp9tJeXbdIYVLGni3ZR7nLcWCWQ&#xA;1ENObUQxC5mgzbSfyW83Xiq9/PbaYh6oSbiUfMJxT/h82ePsiR+o06PP7RYo/QDL7Px8mT2X5E6G&#xA;gBvtUvLlx1EXpwKfo4yN/wANmbDsrGOe7rMntFmP0gD7f1Jzb/k95BipzsHuGH7Us85/BXVfwy+O&#xA;gxDo4k+2tSf4q+ATG3/LnyLbkFNEtDSlPUjEnT/X5ZaNNjH8IceXaOoP8ck7s9N06yXjZWsNqtKc&#xA;YY1jFPkoGWxiByDizySl9RJ96IyTB2KuxV2KuxV2KuxV2KuxV2KuxV2KuxV2KuxV2KuxV2KuxV2K&#xA;uxV2KuxV4B+aXmUa15leKFuVlp9beAjozA/vHHzbb5AZy3aOo8TJQ5R2e97F0fg4bP1T3P6GHZgO&#xA;4Tjyt5U1bzPqX1LTwEjjobu8cExwof8AiTn9le/y3zM0mkllPk6/X9oQ08LPPoH0B5Y8qaP5b08W&#xA;emxca7z3D0MsrfzO3f2HQZ0+HDHGKi8HqtXPPLimf2JxlrjOxV2KuxV2KuxV2KuxV2KuxV2KuxV2&#xA;KuxV2KuxV2KuxV2KuxV2KuxV2KuxV2KuxV2KsL/M/wA4jQtHNpavTVL8FIaHeOPo8nt4L7/LNd2j&#xA;qvChQ+qTuexuz/HycUvoj9p7v1vA85h7xPvKHk/UvM+pfVrb91axEG8vCKrGp7D+Z2/ZX6emZmj0&#xA;cs0v6Lru0e0YaaFneR5B9BaDoGl6Dpsen6bCIbdN2PV3c/ad26sx/wA9s6jHijAVHk8DqNRPNMym&#xA;bKYZY0uxV2KuxV2KuxV2KuxV2KuxV2KuxV2KuxV2KuxV2KuxV2KuxV2KuxV2KuxV2KuxV2KoPWdV&#xA;tdJ0u51K6J9C2QuwHUnoFHuxIAyvLkEImR5Bu0+CWWYhHnJ82+YNdvdc1afUrw/vJj8CD7KIPsov&#xA;sozkM+aWSRkX0bS6aODGIR5BE+U/KWp+ZdSFpaD04Uo11dsKpEh7+7H9le/yqct0mllmlQ5dS06/&#xA;Xw00LP1HkO99D6JomnaLp0Wn6fEIreL6WZj1dz3Y9znVYsUYR4Y8nz/UaieWZnM2SjssaXYq7FXY&#xA;q7FXYq7FXYq7FXYq7FXYq7FXYq7FXYq7FXYq7FXYq7FXYq7FXYq7FXYq7FXYqxn8yYvV8kaoncoh&#xA;FfESoR+rK8uITiYnkW7T55YsgnHmHjejabrfm27s9GhgihWzX97crEF4RkKpd2WnL7Gw7tU9yc0m&#xA;bR5ZSjjocMf4nqdN2lp8cZ5rPHL+Enr5eXn0D3nQNA03QtMj0/T4+ESbu53eRz9p3Pdj/YNs3WHD&#xA;HHHhjyeY1OpnmmZzO6Y5a47sVdirsVdirsVdirsVdirsVdirsVdirsVdirsVdirsVdirsVdirsVd&#xA;irsVdirsVdirsVdirHvzB/5Q7U/9RP8Ak4uKsK/Jv/jp6j/xhT/ieKXq2KHYq7FXYq7FXYq7FXYq&#xA;7FXYq7FXYq7FXYq7FXYq7FXYq7FXYq7FXYq7FXYq7FXYq7FXYq7FXYqxP8xdV0tPK+p2r3kC3XBP&#xA;3DSIJPtqfsk16ZEyHekRLCvyi1bS7bUr83F5BCGhQKZJEUE8u1SMeMd6eE9z1+OSOWNZI2DxuAyO&#xA;pBUg9CCOuSYrsVdirsVdirsVdirsVdirsVdirsVdirsVdirsVdirsVdirsVdirsVdirsVdirsVdi&#xA;rsVdirsVfMnn3yJpK+c9WpPdM0twZWLSAnlKBIw+z0q22Y50sCbbxqJAJPefl1a2UgjuxdwSEVCu&#xA;wBIBKn9nxBGD8pBP5mT6N/LXR7bSPJGlWdvJJJF6XqgzNyYGUmRgCANgW2y+EBEUGmcjI2WTZJi7&#xA;FXYq7FXYq7FXYq7FXYq7FXYq7FXYq7FXYq7FXYq7FXYq7FXYq7FXYq7FXYq7FXYq7FXYq+e/zI1a&#xA;wh846nylU0kC7EfaVFVh9BFMxJ6yIJjEGRHd+t2OLs6RiJzlGETy4jufcGNTa/dXb80inuXpQSMG&#xA;pQf5T8RkfEzy5REfeb+5n4Okh9U5T/qivtL6K8hW17b+UdLS8dnnaBXKuACgcchHt/IDSuZOKMox&#xA;qR4i4OoyQlO4R4Y93NP8saXYq7FXYq7FXYq7FXYq7FXYq7FXYq7FXYq7FXYq7FXYq7FXYq7FXYq7&#xA;FXYq7FXYq7FXYq7FXkn5u+VNFt/Q1GGJo57yd2uFV2CFytS/GuzN3plMMEYyMh15uTk1c5wEJbiP&#xA;Lv8AdfcwXQIrew1qzu4hCJYJA6/W5HEOw/bNT/t4NRl4I2CL82Wk0/iTAIkY/wBEWX0B5X1w65od&#xA;tqZt2tjcBqxMa04sVqpoKqaVBpjp83iQEqq0a3TeBlMLuk1y9xXYq7FXYq7FXYq7FXYq7FXYq7FX&#xA;Yq7FXYq7FXYq7FXYq7FXYq7FXYq7FXYq7FXYq7FXYq7FXiX5qW/mya9cX80kNr9Zf9HMoRrf6vT4&#xA;aBSG9X+blmu8GeTIRMy4elHav1u6/M4sWGJxCBn/ABcQuV+V7UxzyTplnF5q02bULgywrMPUE/BY&#xA;dwR8QoB18cuGkww3ofH9rjS7Q1OX08UvcNvufR68eI40402p0pmW64t4q7FXYq7FXYq7FXYq7FXY&#xA;q7FXYq7FXYq7FXYq7FXYq7FXYq7FXYq7FXYq7FXYq7FXYq7FXYq8j/OLzZo8kcFlE7vJZ3DpcSBT&#xA;6Yk40MYc/acdwMxJ6wcRjEGRHdy+bscfZ0uETnKMInlZ3PuDAvLU0+q67Z2NrbK7XD8Fa7ic2+4J&#xA;+OoFfb3yqZz5BXBED+kb+5vxDS4ZCXiTlIfzRw/aX0H5V0OTQ9CttMkuDdNAGrKRxHxMW4qCTRVr&#xA;QZk6bD4cBG7pwtdqRnymYHDabZe4jsVdirsVdirsVdirsVdirsVdirsVdirsVdirsVdirsVdirsV&#xA;dirsVdirsVdirsVdirsVdirw784LjTdD866RHHbrHFqAkvLpJHaOCeZXVeIPxKrkfa+Hevic1uq0&#xA;fFfhyOOcuo7/AHOyx66Zx8EoxmBsLG49xYpF5nfRdcsbxEjF3LfQraWMNXLI8iowUMeW4LH2Jp4Z&#xA;kaaM8eMRyS4pd7hECR2D6cBqAaUr2OZTU7FXYq7FXYq7FXYq7FXYq7FXYq7FXYq7FXYq7FXYq7FX&#xA;Yq7FXYq7FXYq7FXYq7FXYq7FUDd67olneRWV3qFtbXkwBhtpZo0lcE0HFGIY1IpsMiZgGiWQiTvS&#xA;LWeFpGiWRWkXdkBBYfMZJi8N/NbVbDVfO2lTjSo9VtNB+tW97ZXrCKOWRnVfhIWbZfT7rlU4kkbN&#xA;sJABjuq3ej3lxp0uneTdO0SSyvILqS6tZw8hSGVJGUD6vD1CEfa75EwPcyEh3vofSdcsdT0iLVYi&#xA;YbSUMQZuKFeDlDy3IG6+OXhoOy7UNe0PTfS/SOo2tl639z9Ymji5/wCrzK1+jIykBzNJESeQRwII&#xA;BBqD0OSQ7FXYq7FXYq7FXYq7FXYq7FXYq7FXYq7FXYq7FXYq7FXYq7FXYq7FXYq7FXYqwr80fzHt&#xA;fJeiiRAs+r3dVsLZjtUfalem/BK/SdvcUZ83APNuw4uM+T5W1LXdY1K7u7u+vJZ575g92zMaSFTV&#xA;eSjai/sjoO2aiUyTZdmIgckb5f8AOOuaHeQ3VpOSYGDIrkmlOwPUCm1OmXY9TKPmGvJgjJEfnV+Z&#xA;x86XmjyNbSWVraWp4xyg8XuJG/fPG1KMlEQA+2ZsjKYBqnEiIwsWwHSNWax1ayvbI1vLaeOW3Cgk&#xA;mRHDKABuakYBCQSZxL2P8xPzl1HzLOlvYQyWNjbCgjnFJjLSjM6dFbsAa0+nIZ9XIekCmWHTRO5N&#xA;vPPrt56ry+vJ6siskj8jVlYUZSa9CNiMwDIk2S5giBs9j/JT83ZbKe38r69NysJCItNvZDvCx2WJ&#xA;yf8AdZ6Kf2f9XpmaXUV6TycXUYL9QfQmbJwHYq7FXYq7FXYq7FXYq7FXYq7FXYq7FXYq7FXYq7FX&#xA;Yq7FXYq7FXYq7FXYq+OPzG81T+ZvN+oak78rcSGGyXstvGSI6f632j7nNJmycUiXb4ocMQEn8o+X&#xA;9c8464NG8vQLNKPiuLuUkW8KA0LuwBNPl17Vy3HpSebVPUAcnvOl/wDOMnl2O2UarrF7c3X7bWwh&#xA;gjr4BXSdv+GzKGig4/5uS3Wf+cZdK1eCztbvzHfNZ6crR6fB6VsPSjcj4SyorOaKoq3hmQIkCraD&#xA;IHogbH/nE7y/YX1vfWfmLUIbu0lSe3mVIapJGwZGFV7MK4aPeiwnb/8AON/lm5ea51DWNRuNQuHL&#xA;y3CfVolZiAB+7EJAoAOlMpnphI2S2w1BiKDzD8zPyW8w+TrOTV7CX9M6JFvcFU4XMC/zOoLKyD+Y&#xA;fSAMx8mjA5Fvhqr5vOIJ4p4hLE3JD/nQ5hTgYmi5cZCQsPrz8nvNU3mTyLZ3Nyxe9s2ayupDuWeE&#xA;Dix92jZSffNvpsnFB1meHDJmuXtLsVdirsVdirsVdirsVdirsVdirsVdirsVdirsVdirsVdirsVd&#xA;irsVdir4H8xGext54HBSdXMDjuGBIYfgc0+nhc9+jtM86ht1fTH/ADi75ettO/LddTCD6zq9xJJJ&#xA;LShMcLGFEr3Csrn6Tm1h3uun3PYMmwdirsVdiqy4gguIJLeeNZYJlaOWJwCrIwoysD1BBxV8Harp&#xA;36B88a1oSkmG1up4Yq9xDIVVvpUVzX6mHpvuc7BP1V3vpr/nGu2lj8l307iiT6g/p17hIowT9+30&#xA;ZZoh6T72vVn1fB61mY4rsVdirsVdirsVdirsVdirsVdirsVdirsVdirsVdirsVdirsVdirsVdir5&#xA;283/AJJ22u/mzcaXcXTWGmanHJq1tKiBy7ggTQipUAh3Ld6LTbMIY6ynzDlnJeMeT1n8q/Ld/wCV&#xA;/Kn+Hbwl/wBGXVxHbXFKCWCSQzxyAdqiWhFTRqjMqAoU48zZtmGTYOxV2KuxV2Kvmfz9+Tdx9U1b&#xA;z9dXUiape6lLJZ6R6NWMN1dGKBCwIIco4enH265h54HgJ7/1uXhkOIeT3nyF5aXy15R03RzT1reL&#xA;lckGoM8hLy0Pcc2IHtmRihwxAaMs+KRKf5Y1uxV2KuxV2KuxV2KuxV2KuxV2KuxV2KuxV2KuxV2K&#xA;uxV2KuxV2KuxV2KpZqX6J/S+kfWf+Oh6s36P405f3D+rXvw49f8AK45CVWO9kLopnk2LsVdirsVd&#xA;irsVSvXP0T6mmfpGtPrsf1T+T6zwf0uf0/Z/y+OQnW197KN70mmTYuxV2KuxV2KuxV2KuxV2KuxV&#xA;2KuxV2KuxV2KuxV2KuxV2KuxV2KuxV2KuxV//9k=</xmpGImg:image>
               </rdf:li>
            </rdf:Alt>
         </xmp:Thumbnails>
         <xmpMM:InstanceID>xmp.iid:de6e342f-6398-ca44-8aab-20a383af246e</xmpMM:InstanceID>
         <xmpMM:DocumentID>xmp.did:de6e342f-6398-ca44-8aab-20a383af246e</xmpMM:DocumentID>
         <xmpMM:OriginalDocumentID>uuid:5D20892493BFDB11914A8590D31508C8</xmpMM:OriginalDocumentID>
         <xmpMM:RenditionClass>proof:pdf</xmpMM:RenditionClass>
         <xmpMM:DerivedFrom rdf:parseType="Resource">
            <stRef:instanceID>xmp.iid:2cbbe80e-d2d5-7c44-978b-bcb8992dc99d</stRef:instanceID>
            <stRef:documentID>xmp.did:2cbbe80e-d2d5-7c44-978b-bcb8992dc99d</stRef:documentID>
            <stRef:originalDocumentID>uuid:5D20892493BFDB11914A8590D31508C8</stRef:originalDocumentID>
            <stRef:renditionClass>proof:pdf</stRef:renditionClass>
         </xmpMM:DerivedFrom>
         <xmpMM:History>
            <rdf:Seq>
               <rdf:li rdf:parseType="Resource">
                  <stEvt:action>saved</stEvt:action>
                  <stEvt:instanceID>xmp.iid:2cbbe80e-d2d5-7c44-978b-bcb8992dc99d</stEvt:instanceID>
                  <stEvt:when>2015-03-10T21:17:13-05:00</stEvt:when>
                  <stEvt:softwareAgent>Adobe Illustrator CC 2014 (Windows)</stEvt:softwareAgent>
                  <stEvt:changed>/</stEvt:changed>
               </rdf:li>
               <rdf:li rdf:parseType="Resource">
                  <stEvt:action>saved</stEvt:action>
                  <stEvt:instanceID>xmp.iid:de6e342f-6398-ca44-8aab-20a383af246e</stEvt:instanceID>
                  <stEvt:when>2015-03-31T23:39:47-05:00</stEvt:when>
                  <stEvt:softwareAgent>Adobe Illustrator CC 2014 (Windows)</stEvt:softwareAgent>
                  <stEvt:changed>/</stEvt:changed>
               </rdf:li>
            </rdf:Seq>
         </xmpMM:History>
         <illustrator:StartupProfile>Print</illustrator:StartupProfile>
         <xmpTPg:HasVisibleOverprint>False</xmpTPg:HasVisibleOverprint>
         <xmpTPg:HasVisibleTransparency>True</xmpTPg:HasVisibleTransparency>
         <xmpTPg:NPages>1</xmpTPg:NPages>
         <xmpTPg:MaxPageSize rdf:parseType="Resource">
            <stDim:w>2.616666</stDim:w>
            <stDim:h>2.000000</stDim:h>
            <stDim:unit>Inches</stDim:unit>
         </xmpTPg:MaxPageSize>
         <xmpTPg:PlateNames>
            <rdf:Seq>
               <rdf:li>Cyan</rdf:li>
               <rdf:li>Magenta</rdf:li>
               <rdf:li>Yellow</rdf:li>
               <rdf:li>Black</rdf:li>
            </rdf:Seq>
         </xmpTPg:PlateNames>
         <xmpTPg:SwatchGroups>
            <rdf:Seq>
               <rdf:li rdf:parseType="Resource">
                  <xmpG:groupName>Default Swatch Group</xmpG:groupName>
                  <xmpG:groupType>0</xmpG:groupType>
               </rdf:li>
            </rdf:Seq>
         </xmpTPg:SwatchGroups>
         <pdf:Producer>Adobe PDF library 10.01</pdf:Producer>
      </rdf:Description>
   </rdf:RDF>
</x:xmpmeta>
                                                                                                    
                                                                                                    
                                                                                                    
                                                                                                    
                                                                                                    
                                                                                                    
                                                                                                    
                                                                                                    
                                                                                                    
                                                                                                    
                                                                                                    
                                                                                                    
                                                                                                    
                                                                                                    
                                                                                                    
                                                                                                    
                                                                                                    
                                                                                                    
                                                                                                    
                                                                                                    
                           
<?xpacket end="w"?>
	</metadata>
<path fill="#C23F28" d="M253,1.3c-27,6.2-64,12.5-64,12.5s-36.8,6.1-46,8.3c-9.2,2.1-5,0.9-19.3,1.3s-23.5,10.6-25.6,16.3
	c-2.1,5.7-3.6,8.2-5.7,11.6c-1.3,2.1-3.7,5.4-5.2,7.5c-0.9,1.2-0.7,2.9,0.5,3.9l3,1.8c0,0,17.4-18.4,23.2-22.7s25.1-5.2,25.1-5.2
	s93.7-14.9,97.7-15.2c1.1-0.1,7.7-0.9,16.5-2V1.3z"/>
<polygon fill="#FFFFFF" points="70.9,122.7 86.6,120.8 86.2,118 70.6,120 "/>
<polygon fill="#FFFFFF" points="106.1,119.9 90.4,118 90.1,120.8 105.8,122.7 "/>
<path fill="#34A3DC" d="M94.7,121.8l2.4-3.1c0.3-0.4,0.8-0.6,1.4-0.5l4.1,0.8L94.7,121.8z"/>
<g opacity="0.18">
	<g>
		<g>
			<defs>
				<rect id="SVGID_1_" x="79" y="118.8" width="3.3" height="2.7"/>
			</defs>
			<clipPath id="SVGID_2_">
				<use xlink:href="#SVGID_1_"  overflow="visible"/>
			</clipPath>
			<polygon clip-path="url(#SVGID_2_)" fill="#24231F" points="81.3,121.4 82.3,121.3 80.3,118.8 79,118.9 			"/>
		</g>
	</g>
</g>
<path fill="#8D8B8C" d="M94.7,121.8l2.4-3.1c0.3-0.4,0.8-0.6,1.4-0.5l4.1,0.8L94.7,121.8z"/>
<path fill="#8D8B8C" d="M82.1,121.8l-2.6-3.3c-0.3-0.4-0.8-0.6-1.4-0.5l-4.1,0.8L82.1,121.8z"/>
<path fill="#49301C" d="M110.3,140c0.1-0.3,0.1-0.4-0.2-0.5l-2-0.9c-0.5-0.2-1,0-1.2,0.4c-0.6,1.2-1.2,2.1-1.4,2.5c0,0,0,0,0,0l0,0
	c2-9.3-1.5-12.7-4.5-14.2c-2.5-1.2-5.2-0.9-6.7-0.6v-4.1l6.3-3.1c0.4-0.2,0.9-0.2,1.3,0.1c1.7,1.4,6.6,5.6,7.2,10.4
	c0.1,0.8,0.1,1.5,0.1,2.2l1.5,2c0,0,0.3,5.7,0.4,5.8c0,0.1-0.7,0.9-0.7,0.9L110.3,140z M101.6,120.2c0-0.3-0.3-0.6-0.6-0.6
	c-0.3,0-0.6,0.3-0.6,0.6c0,0.3,0.3,0.6,0.6,0.6C101.4,120.8,101.6,120.5,101.6,120.2"/>
<path fill="#49301C" d="M82.8,122.5v4.1c-1.5-0.3-4.2-0.6-6.7,0.6c-3,1.5-6.5,4.8-4.5,14l0,0h0l0,0c-0.2-0.5-0.8-1.3-1.3-2.3
	c-0.2-0.4-0.8-0.6-1.2-0.4l-2,0.9c-0.3,0.1-0.3,0.2-0.2,0.5l0.2,0.9c0,0-0.7-0.8-0.7-0.9c0-0.1,0.4-5.8,0.4-5.8l1.5-2
	c-0.1-0.7,0-1.5,0.1-2.2c0.6-4.7,5.4-9,7.2-10.4c0.4-0.3,0.9-0.3,1.3-0.1L82.8,122.5z M76.5,120.2c0-0.3-0.3-0.6-0.6-0.6
	c-0.3,0-0.6,0.3-0.6,0.6c0,0.3,0.3,0.6,0.6,0.6S76.5,120.5,76.5,120.2"/>
<path fill="#24231F" d="M78.5,125.8c0,0-6.5,0.6-8.1,6.5c-0.5,1.8-0.6,3.2-0.6,3.9c0,0.4-0.2,0.7-0.6,0.9l-2.7,1.2l-2.2-8
	c0,0,7.4-5.6,7.5-5.6c0.2,0,6,0,6.3,0C78.5,124.7,78.5,125.8,78.5,125.8"/>
<path fill="#24231F" d="M98.4,125.6c0,0,6.5,0.8,8.1,6.7c0.5,1.8,0.6,3.2,0.6,3.9c0,0.4,0.2,0.7,0.6,0.9l2.7,1.2l2.2-8
	c0,0-7.4-5.6-7.5-5.6s-6,0-6.3,0C98.4,124.7,98.4,125.6,98.4,125.6"/>
<path fill="#6E451C" d="M109,143.9C109,144,108.9,144,109,143.9L109,143.9h-0.1c2.4-11.1-1.8-15.1-5.4-16.9
	c-4.3-2.1-9.3-0.4-9.3-0.4H82.6c0,0-5-1.7-9.2,0.4c-3.6,1.8-8.2,4.9-5.4,16.8c0,0,0,0.1,0,0.1c0,0-0.1,0-0.1,0
	c-0.9-1.6-5-7.6-4.1-13.7c0.8-5.6,6.5-10.8,8.6-12.4c0.4-0.4,1.1-0.4,1.5-0.1l9.9,4.9c0.3,0.1,0.6,0.2,0.9,0.2h7.6
	c0.3,0,0.6-0.1,0.9-0.2l9.9-4.9c0.5-0.3,1.1-0.2,1.5,0.1c2.1,1.7,7.8,6.8,8.6,12.4C114,136.4,109.9,142.4,109,143.9 M73.9,118.7
	c0-0.4-0.3-0.7-0.7-0.7c-0.4,0-0.7,0.3-0.7,0.7s0.3,0.7,0.7,0.7C73.6,119.4,73.9,119.1,73.9,118.7 M104.4,118.7
	c0-0.4-0.3-0.7-0.7-0.7s-0.7,0.3-0.7,0.7s0.3,0.7,0.7,0.7S104.4,119.1,104.4,118.7"/>
<g opacity="0.18">
	<g>
		<g>
			<defs>
				<rect id="SVGID_3_" x="85.6" y="118.2" width="8.2" height="3.1"/>
			</defs>
			<clipPath id="SVGID_4_">
				<use xlink:href="#SVGID_3_"  overflow="visible"/>
			</clipPath>
			<polygon clip-path="url(#SVGID_4_)" fill="#24231F" points="92.6,118.2 85.6,118.2 85.6,121.1 93,121.1 93.8,121.2 			"/>
		</g>
	</g>
</g>
<path fill="#49301C" d="M91.6,117.1h-6.5l-2.4,6.9c-0.4,1,0.4,2,1.5,2h8.3c1.1,0,1.8-1.1,1.5-2L91.6,117.1z"/>
<path fill="#24231F" d="M93.5,126.4H83.3c-0.9,0-1.6-0.7-1.6-1.6v0c0-0.9,0.7-1.6,1.6-1.6h10.2c0.9,0,1.6,0.7,1.6,1.6v0
	C95.1,125.7,94.4,126.4,93.5,126.4"/>
<path fill="#FFFFFF" d="M82.7,125.7c-0.5-0.3-0.6-1-0.3-1.5c0.3-0.5,1-0.6,1.5-0.3c0.5,0.3,0.6,1,0.3,1.5
	C83.9,125.9,83.2,126,82.7,125.7"/>
<path fill="#8D8B8C" d="M92.6,111.6h-0.1V110h0.1c0.3,0,0.6,0.3,0.6,0.6v0.4C93.2,111.4,92.9,111.6,92.6,111.6"/>
<path fill="#8D8B8C" d="M84.2,111.6h0.1V110h-0.1c-0.3,0-0.6,0.3-0.6,0.6v0.4C83.6,111.4,83.8,111.6,84.2,111.6"/>
<path fill="#49301C" d="M92.5,108.6v8h-8.2v-8c0-0.1,0.1-0.2,0.2-0.2h7.9C92.4,108.5,92.5,108.6,92.5,108.6 M85.8,115.5h5.1v-2.1
	h-5.1V115.5z M84.9,115.5h0.5v-2.1h-0.5V115.5z M91.9,113.4h-0.5v2.1h0.5V113.4z"/>
<g opacity="0.44">
	<g>
		<g>
			<defs>
				<rect id="SVGID_5_" x="85.2" y="108.5" width="7.1" height="4.2"/>
			</defs>
			<clipPath id="SVGID_6_">
				<use xlink:href="#SVGID_5_"  overflow="visible"/>
			</clipPath>
			<path clip-path="url(#SVGID_6_)" fill="#24231F" d="M92.3,108.5L92.3,108.5h-7.1v0.7c0,1.9,1.6,3.5,3.5,3.5h0.1
				c1.9,0,3.5-1.6,3.5-3.5L92.3,108.5L92.3,108.5z"/>
		</g>
	</g>
</g>
<path fill="#8D8B8C" d="M82.7,78.2V87c0,1.2,1,2.1,2.1,2.1h0v19.8c0,1.9,1.6,3.5,3.5,3.5h0.1c1.9,0,3.5-1.6,3.5-3.5V89.1h0
	c1.2,0,2.1-0.9,2.1-2.1v-8.8c0-0.7-0.6-1.3-1.3-1.3h-8.9C83.2,77,82.7,77.5,82.7,78.2"/>
<path fill="#49301C" d="M89.5,109c0,0.7-0.5,1.2-1.2,1.2c-0.7,0-1.2-0.5-1.2-1.2c0-0.7,0.5-1.2,1.2-1.2
	C89,107.9,89.5,108.4,89.5,109"/>
<g opacity="0.54">
	<g>
		<g>
			<defs>
				<rect id="SVGID_7_" x="84.8" y="95.2" width="7.1" height="15.1"/>
			</defs>
			<clipPath id="SVGID_8_">
				<use xlink:href="#SVGID_7_"  overflow="visible"/>
			</clipPath>
			<path clip-path="url(#SVGID_8_)" fill="#24231F" d="M91.9,104c-1,0.2-2.1,0.5-3.2,0.7c-1.5,0.3-2.8,0.5-3.9,0.9v1.2
				c0.1,0,0.1,0,0.2-0.1c1.1-0.4,2.5-0.7,3.9-0.9c1.1-0.2,2.1-0.4,3-0.6L91.9,104L91.9,104z"/>
		</g>
		<g>
			<defs>
				<rect id="SVGID_9_" x="84.8" y="95.2" width="7.1" height="15.1"/>
			</defs>
			<clipPath id="SVGID_10_">
				<use xlink:href="#SVGID_9_"  overflow="visible"/>
			</clipPath>
			<path clip-path="url(#SVGID_10_)" fill="#24231F" d="M89,109.3c-0.1-0.2-0.3-0.4-0.6-0.4c-1.3,0.1-2.7-0.6-3.6-0.6v0.6
				c0,0.2,0,0.5,0.1,0.7c1.1,0.2,2.8,0.7,3.7,0.6C88.9,110.1,89.1,109.7,89,109.3L89,109.3z"/>
		</g>
		<g>
			<defs>
				<rect id="SVGID_11_" x="84.8" y="95.2" width="7.1" height="15.1"/>
			</defs>
			<clipPath id="SVGID_12_">
				<use xlink:href="#SVGID_11_"  overflow="visible"/>
			</clipPath>
			<path clip-path="url(#SVGID_12_)" fill="#24231F" d="M91.9,96.4v-1.2c-1,0.2-2.1,0.5-3.2,0.7c-1.5,0.3-2.8,0.5-3.9,0.9v1.2
				c0.1,0,0.1,0,0.2-0.1c1.1-0.4,2.5-0.6,3.9-0.9C90,96.8,91,96.6,91.9,96.4"/>
		</g>
	</g>
</g>
<g opacity="0.54">
	<g>
		<g>
			<defs>
				<rect id="SVGID_13_" x="83.3" y="85.4" width="10.7" height="3.7"/>
			</defs>
			<clipPath id="SVGID_14_">
				<use xlink:href="#SVGID_13_"  overflow="visible"/>
			</clipPath>
			<path clip-path="url(#SVGID_14_)" fill="#24231F" d="M88.6,88.3c2.1-0.4,4.2-0.9,5.5-1.5v-1.4c-0.3,0.2-0.9,0.6-1.8,0.9
				c-1.1,0.4-2.5,0.6-3.9,0.9c-2.1,0.4-3.9,0.8-5.1,1.3c0.4,0.4,0.9,0.6,1.5,0.6h0v0C85.8,88.8,87.2,88.6,88.6,88.3"/>
		</g>
	</g>
</g>
<path fill="#E35326" d="M94.8,102.1c-0.2-1-1.2-1.6-2.9-2.1v1.2c0.1,0,0.2,0.1,0.4,0.1c1.4,0.4,1.4,0.8,1.4,0.8s0,0.4-1.4,0.8
	c-1.1,0.4-2.5,0.6-3.9,0.9c-3.5,0.7-6.2,1.2-6.2,2.8c0,1.4,2.9,2.3,6.1,2.9c0.4,0.1,0.7-0.2,0.7-0.6l0,0c0-0.3-0.2-0.5-0.5-0.6
	c-1.3-0.3-2.9-0.8-3.8-1c-1.4-0.4-1.4-0.8-1.4-0.8s0-0.4,1.4-0.8c1.1-0.4,2.5-0.7,3.9-0.9C92.6,104.2,95.1,103.7,94.8,102.1"/>
<path fill="#E35326" d="M91.9,91.2v1.2c0.1,0,0.2,0.1,0.4,0.1c1.4,0.4,1.4,0.8,1.4,0.8s0,0.4-1.4,0.8c-1.1,0.4-2.5,0.6-3.9,0.9
	c-3.5,0.7-6.2,1.2-6.2,2.8c0,0.9,1,1.5,2.6,2v-1.2c0,0,0,0-0.1,0c-1.4-0.4-1.4-0.8-1.4-0.8s0-0.4,1.4-0.8c1.1-0.4,2.5-0.6,3.9-0.9
	c3.5-0.7,6.2-1.2,6.2-2.8C94.8,92.2,93.7,91.6,91.9,91.2"/>
<path fill="#E35326" d="M84.8,90.8v-1.2c0,0-0.1,0-0.1,0c-1.4-0.4-1.4-0.8-1.4-0.8s0-0.4,1.4-0.8c1.1-0.4,2.5-0.6,3.9-0.9
	c2.6-0.5,5.2-1.1,6.3-2.1c0.4-0.4,0.1-1-0.4-1l0,0c-0.1,0-0.2,0-0.4,0.1c-0.3,0.2-0.9,0.7-1.9,1c-1.1,0.4-2.5,0.6-3.9,0.9
	c-3.5,0.7-6.2,1.2-6.2,2.8C82.2,89.8,83.2,90.4,84.8,90.8"/>
<g opacity="0.54">
	<g>
		<g>
			<defs>
				<rect id="SVGID_15_" x="87.3" y="81.6" width="2.5" height="2.5"/>
			</defs>
			<clipPath id="SVGID_16_">
				<use xlink:href="#SVGID_15_"  overflow="visible"/>
			</clipPath>
			<path clip-path="url(#SVGID_16_)" fill="#24231F" d="M89.7,82.9c0,0.7-0.6,1.2-1.2,1.2s-1.2-0.6-1.2-1.2c0-0.7,0.6-1.2,1.2-1.2
				S89.7,82.2,89.7,82.9"/>
		</g>
	</g>
</g>
<path fill="#FFFFFF" d="M89.6,82.7c0,0.7-0.6,1.2-1.2,1.2c-0.7,0-1.2-0.6-1.2-1.2c0-0.7,0.6-1.2,1.2-1.2C89,81.4,89.6,82,89.6,82.7"
	/>
<g opacity="0.28">
	<g>
		<g>
			<defs>
				<rect id="SVGID_17_" x="84.4" y="117.6" width="8" height="1.7"/>
			</defs>
			<clipPath id="SVGID_18_">
				<use xlink:href="#SVGID_17_"  overflow="visible"/>
			</clipPath>
			<polygon clip-path="url(#SVGID_18_)" fill="#24231F" points="84.4,119.3 92.4,119.3 91.8,117.6 84.9,117.6 			"/>
		</g>
	</g>
</g>
<path fill="#6E451C" d="M93.1,118.3h-9.5c-0.4,0-0.7-0.3-0.7-0.7v-0.8c0-0.4,0.3-0.7,0.7-0.7h9.5c0.4,0,0.7,0.3,0.7,0.7v0.8
	C93.8,118.1,93.5,118.3,93.1,118.3"/>
<path fill="#F8EC20" d="M87.9,109.8l-1.7-0.5l0.5-1.6l1.7,0.5c0.5,0.1,0.7,0.6,0.6,1.1l0,0C88.8,109.7,88.3,109.9,87.9,109.8"/>
<path fill="#49301C" d="M88.4,109c0,0.2-0.2,0.4-0.4,0.4c-0.2,0-0.4-0.2-0.4-0.4s0.2-0.4,0.4-0.4C88.3,108.6,88.4,108.8,88.4,109"/>
<path fill="#8D8B8C" d="M82.5,124.1c0,0-0.1,0.1-0.1,0.1c0,0,0,0.1-0.1,0.1l1.8,1.2c0,0,0-0.1,0.1-0.1s0.1-0.1,0.1-0.1L82.5,124.1z"
	/>
<path fill="#FFFFFF" d="M94.3,125.4c-0.4,0.5-1,0.6-1.5,0.2c-0.5-0.4-0.6-1-0.2-1.5s1-0.6,1.5-0.2C94.5,124.3,94.6,125,94.3,125.4"
	/>
<path fill="#8D8B8C" d="M92.6,125.6c0,0,0.1,0.1,0.1,0.1c0,0,0.1,0,0.1,0.1l1.2-1.8c0,0-0.1,0-0.1-0.1c0,0-0.1-0.1-0.1-0.1
	L92.6,125.6z"/>
<g opacity="0.54">
	<g>
		<g>
			<defs>
				<rect id="SVGID_19_" x="88.2" y="81.4" width="0.4" height="2.5"/>
			</defs>
			<clipPath id="SVGID_20_">
				<use xlink:href="#SVGID_19_"  overflow="visible"/>
			</clipPath>
			<path clip-path="url(#SVGID_20_)" fill="#24231F" d="M88.2,83.9c0.1,0,0.1,0,0.2,0s0.1,0,0.2,0v-2.5c-0.1,0-0.1,0-0.2,0
				s-0.1,0-0.2,0V83.9z"/>
		</g>
	</g>
</g>
<g opacity="0.37">
	<g>
		<g>
			<defs>
				<rect id="SVGID_21_" x="84.2" y="89" width="8.2" height="1.4"/>
			</defs>
			<clipPath id="SVGID_22_">
				<use xlink:href="#SVGID_21_"  overflow="visible"/>
			</clipPath>
			<path clip-path="url(#SVGID_22_)" fill="#24231F" d="M84.2,89c0.2,0,0.4,0.1,0.5,0.1h0v1.3h7.1v-1.3h0c0.2,0,0.4,0,0.5-0.1H84.2z
				"/>
		</g>
	</g>
</g>
<line fill="none" stroke="#8D8B8C" stroke-width="2" stroke-linecap="square" stroke-miterlimit="10" x1="83.1" y1="117.5" x2="93.7" y2="117.5"/>
<path fill="#8D8B8C" d="M90.6,78.6h-4.4v-19c0-1.2,1-2.2,2.2-2.2h0c1.2,0,2.2,1,2.2,2.2L90.6,78.6L90.6,78.6z"/>
<g opacity="0.24">
	<g>
		<g>
			<defs>
				<rect id="SVGID_23_" x="86.2" y="59.4" width="4.4" height="6"/>
			</defs>
			<clipPath id="SVGID_24_">
				<use xlink:href="#SVGID_23_"  overflow="visible"/>
			</clipPath>
			<path clip-path="url(#SVGID_24_)" fill="#24231F" d="M90.6,65.4v-3.3l-4.4-2.7c0,0.1,0,0.2,0,0.2v2.5
				C87.3,63.2,89.7,64.8,90.6,65.4"/>
		</g>
	</g>
</g>
<path fill="#E35326" d="M253,0c-27,6.2-64.5,12.6-64.5,12.6s-36.8,6.1-46,8.3c-9.2,2.1-5,0.9-19.3,1.3
	c-14.3,0.4-23.5,10.6-25.6,16.3c-2.1,5.7-3.6,8.2-5.7,11.6c-1.3,2.1-3.7,5.4-5.2,7.5c-0.9,1.2-0.7,2.9,0.5,3.9l3.6,2.9
	c0,0,16.8-19.6,22.6-23.9c5.8-4.3,25.1-5.2,25.1-5.2S232,20.4,236,20c1.2-0.1,8-0.9,17-1.9V0z"/>
<g opacity="0.54">
	<g>
		<g>
			<defs>
				<rect id="SVGID_25_" x="88.1" y="59.4" width="2.5" height="2.5"/>
			</defs>
			<clipPath id="SVGID_26_">
				<use xlink:href="#SVGID_25_"  overflow="visible"/>
			</clipPath>
			<path clip-path="url(#SVGID_26_)" fill="#24231F" d="M90.6,60.6c0,0.7-0.6,1.2-1.2,1.2s-1.2-0.6-1.2-1.2s0.6-1.2,1.2-1.2
				C90.1,59.4,90.6,59.9,90.6,60.6"/>
		</g>
	</g>
</g>
<path fill="#FFFFFF" d="M90.4,60.4c0,0.7-0.6,1.2-1.2,1.2c-0.7,0-1.2-0.6-1.2-1.2s0.6-1.2,1.2-1.2C89.9,59.2,90.4,59.8,90.4,60.4"/>
<g opacity="0.54">
	<g>
		<g>
			<defs>
				<rect id="SVGID_27_" x="89" y="59.2" width="0.4" height="2.5"/>
			</defs>
			<clipPath id="SVGID_28_">
				<use xlink:href="#SVGID_27_"  overflow="visible"/>
			</clipPath>
			<path clip-path="url(#SVGID_28_)" fill="#24231F" d="M89,61.6c0.1,0,0.1,0,0.2,0s0.1,0,0.2,0v-2.5c-0.1,0-0.1,0-0.2,0
				s-0.1,0-0.2,0V61.6z"/>
		</g>
	</g>
</g>
<g opacity="0.43">
	<g>
		<g>
			<defs>
				<rect id="SVGID_29_" x="106.7" y="22.6" width="12.3" height="6"/>
			</defs>
			<clipPath id="SVGID_30_">
				<use xlink:href="#SVGID_29_"  overflow="visible"/>
			</clipPath>
			<path clip-path="url(#SVGID_30_)" fill="#24231F" d="M118.8,23.1c-0.1-0.1-0.2-0.3-0.3-0.4c-4.6,0.8-8.6,2.7-11.8,5
				c0.1,0.2,0.3,0.4,0.5,0.7c0.2,0.3,0.7,0.4,1,0.2c3.2-2.4,8.1-3.8,10.2-4.3C118.9,24,119.1,23.5,118.8,23.1"/>
		</g>
	</g>
</g>
<path fill="#6E451C" d="M82.9,76.7h11c0.5,0,1,0.4,1,0.9V79H82v-1.3C81.9,77.2,82.3,76.7,82.9,76.7"/>
<g opacity="0.43">
	<g>
		<g>
			<defs>
				<rect id="SVGID_31_" x="81.9" y="77.9" width="12.9" height="1"/>
			</defs>
			<clipPath id="SVGID_32_">
				<use xlink:href="#SVGID_31_"  overflow="visible"/>
			</clipPath>
			<rect x="81.9" y="77.9" clip-path="url(#SVGID_32_)" fill="#24231F" width="12.9" height="1"/>
		</g>
	</g>
</g>
<path fill="#C23F28" d="M204.4,24.8c0.7-0.1,1.3-0.2,2-0.3l-2.2-14.6c-0.7,0.1-1.3,0.2-2,0.4L204.4,24.8z"/>
<path fill="#C23F28" d="M242.9,19.2c0.6-0.1,1.3-0.1,2-0.2l-2.5-16.6c-0.7,0.1-1.3,0.3-2,0.4L242.9,19.2z"/>
<polygon fill="#FFFFFF" points="143.6,32 164.5,28.7 163.9,24.6 142.9,27.9 "/>
<polygon fill="#6E451C" points="149.8,31.1 153.3,26.3 147.4,27.2 144,32 "/>
<polygon fill="#6E451C" points="160.2,29.4 163.7,24.6 157.9,25.6 154.4,30.3 "/>
</svg>
