<?xml version="1.0" encoding="utf-8"?>
<!-- Generator: Adobe Illustrator 18.1.1, SVG Export Plug-In . SVG Version: 6.00 Build 0)  -->
<svg version="1.1" id="Layer_1" xmlns="http://www.w3.org/2000/svg" xmlns:xlink="http://www.w3.org/1999/xlink" x="0px" y="0px"
	 viewBox="0 33.5 252 86.2" enable-background="new 0 33.5 252 86.2" xml:space="preserve">
<metadata><?xpacket begin="﻿" id="W5M0MpCehiHzreSzNTczkc9d"?>
<x:xmpmeta xmlns:x="adobe:ns:meta/" x:xmptk="Adobe XMP Core 5.6-c014 79.156821, 2014/08/29-03:07:50        ">
   <rdf:RDF xmlns:rdf="http://www.w3.org/1999/02/22-rdf-syntax-ns#">
      <rdf:Description rdf:about=""
            xmlns:dc="http://purl.org/dc/elements/1.1/"
            xmlns:xmp="http://ns.adobe.com/xap/1.0/"
            xmlns:xmpGImg="http://ns.adobe.com/xap/1.0/g/img/"
            xmlns:xmpMM="http://ns.adobe.com/xap/1.0/mm/"
            xmlns:stRef="http://ns.adobe.com/xap/1.0/sType/ResourceRef#"
            xmlns:stEvt="http://ns.adobe.com/xap/1.0/sType/ResourceEvent#"
            xmlns:illustrator="http://ns.adobe.com/illustrator/1.0/"
            xmlns:xmpTPg="http://ns.adobe.com/xap/1.0/t/pg/"
            xmlns:stDim="http://ns.adobe.com/xap/1.0/sType/Dimensions#"
            xmlns:xmpG="http://ns.adobe.com/xap/1.0/g/"
            xmlns:pdf="http://ns.adobe.com/pdf/1.3/">
         <dc:format>image/svg+xml</dc:format>
         <dc:title>
            <rdf:Alt>
               <rdf:li xml:lang="x-default">Print</rdf:li>
            </rdf:Alt>
         </dc:title>
         <xmp:MetadataDate>2015-03-10T00:32:45-05:00</xmp:MetadataDate>
         <xmp:ModifyDate>2015-03-10T00:32:45-05:00</xmp:ModifyDate>
         <xmp:CreateDate>2015-03-10T00:32:45-05:00</xmp:CreateDate>
         <xmp:CreatorTool>Adobe Illustrator CC 2014 (Windows)</xmp:CreatorTool>
         <xmp:Thumbnails>
            <rdf:Alt>
               <rdf:li rdf:parseType="Resource">
                  <xmpGImg:width>256</xmpGImg:width>
                  <xmpGImg:height>256</xmpGImg:height>
                  <xmpGImg:format>JPEG</xmpGImg:format>
                  <xmpGImg:image>/9j/4AAQSkZJRgABAgEASABIAAD/7QAsUGhvdG9zaG9wIDMuMAA4QklNA+0AAAAAABAASAAAAAEA&#xA;AQBIAAAAAQAB/+4ADkFkb2JlAGTAAAAAAf/bAIQABgQEBAUEBgUFBgkGBQYJCwgGBggLDAoKCwoK&#xA;DBAMDAwMDAwQDA4PEA8ODBMTFBQTExwbGxscHx8fHx8fHx8fHwEHBwcNDA0YEBAYGhURFRofHx8f&#xA;Hx8fHx8fHx8fHx8fHx8fHx8fHx8fHx8fHx8fHx8fHx8fHx8fHx8fHx8fHx8f/8AAEQgBAAEAAwER&#xA;AAIRAQMRAf/EAaIAAAAHAQEBAQEAAAAAAAAAAAQFAwIGAQAHCAkKCwEAAgIDAQEBAQEAAAAAAAAA&#xA;AQACAwQFBgcICQoLEAACAQMDAgQCBgcDBAIGAnMBAgMRBAAFIRIxQVEGE2EicYEUMpGhBxWxQiPB&#xA;UtHhMxZi8CRygvElQzRTkqKyY3PCNUQnk6OzNhdUZHTD0uIIJoMJChgZhJRFRqS0VtNVKBry4/PE&#xA;1OT0ZXWFlaW1xdXl9WZ2hpamtsbW5vY3R1dnd4eXp7fH1+f3OEhYaHiImKi4yNjo+Ck5SVlpeYmZ&#xA;qbnJ2en5KjpKWmp6ipqqusra6voRAAICAQIDBQUEBQYECAMDbQEAAhEDBCESMUEFURNhIgZxgZEy&#xA;obHwFMHR4SNCFVJicvEzJDRDghaSUyWiY7LCB3PSNeJEgxdUkwgJChgZJjZFGidkdFU38qOzwygp&#xA;0+PzhJSktMTU5PRldYWVpbXF1eX1RlZmdoaWprbG1ub2R1dnd4eXp7fH1+f3OEhYaHiImKi4yNjo&#xA;+DlJWWl5iZmpucnZ6fkqOkpaanqKmqq6ytrq+v/aAAwDAQACEQMRAD8A9U4q7FXYq7FXYq7FXYq7&#xA;FXYq7FWmZVUsxCqoqxOwAGKsB1/z5dSSvBpR9KBdvrBFXb3Wv2R+OZePAOrq8+tJNR5MVuLy7uW5&#xA;XE0kzdjIxb9ZzIAA5OFKRPMtQ3FxA3KGV4m/mRip/DEi0CRHJP8ATPPes2lEuCLyIdpNn+hx/EHK&#xA;pYInls5WPWTjz3ZNZef9EnoJ/UtW78l5L96VP4ZQdPIOZDWwPPZPLTU9OuwPq1zFMT2RgT9I65UY&#xA;kc3JjkjLkUTkWbsVdirsVdirsVdirsVdirsVdirsVdirsVdirsVdirsVdirsVdirsVdirsVdiqQ+&#xA;eJpovL0/pHjzZEkI/kY7j6cuwD1OLrCRjNPL8znTOxV2KuxV2KuBINRsRiqYWnmDW7SnoXsqgdFZ&#xA;ua/8C1RkDjiejbHPOPIpvbfmDrcVBMsVwO5ZSrf8KQPwys6eLfHXTHOimtt+ZNsaC5snTxMbB/wY&#xA;J+vKzpj0LfHXjqE0tvO/l2agM7Qse0iMPxAYfjlZwSDdHWYz1TW21TTbqn1e6ilJ6BHUn7ga5AxI&#xA;5hvjkieRCJyLN2KuxV2KuxV2KuxV2KuxV2KuxV2KuxV2KuxV2KuxV2KuxV2KsZ/MGf09CWMf7umR&#xA;SPYAt/xrl+nHqcPXGofFiPk6K3m8w20U8ayxuJBwcBlqI2O4PyzIzEiLgaUA5ACzfWvL+gLpl3Ob&#xA;KJDHE7howEIKqSKcad8xYZJWN3ZZsGPhJrokfljyfpmoaPHd3fqerKzcSjUoqtx6UPcZblzESoON&#xA;p9LGULKMm/LjTD/c3Uyf63Fv1BciNSe5sOgj0JQU35bTj+5vlbwDxlf1M2TGp8mo9nnoUFL+Xuup&#xA;9h4JR24uwP8AwyjJDURazoZ+SCl8neZIutmWHijI34Bq5IZo97WdLkHRAzaLrEO8tlOg8TG1PvpT&#xA;JicT1azhmOYKDIINCKEdQck1uxV2Kou21bVLWn1e7liA6KrsF+6tMiYA8wzjlkORKa2vnrzDDTnK&#xA;lwB2lQfrTicrOCJb46zIPNMB+ZF9QVs4q9/ibIflh3tv5+XcuT8yboH47JGHgHIP4g4/lh3pGvPc&#xA;m+mefNIu3EdwGs5D0L7p/wAGOn0jK5YCOW7fj1sJc9mSqwYBlIKkVBHQjKHMdirsVdirsVdirsVd&#xA;irsVdirsVdirsVdirsVYZ+ZMtLaxir9p5Gp/qgD/AI2zJ0w3Lr+0DsAx3ycxXzJZEfzOPvjYZdm+&#xA;kuJpf7wM6853Ho+XLr+aTjGv+yYV/wCFrmLhFyDstXKsZRXl2D0NCsY+h9FGI93HI/ryOQ3ItmCN&#xA;QHuTHINrsVdirsVdiqnNbW04pNEko8HUMPxwgkIMQeaXT+VvL0/27GIf6gMf/ECuTGWQ6tJ02M9E&#xA;DN5A8vyfYEsP+o9f+JhskNRJrOixnvQE35bWh/ub2RPDmgf9RTJjUnuajoB0KAn/AC51Rf7m5hkH&#xA;+VyQ/qbJjUBqOgl0IQEvkfzIn2bdZAO6yJ/xsRkhni1nR5B0QF1oOs2oJnspVUdWCll/4JajJjJE&#xA;9WqWGceYKAybUyryZ5mltLmPT7p+VnKeMTH/AHW56U/yScx82KxY5ubpNQYnhPJ6JmG7Z2KuxV2K&#xA;uxV2KuxV2KuxV2KuxV2KuxV2KsD/ADJkrd2Udfsxu1P9Ygf8a5l6bkXWa87hIPLLBfMFgT/v5R9+&#xA;2W5fpLi6c/vB70z/ADAM36dCs1YzChjUGu1SNx41rkNP9Ldrr4/gzjQIbyHRrSK8JNwkYDg9QK/C&#xA;D7haDMXIQZGnZYARAA80wyDa7FXYq7FXYq7FXYq7FXYq7FXYq7FUk8weVbDVY2dVWC9G6zqOp8HA&#xA;6/ry3HlMfc42fTRmO4vNb/T7zTrpre6QxypuPAjsynuMzYyBFh1E4GBovUvLmrpqmlRT1rMoCXA7&#xA;h1G5+nrmDkhwl3WDLxxvqmeVtzsVdirsVdirsVdirsVdirsVdirsVdirzr8xZOWtQp2S3X7y7HMz&#xA;T/S6nXn1j3JFoz+nrFi/8txET26OMun9JcbEamPenmt/6f55SDqizQxf7FaF/wCOVQ2xuTm9WavM&#xA;PRswnbOxV2KuxV2KuxV2KuxV2KuxV2KuxV2KuxVL9a0Oy1a1MNwtHXeKZftIfb28Rk4TMTs1ZsIm&#xA;KLBrCbUPKWtendqWtZtpCv2XSuzr7r4ZlSAyR2dbAywT35PSVIZQw3BFQcwnbuxV2KuxV2KuxV2K&#xA;uxV2KuxV2KuxV2KvM/Pj8vMMg/kjjX8K/wAczsH0un1p/eJBDIY5kkHVGDD6DXLS4oNFk3lb/T/O&#xA;Ml31UNNcfQxKj/ieU5doU5mm9Wa/eXouYTtnYq7FXYq7FXYq7FXYq7FXYq7FXYq7FXYq7FUh88RR&#xA;P5buXZQzxmNo2I3UmRVNPoOW4D6nF1gHhlO4P7iP/VX9WVlyY8l+BLsVdirsVdirsVdirsVdirsV&#xA;dirsVeWedH5+ZbzwHpqPojX+OZ+H6Q6TVn94Uky1x2afltb1mvbkj7KpGp/1iWP/ABEZjak8g7HQ&#xA;R3JZ1mI7J2KuxV2KuxV2KuxV2KuxV2KuxV2KuxV2KuxVJPOv/KM3n/PL/k6mW4fqDjav+7P46pxB&#xA;/cR/6q/qysuRHkvwJdirsVdirsVdirsVdirsVdirsVdirybzS/PzDfGtaSlf+BAH8M2GL6Q6PUn9&#xA;4UqyxoZb5D1Z4rqLTI4wRcSSSTyHrxWIcAu/8ymu2Y+eG1udostHh7/1PQcw3auxV2KuxV2KuxV2&#xA;KuxV2KuxV2KuxV2KuxV2KsU/MLUxDpqWC153TBm224Ia9fHlxzI08bNuDrslR4e9O/L179d0SzuT&#xA;Us0YVyaCrJ8DHbxZTlWSNSIcnBPigCmGQbXYq7FXYq7FXYq7FXYq7FXYq7FXYq8g15i2uagT/wAt&#xA;Mo+5yM2OP6Q6HN9Z95QGTak/8jFR5jt69SsgX58DlOf6XK0f94Hp+YLuXYq7FXYq7FXYq7FXYq7F&#xA;XYq7FXYq7FXYq7FXnH5gXrT6wLcEGO1QDbs0g5Gv0UzN08ajbqNbO513J9+X97LLp01pMfjtH4pH&#xA;xClUbfegH7VeuU6iO9uVopkxIPRlOUOa7FXYq7FXYq7FXYq7FXYq7FXYq7FXjWqMG1O7YGoM0hB+&#xA;bnNlHkHn8n1H3obJME88lwtJ5jtadE5u3yCH+OVZj6S5OkF5A9SzAd07FXYq7FXYq7FXYq7FXYq7&#xA;FXYq7FXYqo3F7Z2wBuZ44AehkdU/4kRhESeTGUwOZpp721W0kuxIrwRqzs6EMKKKncY8JulMxV9H&#xA;nGqQSP5fGqTj9/qV40h9kVWCj765mxPqruDqMkT4fEecpJ9B/uK8z2Uv2bbVrdEbw9UKB+vj9+VH&#xA;1QPk5UfRkB6SDJrrVtMtH4XN3FC/8juob7q1ygQJ5BzJZYx5lXguILiMSQSJLGejowZfvGAimQkD&#xA;uF+BLsVdirsVdirsVdirsVdirsVeL3jBrudh0MjEfSxzZjk89PmVHCxZX+XUHLVriYioihIHzdh/&#xA;AHMfUHZztAPUT5PQ8w3auxV2KuxV2KuxV2KuxV2KuxV2KuxVLfMepvpmjz3UdPWACxV6cmNAfo65&#xA;PHHilTTnycECWNaV5KfUoFv9XupTNcAOEUjkFO45Mwb7qbZfLNw7RDh49JxjimTuh9Y8k6jY28j6&#xA;bO9xbMKy29SHIHsNnwwzAndjl0koj0mwlereYlv9GstOFv6TWnEM9djwXhsKZZDHUiWnLn4oCNck&#xA;RfazeeYIrDTrS0K3EFDzVqkkKBUbDivfrgjAQsksp5TlAiBuE7s/y7tmTnqN1JLcPu/pEAAn3YMW&#xA;+e2VHUHoHJjoR/Ed0BcWd55Q1SC4gmaXTrhuMinuB1VgNuQG6nJAjIK6tUonBIEH0ln+YjtHYq7F&#xA;XYq7FXYq7FXYq7FXYq8Un/v5P9Y/rzZh5081mFDO/wAtoaW99NT7TxoD/qgn/jbMTUnk7Ps8bEsz&#xA;zGdg7FXYq7FXYq7FXYq7FXYq7FXYq7FUj852xn0CcD/dbI5+QYBj9ANctwmpONq43jKdqoVQqiig&#xA;UA9hlTkt4qpPZ2jsWeCNmPViqkn8MNliYjuXRQQRV9KNY69eIAr92JKQAOS/AlIvONkbzTIbdRV5&#xA;LmJUPgWJWv3HLcMqNuNqocUQPMJ7lTkuxV2KuxV2KuxV2KuxV2KuxV4pP/fyf6x/XmzDzp5rMKHo&#xA;v5dJTRZnpu9w2/sETMLUfU7bQD0H3spyhzXYq7FXYq7FXYq7FXYq7FXYq7FXYqtlijlieKRQ0cil&#xA;XU9CrChGIKCLFFdil2KuxV2KuxVbJFHIULqGMbc0r2ahFfuONoItdil2KuxV2KuxV2KuxV2KuxV2&#xA;KvEc2jzjsVeleQFpoAP80zn9Q/hmFqPqdxoh+7+LJMoct2KuxV2KuxV2KuxV2KuxV2KuxV2KuxV2&#xA;KuxV2KuxV2KuxV2KuxV2KuxV2KuxV2KuxV2KuxV4k6lXZT1UkH6M2jzhaxV6Z5C/5R5P+Mr/AK8w&#xA;c/1O40X92yLKXLdirsVdirsVdirsVdirsVdirsVdirsVdirsVdirsVdirsVdirsVdirsVdirsVdi&#xA;rsVdirsVeLXa8LqZevGRhX5E5sxyeekNypYWL0zyF/yjyf8AGV/15g5/qdxov7tkWUuW7FXYq7FX&#xA;Yq7FXYq7FXYq7FXYq7FXYq7FXYq7FXYq7FXYq7FXYq7FXYq7FXYq7FXYq7FXYq8c1hOGrXqbfDcS&#xA;jbps5GbKHIPP5R6z70JkmD0j8vf+OC3/ABnf/iK5haj6nb6H6PiybKHMdirsVdirsVdirsVdirsV&#xA;dirsVdirsVdirsVdirsVdirsVdirsVdirsVdirsVdirsVdirsVeR+ZU4a/fjxmZv+CNf45scf0h0&#xA;WoH7w+9Lcm0vRPy5Yfoa4XuLhj96J/TMPUfU7XQfQfeyrMdznYq7FXYq7FXYq7FXYq7FXYq7FXYq&#xA;7FXYq7FXYq7FXYq7FXYq7FXYq7FXYq7FXYq7FXYq7FXlnnROHmW88G4MK+8a/wAcz8P0h0mrH7wp&#xA;Jlrjs9/LZ62d6n8sitT5rT+GYmp5h2egOxZjmM7B2KuxV2KuxV2KuxV2KuxV2KuxV2KuxV2KuxV2&#xA;KuxV2KuxV2KuxV2KuxV2KuxV2KuxV2KtMyqpZiAoFSTsABiryXzJqUWo6zcXUIpESFjJ7hAFr9NK&#xA;5sMceGNOi1GQTmSEPpFh+kNTt7PlxEzhWYdQvU0+gZKcqFscUOKQDOPIlukD6rGleMdx6a160TkB&#xA;mLnN07HRxri97K8x3OdirsVdirsVdirsVdirsVdirsVdirsVdirsVdirsVdirsVdirsVdirsVdir&#xA;sVdiq15I4wC7BAxCryIFWJoAK9zjSCaXYpeWeZtd1C91K5haVktY5GjSBSQtENKsB1Jp3zPxYwA6&#xA;XUZpSkR0STLXGTfyrbyzatSGvqrBOUpseRiZV3+bZXlNBv00SZbdx+5Nvy6aYaxcqS3AwEup6cg6&#xA;0qPHrleo+lv0F8Z9zKPOE0sPly7khdo5F9OjoSrCsqg7j2zHwi5BzdUSMZr8bsZ8qaZc6zBPLPqV&#xA;3GYmCqEkPcV3rXMjLIR6Bw9NjOQEmRQXmmK90fUI7aHULmRHiWSryNUEsy02I/lyWIiQumvUiWOV&#xA;Ankm2g+XrzU9JhvX1a6jebnRFZiBxYr3bf7OV5MgiaoN+HAZwEuIpT5g0/zDozqZL2aa2kNI51kc&#xA;Cv8AKwrscsxyjLo0Z4ZMfU0yTyPdRXFq5+vTzTqP31tOwYKa/aQkVofnlGcUeTl6OQI5knuZRlDm&#xA;uxV2KuxV2KuxV2KuxV2KuxV2KuxV2KuxVx6Ggr7YqgNJ1zT9UjLWzkSJ/ewPtIh9xk5wMebVizRn&#xA;yR+QbXEgCpNAOpOKqTXVqoq0yKPEsB/HDRY8Q71N9T01Pt3cK/ORR/HDwnuQcke8JZrtzb3EOmyW&#xA;8qTR/pG2HONgwry8RXJ4wRd9zTmkCI1/OCI8wyXQt7aK2na3e4uY4WlQAsFataV+WDHV7ss5NAA1&#xA;ZeUTljPIWYsxY8mPUmvU5nh0h5rMKGS+QJ7aLXCJnCvLE0cNehcsppXxoDlGoB4XM0RAnv3I/wAi&#xA;ELrupRgbcWp/sZKfxyGf6Q26P65BP/Ov/KM3n/PL/k6mVYfqDk6v+7P46pV+W/8AvFef8ZV/4jlm&#xA;p5hp0H0lKvzF/wCO3B/zDL/ycfJ6f6WjX/WPcyryV/yjNn/z1/5OvlGb6i5uk/ux+Oqr5rgSby9e&#xA;qwrxj9QexQ8v4YMRqQZakXjLzfQNRfT9Wt7lTRAwWUdijGjV/XmbkjYp1GDJwTBevZrnfOxV2Kux&#xA;V2KuxV2KuxV2KuxV2KuxV2KuxVC6lqVnp1q1zdvwiBAHclj0AHc5KMTI0GGTIICy891fWdDe6/SG&#xA;kC5tNRD8i1FEbVO5IDEivyoe+ZkISqpcnVZcsL4oWJKPmHzTd6s0SryggjUVjU9ZKfExp79MOPEI&#xA;sc+pM/IJGSSak1J6k5a4zsVdiqK0/UZrOeJ1JaKOaOd4a0DNE1RvQ0yMo2zhkMT8WR6p58F2Lb0r&#xA;PgbedJ6s9a8K/DQKOtcpjgrq5eTW8VUORtibtzdm6ciT9+ZDglrFWR+VtBt9Ws79TII7yMxtbPXd&#xA;SOVa/wCSdspy5DEjucvTYRMHvRfkQzR+ZLyK4P770pBID1MiyLX+ORz/AEimzR2MhBZL51/5Rm8/&#xA;55f8nUyjD9QcvV/3Z/HVIPIeq6dZWl2t3cJAzOrKHNKjj2y7PAkinF0WSMQbNJN5v1e21TV/Wtqm&#xA;CKMRI5FOVCWLUPu2WYYGI3cfVZROdjknflvzlpWn6NBZ3Cy+rFzqVUEHk5Ydx/NlWTCTKw5On1cY&#xA;QANq+sed9Gu9LuraJZvUmjZE5KAKsKb/ABYIYJAgssushKJAtgWZbrHt2at6N2KuxV2KuxV2KuxV&#xA;2KuxV2KuxV2KuxV2KsN/MmWlrYxV+27vT/VAH/G2ZOmG5dfrzsAwPMt1jsVT5bCy4itutab73f8A&#xA;CHKuI/inK4I93+6/U3+j7H/lmX77v/qjg4j+KXgj3f7r9Tv0fY/8sy/fd/8AVHHiP4peCPd/uv1J&#xA;HMoWaRQKAMQBvsAfcA/eMtDjHmswodirMfK3lLS9T0oXVy0vql2WiMAKL9BzGy5TE0HYabSxnGyl&#xA;t7o82nRXd/YXEkX1W8ktNmKvxopUhlp40OTjO6B7mmeIwBlE8pUltlI76j6kVy1tMSzQzO1TzPQO&#xA;4p9roT08cslyaYH1WDRZPbahLJo93c3VzLcXlkKXGm3QVoSxbiCy8QSK70r1GUGPqAHI9XMjMmBJ&#xA;JJHQ8km/xT/2qNN/6R/+bss8LzLR+Z/ox+Tv8U/9qjTf+kf/AJux8LzK/mf6Mfk7/FP/AGqNN/6R&#xA;/wDm7HwvMr+Z/ox+Tv8AFP8A2qNN/wCkf/m7HwvMr+Z/ox+Tv8U/9qnTR7i3/wCbsfC8yv5n+jH5&#xA;M7/QLyj1f0pfoZPi4iVaCu9B8HTMTxPIOy8G9+KXzVPLMlxLotvJcStNKxesjGpIDsB+AxygcWzL&#xA;TkmAtNMrbnYq7FXYq7FXYq7FXYq7FXYq7FXYqwP8yZK3dlHX7MbtT/WIH/GuZemGxdZrzuAw3Ml1&#xA;7sVT5Z9FoKzqD3Hp3P8A1Xyqpfiv1OTcO/7/ANbfr6J/v9f+RVz/ANV8FS/FfqTcO/7/ANbvX0T/&#xA;AH+v/Iq5/wCq+NS/FfqW4d/3/rSOYoZXKGqFjxO42rt1JP45aHGPNZhQ7FUy0/zJrWn2/wBXs7n0&#xA;oaluHBG3PXdlJyEscSbLdDUTiKBV7KXVpY59ReVTbm5iacyGitNzDA0XpTv7ZGQHJlAyNy6WPmg9&#xA;RtpjdzzRxqYXkkKtB8UVFPJuJHYA/dk4nZryRNk9EXaQaxd6ddXAb/RmEUEsrEVb94qohIBJpyHX&#xA;tkSYggNkYzlEnpsmumeSZrm19VvTJ5yJvIw/u3KHYIe65XLPRbsejJFor/lX8nhF/wAjX/6p5H8w&#xA;z/I/i/2IXTPJFxcWvqv6debpvIw+w5ToEPdclLOAWGPRki0V/wAq/k8Iv+Rr/wDVPI/mGf5H8X+x&#xA;I/8AC93xnJZAYXRKcj1e4e3/AJf5oz9H3Zb4o/Hutxvy53/HWnogOtqgVYbb4RQD1ZO3+wzD9Pm7&#xA;b19w/HwUPKbFvL1mx6sHJ+l2w5fqLHTf3YTbK292KuxV2KuxV2KuxV2KuxV2KuxV2Kse81+Vn1n0&#xA;preVY7mIFaPXiyk13IBIp8suxZeFxNTpvE3HNjf/ACrrW/8Af9t/wUn/ADRl35iLifkJ94d/yrrW&#xA;/wDf9t/wUn/NGP5iK/kJ94d/yrrW/wDf9t/wUn/NGP5iK/kJ94d/yrrW/wDf9t/wUn/NGP5iK/kJ&#xA;94d/yrrW/wDf9t/wUn/NGP5iK/kJ94d/yrrW/wDf9t/wUn/NGP5iK/kJ94SLVtJvNLuzbXSgPTkr&#xA;Kaqynup2y6ExIWHGy4jA0UHkmt2Kpjb6kq6LcabwZpJ5kkQjp8IoRTrU5Ax9VtscnoMe8pzpnlfz&#xA;ZaGO4t1jjahYJIVNOa8SGUg9sqllgdi5GPT5Y7hdH5U82xQ3EMXpRxXTK8qKygVRuS8dvhofDE5Y&#xA;JGmygEDqidN0bzzp0bx2skYR25MrMrjl3I5A0rkZTxy5s8eLNDki3h/MRkZfWhHIEVHAEV8DTI3j&#xA;ZkajvCG07SfPenwmG2ljEZPLi7K9CetOQNK5KU8Z5sMeLPEUCiXg/MR0ZPWhAYEVXgCK+BAyN42Z&#xA;Go7wllt5X84W8UsUTRhZijSVdWJMT80NSDSjb5YcsC0x02UCh1TQx/mIR/ewf8k/+acrvG31qO8J&#xA;75fsZ7HR7a0noJolIcKaipYnr9OVZJXK3JwQMYAFMMg2uxV2KuxV2KuxV2KuxV2KuxV2Kqc9xb28&#xA;ZlnlWKMdXdgo+84QCUSkBuUiuPPfl+GQoryTU6vGlV+9iuWjBIuLLW4wpf8AKwdB/ln/AOAH/NWH&#xA;8vJH56HmuTz9ormiR3DHwEYP6mx8CSjWw83P5+0RDR47hT4GMD9bY+BJTrYea3/lYOg/yz/8AP8A&#xA;mrH8vJfz0PN3/KwdB/ln/wCAH/NWP5eS/noebG9W80zm6EmnX90YHJaSKTgpXetEIB2+jb3y6GLb&#xA;cBw8upN+kmlFhc+ZNThtYJ5SFjYg3bhuJ6tQoq7Gg7ZLaAtjvmkAD80f/wAq41T/AJaYP+H/AOac&#xA;h+ZDb+Ql3h3/ACrjVP8Alpg/4f8A5px/MhfyEu8ILVPLOqaDHFqHrxkrIArR15K25B+Ie2SjlE9m&#xA;vJp5YvVa6784ag0qC0u7mOL/AHa0vou3X9kKiDp74jCOoTLVSvYn7E+tfzA0mG3SOUXc8iijTMkQ&#xA;LHxorgZSdOb6OTHXQAo2fkrr+YehEVKXC+xRf4McH5eTP89DzXD8wNCJoEnJPQBB/wA1Y/l5L+eh&#xA;5r3896RGKvDcoPFowP1tg8CSTrIDoVP/AJWDoP8ALP8A8AP+asP5eSPz0PNcn5gaAzAH1lB/aKCg&#xA;+4k4/l5KNdj807sdT0++TnaXCTDuFPxD5qdx9OVSiRzcmGSMuRRORZuxV2KuxV2KuxV2KuxV2Kux&#xA;V2KuxV5h55kmbzHcK7EoixiJSdgDGpNP9lXM7B9LptYT4hSDLnFVUCInqOOTH+7Tt/rH2wJCanQp&#xA;ZPL8msvdoyRkBLdRUgs4Ug9Ah3rQDK+P1cNN/gk4+O3XuhS2Oj2upLdo0d0FJtyKNUjoB8Qbj3xj&#xA;O5EUs8JjASvmlLoGX1EFFBo6/wApPT6DljQQp4UOxVNfLAtDrUH1uc28IDEyiT0aHiafGCKffleW&#xA;+HZv09cYs0zr/nXP+ry3/cQf/qpmL6u77HZfu/53+y/a7/nXP+ry3/cQf/qpj6u77F/d/wA7/Zft&#xA;SLziujHTYza6g11OJRSM3LT0Ug1PEs1PnluHivcfY42q4OHY2ffbDcyXXuxVdGnKpOyLuzdaf7eB&#xA;ICbaBpM2sXL2sNwlrGq1cGpZl9gKc6d6nIZJ8Itvw4jkNA0qaT5dlvEv5YbxbdrFqcmqqkfFuXB+&#xA;EfD4YJ5KrbmnFgMrINcKVDjNVCAJh9hl2DU7EePgcs5NHNQwsV8Es0UySQMUlUgoy9Qe2AhMSQbD&#xA;2vNY9E7FXYq7FXYq7FXYq7FXYq7FXYq7FXmHnn/lJLj/AFY/+IDM7B9LptZ/eFDeXfL0+tXLxpII&#xA;oogGlkO5oTQBR3OSyZOEMMGA5CrW02laZ5jn+uQvPa2jSQxxgKxJT4AWDFR4n54CDKOzKJjDIbFg&#xA;KmiaPaa5q1zFA72tgtZViryelaAb7d+uCczEeacOIZJkDaK28sbLQ/MMcF7yvbGKkgjFK0YVAKk0&#xA;2PbviJGUdtis4DHkqW8UVoN9av51WawV47W6LgxuApHJCxFFLCnMVGDJE8G7PDMeNceRejZhO2We&#xA;jDWvBa9a0GG0UGM6xPb23nCylkgablbMOMUfqOTVqHiNzQZfAXAuHlIGYGr2TH9M2f8A1bbz/pEk&#xA;/plfAe8fNt8UfzT8nfpmz/6tt5/0iSf0x4D3j5r4o/mn5JF5wvrS60+GFbK4hYzp+8lgaJaUII5M&#xA;Bua5dhiQebjaqYlECjz7magACg2A6DMV2LsVYT+ZE7f6BBUiIl3YDuRxA+4E5laYc3Xa88gkurXe&#xA;lalqFimkQvaOeMDyPRK1IRD8JboOpy2AMQeLdxssozkOAV0RPmXymujWEdxDdNIsjCKZGAWpILAi&#xA;nb4emRx5eI0z1Gm8ONgoDWNQ0W4srKPT7eS3uLYcZWIUBqipPIMSTy9snCMgTbXlnAxHCKIROt+V&#xA;2ttNi1aBwbeZY3khYUZDKAaDxFT88jDLZpnm01R4xySGD+/j/wBYfry0uKOb2vNY9E7FXYq7FXYq&#xA;7FXYq7FXYq7FXYq7FXmnn22nj115nQiKZF9J+zcVAb7jmdgPpdPrYkTvvTT8toZQb6YqRE3BFfsW&#xA;FSR9Fcr1J5N2gB3KjrRfQPNZ1JofWtboM3E03JFHFSDQht/lhh64UxzfusvFWxS76rqz2l15oilW&#xA;0Bk+FIiQSHcIaU7VPfrk7FiHNq4Z0co2XpBqmlNZ+Yrnhepc7yBzyb4xsCW78ehHTGxK4jZIEoVk&#xA;O9pl5Vil1bzJca20XpQR19MDpyK8FX6E65XlPDHhbtMDPIZ9Gc5iuydiqRatoup3OuW1/Z3CWwhi&#xA;MZkZebVJPRDsevjlsJgRouNlwyMxIGtlX9G+ZP8Aq8r/ANIqf814OKPd9qfDyfzvsd+jfMn/AFeV&#xA;/wCkVP8AmvHij3favh5P532ILVfLuv38MUUuqRzRrKrsjQCIbd6qWJI8MnDJEdGvLgySFGV/BkuU&#xA;OY7FWK/mBpklzp0V5EvJrQn1AOvpvSp+ggZkaeVGu9wtdjuNjokRlvfNl1b20McVt9Vj5Sy7VLGg&#xA;Ztt9z0Ay2hjFuLcs5AG1KMOm65rkN36l4Zv0b8KpKx+I71oTsNl6nCZRjW3NiMc8gO/0tXeo3PmO&#xA;bT9Pht0hkT4ZCg2JOxag6KqiuIiIWVlkOUxiAy/zfaMPK80FuhZYRHRRuQiMKn6AMx8J9bn6qP7o&#xA;gPN7C3nubyGGBS8ruAqr165myNB1EIkkAPZ81j0LsVdirsVdirsVdirsVdirsVdirsVYR5lsPNWt&#xA;GFf0YIY4CxX99ExPKnX4h4ZlY5Qj1dbqIZclenl5hGeU7XzJpipY3Fgq2jyM7zmVCy1XwVmr08Mj&#xA;lMZbg7tmmjkh6SNmRahp1nqFq1tdxiSJt/AgjoVPY5TGRBsOXPGJiixC6/Ly9T1Esb4ehJ1il5LW&#xA;m4DcahvuzIGoHUOBLQn+E7L7T8vrh2j/AEle84oxRYoqnbwDN9kfRidR3BMdCf4izC0tLa0t0t7a&#xA;MRwxiioMxiSTZc+MREUFXAydirsVdirsVdirsVdiriAQQRUHYg9KYqxPU/IULzm50u4NnJWvpmvE&#xA;H/JYfEv45kRz9Du4OTRC7iaS2H8vtaqyS3sSQyEGTgZG5U7lSEB+/JnUR7mkaGfUsq0Py5p+jxkQ&#xA;AvO4pJO/2iPAeA9sonkMnNw4I4+XNb5hfWjbG302zW5E6Okrs6pwqKDZiteuOPhvcrnM6qIu2IaN&#xA;5e81aXqEd7Hp4kMdQUaWIAhgQdw/vmTPJCQq3AxYMsJXX2hn1jLdS2qSXcAtrg15whg/Ghp9obb9&#xA;cw5AXs7SBJG4oq+Bk7FXYq7FXYq7FXYq7FXYq7FXYq//2Q==</xmpGImg:image>
               </rdf:li>
            </rdf:Alt>
         </xmp:Thumbnails>
         <xmpMM:InstanceID>xmp.iid:1085af76-36ee-2241-9b41-94f8a9ac47e4</xmpMM:InstanceID>
         <xmpMM:DocumentID>xmp.did:1085af76-36ee-2241-9b41-94f8a9ac47e4</xmpMM:DocumentID>
         <xmpMM:OriginalDocumentID>uuid:5D20892493BFDB11914A8590D31508C8</xmpMM:OriginalDocumentID>
         <xmpMM:RenditionClass>proof:pdf</xmpMM:RenditionClass>
         <xmpMM:DerivedFrom rdf:parseType="Resource">
            <stRef:instanceID>xmp.iid:c51d5694-19e7-3149-871e-ab062a73afd7</stRef:instanceID>
            <stRef:documentID>xmp.did:c51d5694-19e7-3149-871e-ab062a73afd7</stRef:documentID>
            <stRef:originalDocumentID>uuid:5D20892493BFDB11914A8590D31508C8</stRef:originalDocumentID>
            <stRef:renditionClass>proof:pdf</stRef:renditionClass>
         </xmpMM:DerivedFrom>
         <xmpMM:History>
            <rdf:Seq>
               <rdf:li rdf:parseType="Resource">
                  <stEvt:action>saved</stEvt:action>
                  <stEvt:instanceID>xmp.iid:819f12b9-29f1-3c43-861d-4d4d3da6bdab</stEvt:instanceID>
                  <stEvt:when>2015-03-10T00:30:21-05:00</stEvt:when>
                  <stEvt:softwareAgent>Adobe Illustrator CC 2014 (Windows)</stEvt:softwareAgent>
                  <stEvt:changed>/</stEvt:changed>
               </rdf:li>
               <rdf:li rdf:parseType="Resource">
                  <stEvt:action>saved</stEvt:action>
                  <stEvt:instanceID>xmp.iid:1085af76-36ee-2241-9b41-94f8a9ac47e4</stEvt:instanceID>
                  <stEvt:when>2015-03-10T00:32:45-05:00</stEvt:when>
                  <stEvt:softwareAgent>Adobe Illustrator CC 2014 (Windows)</stEvt:softwareAgent>
                  <stEvt:changed>/</stEvt:changed>
               </rdf:li>
            </rdf:Seq>
         </xmpMM:History>
         <illustrator:StartupProfile>Print</illustrator:StartupProfile>
         <xmpTPg:HasVisibleOverprint>False</xmpTPg:HasVisibleOverprint>
         <xmpTPg:HasVisibleTransparency>False</xmpTPg:HasVisibleTransparency>
         <xmpTPg:NPages>1</xmpTPg:NPages>
         <xmpTPg:MaxPageSize rdf:parseType="Resource">
            <stDim:w>3.500000</stDim:w>
            <stDim:h>1.196743</stDim:h>
            <stDim:unit>Inches</stDim:unit>
         </xmpTPg:MaxPageSize>
         <xmpTPg:PlateNames>
            <rdf:Seq>
               <rdf:li>Cyan</rdf:li>
               <rdf:li>Magenta</rdf:li>
               <rdf:li>Yellow</rdf:li>
            </rdf:Seq>
         </xmpTPg:PlateNames>
         <xmpTPg:SwatchGroups>
            <rdf:Seq>
               <rdf:li rdf:parseType="Resource">
                  <xmpG:groupName>Default Swatch Group</xmpG:groupName>
                  <xmpG:groupType>0</xmpG:groupType>
               </rdf:li>
            </rdf:Seq>
         </xmpTPg:SwatchGroups>
         <pdf:Producer>Adobe PDF library 10.01</pdf:Producer>
      </rdf:Description>
   </rdf:RDF>
</x:xmpmeta>
                                                                                                    
                                                                                                    
                                                                                                    
                                                                                                    
                                                                                                    
                                                                                                    
                                                                                                    
                                                                                                    
                                                                                                    
                                                                                                    
                                                                                                    
                                                                                                    
                                                                                                    
                                                                                                    
                                                                                                    
                                                                                                    
                                                                                                    
                                                                                                    
                                                                                                    
                                                                                                    
                           
<?xpacket end="w"?>
	</metadata>
<path fill="#81BDCB" d="M27.1,71.4c-0.2,4.6,0.6,14.4,0.6,14.9c0.1,0.8,0.1,1.6,0.1,2.4c0,0.1-0.1,0.2-0.1,0.4
	c-0.3,0.4-0.6,0.9-0.8,1.3c-0.1,0.2-0.3,0.4-0.6,0.4c-0.8,0.1-1.4,0.6-1.6,1.4c-0.1,0.3-0.1,0.6-0.1,0.9c0,0.6,0,0.7-0.7,0.7
	c-0.4,0-0.4,0-0.4,0.5c0,0.8,0,1.7,0,2.5c0,0.6,0,0.6-0.6,0.6c-0.4,0-0.7,0-1,0c-0.6,0-0.6,0-0.6-0.6c0-1.1,0-2.2,0-3.3
	c0-0.1,0-0.2,0-0.3c0-0.1-0.1-0.2-0.2-0.2c-0.2,0-0.2,0.1-0.2,0.2c0,0.1,0,0.2,0,0.3c0,0.9,0,1.8,0,2.7c0,0.1,0,0.2,0,0.3
	s0,0.2-0.1,0.2c0,0,0,0,0,0.1l0,0c0,0,0,0,0,0c-0.1,0-0.1-0.1-0.2-0.1c-0.1-0.1-0.1-0.1-0.2-0.2c-0.3-0.5-0.8-0.7-1.4-0.6
	c-1.2,0.1-2.5,0.1-3.7,0.2c-1.6,0.1-3.2,0.1-4.8,0.2c-0.4,0-0.6,0.1-0.8,0.4C9.2,96.7,9,97,8.8,97.3c-0.3,0.4-0.4,0.4-0.6-0.1
	c-0.2-0.4-0.5-0.8-0.9-1.1c-0.6-0.5-1.2-0.9-1.9-1.3c-0.1,0-0.1-0.1-0.3-0.1c0.1,0.4,0.2,0.7,0.3,1.1c0.1,0.3,0.2,0.5,0.5,0.6
	c0.4,0.2,0.8,0.4,1.2,0.6c0.1,0.1,0.3,0.2,0.2,0.4c0,0.2-0.2,0.2-0.4,0.2c-0.4,0-0.8,0-1.2,0c-0.9,0-1.6,0.6-1.7,1.5
	c-0.1,1.5-0.3,3-0.4,4.5c0,0.5-0.1,0.9,0.2,1.3c0.4,0.5,0.8,0.7,1.4,0.7c5.4,0,10.7,0,16.1,0c0.1,0,0.3,0,0.4,0
	c0.2,0,0.3,0.1,0.4,0.3c0.1,0.3,0.2,0.6,0.6,0.8c0.1,0.1,0.1,0.1,0.1,0.3c0,0.1-0.1,0.1-0.2,0.2c-0.1,0-0.2,0-0.3,0
	c-0.7,0-1.4,0-2.2,0c-0.4,0-0.7,0-1,0c-0.2,0-0.3,0.1-0.2,0.3c0.1,0.1,0.2,0.1,0.3,0.1c0.4,0,0.7,0.2,0.9,0.5
	c0.1,0.1,0.1,0.2-0.1,0.3c-0.1,0-0.3,0-0.4,0c-3.4,0-11.9,0-15.3,0c-0.3,0-0.5,0-0.8,0.1c-0.9,0.4-1.8,0.7-2.7,1
	c-0.3,0.1-0.4,0.2-0.4,0.5c0,0.6,0.1,1.3,0.1,2c0,1.5,0,3,0,4.5c0,0.2,0,0.4,0.4,0.4c0.2,0,0.3,0.1,0.3,0.4c0,0.4,0,0.7,0,1.1
	c0,0.3-0.1,0.4-0.4,0.4s-0.5,0-0.8,0s-0.4,0.2-0.3,0.5c0,0.1,0.1,0.1,0.1,0.2c0,0,0,0,0,0.1h4.5c0.2-0.1,0.3-0.3,0.3-0.5
	c-0.1-0.2-0.2-0.3-0.4-0.3s-0.4,0-0.6,0c-0.1,0-0.2,0-0.2-0.2c0-0.4,0-0.8,0-1.2c0-0.2,0.1-0.2,0.2-0.2c0.3,0.1,0.3-0.1,0.3-0.3
	c0-0.9,0-1.8,0-2.6c0-0.2,0.1-0.3,0.2-0.4c0.4-0.2,0.8-0.4,1.2-0.6c0.1-0.1,0.2-0.2,0.3-0.3c0.7-2.1,2.1-3.4,4.3-3.6
	c2.3-0.3,4,0.7,5.2,2.7c0.1,0.1,0.2,0.2,0.3,0.2c0.6,0,6.3,0,6.9,0c0.3,0,0.3,0.1,0.3,0.4c0,1.2,0,2.3,0,3.5c0,0.6,0,0.6,0.6,0.5
	c0.1,0,0.2,0,0.2-0.1c0-0.2,0.1-0.2,0.3-0.2c1.2,0,2.3,0,3.5,0c1.4,0,2.7,0,4.1,0c0.1,0,0.3-0.1,0.3,0.1c0,0.4,0.2,0.3,0.4,0.3
	c0.3,0.1,0.4-0.1,0.4-0.4c0-1.3,0-2.5,0-3.8c0-0.2,0-0.3,0.2-0.3c0.5,0,6.1,0,6.6,0c0.2,0,0.3-0.1,0.4-0.2c1.2-1.9,2.9-2.9,5.1-2.6
	c2.2,0.3,3.6,1.6,4.3,3.6c0.1,0.1,0.1,0.2,0.2,0.3c0.4,0.2,0.8,0.4,1.2,0.7c0.1,0.1,0.2,0.2,0.2,0.3c0,0.9,0,1.8,0,2.7
	c0,0.2,0.1,0.3,0.3,0.3c0.2,0,0.3,0.1,0.3,0.3c0,0.4,0,0.8,0,1.2c0,0.1-0.1,0.2-0.2,0.2c-0.2,0-0.4,0-0.6,0c-0.2,0-0.4,0.1-0.5,0.3
	c-0.1,0.2,0,0.4,0.3,0.5c1.5,0,3,0,4.4,0c0,0,0,0,0-0.1c0.1-0.1,0.2-0.3,0.1-0.5c-0.1-0.2-0.3-0.2-0.5-0.2c-0.2,0-0.4,0-0.6,0
	c-0.2,0-0.4-0.1-0.4-0.4c0-0.4,0-0.7,0-1.1c0-0.2,0.1-0.4,0.4-0.4c0.3,0,0.3-0.1,0.3-0.4c0-2.2-0.1-4.3,0.1-6.5
	c0-0.3-0.1-0.4-0.4-0.6c-0.8-0.3-1.6-0.6-2.4-0.9c-0.4-0.1-0.8-0.2-1.2-0.2c-3.2,0-6.4,0-9.6,0c-0.1,0-0.2,0-0.4,0s-5.4,0-5.5-0.1
	c-0.1-0.1,0.1-0.2,0.2-0.3c0.2-0.1,0.4-0.3,0.7-0.4c0.1,0,0.2-0.1,0.2-0.3c0-0.1-0.1-0.1-0.3-0.1c-0.1,0-0.2,0-0.3,0
	c-1,0-1.9,0-2.9,0c-0.1,0-0.2,0-0.4,0c-0.2-0.1-0.3-0.3-0.1-0.4c0.3-0.1,0.4-0.3,0.5-0.5c0.1-0.1,0.3-0.2,0.4-0.4
	c0-0.1,0.1-0.1,0.2-0.1c0.1,0,0.3,0,0.4,0c6.8,0,13.6,0,20.3,0c0.2,0,0.4,0,0.7,0.1c0.3,0.1,0.3,0,0.4-0.3c0-0.1,0-0.2,0-0.3
	c0-1.7,0-3.4,0-5.1c0-0.2,0-0.4,0.1-0.5c0.2-0.5,0.1-0.6-0.4-0.6c-0.8,0-1.7,0-2.5,0c-0.1,0-0.1,0-0.2,0c-0.1,0-0.1,0.1-0.1,0.3
	c0,0.2,0.1,0.3,0.3,0.3c0.7,0,1.4,0,2.1,0c0.1,0,0.2-0.1,0.3,0.1c0,0.9,0,1.8,0,2.7c0,0.2-0.1,0.2-0.3,0.2c-0.8,0-1.7,0-2.5,0
	c-0.3,0-0.3-0.1-0.3-0.3c0.2-0.1,0.3-0.2,0.3-0.4c0-0.6,0-1.3,0-1.9c0-0.2-0.1-0.4-0.3-0.4c-0.1,0-0.1-0.1-0.2,0
	c-0.7,0.1-1.5,0-2.2,0c-3.3,0-6.6,0-9.9,0c-0.2,0-0.4,0-0.7,0c-0.2,0.1-0.4,0.1-0.6,0c-0.2,0-0.3,0.1-0.3,0.3c0,0.5,0,1,0,1.5
	c0,0.1,0.1,0.3-0.1,0.5c-0.2,0-0.4,0-0.5,0c-0.2,0-0.2-0.1-0.1-0.2c0-0.1,0.1-0.2,0.1-0.3c0.1-0.2,0.1-0.4-0.1-0.5
	c-0.4-0.4-0.7-0.8-1.1-1.3l0,0c-0.1-0.2,0.1-0.1,0.1-0.1c0.4,0,0.8,0,1.3,0c0.2,0,0.4,0.1,0.4-0.3c0-0.2-0.1-0.2-0.1-0.3
	c0,0-0.1,0-0.1,0c-0.7,0-1.4,0-2.1,0c-0.4-0.2-0.7-0.5-0.7-1C34,97.1,34,96,34,95c0-0.6,0-1.2-0.1-1.7c0-0.3-0.1-0.6,0.1-0.8
	c0,0,0-0.1,0.1-0.2c0-0.4,0-0.8,0-1.2c0-0.1-0.1-0.2-0.2-0.3c-0.3,0-0.3-0.2-0.4-0.4c-0.1-0.9,0.1-1.8,0.1-2.7
	c0,0-1.1-13.2,0.1-21.2c0.2-1.4,0.4-2.8,0.6-4.2c0.1-0.5,0.2-1.1,0.1-1.7c-0.3-1.2-0.1-2.3-0.1-3.5c0-0.3,0-0.5,0-0.8
	c0-0.1-0.1-0.2-0.2-0.2s-0.2,0.1-0.2,0.2c-0.1,0.1-0.1,0.3-0.1,0.5c0,0.1,0,0.1-0.1,0.2c-0.1,0-0.1-0.1-0.2-0.1
	c-0.1-0.3-0.1-0.5-0.1-0.8c0.3-1.7,0.6-3.5,0.9-5.2c0.2-1.3,0.5-2.6,0.7-4c0-0.1,0-0.4,0.2-0.4c0.3-0.1,0.3-0.3,0.4-0.5
	c0-0.2,0.1-0.5,0.1-0.7c0-0.2,0-0.3-0.2-0.3c-0.3,0-0.3-0.2-0.3-0.5c0.2-1.4,0.4-2.8,0.7-4.3c0.1-0.4,0.3-0.6,0.7-0.5
	c1.8,0.2,3.6,0.4,5.5,0.6c2.1,0.2,4.2,0.5,6.3,0.7c2.3,0.2,4.6,0.6,6.9,1c2.2,0.3,5.7,0.7,7.3,1c1.3,0.2,2.7,0.4,4,0.5
	c1.2,0.1,2.3,0.3,3.4,0.6c0.7,0.2,1.4,0.4,1.9,0.9c1.5,1.3,3,2.6,4.5,3.9c0.4,0.4,0.7,0.8,1.2,1.1c0.2,0.1,0.2,0.2,0.2,0.4
	c0,0.4,0,4.9,0,5.3c0,0.2,0,0.4-0.2,0.4c-0.1,0-0.1,0.1-0.1,0.3c0,0.1,0,0.2,0,0.4c0,0.2-0.1,0.3-0.3,0.4c-0.1,0-0.2,0-0.2,0.1
	c-0.1,0.2,0,0.8,0.1,1c0.2,0.2,0.1,0.5-0.1,0.5c-0.3,0-0.3,0.2-0.3,0.4c0,0.3,0,0.6-0.1,0.8c-0.4,1.2-0.9,2.3-1.3,3.5
	c-0.1,0.2-0.2,0.3-0.5,0.3c-0.2,0-0.3-0.1-0.5-0.1c-1.1-0.7-2.2-0.6-3.3-0.1c-0.9,0.5-1.5,1.3-1.5,2.4c-0.1,1.2,0.1,2.2,0.6,3.3
	c0,0.1,0,0.1,0.1,0.2c0.1-0.1,0-0.1,0-0.2c-0.1-0.8-0.1-1.7,0-2.5c0.1-0.9,0.4-1.7,1.3-2.1c0.8-0.4,1.5-0.3,2.3,0
	c0.7,0.3,1.3,0.8,1.9,1.3c0.2,0.2,0.4,0.3,0.6,0.3c1.1,0,2.2,0,3.2,0c0.3,0,0.4-0.1,0.6-0.3c0.6-0.6,1.3-1.2,2.2-1.4
	c1.5-0.5,2.9,0.2,3.2,1.8c0.2,0.8,0.2,1.5,0.1,2.3c0,0.2-0.1,0.5-0.1,0.8C86,69.3,86,69.1,86,69c0.2-0.6,0.4-1.2,0.5-1.7
	c0-0.1,0-0.3,0.2-0.3v-1.3c0-0.1,0-0.1-0.1-0.1c-0.3-1.6-1.9-2.8-3.6-2.6c-0.5,0.1-1,0.2-1.4,0.5c-0.4,0.3-0.6,0.2-0.7-0.2
	c-0.3-0.9-0.6-1.8-1-2.7c-0.2-0.5-0.4-1-0.3-1.5c0-0.4,0-0.4-0.4-0.4c-0.1,0-0.2,0.1-0.2-0.1c0-0.1-0.1-0.3,0.1-0.4
	c0.1,0,0.1-0.1,0.1-0.2c0-0.3,0-0.5,0-0.8c0-0.1,0-0.2-0.1-0.2c-0.2,0-0.2-0.1-0.2-0.3c0-0.2,0-0.4,0-0.6c0-0.1,0-0.2-0.1-0.2
	c-0.3,0-0.2-0.2-0.2-0.3c0-0.3,0-4.7,0-5c0-0.4,0.1-0.9,0-1.4c-0.1-0.4-0.5-0.7-0.8-1.1c-0.7-1-1.4-1.9-1.8-3
	c-0.2-0.5-0.4-1-0.6-1.5c-0.9-1.5-2.3-2.5-3.9-3.1c-1.3-0.5-2.6-0.4-3.9-0.4c-0.8,0-1.6,0.1-2.4-0.1c-2.8-0.6-13.3-2.5-16.5-3.2
	c-2.5-0.5-5.1-1.1-7.6-1.8c-0.9-0.3-1.9-0.7-2.8-1.1c-0.7-0.3-1.4-0.4-2.2-0.5h0c-0.1,0-0.1,0-0.2,0h-1.7c0,0.2-0.2,0.1-0.3,0.2
	c-0.4,0.1-0.7,0.1-1.1,0.2c-1.4,0.4-2.5,1.1-3.3,2.3c-0.2,0.4-0.4,0.8-0.6,1.2c-0.1,0.3-0.1,0.6,0.1,1c0.1,0.2,0.2,0.4,0.1,0.6
	c-0.3,1.6-0.4,3.1-0.6,4.7c-0.1,1.1-0.2,2.1-0.3,3.2c-0.1,0.9-0.1,1.8-0.2,2.7c-0.1,1.1-0.1,2.2-0.2,3.4c-0.1,1.7-0.2,3.3-0.3,5
	c-0.1,1.3-0.1,2.6-0.2,4c-0.1,1.7-0.1,3.3-0.2,5L27.1,71.4z M77.5,64.6c0,0.1,0,0.2-0.1,0.2c-0.2,0.1-0.5,0.2-0.7,0.1
	c-0.4-0.1-0.8-0.6-0.6-1.1c0.1-0.1,0.1-0.3,0.2-0.5c0.4-1.1,0.8-2.1,1.2-3.2h0.1C77.5,61.7,77.5,63.1,77.5,64.6 M51.1,103.1
	c0-0.2,0.1-0.2,0.2-0.2c0.4,0,0.9,0,1.3,0c0.4,0,0.9,0,1.3,0c0.1,0,0.2,0.1,0.2,0.2c0,0.5,0,1,0,1.5c0,0.1-0.1,0.2-0.2,0.2
	c-0.9,0-1.7,0-2.6,0c-0.2,0-0.2-0.1-0.2-0.2C51.1,104.1,51.1,103.6,51.1,103.1 M49,102.4c0,0.2-0.1,0.1-0.3,0.1c-0.8,0-1.6,0-2.3,0
	c-0.8,0-1.5,0-2.3,0c-0.1,0-0.3,0.1-0.3-0.2c0-0.2,0.1-0.1,0.3-0.1c1.5,0,3.1,0,4.6,0C48.9,102.3,49.1,102.2,49,102.4 M50,104.6
	c0-0.2,0-0.5,0-0.7c0-0.1,0-0.3,0-0.5c0-0.6-0.1-0.5,0.5-0.5c0.2,0,0.2,0.1,0.2,0.2c0,0.4,0,0.8,0,1.2c0,0.5,0,0.5-0.6,0.5
	C50.1,104.8,50,104.7,50,104.6 M50,102.4c0-0.2,0.1-0.1,0.3-0.1s0.2,0,0.4,0s0.1,0.1,0.1,0.1c0,0.3-0.2,0.1-0.3,0.2
	c-0.1,0-0.1,0-0.2,0C50.2,102.6,50,102.6,50,102.4 M49.4,104.1c0-0.1,0-0.3,0-0.5s0-0.4,0-0.6c0-0.1,0-0.2,0.2-0.2
	c0.1,0,0.2,0,0.2,0.2c0,0.4,0,0.7,0,1c0,0.1-0.1,0.2-0.2,0.2C49.4,104.3,49.4,104.3,49.4,104.1 M49.4,102.4c0-0.1,0.1-0.2,0.2-0.2
	c0.1,0,0.2,0,0.2,0.1c0,0.2-0.1,0.2-0.2,0.2C49.5,102.6,49.4,102.6,49.4,102.4 M43.9,103.2c0-0.2,0.1-0.3,0.3-0.3c0.8,0,1.5,0,2.3,0
	s1.5,0,2.3,0c0.3,0,0.3,0.1,0.3,0.3c0,0.3,0,0.6,0,0.8c0,0.2,0,0.3-0.3,0.3c-0.2,0-0.3,0.1-0.3,0.3c0,0.2-0.1,0.2-0.2,0.2
	c-1.2,0-2.4,0-3.7,0c-0.2,0-0.3,0-0.3-0.2c0-0.2-0.1-0.3-0.3-0.3c-0.2,0-0.2-0.1-0.2-0.2C43.9,103.8,43.9,103.4,43.9,103.2
	 M38.2,102.4c0,0.2-0.1,0.1-0.3,0.1c-0.1,0-0.3,0.1-0.3-0.2c0-0.2,0.1-0.1,0.3-0.1C38,102.3,38.2,102.2,38.2,102.4 M43.5,102.4
	c0,0.2-0.1,0.1-0.3,0.1c-0.7,0-1.5,0-2.2,0c-0.8,0-1.6,0-2.3,0c-0.1,0-0.2,0-0.2-0.1c0-0.2,0.1-0.2,0.2-0.2c1.5,0,3,0,4.6,0
	C43.4,102.3,43.5,102.2,43.5,102.4 M38.5,103.1c0-0.2,0.1-0.3,0.3-0.3c0.7,0,1.5,0,2.2,0c0.8,0,1.5,0,2.3,0c0.2,0,0.3,0.1,0.3,0.3
	c0,0.3,0,0.6,0,1c0,0.1,0,0.2-0.2,0.2c-0.2,0-0.3,0.1-0.2,0.3c0,0.2,0,0.2-0.2,0.2c-1.2,0-2.4,0-3.7,0c-0.1,0-0.3,0-0.2-0.2
	c0-0.2-0.1-0.3-0.3-0.3c-0.2,0-0.2-0.1-0.2-0.2C38.5,103.8,38.5,103.4,38.5,103.1 M37.6,103.1c0-0.2,0.1-0.2,0.3-0.2
	c0.2,0,0.3,0,0.3,0.2c0,0.3,0,0.7,0,1c0,0.1-0.1,0.2-0.2,0.2c-0.1,0-0.2,0.1-0.2,0.2c0,0.1,0,0.1-0.1,0.3
	C37.6,104.2,37.6,103.7,37.6,103.1 M37.1,102.6c-0.3,0.1-0.9,0-1.1-0.4c0.4,0,0.7,0,1,0c0.1,0,0.2,0,0.2,0.1
	C37.2,102.4,37.2,102.5,37.1,102.6 M35.7,103.5c0.2,0,0.4,0,0.5,0c0.4,0,0.5-0.1,0.4-0.6c0.1,0,0.2,0,0.4,0c0.1,0,0.2,0,0.2,0.2
	c0,0.5,0,1,0,1.6c0,0.1,0,0.2-0.1,0.2c-0.2,0-0.4,0-0.6,0c0.3-0.2,0.1-0.4,0-0.5C36.2,104,36,103.8,35.7,103.5 M34.3,103.7
	c0-0.1,0.1-0.2,0.2-0.1c0.4,0.4,0.7,0.8,1.1,1.2c-0.4,0-0.8,0-1.2,0c-0.1,0-0.1,0-0.1-0.1C34.3,104.3,34.3,104,34.3,103.7
	 M34.2,99.6c0.7,0.8,1.4,1.5,2,2.3c-0.4,0.1-0.6,0-0.8-0.3c-0.3-0.4-0.6-0.7-0.9-1C34.2,100.4,34.2,100,34.2,99.6 M32.4,107.8
	c0.5,0,1,0,1.5,0c-0.2,0.2-0.3,0.5-0.6,0.6c-0.3,0.1-0.6,0-0.9,0c-0.2,0-0.2-0.1-0.1-0.3S32.2,107.8,32.4,107.8 M22.6,108.1
	c0,0.1,0.1,0.3-0.2,0.3c-0.6,0.1-1-0.1-1.4-0.6c0.5,0,0.9,0,1.4,0C22.7,107.7,22.6,107.9,22.6,108.1 M10.6,102.9
	c0-0.3,0.1-0.2,0.3-0.2c2.7,0,5.4,0,8.2,0c0.1,0,0.3,0,0.3,0.2c0,0.2-0.1,0.2-0.3,0.2c-1.4,0-2.7,0-4.1,0s-2.7,0-4.1,0
	C10.7,103.2,10.6,103.2,10.6,102.9 M19.3,102.1c0,0.2-0.2,0.1-0.3,0.1c-1.4,0-2.7,0-4.1,0s-2.7,0-4.1,0c-0.1,0-0.2,0.1-0.2-0.1
	c0-0.1,0-0.1,0-0.2c0.1-0.1,0.2-0.1,0.3-0.1c2.7,0,5.4,0,8.1,0C19.2,101.9,19.3,101.9,19.3,102.1 M19,101.5c-1.4,0-2.7,0-4,0
	c-1.4,0-2.8,0-4.1,0c-0.1,0-0.2,0.1-0.2-0.1c0-0.1,0-0.1,0-0.2c0.1-0.1,0.2-0.1,0.3-0.1c2.7,0,5.4,0,8.1,0c0.1,0,0.3-0.1,0.3,0.2
	C19.3,101.6,19.1,101.5,19,101.5 M10.6,100.5c0-0.2,0.1-0.2,0.3-0.2c2.7,0,5.5,0,8.2,0c0.1,0,0.3,0,0.3,0.2c0,0.2-0.1,0.2-0.3,0.2
	c-1.4,0-2.7,0-4.1,0s-2.7,0-4.1,0C10.7,100.7,10.6,100.7,10.6,100.5 M19.3,99.6c0,0.3-0.1,0.2-0.3,0.2c-2.7,0-5.4,0-8.1,0
	c-0.1,0-0.3,0.1-0.3-0.2c0-0.3,0.2-0.2,0.3-0.2c1.4,0,2.7,0,4,0s2.7,0,4,0C19.2,99.4,19.3,99.4,19.3,99.6 M32.6,102.9
	c0.3,0,0.4,0.1,0.4,0.3c0,0.4,0,0.4,0.4,0.4c0.6,0,0.6,0,0.6,0.6c0,0.2,0,0.3,0,0.5c0,0.1-0.1,0.1-0.2,0.1c-0.1,0-0.1-0.1-0.1-0.1
	c0-0.1,0-0.1,0-0.2c0-0.5-0.3-0.8-0.8-0.8c-0.2,0-0.3,0-0.5,0c-0.1,0-0.1,0-0.2-0.1C32,103.1,32.2,102.9,32.6,102.9 M32.9,102.5
	c-0.1,0.1-0.4,0-0.6,0.1c0,0,0,0-0.1,0c-0.1,0-0.1,0-0.1-0.1c0-0.4,0-0.9,0-1.4c0.2,0.3,0.4,0.4,0.6,0.6
	C32.9,101.8,33,102.4,32.9,102.5 M32.8,100.2c-0.2-0.2-0.4-0.4-0.6-0.6C32.9,99.6,32.9,99.6,32.8,100.2 M31.1,105.7
	c-0.2,0-0.2-0.1-0.2-0.3c0-0.6,0-1.1-0.1-1.7c0-0.1,0-0.1,0.1-0.2c0.2-0.2,0.4-0.5,0.6-0.8c0,0,0.1,0.1,0.1,0.1v2.3
	C31.6,105.7,31.6,105.7,31.1,105.7 M23.4,114.8c0-0.3,0.1-0.3,0.3-0.3c1.7,0,3.5,0,5.2,0c0.8,0,1.5,0,2.3,0c0.2,0,0.3,0,0.3,0.3
	c0,0.2,0,0.5,0,0.7c0,0.2-0.1,0.3-0.3,0.3c-1.3,0-2.5,0-3.8,0c-1,0-2,0-3.1,0c-0.3,0-0.7,0.1-0.9-0.1
	C23.3,115.5,23.4,115.1,23.4,114.8 M31.5,111.6c0,0.2-0.1,0.3-0.3,0.3c-1.2,0-2.5,0-3.8,0c-1.3,0-2.5,0-3.8,0
	c-0.2,0-0.3-0.1-0.3-0.3c0-0.4,0-0.7,0-1.1c0-0.2,0.1-0.3,0.3-0.3c2.5,0,5,0,7.6,0c0.2,0,0.3,0.1,0.3,0.3
	C31.5,110.8,31.5,111.2,31.5,111.6 M31.5,113.8c0,0.3-0.1,0.3-0.3,0.3c-1.2,0-2.5,0-3.8,0c-1.3,0-2.5,0-3.8,0
	c-0.2,0-0.3-0.1-0.3-0.3c0-0.4,0-0.9,0-1.3c0-0.2,0-0.2,0.2-0.2c2.5,0,5.1,0,7.6,0c0.2,0,0.2,0.1,0.2,0.3
	C31.5,113,31.5,113.4,31.5,113.8 M24.4,97c0,0.3-0.2,0.2-0.3,0.2c-0.1,0-0.3,0.1-0.3-0.2c0-0.4,0-0.9,0-1.3c0-0.4,0-0.9,0-1.3
	c0-0.3,0.2-0.2,0.3-0.2s0.3-0.1,0.3,0.2C24.4,95.3,24.4,96.2,24.4,97 M30.1,99.6c0,0.7,0,1.4,0,2.2c0,0.1-0.1,0.2-0.2,0.2
	c-0.6,0-1.3,0-1.9,0c-0.2,0-0.2-0.1-0.2-0.2c0-0.4,0-0.7,0-1.1c0-0.4,0-0.7,0-1.1c0-0.1,0-0.2,0.2-0.2c0.6,0,1.3,0,1.9,0
	C30.1,99.4,30.1,99.5,30.1,99.6 M31.2,108.4c0.2,0,0.3,0.1,0.3,0.3c0,0.3,0,0.6,0,0.9c0,0.2-0.1,0.3-0.3,0.3c-1.2,0-2.5,0-3.8,0
	c-1.3,0-2.5,0-3.8,0c-0.2,0-0.3-0.1-0.3-0.3c0-0.3,0-0.6,0-0.9c0-0.2,0.1-0.3,0.3-0.3c0.9,0,1.9,0,2.8,0
	C28.1,108.4,29.6,108.4,31.2,108.4 M30.7,99.5c0.3,0.3,0.5,0.6,0.8,0.9c0.1,0.1,0.1,0.1,0.1,0.2c0,0.6,0,1.2,0,1.9
	c-0.1-0.1-0.1-0.1-0.1-0.1c-0.1-0.2-0.2-0.4-0.3-0.6c-0.1-0.1-0.1-0.5-0.4-0.4c0,0,0,0,0-0.1C30.7,100.7,30.7,100.1,30.7,99.5
	 M30.9,97.5c0.1-0.4,0.1-0.9,0.2-1.4c0.5,0.5,0.8,1,1.3,1.4c0.4,0.4,0.4,0.8,0.4,1.2c0,0.1,0,0.1-0.1,0.1c-0.4,0-0.8,0.1-1.1-0.1
	C31.2,98.6,30.7,98.3,30.9,97.5 M32.7,88.4c0,0.7,0.1,1.4,0.1,2c0,0.2,0,0.3-0.3,0.3c-0.1,0-0.3-0.1-0.3,0.2c0,0.5,0,1,0,1.5
	c0,0.1,0,0.2,0.1,0.1c0.3,0,0.2,0.2,0.2,0.3c0.1,1.2,0.1,2.5,0.1,3.8c-0.5-0.5-0.9-1-1.3-1.5c-0.1-0.1-0.1-0.2-0.1-0.4
	c0.2-1.7,0.4-3.4,0.6-5C31.9,89.1,32.3,88.8,32.7,88.4 M35,39.9c-0.2,1.4-0.4,2.7-0.7,4c-0.1,0.6-0.1,0.6-0.7,0.5
	c-0.1,0-0.2,0-0.2,0.1c-0.1,0.4-0.1,0.9-0.2,1.3c0,0.1-0.1,0.2,0.1,0.2c0.4,0,0.2,0.2,0.2,0.4c0,0.1-0.1,0.3-0.1,0.4
	c-0.3,1.7-0.6,3.5-0.9,5.3c0-0.2-0.1-0.3-0.1-0.4c-0.1-0.8-0.2-1.5-0.2-2.3c-0.2-2.1-0.3-4.2-0.4-6.3c-0.1-1.3-0.1-2.5-0.2-3.8
	c0-0.2,0-0.3,0.3-0.3c0.9,0.1,1.9,0.2,2.8,0.3C34.9,39.5,35.1,39.7,35,39.9 M79.9,64.7c-0.2,0.3-0.4,0.3-0.7,0.1c0,0-0.1,0-0.1,0
	c-0.3,0-0.3-0.1-0.3-0.4c0-1.4,0-2.8,0-4.2c0-0.1,0-0.2,0.1-0.3c0.5,1.3,0.9,2.6,1.4,3.8C80.3,64.1,80.1,64.4,79.9,64.7"/>
<path fill="#81BDCB" d="M48.9,91.7C48.9,91.7,48.9,91.6,48.9,91.7C48.9,91.6,48.9,91.6,48.9,91.7c0.1-0.2,0.3-0.1,0.4-0.1
	c0.2,0,0.5,0,0.7,0c0.1,0,0.2,0,0.2-0.1c0.1-0.1,0-0.2-0.1-0.3c-0.2-0.3-0.5-0.4-0.8-0.4c-1.4,0-2.8,0-4.2,0c-2.5,0-5,0-7.6,0
	c-0.4,0-0.5,0-0.5,0.5c0,2.4,0,4.7,0,7.1c0,0.1,0,0.2,0,0.3c0,0,0,0.1,0,0.1c0,0.1,0.1,0.2,0.3,0.2c4.5,0,9,0,13.6,0
	c0.2,0,0.3-0.1,0.3-0.1c0-0.1,0-0.1,0-0.2c0-0.3,0-0.7,0-1c0-0.6,0-1.1,0-1.7c-0.1-0.6-0.2-1.2-0.5-1.8c-0.4-0.9-1-1.6-1.7-2.1
	C49,91.9,48.9,91.8,48.9,91.7 M41.6,91.8c0,1.6,0,3.2,0,4.8c0,0.8-0.6,1.4-1.3,1.6c-0.4,0.1-0.7,0-1.1,0.1c-0.2,0-0.3-0.1-0.3-0.3
	c0-1,0-2,0-3.1c0-1,0-2.1,0-3.1c0-0.2,0.1-0.3,0.3-0.3c0.7,0,1.4,0,2.2,0C41.6,91.5,41.6,91.5,41.6,91.8 M48.3,97.5
	c0,0.2-0.1,0.2-0.2,0.2c-1.3,0-2.6,0-3.9,0c-0.2,0-0.3-0.1-0.3-0.3c0-0.9,0-1.8,0-2.7c0-0.9,0-1.9,0-2.8c0-0.2,0.1-0.3,0.3-0.3
	c0.3,0,0.7,0,1,0c1.6,0,2.9,1.2,3,2.8C48.4,95.5,48.3,96.5,48.3,97.5"/>
<path fill="#81BDCB" d="M39.1,114.3c0,2.7,2.2,4.9,4.9,4.9c2.7,0,4.9-2.2,4.9-4.9c0-2.7-2.2-4.9-4.9-4.9
	C41.3,109.4,39.1,111.6,39.1,114.3 M42.9,112.4c-0.1,0-0.2,0-0.3-0.1c-0.3-0.3-0.5-0.5-0.8-0.8c-0.1-0.1-0.1-0.2,0-0.2
	c0.3-0.2,0.6-0.4,0.9-0.4c0.7-0.2,0.7-0.2,0.7,0.5v0.1c0,0,0,0.1,0,0.1C43.6,112,43.4,112.3,42.9,112.4 M46.2,111.5
	c-0.3,0.3-0.6,0.6-0.8,0.8c-0.1,0.1-0.1,0.1-0.2,0.1c-0.6-0.2-0.6-0.2-0.6-0.9c0,0,0-0.1,0-0.1c0-0.2,0-0.4,0-0.6
	c0-0.1,0-0.2,0.2-0.1c0.5,0.1,1,0.3,1.4,0.6C46.2,111.4,46.3,111.5,46.2,111.5 M47.2,113.9c-0.1,0-0.2,0-0.3,0c-0.7,0-0.7,0-0.9-0.5
	c-0.1-0.1-0.1-0.2,0.1-0.3c0.3-0.3,0.5-0.5,0.8-0.8c0.1-0.1,0.2-0.1,0.2,0c0.2,0.3,0.4,0.7,0.5,1.1C47.7,114,47.7,113.9,47.2,113.9
	 M46.8,116.5c-0.3-0.3-0.6-0.6-0.9-0.9c-0.1-0.1-0.1-0.1,0-0.2c0.2-0.5,0.2-0.5,0.8-0.5c0.1,0,0.1,0,0.1,0c0.2,0,0.4,0,0.6,0
	c0.1,0,0.2,0,0.1,0.2c-0.1,0.5-0.3,0.9-0.6,1.4C47,116.5,46.9,116.6,46.8,116.5 M44.5,117.8c0-0.4,0-0.8,0-1.2
	c0-0.3,0.3-0.2,0.4-0.3c0.1-0.1,0.2-0.1,0.3,0c0.3,0.3,0.6,0.6,0.9,0.9c-0.5,0.4-1,0.6-1.5,0.7C44.6,118,44.5,117.9,44.5,117.8
	 M44,115.4c-0.6,0-1.1-0.5-1.1-1.1s0.5-1.1,1.1-1.1c0.6,0,1.1,0.5,1.1,1.1C45.1,115,44.6,115.4,44,115.4 M42,117.1
	c0.3-0.3,0.5-0.5,0.8-0.8c0.1-0.1,0.1-0.1,0.2-0.1c0.5,0.1,0.5,0.2,0.5,0.6v0.3c0,0.2,0,0.4,0,0.5c0,0.2-0.1,0.2-0.2,0.2
	c-0.4-0.1-0.9-0.3-1.3-0.5C41.8,117.3,41.9,117.3,42,117.1 M40.6,114.9c0.3,0,0.6,0,0.9,0c0.1,0,0.3-0.1,0.4,0
	c0.1,0.2,0.2,0.4,0.3,0.6c0,0.1-0.1,0.1-0.1,0.1c-0.3,0.3-0.6,0.6-0.9,0.9c-0.3-0.4-0.6-1-0.7-1.4C40.4,115,40.4,114.9,40.6,114.9
	 M40.4,113.7c0.1-0.6,0.3-1.1,0.7-1.6c0.2,0.2,0.4,0.4,0.6,0.6c0.4,0.4,0.4,0.4,0.2,0.9c0,0.1-0.1,0.1-0.2,0.1c-0.4,0-0.8,0-1.2,0
	C40.4,113.9,40.4,113.9,40.4,113.7"/>
<path fill="#81BDCB" d="M5.7,114.2c0,2.8,2.2,5,4.9,5s4.9-2.2,4.9-4.9c0-2.7-2.2-4.9-4.9-4.9C7.9,109.4,5.7,111.6,5.7,114.2
	 M10.1,111.5c0,0.6,0,0.6-0.6,0.9c-0.1,0-0.1,0.1-0.2,0c-0.3-0.3-0.6-0.6-0.9-0.9c-0.1-0.1-0.1-0.1,0-0.2c0.4-0.3,1-0.5,1.5-0.6
	c0.1,0,0.1,0.1,0.1,0.1C10.1,111.1,10.1,111.3,10.1,111.5 M12.7,111.5c-0.3,0.3-0.6,0.5-0.8,0.8c-0.1,0.1-0.1,0.1-0.3,0
	c-0.4-0.1-0.6-0.4-0.5-0.9c0,0,0-0.1,0-0.1c0-0.2,0-0.4,0-0.6c0-0.1,0.1-0.2,0.2-0.1c0.5,0.1,1,0.3,1.4,0.6
	C12.8,111.4,12.8,111.4,12.7,111.5 M13.7,113.9h-0.2c-0.1,0-0.3,0-0.4,0c-0.2,0-0.4-0.1-0.4-0.3c0-0.1,0-0.1-0.1-0.2
	c-0.1-0.1-0.1-0.2,0.1-0.3c0.3-0.3,0.5-0.5,0.8-0.8c0.1-0.1,0.2-0.1,0.3,0c0.2,0.3,0.3,0.6,0.4,0.9
	C14.3,113.9,14.3,113.9,13.7,113.9 M12.5,115.6c-0.1-0.1-0.1-0.1-0.1-0.2c0.1-0.4,0.2-0.6,0.7-0.6c0.1,0,0.2,0,0.2,0
	c0.2,0,0.4,0,0.6,0c0.2,0,0.2,0.1,0.2,0.2c-0.1,0.5-0.3,0.9-0.6,1.3c-0.1,0.1-0.1,0.1-0.2,0C13.1,116.2,12.8,115.9,12.5,115.6
	 M11.1,116.6c0-0.3,0.3-0.2,0.4-0.3c0.1-0.1,0.2-0.1,0.3,0c0.3,0.3,0.6,0.6,0.9,0.9c-0.5,0.4-0.9,0.6-1.5,0.6c-0.1,0-0.2,0-0.2-0.1
	C11.1,117.4,11.1,117,11.1,116.6 M9.5,114.3c0-0.6,0.5-1.1,1.1-1.1c0.6,0,1.1,0.5,1.1,1.1c0,0.6-0.5,1.1-1.1,1.1
	C10,115.4,9.5,114.9,9.5,114.3 M8.5,117.2c0.3-0.3,0.6-0.6,0.8-0.8c0.1-0.1,0.1-0.1,0.2-0.1c0.5,0.1,0.5,0.1,0.5,0.7
	c0,0.1,0,0.2,0,0.2c0,0.2,0,0.4,0,0.6c0,0.1,0,0.2-0.2,0.1c-0.5-0.1-0.9-0.3-1.4-0.6C8.4,117.3,8.4,117.3,8.5,117.2 M7.2,114.9
	c0.1,0,0.3,0,0.5,0c0.1,0,0.2,0,0.3,0c0.3-0.1,0.5,0,0.6,0.4c0.1,0.2,0.1,0.3-0.1,0.5c-0.2,0.2-0.5,0.4-0.7,0.7
	c-0.1,0.1-0.2,0.1-0.3,0c-0.2-0.4-0.4-0.8-0.5-1.2C6.9,115,6.9,114.9,7.2,114.9 M6.9,113.7c0.1-0.5,0.3-0.9,0.6-1.4
	c0.1-0.1,0.1-0.2,0.2,0c0.3,0.3,0.6,0.6,0.8,0.8c0.1,0.1,0.1,0.1,0.1,0.2c-0.1,0.6-0.2,0.6-0.8,0.6c-0.1,0-0.1,0-0.2,0
	c-0.2,0-0.4,0-0.6,0C7,113.9,6.9,113.9,6.9,113.7"/>
</svg>
