<?xml version="1.0" encoding="utf-8"?>
<!-- Generator: Adobe Illustrator 18.1.1, SVG Export Plug-In . SVG Version: 6.00 Build 0)  -->
<svg version="1.1" id="Layer_7" xmlns="http://www.w3.org/2000/svg" xmlns:xlink="http://www.w3.org/1999/xlink" x="0px" y="0px"
	 viewBox="0 0 190.2 45.3" enable-background="new 0 0 190.2 45.3" xml:space="preserve">
<metadata><?xpacket begin="﻿" id="W5M0MpCehiHzreSzNTczkc9d"?>
<x:xmpmeta xmlns:x="adobe:ns:meta/" x:xmptk="Adobe XMP Core 5.6-c014 79.156821, 2014/08/29-03:07:50        ">
   <rdf:RDF xmlns:rdf="http://www.w3.org/1999/02/22-rdf-syntax-ns#">
      <rdf:Description rdf:about=""
            xmlns:xmpMM="http://ns.adobe.com/xap/1.0/mm/"
            xmlns:stRef="http://ns.adobe.com/xap/1.0/sType/ResourceRef#"
            xmlns:stEvt="http://ns.adobe.com/xap/1.0/sType/ResourceEvent#"
            xmlns:xmp="http://ns.adobe.com/xap/1.0/"
            xmlns:xmpGImg="http://ns.adobe.com/xap/1.0/g/img/"
            xmlns:pdf="http://ns.adobe.com/pdf/1.3/"
            xmlns:dc="http://purl.org/dc/elements/1.1/"
            xmlns:xmpTPg="http://ns.adobe.com/xap/1.0/t/pg/"
            xmlns:stDim="http://ns.adobe.com/xap/1.0/sType/Dimensions#"
            xmlns:xmpG="http://ns.adobe.com/xap/1.0/g/">
         <xmpMM:RenditionClass>proof:pdf</xmpMM:RenditionClass>
         <xmpMM:DocumentID>xmp.did:cf009519-7e98-6940-b2e7-f93364349e99</xmpMM:DocumentID>
         <xmpMM:InstanceID>xmp.iid:cf009519-7e98-6940-b2e7-f93364349e99</xmpMM:InstanceID>
         <xmpMM:OriginalDocumentID>uuid:7dae60da-b165-4183-9268-40e849f2ef56</xmpMM:OriginalDocumentID>
         <xmpMM:DerivedFrom rdf:parseType="Resource">
            <stRef:instanceID>uuid:daf175f6-b710-4a94-9281-5e8d1678ba72</stRef:instanceID>
            <stRef:documentID>uuid:7dae60da-b165-4183-9268-40e849f2ef56</stRef:documentID>
            <stRef:originalDocumentID>uuid:7dae60da-b165-4183-9268-40e849f2ef56</stRef:originalDocumentID>
            <stRef:renditionClass>proof:pdf</stRef:renditionClass>
         </xmpMM:DerivedFrom>
         <xmpMM:History>
            <rdf:Seq>
               <rdf:li rdf:parseType="Resource">
                  <stEvt:action>saved</stEvt:action>
                  <stEvt:instanceID>xmp.iid:cf009519-7e98-6940-b2e7-f93364349e99</stEvt:instanceID>
                  <stEvt:when>2015-03-27T00:30:47-05:00</stEvt:when>
                  <stEvt:softwareAgent>Adobe Illustrator CC 2014 (Windows)</stEvt:softwareAgent>
                  <stEvt:changed>/</stEvt:changed>
               </rdf:li>
            </rdf:Seq>
         </xmpMM:History>
         <xmp:CreateDate>2015-03-27T00:30:47-05:00</xmp:CreateDate>
         <xmp:CreatorTool>Adobe Illustrator CC 2014 (Windows)</xmp:CreatorTool>
         <xmp:ModifyDate>2015-03-27T00:30:47-05:00</xmp:ModifyDate>
         <xmp:MetadataDate>2015-03-27T00:30:47-05:00</xmp:MetadataDate>
         <xmp:Thumbnails>
            <rdf:Alt>
               <rdf:li rdf:parseType="Resource">
                  <xmpGImg:width>256</xmpGImg:width>
                  <xmpGImg:height>64</xmpGImg:height>
                  <xmpGImg:format>JPEG</xmpGImg:format>
                  <xmpGImg:image>/9j/4AAQSkZJRgABAgEASABIAAD/7QAsUGhvdG9zaG9wIDMuMAA4QklNA+0AAAAAABAASAAAAAEA&#xA;AQBIAAAAAQAB/+4ADkFkb2JlAGTAAAAAAf/bAIQABgQEBAUEBgUFBgkGBQYJCwgGBggLDAoKCwoK&#xA;DBAMDAwMDAwQDA4PEA8ODBMTFBQTExwbGxscHx8fHx8fHx8fHwEHBwcNDA0YEBAYGhURFRofHx8f&#xA;Hx8fHx8fHx8fHx8fHx8fHx8fHx8fHx8fHx8fHx8fHx8fHx8fHx8fHx8fHx8f/8AAEQgAQAEAAwER&#xA;AAIRAQMRAf/EAaIAAAAHAQEBAQEAAAAAAAAAAAQFAwIGAQAHCAkKCwEAAgIDAQEBAQEAAAAAAAAA&#xA;AQACAwQFBgcICQoLEAACAQMDAgQCBgcDBAIGAnMBAgMRBAAFIRIxQVEGE2EicYEUMpGhBxWxQiPB&#xA;UtHhMxZi8CRygvElQzRTkqKyY3PCNUQnk6OzNhdUZHTD0uIIJoMJChgZhJRFRqS0VtNVKBry4/PE&#xA;1OT0ZXWFlaW1xdXl9WZ2hpamtsbW5vY3R1dnd4eXp7fH1+f3OEhYaHiImKi4yNjo+Ck5SVlpeYmZ&#xA;qbnJ2en5KjpKWmp6ipqqusra6voRAAICAQIDBQUEBQYECAMDbQEAAhEDBCESMUEFURNhIgZxgZEy&#xA;obHwFMHR4SNCFVJicvEzJDRDghaSUyWiY7LCB3PSNeJEgxdUkwgJChgZJjZFGidkdFU38qOzwygp&#xA;0+PzhJSktMTU5PRldYWVpbXF1eX1RlZmdoaWprbG1ub2R1dnd4eXp7fH1+f3OEhYaHiImKi4yNjo&#xA;+DlJWWl5iZmpucnZ6fkqOkpaanqKmqq6ytrq+v/aAAwDAQACEQMRAD8A9U4q7FXYq7FXYq7FXYq7&#xA;FXYq7FXYq7FXYq7FXYq7FXYq7FXYq7FXYqh9Q1C00+zlvLyQRW8I5SOfuAHiSdgMhkmICzybMOGW&#xA;SQjEXIvM9T/NbWry5MGhWYSOvwMyGWZvfiPhHyoc02TtKcjUB+t6rB2BihG80t/kEmm/MDzfFqFt&#xA;JfN+9tJOfovEIiysKMjAAGjKf45QdblEgZdHNj2RpjAiHKQ53f4p7JpmoQ6jp8F7CGWOdA4VxxYe&#xA;IIPgc6DFkE4iQ6vE58JxzMDzCJybU7FXYq7FXYq7FXYq7FXYq7FXYq7FXYq7FXYq7FXYq7FXYq7F&#xA;XYq7FXYq7FXYq7FXYq7FWDecbK78x+ZbPy7FIY7C2j+t6hIv+USqj/Wp9n5+2azVRObKMY5Dcu/7&#xA;NyR02CWci5yPDH8fjky3StH03SrVbawt1giUb8R8THxZurH55n4sUYCoinT6jU5M0uKZstLomkK8&#xA;si2kayzEmWYLSVi3UmT7dfpweBDuU6rIaHEaHTp8uTHZNbvfLWtwafqkzXOj35Isr2Q1khau8crf&#xA;tAVHxHfMQ5pYZiMjcJcj3e92cdLDVYjPGOHLD6ojkfMd3uZfmwdK7FXYq7FXYq7FXYq7FXYq7FXY&#xA;q7FXYq7FXYq7FXYq7FXYq7FXYq7FXYq7FXYq7FXYqhNX1ODS9MudQn/u7aMuR05H9lR7s1BleXII&#xA;RMj0btPgOXIIDnIsZ8h+YLPW7m9vjwi1OaOFbm3HUCLkOSV6oeQ77Hr2rhaLOMhMv4jX2O17W0cs&#xA;EYw5wBNH31z82Y5sXSOxVhH5upEfLETtTml0npnvUo9R92a3tQfux73fezpP5gj+ifvDIPKF9Jfe&#xA;WdNuZDykaFVdu5ZPgJPz45laSfFiifJ13aOIY9ROI5X9+6b5kOE7FXYq7FXYq7FXYq7FXYq7FXYq&#xA;7FXYq7FXYq7FXYq7FXYq7FXYq7FXYq7FXYq7FUs8waDba3YGyuZHSE1aiGlWAIQt4hSeVPHKM+AZ&#xA;I0XK0erlgnxxAt5F5buYvK3msw61AVEL8HlHINGf2ZF40LIQdx3BzQ4JDDl9Y5PZ62B1envEef2+&#xA;Xv8AuL2y2ube5gSe3kWaGQVSRCGUj2Izo4yEhY5PCThKJqQohUJABJNANyTkmLxPzh5svPMlzDps&#xA;EfKOK5lFvw6yl3KxbDwTb6c5zVamWY8I7z+x7vs7s+OmiZk7mIvy23+167oOm/ozRrOwrVreJUcj&#xA;oXpViPm1c32DHwQEe54zV5/Fyyn3lH5a47sVdirsVdirsVdirsVdirsVdirsVdirsVdirsVdirsV&#xA;dirsVdirsVdirsVdirsVdiqS+Y/KOja/GBexlZ0FI7mMhZFHhWhBHscxtRpYZefPvc7Rdo5dOfQd&#xA;u48mL2n5Za3psrHS/MEltExqVCMtf9YB+JzCj2dOB9M6dtk7cxZR+8xCR9/7E/tfJ8npONT1W61G&#xA;cqVjaRuMUbEUEixAleSncFq5lR0m3qkZfjuddPtIX+7hGA+0+V93uQOlflfomm3cV5DdXf1qE8kf&#xA;nGAD8gnhlePs6ESCCbDkajt3LliYmMeE+/8AWzHNg6R2KuxV2KuxV2KuxV2KuxV2KuxV2KuxV2Ku&#xA;xV2KuxV2KuxV2KuxV2KuxV2KuxV2KuxV2KuxV2KuxV2KuxV2KuxV2KuxV2KuxV2KuxV2KuxV2Kux&#xA;V2KuxV2KuxV2KuxV2KuxV2KuxV2KuxV2KuxV2KuxV2KuxV2KuxV2KuxV2KuxV2KuxV2KuxV2KuxV&#xA;2KuxV2KuxV2KuxV2KuxV2KuxV2KuxV2KuxV2KuxV2KuxV2KuxV2KuxV2KuxV2KuxV2KuxV//2Q==</xmpGImg:image>
               </rdf:li>
            </rdf:Alt>
         </xmp:Thumbnails>
         <pdf:Producer>Adobe PDF library 11.00</pdf:Producer>
         <dc:format>image/svg+xml</dc:format>
         <xmpTPg:NPages>1</xmpTPg:NPages>
         <xmpTPg:HasVisibleTransparency>False</xmpTPg:HasVisibleTransparency>
         <xmpTPg:HasVisibleOverprint>False</xmpTPg:HasVisibleOverprint>
         <xmpTPg:MaxPageSize rdf:parseType="Resource">
            <stDim:w>190.203095</stDim:w>
            <stDim:h>45.259299</stDim:h>
            <stDim:unit>Pixels</stDim:unit>
         </xmpTPg:MaxPageSize>
         <xmpTPg:PlateNames>
            <rdf:Seq>
               <rdf:li>Magenta</rdf:li>
               <rdf:li>Yellow</rdf:li>
            </rdf:Seq>
         </xmpTPg:PlateNames>
         <xmpTPg:SwatchGroups>
            <rdf:Seq>
               <rdf:li rdf:parseType="Resource">
                  <xmpG:groupName>Default Swatch Group</xmpG:groupName>
                  <xmpG:groupType>0</xmpG:groupType>
               </rdf:li>
            </rdf:Seq>
         </xmpTPg:SwatchGroups>
      </rdf:Description>
   </rdf:RDF>
</x:xmpmeta>
                                                                                                    
                                                                                                    
                                                                                                    
                                                                                                    
                                                                                                    
                                                                                                    
                                                                                                    
                                                                                                    
                                                                                                    
                                                                                                    
                                                                                                    
                                                                                                    
                                                                                                    
                                                                                                    
                                                                                                    
                                                                                                    
                                                                                                    
                                                                                                    
                                                                                                    
                                                                                                    
                           
<?xpacket end="w"?>
	</metadata>
<g>
	<path fill="#FFFFFF" d="M0,22.9h9.5c5.6,0,8.6-2.6,8.6-6.4c0-2.8-1.7-4.5-4.5-5.3c2.3-0.8,3.9-2.5,3.9-5.1c0-3.4-2.7-6-8.3-6H0v3.5
		h2.6v15.8H0V22.9L0,22.9z M6.5,19.4v-6.6h3c3,0,4.6,1.2,4.6,3.3c0,2.2-1.8,3.3-4.5,3.3H6.5L6.5,19.4z M6.5,9.7V3.4h2.6
		c2.8,0,4.4,1.1,4.4,3c0,2-1.5,3.2-4.3,3.2H6.5L6.5,9.7z M19.5,22.8h8.8v-3.5h-2.8l1.3-3.8h8.5l1.3,3.8H34v3.5h8.8v-3.5h-2L35.1,3.5
		h2.5V0H24.7v3.5h2.5l-5.7,15.9h-2V22.8L19.5,22.8z M27.9,12.4l3.2-9l3.2,9H27.9L27.9,12.4z M44.5,22.8h16.6v-6.7h-3.8v3.2H51V3.5h3
		V0h-9.5v3.5h2.6v15.8h-2.6V22.8L44.5,22.8z M66.1,22.8h9.6v-3.5h-2.8V3.4h4.2V7h3.7V0H61v7h3.7V3.4h4.2v15.9h-2.8V22.8L66.1,22.8z
		 M82.9,22.8h9.5v-3.5h-2.8V3.5h2.8V0h-9.5v3.5h2.8v15.8h-2.8V22.8L82.9,22.8z M94.8,22.8h9.3v-3.5h-2.7l0.5-11.8l6.5,11.5h0.5
		l6.5-11.5l0.5,11.8h-2.7v3.5h9.4v-3.5h-2.7L119,3.5h2.8V0h-6.2l-7,12.7l-7-12.7h-6.3v3.5h2.8l-0.7,15.8h-2.7V22.8L94.8,22.8z
		 M151.6,22.8h9.4v-3.5h-2.8v-5.1c0.5,0,1.1,0,1.9,0c0.5,0,0.9,0,1.4-0.1l4.6,8.7h5.3v-3.5h-2.6l-3.5-6.2c2.5-1,4.3-3.3,4.3-6.2
		c0-4.7-3.8-6.9-9-6.9h-8.9v3.5h2.6v15.8h-2.6V22.8L151.6,22.8z M160.3,10.9c-1.3,0-1.8,0-2.2-0.1V3.5h2.1c3.2,0,5.1,1.1,5.1,3.5
		C165.4,9.4,163.3,10.9,160.3,10.9L160.3,10.9z M173.1,22.8h17.1v-6.5h-3.8v3.1h-6.8v-6.5h6.9V9.6h-6.9V3.5h6.8v3.1h3.8V0h-17v3.5
		h2.6v15.8h-2.6V22.8L173.1,22.8z"/>
	<path fill-rule="evenodd" clip-rule="evenodd" fill="#F26241" d="M144.1,3.3L137.2,5l1.7-1.7c-1.8-0.3-3.7,0-5.3,0.7
		c-2.4,1-4.5,2.9-5.6,5.5l0,0l0,0l0,0l0,0c-0.3,0.8-0.6,1.7-0.7,2.6c0,0.2,0,0.3,0,0.4c0,0.3,0,0.6,0,1C125,7.2,130.8-2,140.3,0
		l-0.1-2L144.1,3.3L144.1,3.3z M125.1,12.1l4.8,5.1l-2.3-0.6c0.7,1.7,1.8,3.2,3.3,4.3c2.1,1.6,4.8,2.4,7.6,2.1l0,0l0,0h0l0,0
		c0.9-0.1,1.7-0.3,2.6-0.7c0.1-0.1,0.3-0.1,0.4-0.2c0.3-0.1,0.6-0.3,0.9-0.4c-4.3,5.1-15.2,4.6-18.2-4.6l-1.7,1.1L125.1,12.1
		L125.1,12.1z M142,24.2l2-6.7l0.6,2.3c1.1-1.5,1.8-3.2,2.1-5c0.3-2.6-0.3-5.3-2-7.6l0,0l0,0l0,0l0,0c-0.5-0.7-1.2-1.3-1.9-1.9
		c-0.1-0.1-0.2-0.2-0.4-0.3c-0.3-0.2-0.5-0.4-0.8-0.5c6.6,1.2,11.6,10.9,5.2,18.1l1.8,0.9L142,24.2L142,24.2z"/>
	<path fill="#FFFFFF" d="M37.8,45.3c2.8,0,4.9-1.5,4.9-4.1c0-2.6-1.9-3.4-4.3-4.3c-1.4-0.5-2.5-1-2.5-2.1c0-1,0.8-1.7,2.2-1.7
		c0.9,0,1.4,0.2,1.8,0.4c-0.1,0.2-0.1,0.3-0.1,0.6c0,0.7,0.5,1.4,1.5,1.4c0.8,0,1.4-0.6,1.4-1.5c0-1.7-2-3-4.6-3
		c-2.8,0-4.6,1.7-4.6,3.9c0,2.6,1.8,3.4,4.3,4.3c1.4,0.5,2.5,1,2.5,2.2c0,1.2-1,1.9-2.5,1.9c-0.9,0-1.7-0.2-2.2-0.6
		c0.1-0.3,0.2-0.5,0.2-0.8c0-0.7-0.6-1.4-1.5-1.4c-0.9,0-1.4,0.6-1.4,1.6C32.8,43.7,35,45.3,37.8,45.3L37.8,45.3z M51.9,45.3
		c2.2,0,4.2-0.9,5.5-2.4l-1.6-1.6c-1,1.1-2.3,1.8-4,1.8c-2.9,0-4.8-2.2-4.8-5c0-2.9,2-4.9,4.7-4.9c1.3,0,2.1,0.3,2.4,0.6
		c-0.1,0.2-0.1,0.4-0.1,0.7c0,0.9,0.6,1.5,1.6,1.5c0.9,0,1.5-0.7,1.5-1.7c0-1.7-2.1-3.3-5.3-3.3c-4,0-7.2,3-7.2,7.1
		C44.6,42.4,47.6,45.3,51.9,45.3L51.9,45.3z M59.1,45h5.6v-2.1H63v-3.1c0.3,0,0.7,0,1.1,0c0.3,0,0.5,0,0.8,0l2.8,5.2h3.2v-2.1h-1.6
		l-2.1-3.7c1.5-0.6,2.6-2,2.6-3.7c0-2.8-2.3-4.2-5.4-4.2h-5.3v2.1h1.6v9.5h-1.6V45L59.1,45z M64.3,37.8c-0.8,0-1.1,0-1.3,0v-4.4h1.3
		c1.9,0,3.1,0.7,3.1,2.1C67.4,36.9,66.1,37.8,64.3,37.8L64.3,37.8z M71.5,45h5.3v-2.1h-1.7l0.8-2.3h5.1l0.8,2.3h-1.6V45h5.3v-2.1
		h-1.2l-3.4-9.6h1.5v-2.1h-7.8v2.1h1.5l-3.4,9.6h-1.2V45L71.5,45z M76.6,38.7l1.9-5.4l1.9,5.4H76.6L76.6,38.7z M86.6,45h5.6v-2.1
		h-1.7v-2.5c0.3,0,0.7,0,1.3,0c3.2,0,5.5-1.5,5.5-4.7c0-2.8-2.3-4.5-5.2-4.5h-5.5v2.1h1.6v9.5h-1.6V45L86.6,45z M92.1,38.4
		c-1,0-1.3,0-1.5,0v-5H92c1.7,0,2.9,0.9,2.9,2.4C94.9,37.4,93.8,38.4,92.1,38.4L92.1,38.4z M110.8,45.3c2.2,0,4.2-0.9,5.5-2.4
		l-1.6-1.6c-1,1.1-2.3,1.8-4,1.8c-2.9,0-4.8-2.2-4.8-5c0-2.9,2-4.9,4.7-4.9c1.3,0,2,0.3,2.4,0.6c-0.1,0.2-0.1,0.4-0.1,0.7
		c0,0.9,0.6,1.5,1.6,1.5c0.9,0,1.5-0.7,1.5-1.7c0-1.7-2.1-3.3-5.3-3.3c-4,0-7.2,3-7.2,7.1C103.5,42.4,106.6,45.3,110.8,45.3
		L110.8,45.3z M124.8,45.3c4.2,0,7.1-3.1,7.1-7.1c0-4-2.8-7.1-7-7.1c-4.2,0-7.1,3.1-7.1,7.1C117.8,42.1,120.6,45.3,124.8,45.3
		L124.8,45.3z M124.9,43.1c-2.7,0-4.6-2.1-4.6-4.9c0-2.9,1.9-4.9,4.6-4.9c2.7,0,4.6,2.1,4.6,4.9C129.5,41,127.5,43.1,124.9,43.1
		L124.9,43.1z M133.6,45h5.6v-2.1h-1.7v-3.1c0.3,0,0.7,0,1.1,0c0.3,0,0.5,0,0.8,0l2.8,5.2h3.2v-2.1h-1.6l-2.1-3.7
		c1.5-0.6,2.6-2,2.6-3.7c0-2.8-2.3-4.2-5.4-4.2h-5.3v2.1h1.6v9.5h-1.6V45L133.6,45z M138.9,37.8c-0.8,0-1.1,0-1.3,0v-4.4h1.3
		c1.9,0,3.1,0.7,3.1,2.1C141.9,36.9,140.7,37.8,138.9,37.8L138.9,37.8z M146.6,45h5.6v-2.1h-1.7v-2.5c0.3,0,0.7,0,1.3,0
		c3.2,0,5.5-1.5,5.5-4.7c0-2.8-2.3-4.5-5.2-4.5h-5.5v2.1h1.6v9.5h-1.6V45L146.6,45z M152.1,38.4c-1,0-1.3,0-1.5,0v-5h1.5
		c1.7,0,2.9,0.9,2.9,2.4C154.9,37.4,153.9,38.4,152.1,38.4L152.1,38.4z"/>
	<polygon fill-rule="evenodd" clip-rule="evenodd" fill="#FFFFFF" points="163.2,37.4 180.1,37.4 180.1,38.9 163.2,38.9 163.2,37.4 
			"/>
	<polygon fill-rule="evenodd" clip-rule="evenodd" fill="#FFFFFF" points="10.1,37.4 27,37.4 27,38.9 10.1,38.9 10.1,37.4 	"/>
</g>
</svg>
